<svg width="144" height="44" viewBox="0 0 144 44" fill="none" xmlns="http://www.w3.org/2000/svg">
<path d="M25.1629 25.1711C23.487 27.0646 20.6263 27.2088 18.7753 25.4954C16.9243 23.7812 16.7821 20.8542 18.4555 18.9615C20.1313 17.0697 22.9906 16.9263 24.8439 18.6404C26.6957 20.353 26.8379 23.2776 25.1629 25.1711Z" fill="white"/>
<path d="M11.3325 22.2273C11.3325 22.2273 13.8527 20.9202 15.3108 15.1054C16.7697 9.29215 22.2078 6.58788 22.2078 6.58788C22.2078 6.58788 10.5364 -5.2211 1.69531 13.3036C1.69531 13.3036 8.90155 14.745 11.3325 22.2273Z" fill="white"/>
<path d="M12.3916 2.03679C12.3916 2.03679 21.3878 0.233357 26.7141 11.7255C26.7141 11.7255 32.9258 13.777 38.3855 7.89424C38.3855 7.89424 29.2568 -4.83783 12.3916 2.03679Z" fill="white"/>
<path d="M27.0681 30.9349C27.0681 30.9349 24.6974 29.3641 19.0296 30.9841C13.3626 32.6057 8.34483 29.1577 8.34483 29.1577C8.34483 29.1577 4.15444 45.3679 24.3101 43.9069C24.3101 43.9069 21.9298 36.8235 27.0681 30.9349Z" fill="white"/>
<path d="M9.38896 40.0991C9.38896 40.0991 3.35802 33.0583 10.4525 22.6072C10.4525 22.6072 9.08848 16.0979 1.36084 14.2207C1.36084 14.2207 -4.88617 28.648 9.38896 40.0991Z" fill="white"/>
<path d="M26.6217 12.7565C26.6217 12.7565 26.4739 15.636 30.6844 19.8292C34.8956 24.0217 34.4779 30.1747 34.4779 30.1747C34.4779 30.1747 50.3412 25.767 39.0193 8.7041C39.0193 8.70327 34.1942 14.3486 26.6217 12.7565Z" fill="white"/>
<path d="M43.2493 23.7832C43.2493 23.7832 40.2865 32.6283 27.86 31.5914C27.86 31.5914 23.0149 36.0516 25.2852 43.8132C25.2844 43.814 40.6641 42.1122 43.2493 23.7832Z" fill="white"/>
<path d="M50.4012 4.06348H49.9521V39.8206H50.4012V4.06348Z" fill="white"/>
<path d="M60.1236 13.1127C59.9345 12.8031 59.7749 12.5353 59.6441 12.3109C59.514 12.0865 59.4051 11.903 59.3181 11.7605C59.2312 11.618 59.1487 11.5075 59.0716 11.428C58.9937 11.3486 58.9097 11.2937 58.8197 11.2617C58.7297 11.2298 58.6201 11.2143 58.49 11.2143H57.8751V14.2126H57.0371V7.57227H57.8751V10.5894H58.4249L60.7233 7.57227H61.7935L59.2901 10.627C59.4701 10.659 59.6282 10.7491 59.7644 10.8973C59.9012 11.0464 60.0563 11.2642 60.2302 11.5517C60.4034 11.8392 60.6197 12.2036 60.8769 12.6426C61.134 13.0824 61.4736 13.6057 61.8949 14.2126H60.8338C60.5502 13.79 60.3127 13.4231 60.1236 13.1127Z" fill="white"/>
<path d="M65.9543 14.3066C65.5012 14.3066 65.0928 14.2272 64.7306 14.0691C64.3675 13.9111 64.0574 13.6851 63.8003 13.3911C63.5424 13.097 63.3458 12.7383 63.2089 12.3141C63.0727 11.8907 63.0039 11.4156 63.0039 10.8907C63.0039 10.3591 63.0758 9.88329 63.2187 9.46233C63.3616 9.0422 63.5621 8.68426 63.8185 8.39026C64.0756 8.09625 64.3849 7.87021 64.7449 7.71212C65.1049 7.55411 65.499 7.47461 65.927 7.47461C66.4103 7.47461 66.8369 7.55821 67.2067 7.72609C67.575 7.89398 67.8866 8.12822 68.137 8.42792C68.3881 8.72853 68.5786 9.0889 68.7087 9.50986C68.8388 9.93082 68.9039 10.391 68.9039 10.8907C68.9039 11.4533 68.8297 11.9488 68.6807 12.3755C68.5325 12.8021 68.3275 13.1584 68.0659 13.4426C67.8057 13.7277 67.4949 13.9422 67.1356 14.0879C66.7764 14.2337 66.3823 14.3066 65.9543 14.3066ZM66.0375 13.5098C66.6523 13.5098 67.1341 13.2903 67.4843 12.8505C67.8352 12.4107 68.0107 11.7579 68.0107 10.8915C68.0107 10.4361 67.9623 10.0438 67.8662 9.7154C67.7694 9.38617 67.6317 9.11426 67.4517 8.89968C67.2717 8.68426 67.0532 8.52625 66.7953 8.42549C66.5374 8.32397 66.2477 8.27317 65.9255 8.27317C65.6404 8.27317 65.3727 8.32724 65.1253 8.43453C64.8765 8.54182 64.6632 8.70309 64.4832 8.91851C64.3032 9.13392 64.1603 9.40583 64.0552 9.73423C63.9501 10.0635 63.8963 10.4492 63.8963 10.8915C63.8963 11.328 63.9478 11.7105 64.0499 12.0397C64.152 12.369 64.2964 12.6425 64.4832 12.8603C64.6693 13.079 64.8947 13.2412 65.1579 13.3492C65.4218 13.4557 65.7145 13.5098 66.0375 13.5098Z" fill="white"/>
<path d="M72.0694 14.2134H71.2314V7.57227H73.1479C73.52 7.57227 73.8536 7.61152 74.1485 7.69095C74.4435 7.77044 74.6953 7.89489 74.9063 8.06604C75.1173 8.23727 75.2784 8.45185 75.3904 8.71145C75.5023 8.97106 75.5575 9.28063 75.5575 9.641C75.5575 10.3306 75.3389 10.8572 74.901 11.2208C74.4631 11.5844 73.8543 11.7663 73.0723 11.7663H72.0694V14.2134ZM72.0694 10.9686H73.0746C73.5957 10.9686 73.9912 10.8613 74.2605 10.6459C74.5305 10.4313 74.6658 10.1021 74.6658 9.65899C74.6658 9.20364 74.5305 8.8744 74.2605 8.67212C73.9912 8.46984 73.5957 8.36832 73.0746 8.36832H72.0694V10.9686Z" fill="white"/>
<path d="M82.4554 14.2134H81.6174V8.36908H78.5362V14.2134H77.6982V7.57227H82.4539V14.2134H82.4554Z" fill="white"/>
<path d="M87.7308 14.3066C87.2778 14.3066 86.8702 14.2272 86.5079 14.0691C86.1441 13.9111 85.834 13.6851 85.5769 13.3911C85.3197 13.097 85.1223 12.7383 84.9862 12.3141C84.8493 11.8907 84.7812 11.4156 84.7812 10.8907C84.7812 10.3591 84.8523 9.88329 84.9953 9.46233C85.139 9.0422 85.3386 8.68426 85.5958 8.39026C85.8529 8.09625 86.1623 7.87021 86.5223 7.71212C86.8823 7.55411 87.2755 7.47461 87.7036 7.47461C88.1877 7.47461 88.6142 7.55821 88.9833 7.72609C89.3524 7.89398 89.6632 8.12822 89.9135 8.42792C90.1654 8.72853 90.356 9.0889 90.4861 9.50986C90.6162 9.93082 90.6812 10.391 90.6812 10.8907C90.6812 11.4533 90.6063 11.9488 90.4581 12.3755C90.3091 12.8021 90.1041 13.1584 89.8432 13.4426C89.583 13.7277 89.2722 13.9422 88.9129 14.0879C88.5529 14.2337 88.1589 14.3066 87.7308 14.3066ZM87.8148 13.5098C88.4289 13.5098 88.9114 13.2903 89.2616 12.8505C89.6118 12.4107 89.788 11.7579 89.788 10.8915C89.788 10.4361 89.7396 10.0438 89.6428 9.7154C89.5467 9.38617 89.4083 9.11426 89.2283 8.89968C89.0483 8.68426 88.8298 8.52625 88.5719 8.42549C88.314 8.32397 88.0243 8.27317 87.7021 8.27317C87.417 8.27317 87.1492 8.32724 86.9019 8.43453C86.6539 8.54182 86.4398 8.70309 86.2598 8.91851C86.0798 9.13392 85.9369 9.40583 85.8318 9.73423C85.7266 10.0635 85.6737 10.4492 85.6737 10.8915C85.6737 11.328 85.7251 11.7105 85.8272 12.0397C85.9293 12.369 86.0738 12.6425 86.2598 12.8603C86.4466 13.079 86.6713 13.2412 86.9352 13.3492C87.1992 13.4557 87.4926 13.5098 87.8148 13.5098Z" fill="white"/>
<path d="M93.8458 14.2134H93.0078V7.57227H94.9251C95.2972 7.57227 95.6299 7.61152 95.9249 7.69095C96.2198 7.77044 96.4725 7.89489 96.6835 8.06604C96.8937 8.23727 97.0556 8.45185 97.1667 8.71145C97.2787 8.97106 97.3339 9.28063 97.3339 9.641C97.3339 10.3306 97.1153 10.8572 96.6782 11.2208C96.2403 11.5844 95.6307 11.7663 94.8494 11.7663H93.8443V14.2134H93.8458ZM93.8458 10.9686H94.8509C95.372 10.9686 95.7676 10.8613 96.0376 10.6459C96.3076 10.4313 96.4422 10.1021 96.4422 9.65899C96.4422 9.20364 96.3076 8.8744 96.0376 8.67212C95.7676 8.46984 95.372 8.36832 94.8509 8.36832H93.8458V10.9686Z" fill="white"/>
<path d="M102.576 12.4395H99.7926L99.1596 14.2134H98.3125L100.798 7.57227H101.636L104.074 14.2134H103.199L102.576 12.4395ZM100.063 11.6614H102.307L101.217 8.54031H101.181L100.063 11.6614Z" fill="white"/>
<path d="M107.583 14.2134H106.745V8.36908H104.818V7.57227H109.51V8.36908H107.583V14.2134Z" fill="white"/>
<path d="M116.415 14.2134H115.577V8.8621L112.413 14.2134H111.463V7.57227H112.301V12.9235L115.465 7.57227H116.415V14.2134Z" fill="white"/>
<path d="M119.021 14.2134V7.57227H121.004C121.383 7.57227 121.706 7.61152 121.972 7.69095C122.239 7.77044 122.456 7.88427 122.624 8.03248C122.792 8.18077 122.912 8.35845 122.987 8.564C123.062 8.76962 123.099 8.99566 123.099 9.24213C123.099 9.63447 122.993 9.96203 122.782 10.2241C122.571 10.487 122.261 10.6623 121.852 10.7507V10.7696C122.317 10.8392 122.668 11.0144 122.908 11.2962C123.146 11.5779 123.267 11.921 123.267 12.3257C123.267 12.5722 123.223 12.8097 123.136 13.0374C123.05 13.265 122.913 13.4657 122.727 13.6401C122.54 13.8138 122.302 13.953 122.01 14.0578C121.718 14.1618 121.365 14.2142 120.949 14.2142H119.021V14.2134ZM119.859 10.4379H120.753C121.032 10.4379 121.268 10.4092 121.46 10.3527C121.652 10.2954 121.807 10.2168 121.925 10.1152C122.043 10.0144 122.128 9.89241 122.181 9.74996C122.234 9.60744 122.26 9.45428 122.26 9.28967C122.26 8.99232 122.158 8.76468 121.953 8.60659C121.748 8.44858 121.395 8.36908 120.892 8.36908H119.859V10.4379H119.859ZM119.859 13.4165H121.004C121.916 13.4165 122.372 13.0562 122.372 12.3346C122.372 11.9169 122.243 11.6164 121.985 11.4338C121.728 11.2503 121.339 11.1586 120.818 11.1586H119.859V13.4165Z" fill="white"/>
<path d="M130.523 14.2134H129.686V11.1586H126.391V14.2134H125.553V7.57227H126.391V10.3806H129.686V7.57227H130.523V14.2134Z" fill="white"/>
<path d="M136.647 12.4395H133.864L133.231 14.2134H132.385L134.869 7.57227H135.707L138.146 14.2134H137.27L136.647 12.4395ZM134.134 11.6614H136.377L135.289 8.54031H135.252L134.134 11.6614Z" fill="white"/>
<path d="M142.315 11.5546C142.141 11.5546 141.999 11.5701 141.887 11.6021C141.775 11.634 141.677 11.6889 141.593 11.7683C141.51 11.8478 141.434 11.9518 141.365 12.0812C141.297 12.2106 141.219 12.3752 141.132 12.5742C141.046 12.7733 140.944 13.0075 140.83 13.2761C140.715 13.5447 140.568 13.8568 140.388 14.2105H139.448C139.628 13.8625 139.79 13.5243 139.932 13.195C140.075 12.8658 140.207 12.5676 140.327 12.2982C140.449 12.0296 140.562 11.8035 140.672 11.6201C140.78 11.4366 140.894 11.3162 141.012 11.2597C140.881 11.2221 140.745 11.1582 140.602 11.0697C140.459 10.9813 140.329 10.8691 140.211 10.7331C140.093 10.5972 139.997 10.4309 139.922 10.2352C139.848 10.0394 139.811 9.8118 139.811 9.55212C139.811 9.19836 139.864 8.89615 139.974 8.64634C140.082 8.39653 140.239 8.19098 140.444 8.02963C140.649 7.86828 140.897 7.75119 141.189 7.6783C141.48 7.6054 141.809 7.56934 142.175 7.56934H144V14.2105H143.162V11.5537H142.315V11.5546ZM143.162 10.7577V8.36706H141.97C141.598 8.36706 141.294 8.46866 141.058 8.67094C140.822 8.87322 140.704 9.17375 140.704 9.57262C140.704 9.7749 140.742 9.95098 140.816 10.0992C140.891 10.2475 140.995 10.3711 141.128 10.4694C141.262 10.5677 141.421 10.6406 141.608 10.6873C141.794 10.7347 141.995 10.7585 142.213 10.7585H143.162V10.7577Z" fill="white"/>
<path d="M61.3075 23.8213H58.5243L57.8912 25.5953H57.0449L59.5294 18.9541H60.3674L62.8057 25.5953H61.9307L61.3075 23.8213ZM58.7943 23.0433H61.0375L59.9484 19.9221H59.9121L58.7943 23.0433Z" fill="white"/>
<path d="M67.7505 24.4954C67.5615 24.1858 67.4019 23.918 67.2711 23.6935C67.141 23.4692 67.0321 23.2857 66.9451 23.1432C66.8581 23.0008 66.7757 22.8901 66.6985 22.8107C66.6206 22.7321 66.5367 22.6764 66.4467 22.6445C66.3567 22.6125 66.247 22.597 66.1169 22.597H65.5021V25.5953H64.6641V18.9541H65.5021V21.9713H66.0519L68.3503 18.9541H69.4205L66.9171 22.0089C67.0971 22.0408 67.2552 22.131 67.3913 22.2792C67.5282 22.4282 67.6832 22.6461 67.8564 22.9336C68.0304 23.221 68.2467 23.5855 68.5038 24.0245C68.7602 24.4642 69.1006 24.9876 69.5233 25.5945H68.4622C68.1771 25.1718 67.9404 24.8049 67.7505 24.4954Z" fill="white"/>
<path d="M75.0338 23.8213H72.2506L71.6176 25.5953H70.7705L73.2557 18.9541H74.0937L76.5321 25.5953H75.657L75.0338 23.8213ZM72.5206 23.0433H74.7638L73.6747 19.9221H73.6384L72.5206 23.0433Z" fill="white"/>
<path d="M84.107 27.076H83.269V25.5961H78.9044V27.076H78.0664V24.7993H78.7085C78.9006 24.4577 79.0549 24.0891 79.1691 23.6935C79.2841 23.298 79.374 22.8779 79.4391 22.4315C79.5041 21.986 79.5503 21.5225 79.5783 21.0417C79.607 20.5609 79.6267 20.0647 79.6388 19.552L79.6577 18.9541H83.3621V24.7984H84.1063V27.076H84.107ZM82.5256 24.7984V19.751H80.4314C80.4314 19.7698 80.4291 19.8034 80.4261 19.8509C80.4231 19.8984 80.4215 19.9475 80.4215 19.9983C80.4215 20.0491 80.42 20.0966 80.4162 20.1408C80.4132 20.185 80.4117 20.217 80.4117 20.2358C80.3936 20.647 80.3671 21.0613 80.3331 21.4782C80.2983 21.8959 80.2491 22.3021 80.1841 22.6977C80.119 23.0932 80.0366 23.4692 79.9375 23.8271C79.8384 24.1841 79.7144 24.5085 79.5654 24.7993H82.5256V24.7984Z" fill="white"/>
<path d="M89.7927 25.5953H86.1533V18.9541H89.7927V19.751H86.9913V21.7624H89.5506V22.5405H86.9913V24.7984H89.7927V25.5953Z" fill="white"/>
<path d="M98.5314 25.5953H97.6934L97.2933 20.4054L95.6469 25.5953H94.7718L93.1337 20.4242L92.7237 25.5953H91.8857L92.4447 18.9541H93.4679L95.2264 24.6657L96.9477 18.9541H97.9717L98.5314 25.5953Z" fill="white"/>
<path d="M105.81 25.5953H104.972V20.244L101.807 25.5953H100.857V18.9541H101.695V24.3054L104.86 18.9541H105.81V25.5953Z" fill="white"/>
<path d="M110.724 22.9385C110.551 22.9385 110.408 22.9541 110.296 22.9859C110.184 23.0179 110.086 23.0728 110.002 23.1522C109.919 23.2317 109.843 23.3357 109.775 23.4651C109.706 23.5945 109.628 23.7591 109.541 23.9589C109.455 24.1579 109.353 24.3922 109.239 24.6608C109.124 24.9295 108.978 25.2415 108.798 25.5953H107.857C108.037 25.2472 108.199 24.909 108.341 24.5797C108.484 24.2505 108.616 23.9524 108.736 23.6829C108.858 23.4143 108.971 23.1883 109.081 23.0048C109.189 22.8213 109.303 22.701 109.421 22.6445C109.291 22.6068 109.154 22.5429 109.011 22.4544C108.868 22.366 108.738 22.2538 108.62 22.1178C108.502 21.9819 108.405 21.8156 108.332 21.6199C108.257 21.4241 108.22 21.1965 108.22 20.9369C108.22 20.583 108.273 20.2808 108.383 20.031C108.491 19.7813 108.648 19.5757 108.853 19.4144C109.058 19.253 109.306 19.1359 109.598 19.063C109.889 18.9901 110.218 18.9541 110.584 18.9541H112.409V25.5953H111.571V22.9385H110.724ZM111.571 22.1416V19.751H110.379C110.008 19.751 109.703 19.8525 109.468 20.0548C109.231 20.2571 109.114 20.5577 109.114 20.9557C109.114 21.158 109.151 21.3341 109.226 21.4823C109.3 21.6306 109.404 21.7542 109.537 21.8525C109.67 21.9508 109.831 22.0228 110.017 22.0704C110.203 22.1178 110.405 22.1416 110.622 22.1416H111.571Z" fill="white"/>
<path d="M57.6937 37.6625H57.0176V32.3047H58.5642C58.8645 32.3047 59.1337 32.3367 59.372 32.4005C59.6094 32.4644 59.8136 32.5651 59.9831 32.7027C60.1532 32.8403 60.2833 33.014 60.3733 33.2236C60.4633 33.4332 60.5087 33.6831 60.5087 33.9738C60.5087 34.5299 60.3317 34.955 59.9793 35.2481C59.6261 35.5413 59.1345 35.6879 58.5037 35.6879H57.6937V37.6625ZM57.6937 35.045H58.5037C58.9242 35.045 59.2441 34.9582 59.462 34.7846C59.679 34.611 59.7887 34.3456 59.7887 33.9885C59.7887 33.6208 59.679 33.3563 59.462 33.1925C59.2441 33.0295 58.925 32.9476 58.5037 32.9476H57.6937V35.045Z" fill="white"/>
<path d="M64.3162 37.7371C63.9501 37.7371 63.6211 37.6732 63.3284 37.5454C63.0357 37.4184 62.7854 37.2358 62.5774 36.9983C62.3694 36.7608 62.2106 36.4717 62.1002 36.1294C61.9905 35.7878 61.9346 35.4054 61.9346 34.9811C61.9346 34.5528 61.9928 34.1687 62.1078 33.8297C62.2227 33.4906 62.3838 33.2023 62.5918 32.9648C62.7998 32.7273 63.0486 32.5455 63.339 32.4177C63.6294 32.2899 63.9471 32.2261 64.2927 32.2261C64.683 32.2261 65.0271 32.294 65.3251 32.4292C65.6231 32.5643 65.8727 32.7535 66.0761 32.9959C66.2788 33.2384 66.4331 33.5291 66.5382 33.8682C66.6433 34.208 66.6955 34.579 66.6955 34.982C66.6955 35.4365 66.635 35.8354 66.5155 36.1793C66.3953 36.5241 66.2304 36.8108 66.0201 37.0409C65.8091 37.2702 65.5595 37.4439 65.2691 37.561C64.9795 37.6789 64.6618 37.7371 64.3162 37.7371ZM64.3835 37.0941C64.8789 37.0941 65.2676 36.9172 65.5505 36.5626C65.8333 36.208 65.9748 35.6814 65.9748 34.982C65.9748 34.6142 65.9362 34.2982 65.8583 34.0328C65.7804 33.7674 65.67 33.548 65.524 33.3743C65.3788 33.2006 65.2026 33.0729 64.9946 32.9918C64.7866 32.9099 64.5529 32.869 64.2927 32.869C64.0621 32.869 63.8473 32.9124 63.6468 32.9992C63.4464 33.086 63.274 33.2162 63.1288 33.3899C62.9836 33.5635 62.8686 33.783 62.7831 34.0483C62.6977 34.3137 62.6553 34.6249 62.6553 34.982C62.6553 35.3341 62.6962 35.6429 62.7794 35.9083C62.8618 36.1736 62.9783 36.3948 63.1288 36.5708C63.2785 36.7469 63.46 36.878 63.6733 36.9648C63.8873 37.0516 64.1233 37.0941 64.3835 37.0941Z" fill="white"/>
<path d="M72.0421 37.5159C71.8969 37.588 71.7267 37.6421 71.5316 37.6806C71.3357 37.7191 71.1232 37.7379 70.8933 37.7379C70.4826 37.7379 70.1166 37.6756 69.7936 37.5503C69.4707 37.4251 69.1969 37.2456 68.9715 37.0106C68.7461 36.7755 68.5737 36.4938 68.4534 36.1646C68.3332 35.8354 68.2734 35.4644 68.2734 35.0508C68.2734 34.597 68.3339 34.1933 68.4534 33.8411C68.5729 33.489 68.7461 33.1933 68.9715 32.9533C69.1969 32.7134 69.4684 32.5324 69.786 32.4095C70.1045 32.2875 70.4576 32.2261 70.8487 32.2261C71.1489 32.2261 71.3924 32.2482 71.58 32.2908C71.7683 32.3342 71.9241 32.3817 72.0497 32.4325L71.9219 33.0369C71.7562 32.9754 71.5891 32.9321 71.4189 32.9066C71.2487 32.8813 71.0808 32.8681 70.916 32.8681C70.2898 32.8681 69.8133 33.0467 69.4858 33.4038C69.1583 33.7609 68.9942 34.2867 68.9942 34.9803C68.9942 35.3121 69.0411 35.6093 69.1334 35.8722C69.2256 36.1351 69.3572 36.3571 69.5274 36.538C69.6976 36.719 69.9055 36.8575 70.1513 36.9516C70.3964 37.0459 70.674 37.0933 70.984 37.0933C71.1497 37.0933 71.3161 37.0786 71.4832 37.0474C71.6511 37.0163 71.7993 36.968 71.9294 36.9017L72.0421 37.5159Z" fill="white"/>
<path d="M76.7626 36.2309H74.5179L74.0081 37.6625H73.3252L75.3294 32.3047H76.0048L77.9719 37.6625H77.2663L76.7626 36.2309ZM74.7357 35.6036H76.5448L75.6667 33.086H75.6372L74.7357 35.6036Z" fill="white"/>
<path d="M80.7294 37.6625H80.054V32.9476H78.499V32.3047H82.2828V32.9476H80.7286V37.6625H80.7294Z" fill="white"/>
<path d="M85.7879 37.7371C85.4226 37.7371 85.0928 37.6732 84.8001 37.5454C84.5082 37.4184 84.2571 37.2358 84.0491 36.9983C83.8411 36.7608 83.6823 36.4717 83.5719 36.1294C83.4622 35.7878 83.4062 35.4054 83.4062 34.9811C83.4062 34.5528 83.4645 34.1687 83.5794 33.8297C83.6944 33.4906 83.8555 33.2023 84.0635 32.9648C84.2715 32.7273 84.5203 32.5455 84.8107 32.4177C85.1011 32.2899 85.4188 32.2261 85.7644 32.2261C86.1547 32.2261 86.4988 32.294 86.7968 32.4292C87.094 32.5643 87.3443 32.7535 87.5478 32.9959C87.7505 33.2384 87.9048 33.5291 88.0099 33.8682C88.115 34.208 88.1672 34.579 88.1672 34.982C88.1672 35.4365 88.1074 35.8354 87.9872 36.1793C87.8669 36.5241 87.7021 36.8108 87.4918 37.0409C87.2816 37.2702 87.0312 37.4439 86.7408 37.561C86.4511 37.6789 86.1335 37.7371 85.7879 37.7371ZM85.8552 37.0941C86.3513 37.0941 86.74 36.9172 87.0229 36.5626C87.305 36.208 87.4464 35.6814 87.4464 34.982C87.4464 34.6142 87.4079 34.2982 87.33 34.0328C87.2521 33.7674 87.1416 33.548 86.9957 33.3743C86.8505 33.2006 86.675 33.0729 86.4663 32.9918C86.2583 32.9099 86.0246 32.869 85.7644 32.869C85.5337 32.869 85.3197 32.9124 85.1185 32.9992C84.9189 33.086 84.7457 33.2162 84.6005 33.3899C84.4552 33.5635 84.3403 33.783 84.2548 34.0483C84.1701 34.3137 84.127 34.6249 84.127 34.982C84.127 35.3341 84.1679 35.6429 84.251 35.9083C84.3335 36.1736 84.4499 36.3948 84.6005 36.5708C84.751 36.7469 84.9325 36.878 85.145 36.9648C85.359 37.0516 85.595 37.0941 85.8552 37.0941Z" fill="white"/>
<path d="M95.106 37.6625H94.4307L94.1077 33.4758L92.7789 37.6625H92.0732L90.752 33.4914L90.4215 37.6625H89.7461L90.1969 32.3047H91.0227L92.4423 36.9123L93.8309 32.3047H94.6568L95.106 37.6625Z" fill="white"/>
</svg>
