<svg width="44" height="44" viewBox="0 0 44 44" fill="none" xmlns="http://www.w3.org/2000/svg">
<path d="M43.5464 26.4232C45.989 14.5235 38.3229 2.89659 26.4232 0.453681C14.5235 -1.98916 2.89656 5.67713 0.453704 17.5768C-1.98921 29.4765 5.6771 41.1034 17.5768 43.5463C29.4765 45.9892 41.1035 38.3229 43.5464 26.4232Z" fill="white"/>
<path d="M20.4131 3.3283L20.3872 2.99202C20.4476 2.9834 20.5079 2.9834 20.5596 2.97479C20.9045 2.94894 21.2494 2.93165 21.5943 2.92304L21.8185 5.84593L22.4306 5.80286L22.2065 2.93165L22.1634 2.37988C21.8357 2.37988 21.4994 2.37988 21.1718 2.39711L19.8612 2.50055C19.8354 2.50055 19.8009 2.50917 19.775 2.50917L19.8182 3.05238L19.8268 3.19034C19.982 5.27687 19.6716 5.52694 19.3181 5.55279C19.2405 5.5614 19.1628 5.55278 19.1198 5.53556L19.1025 6.04425C19.1974 6.06148 19.3957 6.07877 19.5336 6.07009C20.2061 6.01841 20.5769 5.54417 20.4131 3.3283Z" fill="#384046"/>
<path d="M17.032 6.70918C18.0495 6.37296 18.5237 5.35551 18.2133 4.42433C17.9029 3.47592 16.9458 2.9327 15.9198 3.26898C14.9024 3.60526 14.4282 4.62265 14.7386 5.55383C15.049 6.50225 16.0147 7.04546 17.032 6.70918ZM16.0923 3.8122C16.7561 3.59664 17.3942 3.98461 17.6097 4.63126C17.7132 4.95893 17.696 5.29515 17.5667 5.57106C17.4373 5.84698 17.2045 6.07114 16.8682 6.18326C16.2044 6.39881 15.5663 6.01078 15.3508 5.36413C15.1783 4.82097 15.3594 4.27776 15.7991 3.98461C15.8939 3.91563 15.9802 3.84665 16.0923 3.8122Z" fill="#384046"/>
<path d="M24.3186 5.20105C24.5945 5.23557 24.8618 5.27865 25.1377 5.3304C25.405 5.38215 25.6809 5.44251 25.9482 5.50287L26.1293 6.38231L26.7759 6.56334L25.9137 2.76963L25.3533 2.6748L23.1719 5.89084L23.8271 5.95121L24.3186 5.20105ZM25.4826 3.4508L25.8189 4.92514C25.6206 4.88206 25.4309 4.83893 25.2326 4.80447C25.0342 4.76995 24.8446 4.73549 24.6463 4.70097L25.4826 3.4508Z" fill="#384046"/>
<path d="M29.7606 6.67358C30.1055 6.84599 30.528 6.70803 30.7004 6.3632C30.8728 6.01831 30.7349 5.59582 30.39 5.42334C30.0452 5.25093 29.6227 5.38888 29.4502 5.73378C29.2778 6.07867 29.4157 6.50116 29.7606 6.67358Z" fill="#384046"/>
<path d="M38.166 14.071C37.2348 14.4159 36.7347 15.3988 37.1054 16.4076C37.4762 17.4164 38.5195 17.8389 39.442 17.494C40.3732 17.1491 40.8733 16.1662 40.5026 15.1574C40.1232 14.1487 39.0885 13.7262 38.166 14.071ZM39.968 15.3471C40.2094 15.9937 39.8559 16.6577 39.2179 16.8905C39.1575 16.9163 39.0971 16.9077 39.0454 16.925C38.4505 17.0629 37.8642 16.8129 37.6486 16.218C37.4935 15.8127 37.5797 15.3988 37.8211 15.0971C37.8556 15.0453 37.9073 15.0022 37.9504 14.9591C37.959 14.9505 37.9676 14.9333 37.9762 14.9246C38.0021 14.8987 38.0366 14.8815 38.0711 14.8556C38.1056 14.8298 38.1401 14.8039 38.1746 14.778C38.1746 14.778 38.1746 14.778 38.1832 14.778C38.2522 14.7349 38.3211 14.7004 38.3987 14.6746C38.7178 14.5539 39.0541 14.5625 39.3386 14.6746C39.6144 14.7953 39.8473 15.0195 39.968 15.3471Z" fill="#384046"/>
<path d="M37.9591 19.4937L39.3817 19.3643H39.399C39.4507 19.692 39.4852 20.0282 39.5197 20.3559C39.5541 20.6836 39.5714 21.0198 39.5887 21.356H39.5714L38.1488 21.4854L38.166 22.0976L41.6148 21.7699L41.589 21.1577L40.1405 21.2957H40.1319C40.1146 20.9595 40.0974 20.6318 40.0629 20.2955C40.0284 19.9679 39.9939 19.6316 39.9422 19.304H39.9508L41.408 19.166L41.3131 18.5625L37.8643 18.8901L37.9591 19.4937Z" fill="#384046"/>
<path d="M26.6468 19.1061C27.4055 18.2266 27.7246 17.1575 27.7246 16.1401C27.7246 15.321 27.5004 13.6828 26.0605 12.5533C25.069 11.786 24.1981 11.4238 22.103 11.4238H21.0424C21.0079 11.4238 20.9821 11.4238 20.939 11.4238H16.5762V32.0393H29.0351V28.0817C29.0351 24.2966 27.8108 21.7531 24.6465 20.6322C25.6381 20.2183 26.2502 19.589 26.6468 19.1061ZM24.1723 18.7095C23.6032 19.4165 22.6807 20.0718 21.3701 20.0718C21.3614 20.0718 21.3528 20.0718 21.3442 20.0718V21.0978C24.8448 21.0978 26.2157 23.4258 26.2157 27.6851V30.8925H23.9653V24.0121H21.3701V30.9012H19.387V12.4498H21.4304C22.1978 12.4498 23.3531 12.6223 24.1723 13.6397C24.5948 14.157 24.8621 14.8382 24.9483 15.528H21.3701V16.5454H24.9741C24.9483 17.2006 24.8103 17.9335 24.1723 18.7095Z" fill="#384046"/>
<path d="M35.0094 12.4274L36.2165 11.6342L36.4493 11.9877L36.0872 13.0223C35.8975 13.5482 35.8457 14.057 36.2596 14.4105L36.708 14.1173C36.5183 13.9535 36.5183 13.6776 36.639 13.281L37.0011 12.1429L39.1222 12.4446L38.7428 11.8324L36.8804 11.6255L36.6821 11.3324L37.8978 10.5305L37.527 10.0391L34.6387 11.9359L35.0094 12.4274Z" fill="#384046"/>
<path d="M35.3714 9.9411C36.0352 9.21686 36.0266 8.09597 35.2334 7.37172C34.7505 6.932 34.1729 6.79404 33.6297 6.91477L33.7677 7.52691C34.1384 7.43208 34.535 7.50968 34.854 7.79421C35.2938 8.19946 35.3455 8.79437 35.0524 9.27722C34.7937 9.00992 34.5264 8.75123 34.2505 8.50984C34.1384 8.40634 34.0177 8.3029 33.9056 8.19946L33.5521 8.61328C33.6642 8.70816 33.7763 8.8116 33.8883 8.90648C34.1643 9.15649 34.4316 9.41518 34.6902 9.68242C34.2332 10.0187 33.6211 10.0273 33.1727 9.62211C32.8451 9.32891 32.733 8.92371 32.8106 8.53568L32.1985 8.44947C32.1208 9.00992 32.3105 9.60482 32.802 10.0445C33.5952 10.7688 34.6989 10.674 35.3714 9.9411Z" fill="#384046"/>
<path d="M12.8599 8.68973L12.1098 7.45673L12.4719 7.23257L13.4979 7.62921C14.0152 7.83614 14.5239 7.90512 14.8861 7.49987L14.6102 7.04292C14.4377 7.23257 14.1618 7.22395 13.7652 7.08599L12.6443 6.6808L13.0151 4.56836L12.3943 4.92187L12.127 6.77562L11.8253 6.96533L11.0665 5.72371L10.5664 6.07722L12.3684 9.02601L12.8599 8.68973Z" fill="#384046"/>
<path d="M3.46981 21.5734C4.06471 21.6251 4.40099 21.263 4.52172 20.9785L5.13385 21.5044C5.29771 21.651 5.40977 21.9269 5.34079 22.1166L5.86678 22.108C5.99606 21.8234 5.92708 21.4096 5.51327 21.0647L4.69413 20.375L4.72865 19.9439L5.97883 20.0559L6.06504 19.4351L2.6076 19.1592C2.57308 19.3489 2.49549 20.1163 2.48687 20.2197C2.40066 21.1768 2.86623 21.5303 3.46981 21.5734ZM3.1163 19.8231L4.15092 19.9093L4.11646 20.306C4.09062 20.6595 3.88368 20.9612 3.52155 20.9267C3.24564 20.9009 3.03009 20.7371 3.06455 20.237C3.08178 20.1249 3.09039 19.9869 3.1163 19.8231Z" fill="#384046"/>
<path d="M31.2344 35.2497L31.9931 36.4827L31.631 36.7068L30.6049 36.3188C30.0876 36.1119 29.5789 36.0515 29.2168 36.4568L29.5013 36.9138C29.6737 36.7241 29.9497 36.7327 30.3463 36.8707L31.4758 37.2673L31.1223 39.3797L31.7431 39.0175L32.0017 37.1552L32.3035 36.9655L33.0709 38.1985L33.571 37.845L31.7517 34.9048L31.2344 35.2497Z" fill="#384046"/>
<path d="M27.8709 37.0417L26.8104 40.0594L26.0344 37.6366L25.4395 37.7746L26.5086 41.0855L27.0863 40.9389L28.1296 37.947L28.9056 40.3526L29.466 40.1284L28.4055 36.8262L27.8709 37.0417Z" fill="#384046"/>
<path d="M22.008 39.207C21.6199 39.207 21.3096 39.5174 21.3096 39.9054C21.3096 40.2934 21.6199 40.6038 22.008 40.6038C22.3959 40.6038 22.7063 40.2934 22.7063 39.9054C22.7063 39.526 22.3959 39.207 22.008 39.207Z" fill="#384046"/>
<path d="M34.5366 32.1767L35.1057 35.3238L33.2346 33.5994L32.7949 34.0133L35.3557 36.3671L35.7868 35.9446L35.2177 32.832L37.0801 34.5392L37.4595 34.0736L34.8987 31.7197L34.5366 32.1767Z" fill="#384046"/>
<path d="M15.9804 38.0426C15.8424 38.5082 16.0494 38.8099 16.4029 39.06C16.1183 39.1203 15.8252 39.2669 15.7045 39.6722C15.6356 39.9049 15.6614 40.1119 15.7648 40.3016C15.9028 40.5516 16.1701 40.7672 16.5495 40.8793L17.8255 41.2069L18.7912 37.8701L17.4806 37.4907C16.7478 37.2666 16.1615 37.439 15.9804 38.0426ZM16.7909 40.3533C16.4115 40.2412 16.2477 40.017 16.3253 39.7584C16.3425 39.6981 16.3684 39.6463 16.3943 39.6032C16.3943 39.6032 16.4029 39.6032 16.4029 39.5946C16.4288 39.5514 16.4632 39.5256 16.5064 39.4997C16.5926 39.448 16.696 39.4221 16.8254 39.4308C16.9116 39.4308 16.9978 39.448 17.0927 39.4738L17.6617 39.6377L17.403 40.5257L16.7909 40.3533ZM17.1099 38.9393C16.6443 38.8013 16.4719 38.5686 16.5495 38.284C16.6184 38.0512 16.7995 37.9391 17.0495 37.9564C17.1358 37.9564 17.2306 37.9736 17.3254 38.0081L18.067 38.2237L17.7997 39.1462L17.1099 38.9393Z" fill="#384046"/>
<path d="M8.42806 13.3058C9.2558 12.0125 10.2646 10.8485 11.4199 9.83968L10.9888 9.46033L8.76434 7.5376C8.61776 7.67556 8.46258 7.81351 8.32462 7.96008L10.5491 9.87414C10.2128 10.1932 9.89384 10.5209 9.58341 10.8657L7.37614 8.96025C7.23819 9.11543 7.1089 9.27062 6.97095 9.42581L9.17821 11.3313C8.88506 11.6762 8.60915 12.0383 8.35046 12.4177L6.12597 10.5036C6.00524 10.6674 5.89319 10.8398 5.77246 11.0036L7.99695 12.9264L8.42806 13.3058Z" fill="#384046"/>
<path d="M37.0619 27.8331L38.2863 28.5315C38.7001 28.7643 39.1916 29.0316 39.5968 29.2557L39.5882 29.2643C39.1485 29.1608 36.5963 28.8505 36.5963 28.8505L36.3721 29.3161C36.3721 29.3161 38.1311 31.2474 38.4673 31.5406L38.4587 31.5578C38.0276 31.3423 37.5361 31.1267 37.1223 30.9457L35.8117 30.3766L35.4668 30.9284L38.7087 32.2821L39.1485 31.532C39.1485 31.532 37.5189 29.7558 37.2171 29.5057L37.2257 29.4885C37.6138 29.5747 39.9848 29.8334 39.9848 29.8334L40.3211 29.0143L37.2861 27.2295L37.0619 27.8331Z" fill="#384046"/>
<path d="M39.9668 23.3322C38.9839 23.1598 38.0527 23.7547 37.8716 24.8152C37.682 25.8758 38.3631 26.7638 39.3374 26.9363C40.3203 27.1087 41.2515 26.5138 41.4325 25.4533C41.6136 24.3928 40.9325 23.496 39.9668 23.3322ZM40.8722 25.3412C40.8463 25.5136 40.7773 25.6688 40.6911 25.7982C40.4324 26.1861 39.941 26.3845 39.4409 26.2983C38.8459 26.1948 38.4234 25.7378 38.4062 25.1688C38.4062 25.0912 38.4062 25.0049 38.4234 24.9187C38.4493 24.7463 38.5183 24.5911 38.6045 24.4617C38.8632 24.0737 39.3546 23.8754 39.8547 23.9617C40.5359 24.0823 40.9928 24.6601 40.8722 25.3412Z" fill="#384046"/>
<path d="M8.68696 31.1264C7.81614 29.859 7.14359 28.4795 6.66935 27.0137L6.15204 27.2637L3.51367 28.557C3.58265 28.7468 3.65163 28.9364 3.72922 29.1347L6.35897 27.8328C6.52278 28.2639 6.69525 28.695 6.89358 29.1089L4.27244 30.3936C4.35865 30.5832 4.45347 30.7643 4.53974 30.9453L7.16082 29.6606C7.36775 30.0659 7.59192 30.4625 7.83337 30.8505L5.21224 32.1524C5.31568 32.3249 5.42779 32.4973 5.5399 32.6698L8.17827 31.3764L8.68696 31.1264Z" fill="#384046"/>
<path d="M6.28989 25.7116L5.41907 25.496C5.3587 25.2287 5.31557 24.9528 5.2725 24.6855C5.22075 24.4183 5.18629 24.1424 5.16038 23.8665L5.91915 23.3922L5.87602 22.7197L2.59961 24.8149L2.68582 25.3753L6.45369 26.341L6.28989 25.7116ZM4.64307 24.1854C4.66891 24.3838 4.69482 24.5821 4.72928 24.7804C4.7638 24.9787 4.79826 25.1684 4.83278 25.3667L3.36699 24.996L4.64307 24.1854Z" fill="#384046"/>
<path d="M5.34267 16.0442C5.7307 16.0788 6.06698 15.8028 6.11005 15.4148C6.14457 15.0268 5.86866 14.6906 5.48063 14.6474C5.09266 14.613 4.75638 14.8889 4.71331 15.2769C4.67017 15.6649 4.95471 16.0011 5.34267 16.0442Z" fill="#384046"/>
<path d="M12.1704 34.8486L10.1621 37.7054L10.6629 38.0575L12.6712 35.2007L12.1704 34.8486Z" fill="#384046"/>
<path d="M10.1963 32.8952C9.74796 32.4123 9.15299 32.2312 8.60122 32.3088L8.68743 32.921C9.0754 32.8434 9.48065 32.9469 9.7738 33.2745C10.248 33.7832 10.1704 34.5334 9.67036 34.9903C9.1616 35.4559 8.42874 35.4818 7.95451 34.9731C7.66136 34.6626 7.58377 34.2575 7.67865 33.8867L7.06646 33.7574C6.95434 34.2919 7.10091 34.8782 7.53208 35.3438C8.26494 36.1284 9.38583 36.1284 10.1015 35.4646C10.8343 34.7834 10.9205 33.6884 10.1963 32.8952Z" fill="#384046"/>
<path d="M12.6709 36.5309C12.3174 37.1344 12.5761 37.7379 13.2487 38.1432L13.7229 38.4277L13.0848 39.514L13.6108 39.8245L15.387 36.8154L14.3868 36.2118C13.6884 35.8065 13.0244 35.9273 12.6709 36.5309ZM13.9902 37.9621L13.5331 37.6948C13.1366 37.462 13.0072 37.1602 13.1883 36.8498C13.2917 36.6774 13.4211 36.5825 13.5763 36.5567C13.7315 36.5309 13.9126 36.5825 14.1109 36.6947L14.5764 36.9706L13.9902 37.9621Z" fill="#384046"/>
</svg>
