<svg width="94" height="24" viewBox="0 0 94 24" fill="none" xmlns="http://www.w3.org/2000/svg">
<g clip-path="url(#clip0_457_8291)">
<path d="M9.04987 2.23624H11.1091C12.3631 2.05615 13.6438 2.21449 14.812 2.69406C16.2776 3.55361 17.3406 4.93741 17.7743 6.55026C18.0814 7.39545 18.0814 7.39545 18.822 7.09611H19.4V0.404989H0.0183559V1.58474H0.813129C1.1585 1.58241 1.50003 1.65553 1.8126 1.79875C2.12518 1.94196 2.40088 2.15162 2.61943 2.41233C3.36002 3.57447 3.48646 4.87748 3.48646 11.6566C3.48646 18.8584 3.32389 20.6192 2.61943 21.5172C2.44552 21.7481 2.22036 21.9377 1.96076 22.0718C1.70115 22.206 1.41382 22.2813 1.1202 22.292C0.018356 22.4857 0.0183559 22.4681 0.0183559 22.9435C-0.042577 23.1025 -0.042577 23.2776 0.0183559 23.4365H12.247C12.328 23.281 12.3701 23.1091 12.3701 22.9347C12.3701 22.7603 12.328 22.5884 12.247 22.4329C11.9508 22.3525 11.649 22.2937 11.3439 22.2568C11.0138 22.2185 10.6876 22.1537 10.3685 22.0631C9.9115 21.7379 9.5495 21.3021 9.31825 20.7987C9.08699 20.2953 8.99448 19.7418 9.04987 19.193C8.86924 18.0308 8.77892 15.9002 8.77892 14.1394V12.7483H9.50145C10.4016 12.7215 11.3013 12.8163 12.1748 13.0301C12.5932 13.2822 12.9494 13.6212 13.218 14.023C13.4865 14.4248 13.6607 14.8794 13.7282 15.3544L13.8908 15.9002H14.9926V8.09978H13.9811L13.8185 8.85693C13.7501 9.34269 13.5658 9.80602 13.2803 10.2097C12.9948 10.6134 12.6162 10.9461 12.1748 11.1812C11.7473 11.3052 11.297 11.3353 10.8562 11.2693H8.77892V9.36757C8.77892 7.39545 8.8873 3.23991 8.95955 2.58841L9.04987 2.23624ZM93.5848 16.1996C92.731 14.8599 91.3993 13.8753 89.8458 13.4351C88.6548 13.0722 87.5539 12.4726 86.6125 11.6742C86.4007 11.4745 86.2422 11.2273 86.1509 10.9541C86.0596 10.681 86.0382 10.3902 86.0887 10.1071C86.0901 9.55191 86.3175 9.01994 86.7209 8.62803C86.9943 8.34886 87.3404 8.14735 87.7222 8.045C88.1039 7.94266 88.507 7.94334 88.8885 8.04696C89.6781 8.26634 90.3922 8.68985 90.955 9.27262C91.5179 9.85539 91.9085 10.5757 92.0856 11.3573C92.3746 12.1497 92.4107 12.1497 92.9346 11.9384L93.2597 11.8151V7.43067L93.0249 7.32502C91.2466 6.71618 89.3602 6.46461 87.4795 6.58547C85.8599 6.62548 84.314 7.25341 83.1444 8.3463C82.614 8.83033 82.1985 9.42153 81.927 10.0785C81.6556 10.7355 81.5347 11.4424 81.5729 12.1497C81.5831 13.231 82.0234 14.2663 82.8012 15.0374C83.6608 15.8615 84.7154 16.4663 85.8719 16.7982C88.6717 17.8723 89.4845 18.5591 89.4845 19.8092C89.4965 20.3365 89.3243 20.852 88.996 21.2711C88.6678 21.6903 88.2031 21.9882 87.6782 22.1159C87.0475 22.251 86.3943 22.251 85.7635 22.1159C84.9378 21.8035 84.2005 21.3034 83.6129 20.6571C83.0254 20.0109 82.6047 19.2373 82.3858 18.4006L82.1509 17.8371H81.8258C81.6704 17.8484 81.5179 17.8841 81.3742 17.9428H81.1936V22.9435H81.5007C82.721 23.3392 83.9801 23.6107 85.2578 23.7535H87.0641C87.8474 23.8095 88.6349 23.7381 89.3942 23.5422C90.3582 23.3688 91.2589 22.9525 92.0067 22.3347C92.7545 21.7169 93.3235 20.9191 93.6571 20.0205C93.8727 19.5187 93.9832 18.9799 93.9822 18.4358C94.0534 17.6693 93.9163 16.8981 93.5848 16.1996ZM76.5695 7.09611C75.4871 6.65311 74.3208 6.43821 73.1472 6.46552C71.9736 6.49283 70.8192 6.76174 69.7597 7.25459C68.7638 7.72945 67.8812 8.4026 67.1687 9.2306C66.4562 10.0586 65.9297 11.023 65.6233 12.0616C65.2326 13.1946 65.067 14.3898 65.1356 15.5833C65.1226 16.2326 65.1771 16.8815 65.2981 17.5202C65.5898 19.0905 66.3675 20.5362 67.5267 21.663C68.6859 22.7899 70.1711 23.5439 71.7828 23.8239C72.8323 23.9528 73.8943 23.9528 74.9438 23.8239C76.0329 23.6368 77.0752 23.2483 78.0145 22.6794C78.7915 22.2548 79.4491 21.65 79.9292 20.9186C79.8984 20.8038 79.8441 20.6963 79.7696 20.6025C79.6951 20.5087 79.6019 20.4305 79.4957 20.3727C79.2895 20.4455 79.0949 20.5463 78.9177 20.672C78.0192 21.2492 76.9583 21.5386 75.8831 21.4996C75.1694 21.5467 74.4539 21.4383 73.7885 21.1825C73.123 20.9267 72.5243 20.5298 72.0356 20.0205C71.6576 19.6783 71.3456 19.2728 71.1144 18.8232C70.5531 17.7285 70.2507 16.5251 70.2293 15.3015V14.6148H80.2363V14.2627C80.2584 13.9108 80.2584 13.558 80.2363 13.2062C80.2327 11.9629 79.8915 10.7426 79.2475 9.66946C78.6035 8.59629 77.6795 7.70844 76.5695 7.09611ZM71.5299 13.1886H70.2655V12.1497C70.6809 9.49083 71.7105 7.90609 72.9749 7.90609C74.2393 7.90609 74.7812 9.47322 75.016 12.3434V13.1533H73.9323L71.5299 13.1886ZM45.5552 6.51504C44.9311 6.49144 44.3106 6.61846 43.7489 6.88481C42.5281 7.46276 41.5421 8.424 40.9492 9.61409L40.7144 10.0367V6.51504H40.624C40.4073 6.51504 33.724 7.81805 33.5072 7.90609C33.2905 7.99413 33.3627 8.01174 33.3627 8.32869C33.3627 8.64563 33.3627 8.69846 33.5072 8.71607L34.2117 8.85693C34.409 8.86165 34.6026 8.91008 34.7778 8.99855C34.9531 9.08702 35.1054 9.21322 35.2232 9.36757C35.6748 9.94864 35.7651 10.9699 35.7651 15.3191C35.8543 17.2771 35.7697 19.2389 35.5122 21.1827C35.4516 21.4758 35.2991 21.7433 35.0759 21.9483C34.8526 22.1533 34.5696 22.2857 34.2659 22.3272L33.6517 22.4505H33.4169V22.9435C33.3514 23.1077 33.3514 23.2899 33.4169 23.4541H43.5141V22.9435C43.5492 22.775 43.5492 22.6014 43.5141 22.4329C42.9062 22.4098 42.3016 22.3332 41.7078 22.204C41.3845 22.0391 41.1199 21.7826 40.949 21.4683C40.7781 21.154 40.7089 20.7966 40.7505 20.4431C40.606 19.4219 40.5337 16.4285 40.5699 14.1394C40.606 11.8503 40.5699 11.7095 40.7685 11.551C41.373 11.0992 42.1209 10.8686 42.8819 10.8995C43.5992 10.9147 44.3035 11.0894 44.9411 11.4101C45.1621 11.5298 45.3993 11.6187 45.6456 11.6742C45.6456 11.6742 47.4519 7.41306 47.4519 7.21937C47.2207 6.95753 46.9262 6.756 46.5951 6.63302C46.2639 6.51004 45.9065 6.46949 45.5552 6.51504ZM33.3808 13.9105C33.3177 12.6522 32.9471 11.4268 32.2999 10.3365C31.6526 9.24608 30.7475 8.32226 29.6598 7.64197C28.3672 6.9622 26.9291 6.58738 25.461 6.54763C23.9928 6.50788 22.5356 6.80429 21.2063 7.41306C19.3268 8.37919 17.9077 10.0215 17.2505 11.9912C16.5716 14.1965 16.5716 16.5475 17.2505 18.7528C17.6064 19.958 18.2716 21.0549 19.1832 21.9398C20.3187 23.0198 21.7827 23.7118 23.3558 23.912C24.3656 23.9943 25.3806 23.9943 26.3904 23.912C26.762 23.8568 27.1299 23.7804 27.4922 23.6831C28.9625 23.2821 30.2852 22.4813 31.3056 21.3743C32.3261 20.2673 33.002 18.8999 33.2543 17.4321C33.4347 16.2668 33.4771 15.0852 33.3808 13.9105ZM25.8665 22.7146C24.0602 23.2428 22.7055 21.5348 22.2539 17.9428C22.0881 16.0622 22.0881 14.1711 22.2539 12.2905C22.6152 9.40279 23.5364 7.94131 24.9634 7.94131C25.2513 7.92391 25.5393 7.97398 25.8033 8.08733C26.0672 8.20068 26.2995 8.37401 26.4807 8.59281C27.6909 9.77256 28.287 12.1145 28.287 15.6361C28.4373 17.6291 28.1159 19.6292 27.3477 21.482C27.0085 22.0224 26.4837 22.428 25.8665 22.6266V22.7146ZM58.38 6.8672C57.8703 6.80327 57.3543 6.80327 56.8446 6.8672C55.8663 6.86639 54.8991 7.07056 54.0087 7.46588L53.4488 7.69479V3.87381C53.5467 2.5843 53.5467 1.28951 53.4488 0C53.232 0 46.332 1.2854 46.2236 1.33822C46.1703 1.46823 46.1703 1.61321 46.2236 1.74321C46.2236 2.11299 46.2236 2.09538 47.0364 2.27146C47.2646 2.32135 47.4839 2.40446 47.6867 2.51797C48.0393 2.84119 48.2739 3.2678 48.355 3.73294C48.5607 5.07297 48.6273 6.42979 48.5537 7.78283V23.2428L49.0414 23.3485C49.7639 23.507 51.8051 23.8415 52.4734 23.912C53.8079 24.0154 55.1488 24.0154 56.4834 23.912C57.9647 23.7645 59.3766 23.2257 60.567 22.3538C61.7575 21.4819 62.6813 20.3099 63.239 18.964C63.5714 18.1002 63.8017 17.2023 63.9254 16.2876C64.0329 15.0486 63.9904 13.8016 63.7989 12.5723C63.6051 11.1943 62.9812 9.90774 62.0118 8.88717C61.0425 7.8666 59.7745 7.16139 58.38 6.8672ZM53.6475 22.4153C53.6475 22.1864 53.4669 14.474 53.503 11.3925V8.98019L54.0268 8.85693C54.3802 8.80757 54.7391 8.80757 55.0925 8.85693C55.4834 8.81819 55.8766 8.90474 56.2124 9.10345C56.887 9.55728 57.4472 10.1544 57.8508 10.8498C58.2544 11.5451 58.4909 12.3207 58.5426 13.1181C58.6742 14.4003 58.6742 15.6921 58.5426 16.9743C58.4345 18.8379 57.6979 20.6145 56.4473 22.0279C56.0923 22.3565 55.6465 22.5769 55.1648 22.6618C54.8002 22.7236 54.4275 22.7236 54.0629 22.6618C53.7197 22.6618 53.7197 22.5561 53.7197 22.4153H53.6475Z" fill="white"/>
</g>
<defs>
<clipPath id="clip0_457_8291">
<rect width="94" height="24" fill="white"/>
</clipPath>
</defs>
</svg>
