<svg width="74" height="57" viewBox="0 0 74 57" fill="none" xmlns="http://www.w3.org/2000/svg">
<path d="M0.679688 44.3906H1.81381V49.5045L6.97146 44.3906H8.45068L2.89851 49.7682L8.92668 55.8037H7.36375L1.81381 50.098V55.8037H0.679688V44.3906Z" fill="#1A1A1A"/>
<path d="M14.3649 54.4646H14.3351C14.092 54.9549 13.7264 55.333 13.233 55.5923C12.7415 55.8547 12.22 55.9921 11.6706 56.0014C11.0904 55.9921 10.621 55.8986 10.259 55.7235C9.8872 55.5595 9.59999 55.3547 9.40496 55.1038C9.05408 54.5586 8.892 54.0732 8.91293 53.6468C8.91293 52.9487 9.08303 52.399 9.42099 51.9948C9.7505 51.5919 10.1722 51.3029 10.6869 51.1295C11.2017 50.942 11.761 50.8237 12.363 50.7674C12.9534 50.7364 13.5238 50.7191 14.0702 50.7191H14.2683V50.2927C14.3026 48.8685 13.6654 48.1517 12.363 48.1517C11.4965 48.1438 10.6763 48.3685 9.89788 48.8388V47.8565C10.6763 47.4864 11.4965 47.2927 12.363 47.2679C14.3449 47.2475 15.3259 48.2829 15.3054 50.3769V54.0559C15.2929 54.6885 15.3214 55.2722 15.386 55.8064H14.3654V54.4646H14.3649ZM14.2674 51.6025H13.9718C13.5229 51.6025 13.0745 51.6131 12.6226 51.6335C12.1524 51.6787 11.7253 51.7727 11.3411 51.9132C10.9586 52.0427 10.6536 52.2457 10.4225 52.5192C10.1718 52.7909 10.0444 53.1579 10.0444 53.6153C10.0444 54.1495 10.2203 54.5307 10.5721 54.7585C10.8971 55.0005 11.3041 55.1175 11.7859 55.1175C12.3884 55.1175 12.8675 55.0005 13.2166 54.7585C13.5545 54.5307 13.803 54.2572 13.9553 53.9434C14.1205 53.6047 14.214 53.2705 14.2336 52.9456C14.2581 52.6065 14.2674 52.3272 14.2674 52.11V51.6025Z" fill="#1A1A1A"/>
<path d="M16.583 54.938L21.6271 48.3467H16.7812V47.4629H22.8258V48.3467L17.7839 54.922H22.8258V55.8046H16.583V54.938Z" fill="#1A1A1A"/>
<path d="M29.0519 54.4646H29.0189C28.7794 54.9549 28.4107 55.333 27.9169 55.5923C27.4244 55.8547 26.903 55.9921 26.3579 56.0014C25.7764 55.9921 25.3044 55.8986 24.9442 55.7235C24.5724 55.5595 24.2878 55.3547 24.0924 55.1038C23.7415 54.5586 23.575 54.0732 23.5954 53.6468C23.5954 52.9487 23.7669 52.399 24.1084 51.9948C24.4339 51.5919 24.8569 51.3029 25.3721 51.1295C25.8864 50.942 26.4434 50.8237 27.0459 50.7674C27.6381 50.7364 28.2094 50.7191 28.7553 50.7191H28.9544V50.2927C28.9873 48.8685 28.3515 48.1517 27.0459 48.1517C26.1834 48.1438 25.3614 48.3685 24.5822 48.8388V47.8565C25.3619 47.4864 26.1834 47.2927 27.0459 47.2679C29.0296 47.2475 30.0083 48.2829 29.9874 50.3769V54.0559C29.9781 54.6885 30.0039 55.2722 30.0689 55.8064H29.0523V54.4646H29.0519ZM28.9544 51.6025H28.6569C28.209 51.6025 27.7579 51.6131 27.3104 51.6335C26.8375 51.6787 26.4105 51.7727 26.028 51.9132C25.6437 52.0427 25.3369 52.2457 25.1089 52.5192C24.8569 52.7909 24.7309 53.1579 24.7309 53.6153C24.7309 54.1495 24.9054 54.5307 25.2572 54.7585C25.5854 55.0005 25.9897 55.1175 26.4719 55.1175C27.074 55.1175 27.55 55.0005 27.9004 54.7585C28.2401 54.5307 28.4873 54.2572 28.6409 53.9434C28.8034 53.6047 28.8974 53.2705 28.9192 52.9456C28.9419 52.6065 28.9544 52.3272 28.9544 52.11V51.6025Z" fill="#1A1A1A"/>
<path d="M31.5486 49.4254C31.5486 48.7853 31.5259 48.1293 31.4814 47.4657H32.4864V48.9537H32.5189C32.6168 48.7569 32.7326 48.5601 32.8648 48.3633C32.9953 48.1665 33.1578 47.9883 33.3547 47.8248C33.5653 47.6501 33.8213 47.5154 34.1285 47.4143C34.4358 47.319 34.8022 47.2676 35.2293 47.2676C36.2583 47.28 36.9975 47.5863 37.4468 48.1856C37.8733 48.7742 38.0857 49.5362 38.0857 50.4763V55.8039H37.0527V50.7352C37.0527 49.9404 36.9053 49.3066 36.6083 48.838C36.2908 48.393 35.7765 48.1634 35.0659 48.151C34.1446 48.1745 33.4989 48.4976 33.1249 49.1333C32.9276 49.4254 32.7918 49.7467 32.7148 50.0965C32.6284 50.4586 32.5839 50.8225 32.5839 51.194V55.8034H31.549V49.4254H31.5486Z" fill="#1A1A1A"/>
<path d="M40.9141 54.8236L43.5426 51.93C44.2666 51.1557 44.9016 50.3653 45.4466 49.5595C45.9961 48.7612 46.2819 48.0183 46.3028 47.3153C46.2913 46.6951 46.0976 46.2036 45.7258 45.829C45.3553 45.4589 44.8731 45.2652 44.2835 45.2577C43.2941 45.2656 42.3742 45.5418 41.5219 46.0741L41.3242 45.0436C41.7592 44.825 42.2379 44.6424 42.7522 44.4877C43.2576 44.3472 43.7461 44.2754 44.2154 44.2754C45.1799 44.2754 45.9667 44.5156 46.5816 44.9952C47.2041 45.4842 47.5234 46.2443 47.534 47.2687C47.5113 48.1291 47.1747 49.0191 46.5166 49.9327C45.8696 50.86 45.1576 51.7377 44.3806 52.567L42.3096 54.8236H47.7972V55.8059H40.9141V54.8236Z" fill="#1A1A1A"/>
<path d="M52.8883 44.2754C53.6573 44.2865 54.2847 44.4598 54.7785 44.7984C55.2705 45.1482 55.6548 45.6074 55.9273 46.1725C56.4327 47.3733 56.6718 48.6818 56.6518 50.0998C56.6518 50.696 56.6117 51.3303 56.5387 51.9939C56.4483 52.6698 56.2737 53.301 56.0092 53.891C55.7572 54.4797 55.3801 54.9593 54.8787 55.3325C54.3737 55.7137 53.7112 55.9074 52.8883 55.9198C52.0908 55.9074 51.4438 55.7137 50.9518 55.3325C50.4468 54.9593 50.0639 54.4801 49.7998 53.891C49.5487 53.301 49.3728 52.6698 49.2758 51.9939C49.1653 51.3303 49.1168 50.696 49.1261 50.0998C49.1061 48.6818 49.3523 47.3733 49.8649 46.1725C50.1396 45.6074 50.5274 45.1482 51.0319 44.7984C51.5275 44.4593 52.1438 44.286 52.8883 44.2754ZM52.8883 45.2572C52.2979 45.2652 51.8343 45.4256 51.4923 45.7319C51.1299 46.0471 50.8623 46.4549 50.6864 46.9562C50.5114 47.4606 50.3979 47.9824 50.3426 48.5254C50.2879 49.0936 50.2594 49.6167 50.2594 50.0994C50.2594 50.5785 50.2874 51.094 50.3426 51.6499C50.3979 52.1964 50.5118 52.7177 50.6864 53.2208C50.8623 53.7204 51.1294 54.1264 51.4923 54.4327C51.8343 54.7682 52.2979 54.9384 52.8883 54.9384C53.4903 54.9384 53.9681 54.7682 54.319 54.4327C54.6685 54.1268 54.9312 53.7208 55.1084 53.2208C55.283 52.7177 55.4028 52.1964 55.4678 51.6499C55.5012 51.094 55.5194 50.5785 55.5194 50.0994C55.5194 49.6167 55.5007 49.0936 55.4678 48.5254C55.4028 47.9819 55.2826 47.4606 55.1084 46.9562C54.9312 46.4549 54.6685 46.0475 54.319 45.7319C53.9685 45.4261 53.4903 45.2652 52.8883 45.2572Z" fill="#1A1A1A"/>
<path d="M60.431 44.3906H61.4502V55.8037H60.3143V45.6632L58.4602 47.2824L57.835 46.5484L60.431 44.3906Z" fill="#1A1A1A"/>
<path d="M67.857 44.2715C68.6242 44.2715 69.2472 44.4262 69.7312 44.7289C70.221 45.0348 70.5933 45.447 70.8457 45.9576C71.1178 46.4714 71.3053 47.0458 71.4068 47.6908C71.4932 48.334 71.5372 48.998 71.5372 49.685C71.5457 51.4403 71.1748 52.9066 70.4187 54.0852C69.6292 55.2843 68.2787 55.8951 66.3613 55.9172C65.7393 55.9061 65.1244 55.8188 64.5228 55.6561L64.6203 54.5755C65.1569 54.8144 65.786 54.9363 66.5074 54.9363C67.9777 54.8924 69.0001 54.3977 69.5825 53.4447C70.1395 52.4891 70.4151 51.404 70.4022 50.1921H70.3697C70.0723 50.6619 69.6902 51.0117 69.2178 51.24C68.7382 51.4789 68.223 51.599 67.6758 51.599C67.2929 51.599 66.8988 51.5383 66.4918 51.4177C66.0764 51.3118 65.6916 51.1256 65.343 50.8619C64.9921 50.5884 64.7018 50.2262 64.472 49.767C64.2311 49.3096 64.1113 48.7333 64.1113 48.0339C64.1113 46.9 64.4453 45.9882 65.1123 45.3043C65.77 44.6274 66.6833 44.2839 67.857 44.2715ZM67.6758 50.619C68.5067 50.619 69.1559 50.3769 69.615 49.8973C70.0643 49.4523 70.2878 48.8481 70.2878 48.0826C70.2878 47.3411 70.0963 46.6886 69.7143 46.1199C69.3082 45.5529 68.6763 45.2657 67.8227 45.2533C66.9807 45.2657 66.3458 45.517 65.9174 46.0042C65.4699 46.5193 65.2446 47.1677 65.2446 47.9527C65.245 49.7072 66.0541 50.5986 67.6758 50.619Z" fill="#1A1A1A"/>
<path d="M17.5592 33.9316C14.485 33.9316 13.3945 36.3647 13.3945 38.4493C13.3945 40.5335 14.485 42.967 17.5592 42.967C20.6334 42.967 21.7239 40.5335 21.7239 38.4493C21.7239 36.3651 20.6339 33.9316 17.5592 33.9316ZM17.5592 42.1089C15.759 42.1089 14.55 40.639 14.55 38.4493C14.55 36.2605 15.759 34.7898 17.5592 34.7898C19.359 34.7898 20.5689 36.2605 20.5689 38.4493C20.5689 40.639 19.359 42.1089 17.5592 42.1089Z" fill="#1A1A1A"/>
<path d="M23.7228 35.5177V34.1023H22.7432L22.7441 42.7295H23.7927V38.4676L23.7909 38.4121C23.7927 36.8231 24.2451 34.9233 26.3998 34.9233L26.7271 34.9388L26.7311 34.9051L26.7836 33.8989L26.6616 33.8984C25.2065 33.898 24.2202 34.445 23.7228 35.5177Z" fill="#1A1A1A"/>
<path d="M45.0333 35.7815C44.3101 35.5439 43.7816 35.4065 42.9182 35.4065C42.2832 35.4065 41.5258 35.6286 41.5258 36.3782C41.5258 37.7757 45.6326 36.8897 45.6326 40.0568C45.6326 42.102 43.7468 42.9202 41.8255 42.9202C40.9251 42.9202 40.0092 42.7673 39.1458 42.5457L39.2865 40.6707C40.0266 41.0279 40.8022 41.25 41.6126 41.25C42.2133 41.25 43.1649 41.0279 43.1649 40.1769C43.1649 38.4561 39.0576 39.6312 39.0576 36.4628C39.0576 34.5723 40.7675 33.7363 42.6181 33.7363C43.729 33.7363 44.4522 33.9074 45.1918 34.0608L45.0333 35.7815Z" fill="#1A1A1A"/>
<path d="M58.3959 33.9531H56.0332V42.7274H58.3959V33.9531Z" fill="#1A1A1A"/>
<path d="M73.17 35.7815C72.4473 35.5439 71.9187 35.4065 71.0549 35.4065C70.4195 35.4065 69.6621 35.6286 69.6621 36.3782C69.6621 37.7757 73.7689 36.8897 73.7689 40.0568C73.7689 42.102 71.8831 42.9202 69.9617 42.9202C69.0618 42.9202 68.1459 42.7673 67.2821 42.5457L67.4232 40.6707C68.1633 41.0279 68.9394 41.25 69.7498 41.25C70.3496 41.25 71.3016 41.0279 71.3016 40.1769C71.3016 38.4561 67.1943 39.6312 67.1943 36.4628C67.1943 34.5723 68.9042 33.7363 70.7557 33.7363C71.8658 33.7363 72.5876 33.9074 73.3285 34.0608L73.17 35.7815Z" fill="#1A1A1A"/>
<path d="M51.4194 37.8866L54.7661 33.9536H51.9805L49.1605 37.4637H49.1254V29.2324L46.7627 29.9509V42.7279H49.1254V38.4686H49.1605L52.1929 42.7279H55.1892L51.4194 37.8866Z" fill="#1A1A1A"/>
<path d="M37.6423 29.716L36.636 30.0227V35.3564C36.4173 34.9916 35.5989 33.876 33.7662 33.8981C30.7329 33.9367 30.0957 36.3759 30.0957 38.4167C30.0957 41.203 31.5024 42.9348 33.7666 42.9348C35.1153 42.9348 36.0273 42.4402 36.6355 41.3919V42.7301H37.6842V29.7031L37.6423 29.716ZM33.9429 42.0758C31.513 42.0758 31.2503 39.5169 31.2503 38.4167C31.2503 37.3157 31.513 34.7572 33.9429 34.7572C35.8029 34.7572 36.636 36.5949 36.636 38.4167C36.636 40.2385 35.8029 42.0758 33.9429 42.0758Z" fill="#1A1A1A"/>
<path d="M28.8843 29.7169L27.8779 30.0223V42.7301H28.9266V29.7031L28.8843 29.7169Z" fill="#1A1A1A"/>
<path d="M59.9199 29.9509V42.7283H62.2817V29.2324L59.9199 29.9509Z" fill="#1A1A1A"/>
<path d="M63.643 29.9509H63.6416V42.7283H66.0047V29.2324L63.643 29.9509Z" fill="#1A1A1A"/>
<path d="M58.5804 30.679C58.5804 29.9551 57.9904 29.3691 57.2646 29.3691C56.5388 29.3691 55.9492 29.9551 55.9492 30.679C55.9492 31.4024 56.5388 31.9888 57.2646 31.9888C57.9904 31.9888 58.5804 31.4019 58.5804 30.679Z" fill="#1A1A1A"/>
<path d="M1.12611 34.1035H0L0.0142487 34.1465C0.0681277 34.3092 2.83687 42.6318 2.86314 42.7081L2.87071 42.7311H4.16602C4.16602 42.7311 6.60125 35.2626 6.61594 35.2174H6.69609C6.71123 35.2626 9.14646 42.7311 9.14646 42.7311H10.4422L13.3828 34.104H12.3369C12.3369 34.104 9.86647 41.5724 9.85133 41.6172H9.77118C9.75693 41.5724 7.39206 34.104 7.39206 34.104H6.0963C6.0963 34.104 3.60853 41.5724 3.59295 41.6172H3.5128C3.49855 41.5711 1.1506 34.104 1.1506 34.104H1.12611V34.1035Z" fill="#1A1A1A"/>
<path d="M53.915 14.8711C53.915 14.8711 58.0628 14.1402 59.4209 10.8574C59.4209 10.8574 83.571 15.7816 69.3145 28.6055C69.3145 28.6055 74.6049 23.6468 71.6505 19.68C71.6505 19.68 73.2993 24.6047 66.841 27.9216C66.8406 27.9216 80.8472 18.0178 53.915 14.8711Z" fill="#1A1A1A"/>
<path d="M67.1476 13.0749C68.8366 13.9064 70.0192 14.7233 70.7103 15.2606C71.014 6.65382 64.8148 1.8418 64.8148 1.8418C64.6345 2.39321 64.0935 3.0089 63.32 3.29081C62.5475 3.57317 62.083 4.49603 62.083 4.49603C65.1131 7.00399 66.5683 10.0669 67.1476 13.0749Z" fill="#1A1A1A"/>
<path d="M58.7794 11.4676C59.1455 10.9237 59.2479 10.55 59.2479 10.55C60.8442 10.8324 62.2767 11.2047 63.5524 11.6209C60.9065 4.11034 55.9853 0 55.9853 0C55.8482 0.393171 54.405 1.11125 53.4259 1.539C52.4467 1.9663 52.7045 3.77878 52.7045 3.77878C55.3958 5.99242 57.3532 8.70206 58.7794 11.4676Z" fill="#1A1A1A"/>
<path d="M68.9047 19.7871C68.5716 23.4923 66.3613 27.4262 66.3613 27.4262C67.922 25.0632 68.9888 22.8447 69.6781 20.7769C69.4849 20.4276 69.2239 20.0983 68.9047 19.7871Z" fill="#1A1A1A"/>
<path d="M68.614 19.5228C68.2502 19.2116 67.829 18.9195 67.3624 18.6465C66.9745 22.6336 65.6387 25.63 65.6387 25.63C66.4117 24.7577 67.0039 23.3472 67.0039 23.3472C67.0297 24.3477 66.2055 26.3224 66.2055 26.3224C67.6242 24.0547 68.3028 21.2981 68.614 19.5228Z" fill="#1A1A1A"/>
<path d="M60.2324 27.2865C59.3739 26.8259 58.1285 26.3361 55.5695 24.3636C57.506 25.8149 60.7405 26.7426 60.7405 26.7426C53.6 23.1349 52.0438 19.8641 52.0438 19.8641C51.3563 19.8419 50.9421 20.2759 50.6701 20.4248C50.398 20.5738 49.6553 20.5605 49.6553 20.5605C52.3764 24.9283 60.2324 27.2865 60.2324 27.2865Z" fill="#1A1A1A"/>
<path d="M57.039 15.5284C54.6665 15.1375 52.9241 14.9859 52.9241 14.9859C53.8726 14.7487 54.679 14.4606 55.3696 14.1472C52.0305 11.7262 48.7038 11.1309 48.7038 11.1309C48.7038 11.1309 48.0858 11.3356 47.9994 12.3618C47.9139 13.3879 47.124 13.5249 47.124 13.5249C59.594 16.8418 61.4659 27.0669 61.4659 27.0669C60.6154 22.4504 58.8121 19.5009 58.8121 19.5009C60.7187 21.4499 62.0328 26.4002 62.0328 26.4002C61.6093 21.2828 59.4777 17.8329 57.039 15.5284Z" fill="#1A1A1A"/>
<path d="M60.7705 16.2695C62.5659 21.7837 62.5997 26.4521 62.5997 26.4521C63.928 23.8878 63.5785 17.988 63.5785 17.988C64.8154 20.3989 64.6605 26.9649 64.6605 26.9649C65.2946 23.5146 65.3195 20.3595 64.9552 17.5195C63.639 17.0173 62.1914 16.6051 60.7705 16.2695Z" fill="#1A1A1A"/>
</svg>
