<?xml version="1.0" encoding="utf-8"?>
<!-- Generator: Adobe Illustrator 25.2.3, SVG Export Plug-In . SVG Version: 6.00 Build 0)  -->
<svg version="1.1" id="Слой_3" xmlns="http://www.w3.org/2000/svg" xmlns:xlink="http://www.w3.org/1999/xlink" x="0px" y="0px"
	 viewBox="0 0 443 415" style="enable-background:new 0 0 443 415;" xml:space="preserve">
<style type="text/css">
	.st0{fill:#FFFFFF;}
	.st1{fill:url(#SVGID_1_);}
	.st2{fill:url(#SVGID_2_);}
</style>
<g>
	<path class="st0" d="M332.8,69.5c-6.5,0.8-12.5,2.7-18.2,5.7l0,0c-7.6,4.2-13.3,11-16,18.6c-4.2,9.1-5.7,20.5-4.2,33.1
		c1.1,11.8,6.8,22.4,15.2,29.3c7.6,6.5,18.2,9.9,30.4,9.9c5.7,0,13.7-0.4,20.9-3.8l0,0l0,0c-0.4-1.9-0.8-3.8-1.1-5.7
		c-0.4-1.9-0.8-3.4-0.8-5.3v-0.4h-0.4c-6.1,3-13.7,3.8-23.2,3c-9.9-0.8-18.2-5.7-23.2-13.3c-7.6-11.8-6.8-25.8-4.9-36.1
		c1.9-9.9,8.7-18.2,17.5-21.7c10.6-3.8,22.8-3.4,33.8,0.4l0,0v-0.4c0.4-1.9,0.8-3.4,1.1-5.3c0.4-1.9,0.8-3.4,1.1-5.3l0,0l0,0
		C353.7,69.5,344.6,68.4,332.8,69.5z"/>
	<rect x="3.4" y="69.9" class="st0" width="12.5" height="94.6"/>
	<path class="st0" d="M44.4,164.9c1.1-12.2,2.3-24.7,3-36.5c0.8-11.8,1.9-23.6,3-35.7c3.8,11.8,7.6,23.9,11.4,35.7
		s7.6,24.3,11.8,36.5l0,0H87l0,0c3.4-11.4,7.2-22.8,11-33.8c4.2-12.5,8.4-25.8,12.5-38.8c0.8,11.8,1.9,23.9,2.7,35.7
		c0.8,12.2,1.9,24.7,3,36.5l0,0h12.5v-0.4c-2.7-29.3-4.9-59.7-7.6-88.9l-0.4-5.3l0,0h-15.2l0,0c-8,27-16.3,54-24.7,80.6
		c-4.2-13.3-8.4-27-12.5-39.9c-4.2-13.3-8.4-27-12.9-40.3l0,0H40.2l0,0c-2.7,31.5-5.3,62.7-8.4,94.2v0.4L44.4,164.9L44.4,164.9z"/>
	<path class="st0" d="M158,130h18.2c8-0.4,19-2.3,25.8-10.3c6.5-6.8,7.2-17.1,6.5-24.3c-0.4-6.8-3.8-13.7-9.1-17.9
		s-12.9-6.5-23.6-6.8h-29.6l0,0c0,32.3,0,62.7-0.4,94.2l0,0h12.5v-35H158z M158.4,82.1c2.7,0,5.3,0,8,0c5.7,0,11.4-0.4,16.3,1.5
		c4.2,1.1,9.5,3.8,11.4,9.9c1.1,4.2,2.7,11.8-1.9,18.2c-4.2,5.7-12.2,6.8-16.7,7.2H158V82.1H158.4z"/>
	<path class="st0" d="M205.5,164.9h12.9l9.1-25.1h39.9l9.1,25.1l0,0h13.3v-0.4c-11.4-30.4-23.2-61.2-34.2-91.6l-1.1-2.7l0,0H242l0,0
		c-3.4,8.7-6.5,17.1-9.9,25.8C223.8,118.9,215,141.7,205.5,164.9L205.5,164.9z M232.1,128.4c4.9-12.9,9.9-26.6,16-44.1
		c2.7,7.2,5.3,14.8,8,22.4c2.7,7.2,5.3,14.8,7.6,22h-31.5V128.4z"/>
	<path class="st0" d="M372,70.7L372,70.7c0,3.8,0,7.6,0.4,11.8l0,0h27.7v82.8h12.5V82.1h27.7V70.3H372V70.7z"/>
	<polygon class="st0" points="2.6,192.7 3,192.7 3,204.1 30.7,204.1 30.7,286.9 42.9,286.9 42.9,204.1 70.6,204.1 70.6,192.7 	"/>
	<polygon class="st0" points="136,204.1 136,192.7 83.2,192.7 83.2,286.9 136,286.9 136,275.5 95.3,275.5 95.3,243.6 132.2,243.6 
		132.2,232.5 95.3,232.5 95.3,204.1 	"/>
	<path class="st0" d="M216.6,286.9h13.3v-0.4c-6.1-15.6-11.8-31.5-17.9-47.1c-5.7-15.6-11.8-31.5-17.5-47.1l0,0H182l0,0
		c-12.5,33.1-24.7,65-36.5,94.2v0.4h12.9l9.1-25.1h39.9C210.5,270.2,213.5,278.5,216.6,286.9L216.6,286.9z M203.6,250.8h-31.9
		c5.3-14.4,10.6-29.3,16-43.7c3.8,9.5,7.2,19.4,10.6,29.3C200.2,240.9,202.1,245.8,203.6,250.8z"/>
	<path class="st0" d="M331.3,237.1c-1.1-14.8-2.7-29.6-3.8-44.5l0,0h-15.2l0,0c-8,27-16.3,54-24.7,80.6c-4.2-13.3-8.4-27-12.5-39.9
		c-4.2-13.3-8.4-27-12.5-40.3l0,0h-15.2l0,0c-2.7,31.2-5.3,63.1-8.7,94.2v0.4h12.5l0,0c1.1-12.2,2.3-24.7,3-36.5
		c0.8-11.8,1.9-23.6,3-35.7c7.6,24.3,15.6,48.6,23.2,72.2l0,0h13.3l0,0c3.8-12.2,8-24.3,11.8-36.5c3.8-11.8,8-23.9,11.8-36.1
		c0.8,11.8,1.9,23.9,2.7,36.1c0.8,12.2,1.9,24.3,2.7,36.5l0,0h12.5v-0.4C334.4,270.2,332.8,253.8,331.3,237.1z"/>
	<path class="st0" d="M41,376.6c6.8-7.2,14.4-15.6,17.5-26.2c2.3-9.5,1.1-18.2-3-23.9c-3.8-5.7-11.4-9.9-19.8-10.6
		c-9.5-1.1-19.4,0.8-28.5,4.9l0,0l0,0c0,4.2,0,8.4-0.4,12.9v0.4h0.4c6.8-4.6,13.3-6.5,19.8-6.5c4.2-0.4,12.5,0,17.5,6.1
		c3,4.6,3.8,11.4,1.5,18.2c-3,8-9.5,14.4-15.6,20.5c-5.7,5.7-11.4,11-17.5,16c-3,2.7-6.1,5.3-8.7,8l0,0v11.8h57.8v-11.4H18.2
		C25.8,390.2,33.8,383.4,41,376.6z"/>
	<path class="st0" d="M124.2,322.2c-8.4-7.6-19.8-7.2-25.8-6.5c-6.8,0.8-13.7,4.6-18.2,10.3c-6.5,8.4-8,19.8-8.7,28.5
		c-0.4,11-0.4,20.1,1.9,29.3c1.9,8,4.9,13.7,9.1,17.5c5.7,5.7,13.3,7.2,18.6,7.6c0.8,0,1.5,0,2.3,0c6.8,0,15.6-1.5,21.3-7.2
		c5.7-5.7,9.1-14.1,10.6-25.5c1.1-11,1.1-21.7-0.4-31.5C133.7,337.8,131.1,328.3,124.2,322.2z M123.5,372.8
		c-0.8,6.5-1.9,13.7-6.1,19.4c-2.3,3.4-7.2,5.7-12.2,5.7c-6.1,0.4-11.4-1.5-14.4-5.3c-4.6-5.3-5.7-12.2-6.5-17.5
		c-0.8-8.4-0.8-16.7,0-25.1c0.8-5.7,1.9-11.8,5.3-16.7c1.9-3,4.6-5.3,8-6.1c6.1-1.1,11.4-0.8,16,1.5c4.2,2.7,7.2,7.2,8.7,14.8
		C123.8,352.2,124.2,361.4,123.5,372.8z"/>
	<path class="st0" d="M188.1,353.8c-8.4-4.6-18.6-5.7-29.3-3c0-3.8,0.4-7.6,0.4-11.4s0.4-7.6,0.4-11.8h38v-12.2h-47.9l0,0
		c-1.1,16.7-1.9,32.3-2.3,48.3v0.4h0.4c8-3,16-4.2,22.8-3.4c6.1,0.4,11.4,2.7,14.4,6.5c4.6,5.7,3.8,12.9,3,17.1
		c-1.5,5.3-6.1,10.3-11.8,11.8c-8.7,2.7-19.4,1.9-29.6-2.3h-0.4v12.5l0,0c6.1,2.3,12.5,3.4,19.4,3.4c3.8,0,8-0.4,11.8-1.1
		c8.4-1.5,15.2-6.1,19-11.8c5.3-8.4,4.9-18.6,4.2-23.9C199.1,364.4,194.5,357.6,188.1,353.8z"/>
	<path class="st0" d="M266.3,321.8c-7.6-6.1-17.9-6.8-25.1-6.1l0,0c-8,0.8-15.6,5.3-19.8,11.4c-6.5,9.9-7.6,22-8,33.4
		c0,9.9,0.4,20.1,4.2,29.6c3.4,8.4,9.1,14.1,16,16.3c3.8,1.5,8,1.9,12.2,1.9c3.8,0,7.6-0.4,11.4-1.5c6.5-1.9,12.2-6.5,15.2-12.9
		c4.6-8.7,5.7-18.6,6.1-27c0.4-9.1,0-17.1-1.5-25.1C275.5,332.9,271.7,326,266.3,321.8z M265.6,373.5c-0.8,6.8-1.9,14.1-6.5,19.4
		c-4.2,5.3-11.8,5.3-17.5,4.2c-4.2-0.8-8-3.8-10.6-8.4c-3.4-6.8-4.2-14.4-4.6-20.9c-0.4-7.2-0.4-16,1.5-24.3
		c1.5-6.5,4.6-14.4,12.2-16.3l0,0c2.3-0.8,4.2-0.8,6.5-0.8c3.4,0,6.8,0.8,9.5,2.3c4.2,2.7,7.2,8,8.7,16
		C266,353.4,266.3,362.9,265.6,373.5z"/>
</g>
<linearGradient id="SVGID_1_" gradientUnits="userSpaceOnUse" x1="4.9683" y1="387.6413" x2="410.6984" y2="387.6413" gradientTransform="matrix(1 0 0 -1 0 415)">
	<stop  offset="0" style="stop-color:#E84629"/>
	<stop  offset="0.41" style="stop-color:#E84629"/>
	<stop  offset="0.46" style="stop-color:#DA5840"/>
	<stop  offset="0.55" style="stop-color:#C16C61"/>
	<stop  offset="0.62" style="stop-color:#A27A80"/>
	<stop  offset="0.66" style="stop-color:#917E8E"/>
	<stop  offset="0.71" style="stop-color:#7184A3"/>
	<stop  offset="0.75" style="stop-color:#5686B0"/>
	<stop  offset="0.77" style="stop-color:#4187B8"/>
	<stop  offset="0.8" style="stop-color:#1888C3"/>
	<stop  offset="0.84" style="stop-color:#1A7CB2"/>
	<stop  offset="0.91" style="stop-color:#186392"/>
	<stop  offset="0.97" style="stop-color:#20517B"/>
	<stop  offset="1" style="stop-color:#20476F"/>
</linearGradient>
<polygon class="st1" points="400.5,0 14.8,0 10.2,0 2.6,0 2.6,54.7 14.8,54.7 14.8,12.2 400.5,12.2 400.5,54.7 412.6,54.7 412.6,0 
	"/>
<linearGradient id="SVGID_2_" gradientUnits="userSpaceOnUse" x1="285.6627" y1="114.0547" x2="410.6978" y2="114.0547" gradientTransform="matrix(1 0 0 -1 0 415)">
	<stop  offset="0" style="stop-color:#EA5829"/>
	<stop  offset="0.43" style="stop-color:#ED7325"/>
	<stop  offset="1" style="stop-color:#F0921A"/>
</linearGradient>
<polygon class="st2" points="284.6,397.8 400.5,397.8 400.5,191.9 412.6,191.9 412.6,410 400.5,410 284.6,410 "/>
</svg>
