<svg width="64" height="65" viewBox="0 0 64 65" fill="none" xmlns="http://www.w3.org/2000/svg">
<path d="M53.511 36.8065V29.8871H55.843V28.1786H49.4163V29.8871H51.7484V36.8065H53.511ZM1.98856 2.49441H59.1242V25.3027H60.8868V0.643555H0.225952V13.8274H1.98856V2.49441ZM8.63224 16.7033V21.6294C8.63224 22.3128 8.71359 22.9108 8.84918 23.3949C9.01188 23.8789 9.22881 24.2776 9.49998 24.5908C9.79827 24.904 10.1237 25.1318 10.5576 25.2742C10.9643 25.4166 11.4253 25.502 11.9676 25.502C13.0523 25.502 13.8929 25.1888 14.4624 24.5908C15.0319 23.9644 15.303 22.9962 15.303 21.6579V16.7318H13.5404V21.4301C13.5404 21.8288 13.5133 22.1704 13.4862 22.4552C13.4591 22.7399 13.3777 22.9962 13.2421 23.1955C13.1337 23.3949 12.971 23.5372 12.754 23.6511C12.5371 23.765 12.293 23.822 11.9676 23.822C11.6694 23.822 11.3982 23.765 11.2084 23.6796C10.9914 23.5657 10.8558 23.4233 10.7203 23.224C10.6118 23.0247 10.5304 22.7684 10.4762 22.4837C10.422 22.1989 10.3948 21.8572 10.3948 21.4586V16.7603H8.63224V16.7033ZM12.7269 35.1834H9.2017V33.1617H12.293V31.6241H9.2017V29.7732H12.6998V28.1501H7.43909V36.778H12.6998V35.1834H12.7269ZM3.53423 39.6824V48.3102H5.24261V42.2167L8.49665 48.3102H10.4491V39.6824H8.74071V45.5767L5.62225 39.6824H3.53423ZM42.0676 25.3311V16.7033H40.3592V22.5976L37.2407 16.7033H35.1798V25.3311H36.8882V19.2376L40.1423 25.3311H42.0676ZM41.9862 30.3996C42.2303 30.1718 42.5014 30.001 42.854 29.8871C43.1794 29.7732 43.559 29.7162 43.9658 29.7162C44.1556 29.7162 44.3725 29.7447 44.6437 29.7732C44.9149 29.8017 45.1589 29.8871 45.403 29.9725L45.7826 28.4064C45.5657 28.2925 45.2674 28.2071 44.9149 28.1217C44.5623 28.0362 44.1556 28.0078 43.7217 28.0078C43.0438 28.0078 42.4472 28.0932 41.9049 28.2925C41.3625 28.4918 40.9015 28.7766 40.549 29.1752C40.1694 29.5739 39.8982 30.0295 39.6813 30.599C39.4914 31.1685 39.383 31.8234 39.383 32.5637C39.383 33.2756 39.4914 33.902 39.6813 34.4431C39.8711 34.9841 40.1694 35.4397 40.5219 35.8098C40.8744 36.18 41.3354 36.4648 41.8506 36.6356C42.3659 36.8349 42.9353 36.9204 43.559 36.9204C43.8573 36.9204 44.1285 36.8919 44.3454 36.8919C44.5895 36.8634 44.7793 36.8349 44.9691 36.778C45.1318 36.721 45.2945 36.6641 45.4301 36.6071C45.5657 36.5502 45.6741 36.4932 45.7826 36.4363L45.4301 34.8987C45.186 35.0126 44.9149 35.098 44.6437 35.1549C44.3725 35.2119 44.1556 35.2403 43.9658 35.2403C43.1251 35.2403 42.4743 35.0125 41.9862 34.557C41.4981 34.1014 41.2541 33.418 41.2541 32.5068C41.2541 32.0227 41.3083 31.6241 41.4439 31.2539C41.5523 30.9122 41.7422 30.6274 41.9862 30.3996ZM36.4272 36.8065H38.1898V28.1786H36.4272V36.8065ZM25.4177 41.3055V39.6824H20.157V48.3102H25.4177V46.6872H21.9196V44.6655H25.0109V43.1278H21.9196V41.277H25.4177V41.3055ZM7.16792 25.3311V16.7033H5.40531V20.0918H1.98856V16.7033H0.225952V25.3311H1.98856V21.7433H5.40531V25.3311H7.16792ZM17.8249 47.1713C18.5842 46.4309 18.9638 45.2919 18.9638 43.8112C18.9638 43.1563 18.8825 42.5583 18.7198 42.0458C18.5571 41.5333 18.313 41.1061 17.9605 40.736C17.608 40.3658 17.1741 40.1095 16.6318 39.9102C16.0894 39.7394 15.4386 39.6255 14.6522 39.6255H11.9405V48.2533H14.4895C15.9538 48.3102 17.0385 47.9116 17.8249 47.1713ZM13.7031 46.6872V41.3055H14.5438C15.4386 41.3055 16.0894 41.5048 16.4962 41.9319C16.9029 42.359 17.0928 43.014 17.0928 43.9251C17.0928 45.776 16.1979 46.6872 14.4353 46.6872H13.7031ZM28.8344 23.4518H31.98L32.5766 25.3311H34.3663L31.6004 16.7033H29.3226L26.5295 25.3311H28.265L28.8344 23.4518ZM30.4343 18.184L31.519 21.8003H29.3226L30.4343 18.184ZM1.14793 35.8383C1.50045 36.2085 1.96144 36.4932 2.47667 36.6641C2.99189 36.8634 3.56135 36.9488 4.18504 36.9488C4.48333 36.9488 4.7545 36.9204 4.97144 36.9204C5.21549 36.8919 5.40531 36.8634 5.59513 36.8065C5.75783 36.7495 5.92053 36.6926 6.05612 36.6356C6.1917 36.5787 6.30017 36.5217 6.40864 36.4648L6.05612 34.9271C5.81207 35.041 5.54089 35.1264 5.26972 35.1834C4.99855 35.2403 4.78162 35.2688 4.5918 35.2688C3.75117 35.2688 3.10036 35.041 2.61225 34.5854C2.12415 34.1298 1.88009 33.4464 1.88009 32.5352C1.88009 32.0512 1.93433 31.6525 2.06991 31.2824C2.2055 30.9407 2.39532 30.6559 2.63937 30.4281C2.88342 30.2003 3.15459 30.0295 3.50712 29.9156C3.83252 29.8017 4.21216 29.7447 4.61891 29.7447C4.80873 29.7447 5.02567 29.7732 5.29684 29.8017C5.56801 29.8301 5.81207 29.9156 6.05612 30.001L6.43576 28.4349C6.21882 28.321 5.92053 28.2356 5.56801 28.1501C5.21549 28.0647 4.80874 28.0362 4.37486 28.0362C3.69694 28.0362 3.10036 28.1217 2.55802 28.321C2.01568 28.5203 1.55469 28.8051 1.20217 29.2037C0.822527 29.6024 0.551358 30.0579 0.334421 30.6274C0.144602 31.1969 0.0361328 31.8519 0.0361328 32.5922C0.0361328 33.3041 0.144602 33.9305 0.334421 34.4715C0.497123 35.0126 0.795411 35.4681 1.14793 35.8383ZM20.9434 36.8065V28.1786H19.235V34.0729L16.1165 28.1786H14.0557V36.8065H15.764V30.7129L19.0181 36.8065H20.9434ZM61.7003 28.1786L60.0191 31.4817L58.2836 28.1786H56.2498L59.1242 33.5319V36.8349H60.8868V33.5319L63.7341 28.1786H61.7003ZM59.1242 62.4907H1.98856V51.1577H0.225952V64.3415H60.8868V39.6255H59.1242V62.4907ZM48.6028 28.1786H46.8402V36.8065H48.6028V28.1786ZM0.225952 48.3102H1.98856V39.6824H0.225952V48.3102ZM20.2926 25.3311H21.9738L23.6551 19.6077L24.089 25.3311H25.8516L25.0109 16.7033H23.0043L21.1603 23.224L19.3164 16.7033H17.2012L16.3877 25.3311H18.1503L18.5842 19.6077L20.2926 25.3311ZM25.8516 29.8871H28.1836V28.1786H21.7569V29.8871H24.089V36.8065H25.8516V29.8871ZM28.1565 48.3102L29.8378 45.1496L31.5733 48.3102H33.6884L31.1665 43.8112L33.4986 39.6539H31.4919L29.9191 42.6153L28.4277 39.6539H26.3397L28.6175 43.8112L26.1227 48.2818H28.1565V48.3102ZM47.4096 21.1738H43.5319V22.5691H47.4096V21.1738ZM34.7188 35.0126C34.529 34.557 34.3663 34.1583 34.2307 33.8736C34.0952 33.5888 33.9596 33.3895 33.824 33.2471C33.6884 33.1047 33.5528 32.9908 33.363 32.9339C33.5799 32.8485 33.7969 32.763 33.9867 32.6491C34.1765 32.5352 34.3392 32.3644 34.5019 32.1936C34.6646 32.0227 34.7731 31.7949 34.8544 31.5386C34.9358 31.2824 34.99 30.9976 34.99 30.6844C34.99 29.8302 34.7188 29.2037 34.1765 28.8051C33.6342 28.4064 32.8478 28.2071 31.8173 28.2071H29.0243V36.8349H30.7869V33.418H31.4919C31.7902 33.418 32.0071 33.4749 32.1698 33.5888C32.3325 33.7027 32.4681 33.902 32.5766 34.1583C32.6851 34.4146 32.8207 34.7848 32.9834 35.2119C33.1189 35.639 33.3359 36.18 33.6342 36.8349H35.5052C35.1527 36.0661 34.8815 35.4681 34.7188 35.0126ZM33.0105 31.3393C32.9291 31.4817 32.8478 31.5956 32.7122 31.6525C32.6037 31.738 32.441 31.7949 32.2783 31.8234C32.1156 31.8519 31.9258 31.8803 31.736 31.8803H30.7055V29.8017H31.6275C32.1156 29.8017 32.4952 29.8871 32.7393 30.0295C32.9834 30.1718 33.1189 30.4281 33.1189 30.8268C33.1189 31.0261 33.0918 31.1969 33.0105 31.3393Z" fill="white"/>
</svg>
