<svg width="78" height="44" viewBox="0 0 78 44" fill="none" xmlns="http://www.w3.org/2000/svg">
<path d="M15.754 36.6514C15.467 36.4684 15.2079 36.2643 14.9418 36.0813H14.9278C14.6268 36.2995 14.3117 36.5247 14.0036 36.743C11.2449 38.8053 9.05332 41.2408 7.25386 43.8804H22.6018C20.7953 41.2126 18.5478 38.7279 15.754 36.6514Z" fill="white"/>
<path d="M2.27612 17.401C2.27612 17.3938 2.27612 17.3938 2.27612 17.401C2.26885 17.3866 2.26885 17.3722 2.26158 17.3578C2.26885 17.365 2.26885 17.3794 2.27612 17.401Z" fill="white"/>
<path d="M21.5795 17.8999C21.1734 18.4419 20.7883 18.9557 20.4032 19.4555C22.4267 20.4339 24.3732 21.1307 26.2007 21.4967C29.4425 13.5147 29.8627 5.41291 29.8767 1.92163C28.6723 6.58137 25.6546 12.4236 21.5795 17.8999Z" fill="white"/>
<path d="M8.17109 7.74276C10.2506 4.92017 12.5822 2.25244 14.9278 0H0.567139C2.33859 3.21677 4.55116 6.29979 7.14182 9.17869C7.51292 8.6367 7.842 8.17917 8.17109 7.74276Z" fill="white"/>
<path d="M6.73573 9.76993C4.06104 6.8136 1.81346 3.69538 0.0140036 0.44342C0 0.710898 0 1.13323 0 1.68226C0 4.55412 0.280072 10.7343 2.27558 17.393C3.46589 14.9153 4.93627 12.3884 6.67271 9.85439C6.69372 9.8192 6.71472 9.79808 6.73573 9.76993Z" fill="white"/>
<path d="M19.8991 20.103C16.2232 24.6149 12.3022 28.2611 8.85727 30.3798C10.5307 32.4844 12.5332 34.406 14.9278 36.0601H14.9418C19.8921 32.6533 23.225 28.0288 25.4375 23.2424C25.5986 22.8763 25.7596 22.5103 25.9276 22.1513C24.0442 21.7572 22.0346 21.0392 19.9621 20.0186C19.9411 20.0467 19.9201 20.0749 19.8991 20.103Z" fill="white"/>
<path d="M8.45117 29.8096C11.833 27.7402 15.691 24.1504 19.318 19.7088C15.2709 17.6183 11.0698 14.4226 7.22586 10.2979C5.4614 12.8741 3.96302 15.4503 2.77271 17.9632C2.75171 17.9984 2.73771 18.0406 2.7167 18.0758L2.59067 18.4066C3.80898 22.278 5.64345 26.2409 8.42316 29.8237L8.45117 29.8096Z" fill="white"/>
<path d="M44.3984 30.4079H40.9395L40.2953 32.3859H38.3908L41.4646 23.3339H43.9713L47.0101 32.3859H45.0426L44.3984 30.4079ZM41.4646 28.6975H43.8733L42.6759 24.8965L41.4646 28.6975Z" fill="white"/>
<path d="M52.1564 32.3858H50.2239V25.1147H47.6612V23.3268H54.698V25.1147H52.1494V32.3858H52.1564Z" fill="white"/>
<path d="M60.7406 32.5407C60.0894 32.5407 59.4943 32.4422 58.9621 32.238C58.423 32.0339 57.9679 31.7383 57.5828 31.3371C57.1977 30.9429 56.8966 30.4502 56.6865 29.8659C56.4765 29.2817 56.3715 28.613 56.3715 27.8528C56.3715 27.0926 56.4835 26.4239 56.7005 25.8397C56.9176 25.2555 57.2187 24.7698 57.6038 24.3686C57.9889 23.9744 58.444 23.6717 58.9761 23.4676C59.5013 23.2635 60.0754 23.1649 60.6916 23.1649C61.3847 23.1649 62.0079 23.2705 62.554 23.4887C63.1002 23.7069 63.5553 24.0096 63.9334 24.4108C64.3045 24.812 64.5916 25.3047 64.7876 25.8819C64.9837 26.4661 65.0817 27.1137 65.0817 27.8387C65.0817 28.6412 64.9697 29.338 64.7526 29.9293C64.5355 30.5205 64.2275 31.0062 63.8424 31.3934C63.4503 31.7735 62.9951 32.0621 62.463 32.2451C61.9309 32.4492 61.3567 32.5407 60.7406 32.5407ZM60.8036 30.8373C61.1257 30.8373 61.4267 30.7739 61.7068 30.6543C61.9799 30.5346 62.2179 30.3516 62.414 30.1052C62.61 29.8589 62.7641 29.5492 62.8691 29.1832C62.9741 28.8101 63.0302 28.3737 63.0302 27.8669C63.0302 26.8392 62.8131 26.0861 62.386 25.6074C61.9589 25.1288 61.3917 24.8894 60.6846 24.8894C60.3695 24.8894 60.0684 24.9528 59.7883 25.0725C59.5083 25.1921 59.2702 25.3751 59.0601 25.6215C58.8571 25.8678 58.696 26.1776 58.577 26.5506C58.458 26.9237 58.402 27.3671 58.402 27.8669C58.402 28.3737 58.465 28.8171 58.591 29.1832C58.7171 29.5562 58.8851 29.8589 59.1022 30.1052C59.3192 30.3516 59.5713 30.5346 59.8583 30.6543C60.1594 30.7739 60.4675 30.8373 60.8036 30.8373Z" fill="white"/>
<path d="M77.881 32.3859H75.9345L75.4443 26.3747L73.5889 32.3859H71.7474L69.9199 26.3958L69.4298 32.3859H67.4973L68.4005 23.3339H70.7041L72.7346 30.1616L74.7442 23.3339H76.9707L77.881 32.3859Z" fill="white"/>
<path d="M38.7129 42.4163C38.902 42.55 39.154 42.6837 39.4831 42.8104C39.8052 42.9371 40.1833 43.0075 40.6034 43.0075C41.1496 43.0075 41.5557 42.8879 41.8217 42.6556C42.0878 42.4163 42.2208 42.0854 42.2208 41.649C42.2208 41.4097 42.1928 41.2126 42.1298 41.0507C42.0738 40.8888 41.9758 40.7481 41.8497 40.6284C41.7237 40.5087 41.5557 40.3961 41.3596 40.3046C41.1566 40.2131 40.9185 40.1075 40.6384 39.9949L40.3583 39.8893C40.0643 39.7696 39.7982 39.65 39.5741 39.5162C39.3501 39.3895 39.168 39.2347 39.021 39.0587C38.874 38.8828 38.7689 38.6786 38.6919 38.4393C38.6149 38.207 38.5799 37.9255 38.5799 37.6158C38.5799 36.9471 38.811 36.4262 39.2801 36.0602C39.7492 35.6941 40.3864 35.5041 41.2126 35.5041C41.4646 35.5041 41.6957 35.5182 41.9197 35.5604C42.1368 35.5956 42.3329 35.6378 42.5009 35.6871C42.6689 35.7364 42.809 35.7856 42.921 35.8349C43.033 35.8842 43.1101 35.9264 43.1521 35.9616L42.879 36.8696C42.5849 36.7289 42.2768 36.6303 41.9758 36.581C41.6677 36.5318 41.3946 36.5036 41.1425 36.5036C40.6804 36.5036 40.3233 36.5951 40.0783 36.7781C39.8332 36.9611 39.7072 37.2427 39.7072 37.6228C39.7072 37.7847 39.7282 37.9325 39.7632 38.0662C39.8052 38.1929 39.8822 38.3196 39.9943 38.4393C40.1063 38.559 40.2673 38.6716 40.4704 38.7912C40.6734 38.9109 40.9395 39.0235 41.2546 39.1502L41.5627 39.2699C41.9197 39.4107 42.2208 39.5585 42.4519 39.7204C42.6829 39.8823 42.865 40.0512 42.998 40.2413C43.1311 40.4313 43.2221 40.6354 43.2711 40.8607C43.3201 41.0859 43.3481 41.3323 43.3481 41.5998C43.3481 41.9939 43.2851 42.3388 43.1521 42.6415C43.019 42.9442 42.844 43.1905 42.6059 43.3947C42.3749 43.5988 42.0878 43.7537 41.7657 43.8592C41.4436 43.9648 41.0795 44.0211 40.6944 44.0211C40.2533 44.0211 39.8402 43.9648 39.4411 43.8522C39.049 43.7396 38.7059 43.5847 38.4118 43.3947L38.7129 42.4163Z" fill="white"/>
<path d="M47.3321 39.3896L50.9521 35.6097H52.2824L48.5154 39.4811L52.5345 43.8733H51.1131L47.7452 40.1216L47.3321 40.5228V43.8733H46.2819V35.6167H47.3391V39.3896H47.3321Z" fill="white"/>
<path d="M55.8463 43.8803H54.789V35.6167H55.8463V43.8803Z" fill="white"/>
<path d="M63.7303 43.8803H59.1302V35.6167H60.1874V42.8879H63.7373V43.8803H63.7303Z" fill="white"/>
<path d="M71.0192 43.8803H66.419V35.6167H67.4763V42.8879H71.0262V43.8803H71.0192Z" fill="white"/>
<path d="M73.3578 42.4163C73.5469 42.55 73.7989 42.6837 74.128 42.8104C74.4501 42.9371 74.8282 43.0075 75.2483 43.0075C75.7944 43.0075 76.2005 42.8879 76.4666 42.6556C76.7327 42.4163 76.8657 42.0854 76.8657 41.649C76.8657 41.4097 76.8377 41.2126 76.7747 41.0507C76.7187 40.8888 76.6206 40.7481 76.4946 40.6284C76.3686 40.5087 76.2005 40.3961 76.0045 40.3046C75.8014 40.2131 75.5634 40.1075 75.2833 39.9949L75.0032 39.8893C74.7092 39.7696 74.4431 39.65 74.219 39.5162C73.995 39.3895 73.8129 39.2347 73.6659 39.0587C73.5189 38.8828 73.4138 38.6786 73.3368 38.4393C73.2598 38.207 73.2248 37.9255 73.2248 37.6158C73.2248 36.9471 73.4558 36.4262 73.925 36.0602C74.3941 35.6941 75.0312 35.5041 75.8575 35.5041C76.1095 35.5041 76.3406 35.5182 76.5646 35.5604C76.7817 35.5956 76.9777 35.6378 77.1458 35.6871C77.3138 35.7364 77.4539 35.7856 77.5659 35.8349C77.6779 35.8842 77.7549 35.9264 77.797 35.9616L77.5239 36.8696C77.2298 36.7289 76.9217 36.6303 76.6206 36.581C76.3126 36.5318 76.0395 36.5036 75.7874 36.5036C75.3253 36.5036 74.9682 36.5951 74.7232 36.7781C74.4781 36.9611 74.3521 37.2427 74.3521 37.6228C74.3521 37.7847 74.3731 37.9325 74.4081 38.0662C74.4501 38.1929 74.5271 38.3196 74.6391 38.4393C74.7512 38.559 74.9122 38.6716 75.1153 38.7912C75.3183 38.9109 75.5844 39.0235 75.8995 39.1502L76.2075 39.2699C76.5646 39.4107 76.8657 39.5585 77.0968 39.7204C77.3278 39.8823 77.5099 40.0512 77.6429 40.2413C77.7759 40.4313 77.867 40.6354 77.916 40.8607C77.965 41.0859 77.993 41.3323 77.993 41.5998C77.993 41.9939 77.93 42.3388 77.797 42.6415C77.6639 42.9442 77.4889 43.1905 77.2508 43.3947C77.0198 43.5988 76.7327 43.7537 76.4106 43.8592C76.0885 43.9648 75.7244 44.0211 75.3393 44.0211C74.8982 44.0211 74.4851 43.9648 74.086 43.8522C73.6939 43.7396 73.3508 43.5847 73.0567 43.3947L73.3578 42.4163Z" fill="white"/>
</svg>
