<svg width="278" height="56" viewBox="0 0 278 56" fill="none" xmlns="http://www.w3.org/2000/svg">
<rect width="278" height="56" rx="28" fill="#FF3F02"/>
<path d="M92.5173 35H90.7173V22.68H84.0973V35H82.2973V21H92.5173V35ZM104.165 34.38C103.925 34.5933 103.532 34.78 102.985 34.94C102.439 35.0867 101.779 35.16 101.005 35.16C99.2054 35.16 97.8721 34.6933 97.0054 33.76C96.1521 32.8267 95.7254 31.5267 95.7254 29.86C95.7254 29.0733 95.8254 28.36 96.0254 27.72C96.2387 27.08 96.5454 26.5333 96.9454 26.08C97.3454 25.6133 97.8254 25.26 98.3854 25.02C98.9587 24.7667 99.6054 24.64 100.325 24.64C101.139 24.64 101.832 24.7733 102.405 25.04C102.979 25.3067 103.439 25.6733 103.785 26.14C104.145 26.5933 104.405 27.1333 104.565 27.76C104.725 28.3867 104.805 29.06 104.805 29.78V30.32H97.4854C97.5787 31.44 97.9121 32.2733 98.4854 32.82C99.0587 33.3667 99.9454 33.64 101.145 33.64C101.799 33.64 102.332 33.5867 102.745 33.48C103.172 33.36 103.545 33.2067 103.865 33.02L104.165 34.38ZM103.005 28.92C103.019 28.5333 102.972 28.1733 102.865 27.84C102.759 27.4933 102.599 27.2 102.385 26.96C102.172 26.7067 101.899 26.5133 101.565 26.38C101.232 26.2333 100.845 26.16 100.405 26.16C99.5387 26.16 98.8654 26.3933 98.3854 26.86C97.9054 27.3267 97.6121 28.0133 97.5054 28.92H103.005ZM109.382 39.2H107.702V24.8H109.302V26.26H109.342C109.595 25.9 109.875 25.6133 110.182 25.4C110.502 25.1733 110.815 25.0067 111.122 24.9C111.442 24.7933 111.742 24.7267 112.022 24.7C112.302 24.66 112.535 24.64 112.722 24.64C113.522 24.64 114.202 24.7667 114.762 25.02C115.335 25.26 115.802 25.6067 116.162 26.06C116.522 26.5 116.782 27.04 116.942 27.68C117.115 28.32 117.202 29.0333 117.202 29.82C117.202 30.5667 117.115 31.2667 116.942 31.92C116.769 32.56 116.502 33.12 116.142 33.6C115.782 34.08 115.322 34.46 114.762 34.74C114.215 35.02 113.569 35.16 112.822 35.16C112.502 35.16 112.182 35.1333 111.862 35.08C111.542 35.0267 111.229 34.94 110.922 34.82C110.629 34.7 110.349 34.5467 110.082 34.36C109.829 34.1733 109.609 33.94 109.422 33.66H109.382V39.2ZM112.442 33.64C113.495 33.64 114.249 33.3067 114.702 32.64C115.169 31.96 115.402 31 115.402 29.76C115.402 29.1867 115.349 28.6733 115.242 28.22C115.149 27.7667 114.982 27.3933 114.742 27.1C114.515 26.7933 114.209 26.56 113.822 26.4C113.449 26.24 112.975 26.16 112.402 26.16C111.415 26.16 110.662 26.5067 110.142 27.2C109.635 27.8933 109.382 28.8 109.382 29.92C109.382 31.0533 109.635 31.96 110.142 32.64C110.662 33.3067 111.429 33.64 112.442 33.64ZM128.051 34.38C127.811 34.5933 127.418 34.78 126.871 34.94C126.325 35.0867 125.665 35.16 124.891 35.16C123.091 35.16 121.758 34.6933 120.891 33.76C120.038 32.8267 119.611 31.5267 119.611 29.86C119.611 29.0733 119.711 28.36 119.911 27.72C120.125 27.08 120.431 26.5333 120.831 26.08C121.231 25.6133 121.711 25.26 122.271 25.02C122.845 24.7667 123.491 24.64 124.211 24.64C125.025 24.64 125.718 24.7733 126.291 25.04C126.865 25.3067 127.325 25.6733 127.671 26.14C128.031 26.5933 128.291 27.1333 128.451 27.76C128.611 28.3867 128.691 29.06 128.691 29.78V30.32H121.371C121.465 31.44 121.798 32.2733 122.371 32.82C122.945 33.3667 123.831 33.64 125.031 33.64C125.685 33.64 126.218 33.5867 126.631 33.48C127.058 33.36 127.431 33.2067 127.751 33.02L128.051 34.38ZM126.891 28.92C126.905 28.5333 126.858 28.1733 126.751 27.84C126.645 27.4933 126.485 27.2 126.271 26.96C126.058 26.7067 125.785 26.5133 125.451 26.38C125.118 26.2333 124.731 26.16 124.291 26.16C123.425 26.16 122.751 26.3933 122.271 26.86C121.791 27.3267 121.498 28.0133 121.391 28.92H126.891ZM131.588 35V24.8H133.268V31.3L133.208 32.64H133.228L133.888 31.58L138.648 24.8H140.248V35H138.568V28.34L138.628 27.16H138.608L137.988 28.16L133.188 35H131.588ZM139.148 20.4C139.121 20.84 139.021 21.2267 138.848 21.56C138.675 21.8933 138.448 22.1733 138.168 22.4C137.888 22.6133 137.555 22.7733 137.168 22.88C136.795 22.9867 136.401 23.04 135.988 23.04C135.561 23.04 135.161 22.9867 134.788 22.88C134.415 22.7733 134.088 22.6133 133.808 22.4C133.528 22.1733 133.295 21.8933 133.108 21.56C132.935 21.2267 132.841 20.84 132.828 20.4L134.248 20.24C134.315 20.72 134.501 21.08 134.808 21.32C135.128 21.56 135.521 21.68 135.988 21.68C136.455 21.68 136.841 21.56 137.148 21.32C137.468 21.08 137.661 20.72 137.728 20.24L139.148 20.4ZM147.583 35H145.903V26.32H142.363V24.8H151.123V26.32H147.583V35ZM153.247 35V24.8H154.927V31.3L154.867 32.64H154.887L155.547 31.58L160.307 24.8H161.907V35H160.227V28.34L160.287 27.16H160.267L159.647 28.16L154.847 35H153.247Z" fill="white"/>
<path d="M188 33L193 28M193 28L188 23M193 28H179" stroke="white" stroke-width="1.5" stroke-linecap="round" stroke-linejoin="round"/>
</svg>
