<svg width="24" height="24" viewBox="0 0 24 24" fill="none" xmlns="http://www.w3.org/2000/svg">
<path d="M18.5453 1.82715H9.5453C8.64156 1.82715 7.90894 2.48679 7.90894 3.3005V16.5607C7.90894 17.3744 8.64156 18.034 9.5453 18.034H18.5453C19.449 18.034 20.1817 17.3744 20.1817 16.5607V3.3005C20.1817 2.48679 19.449 1.82715 18.5453 1.82715Z" stroke="white" stroke-width="1.5"/>
<path d="M16.0908 18.884V20.6984C16.0908 21.0891 15.9184 21.4639 15.6116 21.7402C15.3047 22.0165 14.8885 22.1717 14.4545 22.1717H5.45448C5.02049 22.1717 4.60427 22.0165 4.2974 21.7402C3.99052 21.4639 3.81812 21.0891 3.81812 20.6984V7.4382C3.81812 7.04744 3.99052 6.67269 4.2974 6.39638C4.60427 6.12007 5.02049 5.96484 5.45448 5.96484H7.04975" stroke="white" stroke-width="1.5" stroke-linecap="round" stroke-linejoin="round"/>
</svg>
