<svg width="327" height="396" viewBox="0 0 327 396" fill="none" xmlns="http://www.w3.org/2000/svg">
<g clip-path="url(#clip0_1702_2615)">
<path d="M0 396H327V0H0V396Z" fill="url(#paint0_linear_1702_2615)"/>
<path d="M0 396H327V0H0V396Z" fill="url(#paint1_linear_1702_2615)" fill-opacity="0.6"/>
<g style="mix-blend-mode:multiply">
<circle cx="162" cy="78" r="26" fill="url(#paint2_linear_1702_2615)"/>
</g>
<ellipse cx="162" cy="77.9994" rx="46" ry="98" transform="rotate(30 162 77.9994)" stroke="#2152FF"/>
<ellipse cx="162" cy="78" rx="34" ry="98" transform="rotate(90 162 78)" stroke="#2152FF"/>
<ellipse cx="162" cy="77.9995" rx="17.6778" ry="98" transform="rotate(-45 162 77.9995)" stroke="#2152FF"/>
<path d="M65.179 202H57.359V188H65.179V189.68H59.159V193.92H64.659V195.56H59.159V200.32H65.179V202ZM82.097 204.88H80.497V202H68.277V191.8H69.957V200.48H73.577V191.8H75.257V200.48H78.877V191.8H80.557V200.48H82.097V204.88ZM92.3326 201.38C92.0926 201.593 91.6992 201.78 91.1526 201.94C90.6059 202.087 89.9459 202.16 89.1726 202.16C87.3726 202.16 86.0392 201.693 85.1726 200.76C84.3192 199.827 83.8926 198.527 83.8926 196.86C83.8926 196.073 83.9926 195.36 84.1926 194.72C84.4059 194.08 84.7126 193.533 85.1126 193.08C85.5126 192.613 85.9926 192.26 86.5526 192.02C87.1259 191.767 87.7726 191.64 88.4926 191.64C89.3059 191.64 89.9992 191.773 90.5726 192.04C91.1459 192.307 91.6059 192.673 91.9526 193.14C92.3126 193.593 92.5726 194.133 92.7326 194.76C92.8926 195.387 92.9726 196.06 92.9726 196.78V197.32H85.6526C85.7459 198.44 86.0792 199.273 86.6526 199.82C87.2259 200.367 88.1126 200.64 89.3126 200.64C89.9659 200.64 90.4992 200.587 90.9126 200.48C91.3392 200.36 91.7126 200.207 92.0326 200.02L92.3326 201.38ZM91.1726 195.92C91.1859 195.533 91.1392 195.173 91.0326 194.84C90.9259 194.493 90.7659 194.2 90.5526 193.96C90.3392 193.707 90.0659 193.513 89.7326 193.38C89.3992 193.233 89.0126 193.16 88.5726 193.16C87.7059 193.16 87.0326 193.393 86.5526 193.86C86.0726 194.327 85.7792 195.013 85.6726 195.92H91.1726ZM101.557 194.08C101.837 193.333 102.304 192.767 102.957 192.38C103.624 191.993 104.437 191.8 105.397 191.8C106.85 191.8 107.95 192.233 108.697 193.1C109.444 193.967 109.817 195.233 109.817 196.9C109.817 198.553 109.41 199.847 108.597 200.78C107.784 201.7 106.63 202.16 105.137 202.16C104.217 202.16 103.43 202.013 102.777 201.72C102.137 201.427 101.61 201.007 101.197 200.46C100.797 199.9 100.504 199.233 100.317 198.46C100.144 197.673 100.057 196.787 100.057 195.8C100.057 194.187 100.17 192.847 100.397 191.78C100.624 190.713 100.99 189.853 101.497 189.2C102.017 188.547 102.69 188.073 103.517 187.78C104.344 187.473 105.357 187.287 106.557 187.22C106.944 187.193 107.29 187.16 107.597 187.12C107.904 187.067 108.23 186.993 108.577 186.9V188.48C108.404 188.52 108.244 188.56 108.097 188.6C107.95 188.64 107.79 188.673 107.617 188.7C107.457 188.727 107.277 188.753 107.077 188.78C106.877 188.807 106.637 188.833 106.357 188.86C105.477 188.94 104.737 189.067 104.137 189.24C103.55 189.4 103.07 189.667 102.697 190.04C102.337 190.413 102.064 190.92 101.877 191.56C101.69 192.2 101.57 193.04 101.517 194.08H101.557ZM101.937 196.9C101.937 197.447 101.997 197.953 102.117 198.42C102.25 198.873 102.45 199.267 102.717 199.6C102.984 199.933 103.317 200.193 103.717 200.38C104.117 200.553 104.597 200.64 105.157 200.64C106.117 200.64 106.83 200.307 107.297 199.64C107.777 198.973 108.017 198.06 108.017 196.9C108.017 195.727 107.77 194.84 107.277 194.24C106.797 193.627 106.037 193.32 104.997 193.32C104.424 193.32 103.944 193.42 103.557 193.62C103.17 193.82 102.857 194.087 102.617 194.42C102.377 194.74 102.204 195.12 102.097 195.56C101.99 195.987 101.937 196.433 101.937 196.9ZM116.812 200.64C117.812 200.64 118.559 200.34 119.052 199.74C119.559 199.127 119.812 198.18 119.812 196.9C119.812 195.633 119.579 194.693 119.112 194.08C118.659 193.467 117.892 193.16 116.812 193.16C115.852 193.16 115.112 193.467 114.592 194.08C114.072 194.693 113.812 195.633 113.812 196.9C113.812 198.193 114.079 199.14 114.612 199.74C115.159 200.34 115.892 200.64 116.812 200.64ZM116.812 202.16C115.212 202.16 114.012 201.713 113.212 200.82C112.412 199.913 112.012 198.607 112.012 196.9C112.012 195.233 112.419 193.94 113.232 193.02C114.059 192.1 115.252 191.64 116.812 191.64C118.412 191.64 119.612 192.087 120.412 192.98C121.212 193.873 121.612 195.18 121.612 196.9C121.612 197.713 121.505 198.447 121.292 199.1C121.079 199.753 120.765 200.307 120.352 200.76C119.952 201.213 119.452 201.56 118.852 201.8C118.252 202.04 117.572 202.16 116.812 202.16ZM124.154 202.16C123.967 202.16 123.8 202.14 123.654 202.1C123.52 202.073 123.407 202.047 123.314 202.02V200.42C123.42 200.46 123.5 200.487 123.554 200.5C123.62 200.513 123.707 200.52 123.814 200.52C124.16 200.52 124.447 200.373 124.674 200.08C124.9 199.773 125.08 199.3 125.214 198.66C125.36 198.007 125.46 197.173 125.514 196.16C125.58 195.147 125.614 193.92 125.614 192.48V191.8H132.574V202H130.894V193.32H127.214V193.56C127.214 195.12 127.16 196.447 127.054 197.54C126.947 198.62 126.774 199.507 126.534 200.2C126.294 200.88 125.974 201.38 125.574 201.7C125.187 202.007 124.714 202.16 124.154 202.16ZM137.661 200.48H139.921C140.668 200.48 141.221 200.34 141.581 200.06C141.954 199.78 142.141 199.313 142.141 198.66C142.141 198.3 142.081 198.013 141.961 197.8C141.841 197.573 141.674 197.4 141.461 197.28C141.261 197.16 141.014 197.08 140.721 197.04C140.428 196.987 140.101 196.96 139.741 196.96H137.661V200.48ZM135.981 202V191.8H137.661V195.44H139.761C140.374 195.44 140.934 195.493 141.441 195.6C141.961 195.707 142.401 195.887 142.761 196.14C143.134 196.38 143.421 196.713 143.621 197.14C143.834 197.553 143.941 198.073 143.941 198.7C143.941 199.26 143.841 199.747 143.641 200.16C143.441 200.573 143.168 200.92 142.821 201.2C142.474 201.467 142.068 201.667 141.601 201.8C141.148 201.933 140.661 202 140.141 202H135.981ZM158.734 202H146.454V191.8H148.134V200.48H151.754V191.8H153.434V200.48H157.054V191.8H158.734V202ZM169.983 201.38C169.743 201.593 169.349 201.78 168.803 201.94C168.256 202.087 167.596 202.16 166.823 202.16C165.023 202.16 163.689 201.693 162.823 200.76C161.969 199.827 161.543 198.527 161.543 196.86C161.543 196.073 161.643 195.36 161.843 194.72C162.056 194.08 162.363 193.533 162.763 193.08C163.163 192.613 163.643 192.26 164.203 192.02C164.776 191.767 165.423 191.64 166.143 191.64C166.956 191.64 167.649 191.773 168.223 192.04C168.796 192.307 169.256 192.673 169.603 193.14C169.963 193.593 170.223 194.133 170.383 194.76C170.543 195.387 170.623 196.06 170.623 196.78V197.32H163.303C163.396 198.44 163.729 199.273 164.303 199.82C164.876 200.367 165.763 200.64 166.963 200.64C167.616 200.64 168.149 200.587 168.563 200.48C168.989 200.36 169.363 200.207 169.683 200.02L169.983 201.38ZM168.823 195.92C168.836 195.533 168.789 195.173 168.683 194.84C168.576 194.493 168.416 194.2 168.203 193.96C167.989 193.707 167.716 193.513 167.383 193.38C167.049 193.233 166.663 193.16 166.223 193.16C165.356 193.16 164.683 193.393 164.203 193.86C163.723 194.327 163.429 195.013 163.323 195.92H168.823ZM186.667 202H184.987V193.32H179.867V202H178.187V191.8H186.667V202ZM194.267 200.64C195.267 200.64 196.013 200.34 196.507 199.74C197.013 199.127 197.267 198.18 197.267 196.9C197.267 195.633 197.033 194.693 196.567 194.08C196.113 193.467 195.347 193.16 194.267 193.16C193.307 193.16 192.567 193.467 192.047 194.08C191.527 194.693 191.267 195.633 191.267 196.9C191.267 198.193 191.533 199.14 192.067 199.74C192.613 200.34 193.347 200.64 194.267 200.64ZM194.267 202.16C192.667 202.16 191.467 201.713 190.667 200.82C189.867 199.913 189.467 198.607 189.467 196.9C189.467 195.233 189.873 193.94 190.687 193.02C191.513 192.1 192.707 191.64 194.267 191.64C195.867 191.64 197.067 192.087 197.867 192.98C198.667 193.873 199.067 195.18 199.067 196.9C199.067 197.713 198.96 198.447 198.747 199.1C198.533 199.753 198.22 200.307 197.807 200.76C197.407 201.213 196.907 201.56 196.307 201.8C195.707 202.04 195.027 202.16 194.267 202.16ZM201.608 202.16C201.422 202.16 201.255 202.14 201.108 202.1C200.975 202.073 200.862 202.047 200.768 202.02V200.42C200.875 200.46 200.955 200.487 201.008 200.5C201.075 200.513 201.162 200.52 201.268 200.52C201.615 200.52 201.902 200.373 202.128 200.08C202.355 199.773 202.535 199.3 202.668 198.66C202.815 198.007 202.915 197.173 202.968 196.16C203.035 195.147 203.068 193.92 203.068 192.48V191.8H210.028V202H208.348V193.32H204.668V193.56C204.668 195.12 204.615 196.447 204.508 197.54C204.402 198.62 204.228 199.507 203.988 200.2C203.748 200.88 203.428 201.38 203.028 201.7C202.642 202.007 202.168 202.16 201.608 202.16ZM221.276 201.38C221.036 201.593 220.642 201.78 220.096 201.94C219.549 202.087 218.889 202.16 218.116 202.16C216.316 202.16 214.982 201.693 214.116 200.76C213.262 199.827 212.836 198.527 212.836 196.86C212.836 196.073 212.936 195.36 213.136 194.72C213.349 194.08 213.656 193.533 214.056 193.08C214.456 192.613 214.936 192.26 215.496 192.02C216.069 191.767 216.716 191.64 217.436 191.64C218.249 191.64 218.942 191.773 219.516 192.04C220.089 192.307 220.549 192.673 220.896 193.14C221.256 193.593 221.516 194.133 221.676 194.76C221.836 195.387 221.916 196.06 221.916 196.78V197.32H214.596C214.689 198.44 215.022 199.273 215.596 199.82C216.169 200.367 217.056 200.64 218.256 200.64C218.909 200.64 219.442 200.587 219.856 200.48C220.282 200.36 220.656 200.207 220.976 200.02L221.276 201.38ZM220.116 195.92C220.129 195.533 220.082 195.173 219.976 194.84C219.869 194.493 219.709 194.2 219.496 193.96C219.282 193.707 219.009 193.513 218.676 193.38C218.342 193.233 217.956 193.16 217.516 193.16C216.649 193.16 215.976 193.393 215.496 193.86C215.016 194.327 214.722 195.013 214.616 195.92H220.116ZM228.877 196.6C229.65 196.72 230.27 196.987 230.737 197.4C231.203 197.813 231.437 198.373 231.437 199.08C231.437 199.6 231.33 200.053 231.117 200.44C230.903 200.827 230.603 201.147 230.217 201.4C229.83 201.653 229.363 201.847 228.817 201.98C228.283 202.1 227.69 202.16 227.037 202.16C226.45 202.16 225.87 202.113 225.297 202.02C224.723 201.927 224.11 201.727 223.457 201.42L223.797 199.86C224.277 200.06 224.79 200.24 225.337 200.4C225.897 200.56 226.417 200.64 226.897 200.64C227.91 200.64 228.617 200.493 229.017 200.2C229.43 199.907 229.637 199.513 229.637 199.02C229.637 197.94 228.703 197.4 226.837 197.4H225.617V196H226.937C227.177 196 227.43 195.98 227.697 195.94C227.963 195.887 228.21 195.807 228.437 195.7C228.677 195.58 228.87 195.433 229.017 195.26C229.177 195.073 229.257 194.84 229.257 194.56C229.257 193.987 229.03 193.613 228.577 193.44C228.137 193.253 227.51 193.16 226.697 193.16C226.35 193.16 225.93 193.207 225.437 193.3C224.957 193.393 224.497 193.533 224.057 193.72L223.737 192.22C224.203 192.033 224.717 191.893 225.277 191.8C225.85 191.693 226.423 191.64 226.997 191.64C227.743 191.64 228.37 191.7 228.877 191.82C229.397 191.927 229.817 192.093 230.137 192.32C230.457 192.547 230.69 192.833 230.837 193.18C230.983 193.527 231.057 193.94 231.057 194.42C231.057 194.7 230.99 194.96 230.857 195.2C230.737 195.44 230.577 195.653 230.377 195.84C230.177 196.013 229.943 196.167 229.677 196.3C229.423 196.42 229.157 196.507 228.877 196.56V196.6ZM242.787 202H241.107V197.46H235.867V202H234.187V191.8H235.867V195.94H241.107V191.8H242.787V202ZM250.384 200.64C251.384 200.64 252.131 200.34 252.624 199.74C253.131 199.127 253.384 198.18 253.384 196.9C253.384 195.633 253.151 194.693 252.684 194.08C252.231 193.467 251.464 193.16 250.384 193.16C249.424 193.16 248.684 193.467 248.164 194.08C247.644 194.693 247.384 195.633 247.384 196.9C247.384 198.193 247.651 199.14 248.184 199.74C248.731 200.34 249.464 200.64 250.384 200.64ZM250.384 202.16C248.784 202.16 247.584 201.713 246.784 200.82C245.984 199.913 245.584 198.607 245.584 196.9C245.584 195.233 245.991 193.94 246.804 193.02C247.631 192.1 248.824 191.64 250.384 191.64C251.984 191.64 253.184 192.087 253.984 192.98C254.784 193.873 255.184 195.18 255.184 196.9C255.184 197.713 255.077 198.447 254.864 199.1C254.651 199.753 254.337 200.307 253.924 200.76C253.524 201.213 253.024 201.56 252.424 201.8C251.824 202.04 251.144 202.16 250.384 202.16ZM257.986 202V191.8H259.666V198.3L259.606 199.64H259.626L260.286 198.58L265.046 191.8H266.646V202H264.966V195.34L265.026 194.16H265.006L264.386 195.16L259.586 202H257.986ZM265.546 187.4C265.519 187.84 265.419 188.227 265.246 188.56C265.072 188.893 264.846 189.173 264.566 189.4C264.286 189.613 263.952 189.773 263.566 189.88C263.192 189.987 262.799 190.04 262.386 190.04C261.959 190.04 261.559 189.987 261.186 189.88C260.812 189.773 260.486 189.613 260.206 189.4C259.926 189.173 259.692 188.893 259.506 188.56C259.332 188.227 259.239 187.84 259.226 187.4L260.646 187.24C260.712 187.72 260.899 188.08 261.206 188.32C261.526 188.56 261.919 188.68 262.386 188.68C262.852 188.68 263.239 188.56 263.546 188.32C263.866 188.08 264.059 187.72 264.126 187.24L265.546 187.4ZM101.78 228V217.8H103.46V224.3L103.4 225.64H103.42L104.08 224.58L108.84 217.8H110.44V228H108.76V221.34L108.82 220.16H108.8L108.18 221.16L103.38 228H101.78ZM122.435 228H120.755V223.46H115.515V228H113.835V217.8H115.515V221.94H120.755V217.8H122.435V228ZM130.552 228.12C130.419 228.147 130.285 228.16 130.152 228.16C130.032 228.16 129.912 228.16 129.792 228.16C128.259 228.16 127.112 227.72 126.352 226.84C125.605 225.947 125.232 224.627 125.232 222.88C125.232 221.213 125.619 219.927 126.392 219.02C127.165 218.1 128.305 217.64 129.812 217.64C129.932 217.64 130.052 217.64 130.172 217.64C130.305 217.64 130.432 217.653 130.552 217.68V213H132.232V217.7C132.485 217.66 132.739 217.64 132.992 217.64C134.552 217.64 135.699 218.067 136.432 218.92C137.179 219.773 137.552 221.073 137.552 222.82C137.552 223.647 137.452 224.393 137.252 225.06C137.065 225.713 136.779 226.273 136.392 226.74C136.005 227.193 135.525 227.547 134.952 227.8C134.379 228.04 133.719 228.16 132.972 228.16H132.232V232.2H130.552V228.12ZM130.552 219.14C130.365 219.1 130.125 219.08 129.832 219.08C129.392 219.08 128.999 219.153 128.652 219.3C128.305 219.433 128.012 219.653 127.772 219.96C127.532 220.267 127.345 220.667 127.212 221.16C127.092 221.64 127.032 222.233 127.032 222.94C127.032 224.26 127.272 225.22 127.752 225.82C128.245 226.42 128.992 226.72 129.992 226.72C130.085 226.72 130.172 226.72 130.252 226.72C130.345 226.72 130.445 226.713 130.552 226.7V219.14ZM132.232 226.72H132.952C133.832 226.72 134.519 226.413 135.012 225.8C135.505 225.187 135.752 224.173 135.752 222.76C135.752 221.44 135.512 220.5 135.032 219.94C134.565 219.367 133.812 219.08 132.772 219.08C132.692 219.08 132.605 219.087 132.512 219.1C132.419 219.1 132.325 219.107 132.232 219.12V226.72ZM144.548 226.64C145.548 226.64 146.295 226.34 146.788 225.74C147.295 225.127 147.548 224.18 147.548 222.9C147.548 221.633 147.315 220.693 146.848 220.08C146.395 219.467 145.628 219.16 144.548 219.16C143.588 219.16 142.848 219.467 142.328 220.08C141.808 220.693 141.548 221.633 141.548 222.9C141.548 224.193 141.815 225.14 142.348 225.74C142.895 226.34 143.628 226.64 144.548 226.64ZM144.548 228.16C142.948 228.16 141.748 227.713 140.948 226.82C140.148 225.913 139.748 224.607 139.748 222.9C139.748 221.233 140.155 219.94 140.968 219.02C141.795 218.1 142.988 217.64 144.548 217.64C146.148 217.64 147.348 218.087 148.148 218.98C148.948 219.873 149.348 221.18 149.348 222.9C149.348 223.713 149.242 224.447 149.028 225.1C148.815 225.753 148.502 226.307 148.088 226.76C147.688 227.213 147.188 227.56 146.588 227.8C145.988 228.04 145.308 228.16 144.548 228.16ZM153.83 232.2H152.15V217.8H153.75V219.26H153.79C154.043 218.9 154.323 218.613 154.63 218.4C154.95 218.173 155.263 218.007 155.57 217.9C155.89 217.793 156.19 217.727 156.47 217.7C156.75 217.66 156.983 217.64 157.17 217.64C157.97 217.64 158.65 217.767 159.21 218.02C159.783 218.26 160.25 218.607 160.61 219.06C160.97 219.5 161.23 220.04 161.39 220.68C161.563 221.32 161.65 222.033 161.65 222.82C161.65 223.567 161.563 224.267 161.39 224.92C161.217 225.56 160.95 226.12 160.59 226.6C160.23 227.08 159.77 227.46 159.21 227.74C158.663 228.02 158.017 228.16 157.27 228.16C156.95 228.16 156.63 228.133 156.31 228.08C155.99 228.027 155.677 227.94 155.37 227.82C155.077 227.7 154.797 227.547 154.53 227.36C154.277 227.173 154.057 226.94 153.87 226.66H153.83V232.2ZM156.89 226.64C157.943 226.64 158.697 226.307 159.15 225.64C159.617 224.96 159.85 224 159.85 222.76C159.85 222.187 159.797 221.673 159.69 221.22C159.597 220.767 159.43 220.393 159.19 220.1C158.963 219.793 158.657 219.56 158.27 219.4C157.897 219.24 157.423 219.16 156.85 219.16C155.863 219.16 155.11 219.507 154.59 220.2C154.083 220.893 153.83 221.8 153.83 222.92C153.83 224.053 154.083 224.96 154.59 225.64C155.11 226.307 155.877 226.64 156.89 226.64ZM174.659 217.8L175.659 228H174.059L173.459 221V219.98H173.419L173.099 221L170.539 228H169.079L166.519 221L166.199 219.98H166.159V220.98L165.559 228H163.959L164.959 217.8H166.839L169.839 226.14H169.879L172.779 217.8H174.659ZM184.146 223.2C183.572 223.227 183.012 223.267 182.466 223.32C181.932 223.373 181.452 223.473 181.026 223.62C180.599 223.753 180.252 223.947 179.986 224.2C179.732 224.44 179.606 224.76 179.606 225.16C179.606 225.573 179.746 225.927 180.026 226.22C180.319 226.5 180.779 226.64 181.406 226.64C182.206 226.64 182.859 226.393 183.366 225.9C183.886 225.407 184.146 224.68 184.146 223.72V223.2ZM185.826 228H184.346V226.14H184.306C184.199 226.42 184.032 226.687 183.806 226.94C183.592 227.18 183.339 227.393 183.046 227.58C182.752 227.753 182.426 227.893 182.066 228C181.706 228.107 181.332 228.16 180.946 228.16C180.479 228.16 180.052 228.087 179.666 227.94C179.279 227.793 178.946 227.593 178.666 227.34C178.399 227.073 178.186 226.767 178.026 226.42C177.879 226.073 177.806 225.7 177.806 225.3C177.806 224.62 177.986 224.067 178.346 223.64C178.706 223.213 179.179 222.88 179.766 222.64C180.366 222.387 181.046 222.213 181.806 222.12C182.566 222.013 183.346 221.94 184.146 221.9V221.38C184.146 220.633 183.966 220.08 183.606 219.72C183.259 219.347 182.646 219.16 181.766 219.16C181.272 219.16 180.746 219.227 180.186 219.36C179.626 219.48 179.146 219.64 178.746 219.84L178.446 218.46C178.859 218.233 179.379 218.04 180.006 217.88C180.632 217.72 181.279 217.64 181.946 217.64C182.706 217.64 183.332 217.733 183.826 217.92C184.332 218.093 184.732 218.353 185.026 218.7C185.319 219.047 185.526 219.48 185.646 220C185.766 220.52 185.826 221.12 185.826 221.8V228ZM198.917 230.88H197.317V228H189.117V217.8H190.797V226.48H195.697V217.8H197.377V226.48H198.917V230.88ZM201.309 228V217.8H202.989V224.3L202.929 225.64H202.949L203.609 224.58L208.369 217.8H209.969V228H208.289V221.34L208.349 220.16H208.329L207.709 221.16L202.909 228H201.309ZM213.365 228V217.8H215.045V224.3L214.985 225.64H215.005L215.665 224.58L220.425 217.8H222.025V228H220.345V221.34L220.405 220.16H220.385L219.765 221.16L214.965 228H213.365Z" fill="#00097F"/>
<path d="M33.4201 276H29.0681V269.568H22.3801V276H18.0281V259.68H22.3801V265.856H29.0681V259.68H33.4201V276ZM47.4549 268.64C46.6015 268.704 45.8229 268.789 45.1189 268.896C44.4362 268.981 43.8389 269.12 43.3269 269.312C42.8362 269.483 42.4522 269.707 42.1749 269.984C41.9189 270.261 41.7909 270.613 41.7909 271.04C41.7909 271.616 41.9722 272.064 42.3349 272.384C42.7189 272.704 43.3162 272.864 44.1269 272.864C45.0869 272.864 45.8762 272.565 46.4949 271.968C47.1349 271.371 47.4549 270.539 47.4549 269.472V268.64ZM51.8069 276H47.7749V273.344H47.7109C47.5189 273.707 47.2735 274.069 46.9749 274.432C46.6762 274.773 46.3029 275.083 45.8549 275.36C45.4282 275.637 44.9269 275.861 44.3509 276.032C43.7962 276.203 43.1669 276.288 42.4629 276.288C40.8629 276.288 39.6042 275.872 38.6869 275.04C37.7695 274.187 37.3109 273.024 37.3109 271.552C37.3109 270.549 37.5349 269.707 37.9829 269.024C38.4522 268.341 39.1135 267.787 39.9669 267.36C40.8415 266.933 41.9082 266.613 43.1669 266.4C44.4255 266.165 45.8549 266.005 47.4549 265.92V265.664C47.4549 264.789 47.2202 264.117 46.7509 263.648C46.2815 263.179 45.4175 262.944 44.1589 262.944C43.2202 262.944 42.3135 263.061 41.4389 263.296C40.5855 263.509 39.7855 263.755 39.0389 264.032L38.3349 260.736C39.2949 260.245 40.3402 259.893 41.4709 259.68C42.6015 259.445 43.7429 259.328 44.8949 259.328C46.1535 259.328 47.2202 259.477 48.0949 259.776C48.9695 260.053 49.6842 260.491 50.2389 261.088C50.7935 261.664 51.1882 262.4 51.4229 263.296C51.6789 264.171 51.8069 265.216 51.8069 266.432V276ZM84.0754 276H79.2754V266.656H69.9954V276H65.1954V253.6H69.9954V262.368H79.2754V253.6H84.0754V276ZM94.1741 267.168V276H89.3741V253.6H96.9901C99.8275 253.6 101.971 254.123 103.422 255.168C104.894 256.192 105.63 257.824 105.63 260.064C105.63 260.896 105.513 261.632 105.278 262.272C105.065 262.912 104.755 263.477 104.35 263.968C103.966 264.437 103.507 264.832 102.974 265.152C102.462 265.472 101.907 265.728 101.31 265.92C101.801 266.112 102.217 266.389 102.558 266.752C102.899 267.115 103.251 267.669 103.614 268.416C103.998 269.141 104.446 270.112 104.958 271.328C105.47 272.544 106.142 274.101 106.974 276H101.854C101.086 274.336 100.499 272.939 100.094 271.808C99.7101 270.677 99.3475 269.771 99.0061 269.088C98.6861 268.405 98.3128 267.915 97.8861 267.616C97.4808 267.317 96.8728 267.168 96.0621 267.168H94.1741ZM94.0781 263.2H96.8621C97.3955 263.2 97.8968 263.157 98.3661 263.072C98.8355 262.987 99.2301 262.848 99.5501 262.656C99.8915 262.443 100.158 262.165 100.35 261.824C100.542 261.461 100.638 261.003 100.638 260.448C100.638 259.467 100.297 258.784 99.6141 258.4C98.9528 258.016 97.9501 257.824 96.6061 257.824H94.0781V263.2ZM121.992 268.768H111.432V265.184H121.992V268.768ZM142.33 276H137.978V263.52H131.578V276H127.226V259.68H142.33V276ZM147.635 276.352C147.294 276.352 146.974 276.32 146.675 276.256C146.376 276.192 146.131 276.139 145.939 276.096V272.16C146.195 272.245 146.43 272.288 146.643 272.288C147.112 272.288 147.507 272.107 147.827 271.744C148.147 271.381 148.403 270.784 148.595 269.952C148.808 269.12 148.958 268.021 149.043 266.656C149.128 265.291 149.171 263.605 149.171 261.6V259.68H162.131V276H157.779V263.52H153.203V264.096C153.182 266.251 153.064 268.107 152.851 269.664C152.659 271.2 152.339 272.469 151.891 273.472C151.464 274.453 150.899 275.179 150.195 275.648C149.491 276.117 148.638 276.352 147.635 276.352ZM176.175 268.64C175.322 268.704 174.543 268.789 173.839 268.896C173.156 268.981 172.559 269.12 172.047 269.312C171.556 269.483 171.172 269.707 170.895 269.984C170.639 270.261 170.511 270.613 170.511 271.04C170.511 271.616 170.692 272.064 171.055 272.384C171.439 272.704 172.036 272.864 172.847 272.864C173.807 272.864 174.596 272.565 175.215 271.968C175.855 271.371 176.175 270.539 176.175 269.472V268.64ZM180.527 276H176.495V273.344H176.431C176.239 273.707 175.994 274.069 175.695 274.432C175.396 274.773 175.023 275.083 174.575 275.36C174.148 275.637 173.647 275.861 173.071 276.032C172.516 276.203 171.887 276.288 171.183 276.288C169.583 276.288 168.324 275.872 167.407 275.04C166.49 274.187 166.031 273.024 166.031 271.552C166.031 270.549 166.255 269.707 166.703 269.024C167.172 268.341 167.834 267.787 168.687 267.36C169.562 266.933 170.628 266.613 171.887 266.4C173.146 266.165 174.575 266.005 176.175 265.92V265.664C176.175 264.789 175.94 264.117 175.471 263.648C175.002 263.179 174.138 262.944 172.879 262.944C171.94 262.944 171.034 263.061 170.159 263.296C169.306 263.509 168.506 263.755 167.759 264.032L167.055 260.736C168.015 260.245 169.06 259.893 170.191 259.68C171.322 259.445 172.463 259.328 173.615 259.328C174.874 259.328 175.94 259.477 176.815 259.776C177.69 260.053 178.404 260.491 178.959 261.088C179.514 261.664 179.908 262.4 180.143 263.296C180.399 264.171 180.527 265.216 180.527 266.432V276ZM193.295 276H188.943V263.52H183.567V259.68H198.671V263.52H193.295V276ZM210.008 276.192C209.752 276.235 209.496 276.256 209.24 276.256C208.984 276.277 208.728 276.288 208.472 276.288C207.341 276.288 206.317 276.139 205.4 275.84C204.504 275.52 203.725 275.029 203.064 274.368C202.424 273.685 201.922 272.811 201.56 271.744C201.218 270.677 201.048 269.376 201.048 267.84C201.048 266.347 201.229 265.067 201.592 264C201.954 262.933 202.466 262.059 203.128 261.376C203.789 260.693 204.578 260.192 205.496 259.872C206.413 259.552 207.416 259.392 208.504 259.392C208.802 259.392 209.069 259.403 209.304 259.424C209.538 259.424 209.773 259.445 210.008 259.488V252H214.36V259.488C214.637 259.445 214.893 259.424 215.128 259.424C215.384 259.403 215.65 259.392 215.928 259.392C217.058 259.392 218.082 259.541 219 259.84C219.917 260.139 220.696 260.619 221.336 261.28C221.976 261.92 222.466 262.773 222.808 263.84C223.149 264.907 223.32 266.208 223.32 267.744C223.32 269.237 223.138 270.528 222.776 271.616C222.413 272.683 221.901 273.568 221.24 274.272C220.578 274.955 219.789 275.467 218.872 275.808C217.954 276.128 216.952 276.288 215.864 276.288C215.565 276.288 215.298 276.288 215.064 276.288C214.829 276.288 214.594 276.267 214.36 276.224V282.72H210.008V276.192ZM210.008 262.976C209.901 262.933 209.762 262.912 209.592 262.912C209.442 262.912 209.282 262.912 209.112 262.912C208.557 262.912 208.066 262.997 207.64 263.168C207.213 263.339 206.85 263.616 206.552 264C206.253 264.384 206.029 264.896 205.88 265.536C205.73 266.155 205.656 266.933 205.656 267.872C205.656 268.789 205.73 269.557 205.88 270.176C206.029 270.795 206.253 271.296 206.552 271.68C206.85 272.064 207.224 272.341 207.672 272.512C208.12 272.683 208.653 272.768 209.272 272.768C209.4 272.768 209.517 272.768 209.624 272.768C209.752 272.747 209.88 272.736 210.008 272.736V262.976ZM214.36 272.736C214.466 272.757 214.594 272.768 214.744 272.768C214.914 272.768 215.096 272.768 215.288 272.768C216.376 272.768 217.218 272.395 217.816 271.648C218.413 270.88 218.712 269.557 218.712 267.68C218.712 266.784 218.637 266.027 218.488 265.408C218.36 264.789 218.146 264.299 217.848 263.936C217.549 263.573 217.165 263.317 216.696 263.168C216.248 262.997 215.714 262.912 215.096 262.912C214.989 262.912 214.861 262.923 214.712 262.944C214.584 262.944 214.466 262.944 214.36 262.944V272.736ZM235.114 272.736C236.437 272.736 237.429 272.341 238.09 271.552C238.751 270.763 239.082 269.525 239.082 267.84C239.082 266.112 238.762 264.864 238.122 264.096C237.482 263.307 236.479 262.912 235.114 262.912C233.834 262.912 232.842 263.307 232.138 264.096C231.455 264.885 231.114 266.133 231.114 267.84C231.114 269.547 231.477 270.795 232.202 271.584C232.927 272.352 233.898 272.736 235.114 272.736ZM235.114 276.352C232.362 276.352 230.25 275.659 228.778 274.272C227.306 272.885 226.57 270.741 226.57 267.84C226.57 265.045 227.327 262.933 228.842 261.504C230.357 260.053 232.447 259.328 235.114 259.328C237.823 259.328 239.914 260.043 241.386 261.472C242.879 262.88 243.626 265.003 243.626 267.84C243.626 270.592 242.89 272.704 241.418 274.176C239.946 275.627 237.845 276.352 235.114 276.352ZM252.025 282.72H247.673V259.68H251.897V261.984H251.961C252.601 261.024 253.412 260.352 254.393 259.968C255.396 259.584 256.409 259.392 257.433 259.392C262.148 259.392 264.505 262.165 264.505 267.712C264.505 268.928 264.356 270.059 264.057 271.104C263.758 272.149 263.31 273.056 262.713 273.824C262.116 274.592 261.369 275.2 260.473 275.648C259.577 276.075 258.521 276.288 257.305 276.288C256.132 276.288 255.086 276.075 254.169 275.648C253.273 275.2 252.58 274.635 252.089 273.952H252.025V282.72ZM256.057 272.704C257.401 272.704 258.382 272.277 259.001 271.424C259.62 270.571 259.929 269.312 259.929 267.648C259.929 266.069 259.62 264.896 259.001 264.128C258.382 263.36 257.369 262.976 255.961 262.976C254.66 262.976 253.678 263.424 253.017 264.32C252.356 265.195 252.025 266.4 252.025 267.936C252.025 269.408 252.366 270.571 253.049 271.424C253.732 272.277 254.734 272.704 256.057 272.704ZM286.363 259.68L288.347 276H284.219L283.387 267.744L283.259 265.408H283.163L282.587 267.744L279.771 276H276.603L273.787 267.744L273.211 265.408H273.115L272.987 267.744L272.155 276H267.995L269.979 259.68H274.491L278.171 270.944H278.299L281.883 259.68H286.363ZM307.025 274.912C306.812 275.061 306.513 275.221 306.129 275.392C305.745 275.563 305.286 275.723 304.753 275.872C304.241 276 303.654 276.107 302.993 276.192C302.353 276.299 301.66 276.352 300.913 276.352C297.756 276.352 295.452 275.605 294.001 274.112C292.55 272.597 291.825 270.443 291.825 267.648C291.825 266.368 292.006 265.216 292.369 264.192C292.753 263.168 293.297 262.293 294.001 261.568C294.705 260.843 295.558 260.288 296.561 259.904C297.585 259.52 298.748 259.328 300.049 259.328C301.5 259.328 302.716 259.552 303.697 260C304.7 260.427 305.51 261.013 306.129 261.76C306.748 262.507 307.185 263.392 307.441 264.416C307.718 265.419 307.857 266.496 307.857 267.648V268.832H296.305C296.476 270.197 296.966 271.211 297.777 271.872C298.588 272.512 299.804 272.832 301.425 272.832C302.62 272.832 303.59 272.725 304.337 272.512C305.105 272.277 305.766 272.011 306.321 271.712L307.025 274.912ZM303.441 266.208C303.462 265.205 303.196 264.373 302.641 263.712C302.108 263.051 301.265 262.72 300.113 262.72C297.894 262.72 296.636 263.883 296.337 266.208H303.441Z" fill="#00097F"/>
</g>
<defs>
<linearGradient id="paint0_linear_1702_2615" x1="8.41158" y1="356.555" x2="234.066" y2="-51.4047" gradientUnits="userSpaceOnUse">
<stop offset="0.311177" stop-color="white"/>
<stop offset="1" stop-color="#00E0FF"/>
</linearGradient>
<linearGradient id="paint1_linear_1702_2615" x1="327" y1="364" x2="95.9486" y2="-53.1448" gradientUnits="userSpaceOnUse">
<stop stop-color="white"/>
<stop offset="1" stop-color="#8397FF"/>
</linearGradient>
<linearGradient id="paint2_linear_1702_2615" x1="180.735" y1="60.7941" x2="143.647" y2="97.8824" gradientUnits="userSpaceOnUse">
<stop stop-color="#5378FF"/>
<stop offset="1" stop-color="#FEBCFF"/>
</linearGradient>
<clipPath id="clip0_1702_2615">
<rect width="327" height="396" fill="white" transform="matrix(1 0 0 -1 0 396)"/>
</clipPath>
</defs>
</svg>
