<svg width="235" height="47" viewBox="0 0 235 47" fill="none" xmlns="http://www.w3.org/2000/svg">
<g clip-path="url(#clip0_1920_3724)">
<path d="M17.3078 20.8258C16.8398 20.4131 16.257 20.1454 15.6332 20.0565C15.0095 19.9676 14.3727 20.0616 13.8036 20.3264C13.2345 20.5913 12.7585 21.0153 12.436 21.5446C12.1134 22.0739 11.9588 22.6848 11.9916 23.3001C12.0245 23.9153 12.2433 24.5072 12.6204 25.0009C12.9975 25.4945 13.516 25.8678 14.1102 26.0734C14.7045 26.279 15.3477 26.3077 15.9587 26.1559C16.5696 26.0041 17.1207 25.6786 17.5423 25.2206C18.1061 24.6068 18.3981 23.7996 18.3541 22.9758C18.3102 22.1521 17.9339 21.379 17.3078 20.8258V20.8258Z" fill="url(#paint0_radial_1920_3724)"/>
<path d="M6.04801 11.2882C3.94635 12.837 2.29153 14.892 1.24512 17.2525C2.50526 17.557 6.27713 18.7572 8.01264 23.3277C8.53404 23.1624 9.65714 22.522 10.4355 20.0526C11.4804 16.7461 13.4633 13.5651 16.0328 12.4988C13.4697 10.0158 10.0929 9.43299 6.04801 11.2882Z" fill="url(#paint1_linear_1920_3724)"/>
<path d="M26.8611 13.6773C24.3722 10.7393 20.8206 8.8516 16.9445 8.40652C13.0683 7.96144 9.16578 8.9932 6.04785 11.2874C11.6634 8.71225 15.9909 10.8364 18.6418 16.2053C22.8633 16.9461 25.7305 14.8931 26.8611 13.6773Z" fill="url(#paint2_linear_1920_3724)"/>
<path d="M9.24183 36.7847C11.664 37.7897 14.3116 38.1636 16.9258 37.8698C16.5639 36.6508 15.7406 32.8545 18.9236 29.1033C18.5168 28.7454 17.3883 28.1145 14.8102 28.6848C11.3585 29.4528 7.54914 29.3649 5.31793 27.7231C4.4036 31.1374 5.57488 34.2922 9.24183 36.7847Z" fill="url(#paint3_linear_1920_3724)"/>
<path d="M0.952193 17.9692C-0.406579 21.5452 -0.303311 25.4954 1.24054 28.9988C2.78438 32.5023 5.65009 35.2898 9.24217 36.7819C4.15234 33.3163 3.87076 28.5899 7.30324 23.6625C5.85145 19.7219 2.59349 18.3208 0.952193 17.9692Z" fill="url(#paint4_linear_1920_3724)"/>
<path d="M30.2337 21.3319C29.9124 18.7795 28.9202 16.3519 27.3537 14.2856C26.4533 15.2012 23.4994 17.7962 18.5862 16.9779C18.4727 17.5011 18.4792 18.7714 20.2768 20.6664C22.6836 23.2038 24.5101 26.4716 24.1718 29.1817C27.6492 28.2505 29.8547 25.6837 30.2337 21.3319Z" fill="url(#paint5_linear_1920_3724)"/>
<path d="M17.7105 37.7546C21.5599 37.117 25.0097 35.0539 27.3426 31.9943C29.6756 28.9347 30.7122 25.114 30.237 21.3267C29.7113 27.3684 25.6643 29.9697 19.582 29.5281C16.8133 32.7373 17.2009 36.1903 17.7105 37.7546Z" fill="url(#paint6_linear_1920_3724)"/>
<path d="M39.4812 24.6822V31.088H36V14.8418H41.5234C43.5814 14.8418 45.1403 15.217 46.2004 15.9674C47.2593 16.7181 47.789 17.9055 47.7896 19.5298C47.7991 20.0735 47.7169 20.6149 47.5464 21.1313C47.252 22.0024 46.6601 22.7419 45.8747 23.22C45.4924 23.4537 45.0836 23.6407 44.6569 23.7771C44.9999 23.9082 45.3093 24.1144 45.5622 24.3807C45.8742 24.742 46.1356 25.1442 46.3391 25.5761C46.6096 26.1099 46.9306 26.8176 47.3023 27.6995C47.6737 28.5813 48.1613 29.7109 48.765 31.088H45.0511C44.4945 29.8812 44.0728 28.8677 43.786 28.0476C43.5597 27.376 43.2964 26.7174 42.9975 26.0748C42.8179 25.6578 42.5387 25.2912 42.1845 25.0072C41.7837 24.7642 41.3177 24.6507 40.85 24.6822L39.4812 24.6822ZM39.411 21.8043H41.4304C41.7962 21.8062 42.1614 21.7751 42.5216 21.7116C42.8286 21.662 43.1237 21.5558 43.3917 21.3982C43.6316 21.2512 43.8279 21.043 43.9607 20.795C44.1111 20.4886 44.1829 20.1496 44.1696 19.8086C44.1696 19.097 43.9259 18.6018 43.4383 18.3231C42.9511 18.0447 42.22 17.9054 41.2451 17.9051H39.411V21.8043Z" fill="#000D56"/>
<path d="M59.2323 31.366C58.1367 31.38 57.0477 31.1953 56.018 30.8209C55.0772 30.4744 54.225 29.9236 53.5228 29.208C52.8016 28.4563 52.2514 27.5577 51.9099 26.5736C51.5117 25.4129 51.3192 24.1916 51.341 22.9647C51.3188 21.7358 51.5193 20.5131 51.9327 19.3556C52.2891 18.3732 52.8465 17.476 53.5693 16.7213C54.2654 16.0095 55.109 15.459 56.0408 15.1084C57.0314 14.7379 58.0817 14.5529 59.1392 14.5628C60.2838 14.5436 61.4216 14.7404 62.4931 15.1431C63.435 15.5025 64.2837 16.0697 64.9761 16.8025C65.6741 17.5638 66.2004 18.466 66.5196 19.4483C66.8894 20.5831 67.0697 21.7712 67.0534 22.9647C67.0805 24.2393 66.8801 25.5085 66.4617 26.7127C66.1143 27.6986 65.5513 28.5946 64.8137 29.3353C64.11 30.0239 63.2618 30.5472 62.3307 30.8673C61.3334 31.2072 60.2858 31.3758 59.2323 31.366ZM59.3483 28.3028C59.9064 28.309 60.4597 28.1983 60.9725 27.9779C61.4719 27.7579 61.9101 27.4193 62.249 26.9915C62.6313 26.4984 62.9115 25.9342 63.0735 25.3317C63.2802 24.5601 63.3778 23.7633 63.3632 22.9647C63.3632 21.1235 62.9763 19.7734 62.2026 18.9145C61.8173 18.4888 61.3432 18.1528 60.8139 17.9303C60.2846 17.7077 59.713 17.604 59.1392 17.6265C58.585 17.6229 58.036 17.7334 57.5264 17.9513C57.0177 18.1724 56.5682 18.5104 56.2147 18.9378C55.8158 19.4311 55.5199 19.9994 55.3446 20.609C55.1229 21.3742 55.0173 22.1682 55.0312 22.9647C55.0148 23.7667 55.1286 24.5661 55.3683 25.3317C55.5606 25.9404 55.8722 26.5046 56.2849 26.9915C56.658 27.4226 57.1267 27.7604 57.6537 27.9779C58.1916 28.1969 58.7675 28.3073 59.3483 28.3028Z" fill="#000D56"/>
<path d="M70.698 27.2354C70.9235 27.3812 71.1601 27.5092 71.4056 27.6182C71.7192 27.7606 72.0408 27.8845 72.3688 27.9895C72.7369 28.1087 73.1131 28.2017 73.4943 28.2679C73.8967 28.3383 74.3045 28.3732 74.713 28.3724C75.6252 28.3724 76.2942 28.2099 76.72 27.8851C76.9313 27.7221 77.0998 27.5102 77.211 27.2676C77.3222 27.025 77.3728 26.7591 77.3584 26.4926C77.3679 26.2027 77.3164 25.9141 77.2073 25.6453C77.1017 25.4142 76.9429 25.2114 76.7438 25.0536C76.494 24.861 76.2159 24.7083 75.9193 24.601C75.5787 24.4697 75.1687 24.3189 74.6892 24.1484L74.1326 23.9627C72.8482 23.5299 71.9082 22.9341 71.3126 22.1755C70.8228 21.476 70.5226 20.6616 70.4412 19.8115C70.3598 18.9615 70.5 18.1049 70.8481 17.3251C71.1297 16.743 71.5383 16.2315 72.0439 15.8282C72.5791 15.405 73.189 15.086 73.842 14.8879C74.5755 14.6648 75.3388 14.5553 76.1054 14.5631C77.0293 14.5484 77.9518 14.6385 78.8553 14.8317C79.486 14.9676 80.1036 15.1587 80.7009 15.4028L79.8887 18.388C79.3206 18.1284 78.7246 17.9349 78.1125 17.8112C77.5592 17.6944 76.9958 17.6326 76.4303 17.6268C75.8037 17.59 75.1787 17.7213 74.6199 18.0073C74.4165 18.1288 74.2503 18.304 74.1398 18.5136C74.0292 18.7232 73.9784 18.9592 73.993 19.1957C73.9864 19.4365 74.03 19.676 74.1212 19.899C74.2255 20.1142 74.3856 20.2975 74.5848 20.4298C74.8726 20.6259 75.1797 20.7921 75.5014 20.9258C75.8886 21.0952 76.3838 21.2798 76.987 21.4793L77.591 21.6883C78.2153 21.893 78.8087 22.1819 79.3549 22.5469C79.7799 22.834 80.1493 23.1958 80.4454 23.6146C80.7056 23.995 80.8943 24.4198 81.002 24.8679C81.1126 25.3317 81.1674 25.807 81.1653 26.2837C81.1798 27.0357 81.0249 27.7814 80.7122 28.4654C80.4188 29.0891 79.9859 29.6371 79.4471 30.0669C78.8789 30.5137 78.2286 30.8448 77.533 31.0415C76.752 31.2642 75.943 31.3736 75.1309 31.3663C74.6343 31.3661 74.1381 31.3352 73.6453 31.2737C73.1502 31.2118 72.6781 31.1306 72.2291 31.0301C71.8044 30.9365 71.3859 30.8163 70.9762 30.6701C70.6322 30.5502 70.2984 30.4028 69.978 30.2294L70.698 27.2354Z" fill="#000D56"/>
<path d="M94.3701 27.537H88.1267L86.966 31.088H83.5314L89.0785 14.8418H93.6045L99.0813 31.088H95.5308L94.3701 27.537ZM89.0785 24.4733H93.4184L91.2603 17.6501L89.0785 24.4733Z" fill="#000D56"/>
<path d="M107.112 31.088H103.63V18.0447H99.012V14.8418H111.708V18.0447H107.112V31.088Z" fill="#000D56"/>
<path d="M121.339 31.366C120.243 31.38 119.154 31.1953 118.125 30.8209C117.184 30.4744 116.332 29.9236 115.63 29.208C114.908 28.4563 114.358 27.5577 114.017 26.5736C113.618 25.4129 113.426 24.1916 113.448 22.9647C113.426 21.7358 113.626 20.5131 114.04 19.3556C114.396 18.3732 114.953 17.476 115.676 16.7213C116.372 16.0096 117.216 15.459 118.148 15.1084C119.138 14.7379 120.188 14.5529 121.246 14.5628C122.391 14.5436 123.528 14.7405 124.6 15.1431C125.542 15.5026 126.39 16.0698 127.083 16.8025C127.781 17.5638 128.307 18.466 128.626 19.4483C128.996 20.5831 129.176 21.7712 129.16 22.9647C129.187 24.2393 128.987 25.5085 128.568 26.7127C128.221 27.6986 127.658 28.5946 126.92 29.3353C126.217 30.0239 125.369 30.5472 124.437 30.8673C123.44 31.2072 122.393 31.3758 121.339 31.366ZM121.455 28.3028C122.013 28.309 122.566 28.1983 123.079 27.9779C123.579 27.7579 124.017 27.4193 124.356 26.9915C124.738 26.4984 125.018 25.9342 125.18 25.3317C125.387 24.5601 125.484 23.7633 125.47 22.9647C125.47 21.1235 125.083 19.7734 124.309 18.9145C123.924 18.4888 123.45 18.1528 122.921 17.9303C122.391 17.7077 121.82 17.604 121.246 17.6265C120.692 17.6229 120.143 17.7334 119.633 17.9513C119.124 18.1724 118.675 18.5104 118.321 18.9378C117.923 19.4311 117.627 19.9994 117.451 20.609C117.23 21.3742 117.124 22.1682 117.138 22.9647C117.122 23.7667 117.235 24.5661 117.475 25.3317C117.667 25.9404 117.979 26.5046 118.392 26.9915C118.765 27.4226 119.234 27.7604 119.76 27.9779C120.298 28.1969 120.874 28.3073 121.455 28.3028Z" fill="#000D56"/>
<path d="M151 31.088H147.496L146.613 20.2958L143.272 31.088H139.952L136.657 20.3424L135.775 31.088H132.271L133.895 14.8418H138.05L141.716 27.0963L145.337 14.8418H149.352L151 31.088Z" fill="#000D56"/>
</g>
<path d="M169.657 0V46.271" stroke="#000D56" stroke-width="0.593218"/>
<path d="M226.945 26.2278V21.2714H228.615V20.0476H224.012V21.2714H225.682V26.2278H226.945ZM190.039 1.64999H230.965V17.9876H232.228V0.324219H188.776V9.76779H190.039V1.64999ZM194.798 11.8278V15.3564C194.798 15.8459 194.856 16.2743 194.953 16.621C195.07 16.9678 195.225 17.2533 195.419 17.4777C195.633 17.702 195.866 17.8652 196.177 17.9672C196.468 18.0692 196.799 18.1304 197.187 18.1304C197.964 18.1304 198.566 17.906 198.974 17.4777C199.382 17.0289 199.576 16.3355 199.576 15.3768V11.8482H198.314V15.2137C198.314 15.4992 198.294 15.744 198.275 15.9479C198.255 16.1519 198.197 16.3355 198.1 16.4782C198.022 16.621 197.906 16.723 197.75 16.8046C197.595 16.8862 197.42 16.927 197.187 16.927C196.973 16.927 196.779 16.8862 196.643 16.825C196.488 16.7434 196.391 16.6414 196.294 16.4986C196.216 16.3559 196.158 16.1723 196.119 15.9683C196.08 15.7644 196.06 15.5196 196.06 15.2341V11.8686H194.798V11.8278ZM197.731 25.0652H195.206V23.617H197.42V22.5156H195.206V21.1898H197.712V20.0272H193.943V26.2074H197.712V25.0652H197.731ZM191.146 28.2878V34.4679H192.37V30.1031L194.701 34.4679H196.099V28.2878H194.876V32.5099L192.642 28.2878H191.146ZM218.748 18.008V11.8278H217.524V16.0499L215.29 11.8278H213.814V18.008H215.038V13.6431L217.369 18.008H218.748ZM218.689 21.6386C218.864 21.4754 219.058 21.353 219.311 21.2714C219.544 21.1898 219.816 21.149 220.107 21.149C220.243 21.149 220.399 21.1694 220.593 21.1898C220.787 21.2102 220.962 21.2714 221.137 21.3326L221.409 20.2108C221.253 20.1292 221.04 20.068 220.787 20.0068C220.535 19.9456 220.243 19.9252 219.933 19.9252C219.447 19.9252 219.02 19.9864 218.631 20.1292C218.243 20.272 217.912 20.476 217.66 20.7615C217.388 21.0471 217.194 21.3734 217.038 21.7813C216.902 22.1893 216.825 22.6584 216.825 23.1887C216.825 23.6986 216.902 24.1473 217.038 24.5349C217.174 24.9224 217.388 25.2487 217.641 25.5139C217.893 25.779 218.223 25.983 218.592 26.1054C218.961 26.2482 219.369 26.3093 219.816 26.3093C220.03 26.3093 220.224 26.289 220.379 26.289C220.554 26.2686 220.69 26.2482 220.826 26.2074C220.943 26.1666 221.059 26.1258 221.156 26.085C221.253 26.0442 221.331 26.0034 221.409 25.9626L221.156 24.8612C220.981 24.9428 220.787 25.004 220.593 25.0448C220.399 25.0856 220.243 25.106 220.107 25.106C219.505 25.106 219.039 24.9428 218.689 24.6164C218.34 24.2901 218.165 23.8006 218.165 23.1479C218.165 22.8011 218.204 22.5156 218.301 22.2504C218.379 22.0057 218.515 21.8017 218.689 21.6386ZM214.707 26.2278H215.97V20.0476H214.707V26.2278ZM206.821 29.4504V28.2878H203.053V34.4679H206.821V33.3053H204.316V31.8572H206.53V30.7558H204.316V29.43H206.821V29.4504ZM193.749 18.008V11.8278H192.486V14.255H190.039V11.8278H188.776V18.008H190.039V15.438H192.486V18.008H193.749ZM201.383 33.6521C201.927 33.1218 202.198 32.3059 202.198 31.2453C202.198 30.7762 202.14 30.3479 202.024 29.9807C201.907 29.6136 201.732 29.3076 201.48 29.0425C201.227 28.7773 200.916 28.5938 200.528 28.451C200.14 28.3286 199.673 28.247 199.11 28.247H197.168V34.4272H198.993C200.042 34.4679 200.819 34.1824 201.383 33.6521ZM198.43 33.3053V29.4504H199.032C199.673 29.4504 200.14 29.5932 200.431 29.8991C200.722 30.2051 200.858 30.6742 200.858 31.3269C200.858 32.6527 200.217 33.3053 198.955 33.3053H198.43V33.3053ZM209.269 16.6618H211.522L211.949 18.008H213.231L211.25 11.8278H209.618L207.618 18.008H208.861L209.269 16.6618ZM210.415 12.8885L211.192 15.4788H209.618L210.415 12.8885ZM189.437 25.5343C189.689 25.7994 190.02 26.0034 190.389 26.1258C190.758 26.2686 191.166 26.3297 191.612 26.3297C191.826 26.3297 192.02 26.3093 192.176 26.3093C192.35 26.2889 192.486 26.2686 192.622 26.2278C192.739 26.187 192.856 26.1462 192.953 26.1054C193.05 26.0646 193.127 26.0238 193.205 25.983L192.953 24.8816C192.778 24.9632 192.584 25.0244 192.389 25.0652C192.195 25.106 192.04 25.1263 191.904 25.1263C191.302 25.1263 190.835 24.9632 190.486 24.6368C190.136 24.3105 189.961 23.821 189.961 23.1683C189.961 22.8215 190 22.536 190.097 22.2708C190.194 22.0261 190.33 21.8221 190.505 21.6589C190.68 21.4958 190.874 21.3734 191.127 21.2918C191.36 21.2102 191.632 21.1694 191.923 21.1694C192.059 21.1694 192.215 21.1898 192.409 21.2102C192.603 21.2306 192.778 21.2918 192.953 21.353L193.225 20.2312C193.069 20.1496 192.856 20.0884 192.603 20.0272C192.35 19.966 192.059 19.9456 191.748 19.9456C191.263 19.9456 190.835 20.0068 190.447 20.1496C190.058 20.2924 189.728 20.4963 189.476 20.7819C189.204 21.0675 189.01 21.3938 188.854 21.8017C188.718 22.2097 188.641 22.6788 188.641 23.2091C188.641 23.719 188.718 24.1677 188.854 24.5552C188.971 24.9428 189.184 25.2691 189.437 25.5343ZM203.616 26.2278V20.0476H202.393V24.2697L200.159 20.0476H198.683V26.2278H199.906V21.8629L202.237 26.2278H203.616ZM232.811 20.0476L231.606 22.4136L230.363 20.0476H228.906L230.965 23.8822V26.2482H232.228V23.8822L234.267 20.0476H232.811ZM230.965 44.6254H190.039V36.5076H188.776V45.9512H232.228V28.247H230.965V44.6254ZM223.429 20.0476H222.166V26.2278H223.429V20.0476ZM188.776 34.4679H190.039V28.2878H188.776V34.4679ZM203.15 18.008H204.355L205.559 13.9083L205.87 18.008H207.132L206.53 11.8278H205.093L203.772 16.4986L202.451 11.8278H200.936L200.353 18.008H201.616L201.927 13.9083L203.15 18.008ZM207.132 21.2714H208.803V20.0476H204.199V21.2714H205.87V26.2278H207.132V21.2714ZM208.783 34.4679L209.987 32.2039L211.231 34.4679H212.746L210.939 31.2453L212.61 28.2674H211.172L210.046 30.3886L208.977 28.2674H207.482L209.113 31.2453L207.326 34.4475H208.783V34.4679ZM222.574 15.0301H219.797V16.0295H222.574V15.0301ZM213.484 24.9428C213.348 24.6164 213.231 24.3309 213.134 24.1269C213.037 23.923 212.94 23.7802 212.843 23.6782C212.746 23.5762 212.649 23.4946 212.513 23.4538C212.668 23.3926 212.823 23.3315 212.959 23.2499C213.095 23.1683 213.212 23.0459 213.328 22.9235C213.445 22.8012 213.523 22.638 213.581 22.4544C213.639 22.2708 213.678 22.0669 213.678 21.8425C213.678 21.2306 213.484 20.7819 213.095 20.4963C212.707 20.2108 212.144 20.068 211.405 20.068H209.405V26.2482H210.667V23.8006H211.172C211.386 23.8006 211.541 23.8414 211.658 23.923C211.774 24.0045 211.872 24.1473 211.949 24.3309C212.027 24.5145 212.124 24.7796 212.241 25.0856C212.338 25.3915 212.493 25.779 212.707 26.2482H214.047C213.795 25.6975 213.6 25.2691 213.484 24.9428ZM212.26 22.3116C212.202 22.4136 212.144 22.4952 212.046 22.536C211.969 22.5972 211.852 22.638 211.736 22.6584C211.619 22.6788 211.483 22.6992 211.347 22.6992H210.609V21.2102H211.269C211.619 21.2102 211.891 21.2714 212.066 21.3734C212.241 21.4754 212.338 21.6589 212.338 21.9445C212.338 22.0873 212.318 22.2097 212.26 22.3116Z" fill="#000D56"/>
<defs>
<radialGradient id="paint0_radial_1920_3724" cx="0" cy="0" r="1" gradientUnits="userSpaceOnUse" gradientTransform="translate(14.1537 21.4034) scale(4.48599 4.38428)">
<stop stop-color="#4A96D2"/>
<stop offset="1" stop-color="#1F2466"/>
</radialGradient>
<linearGradient id="paint1_linear_1920_3724" x1="4.41422" y1="21.0403" x2="11.7179" y2="9.53318" gradientUnits="userSpaceOnUse">
<stop stop-color="#4A96D2"/>
<stop offset="1" stop-color="#1F2466"/>
</linearGradient>
<linearGradient id="paint2_linear_1920_3724" x1="7.42577" y1="7.95364" x2="26.0458" y2="15.6512" gradientUnits="userSpaceOnUse">
<stop stop-color="#4A96D2"/>
<stop offset="1" stop-color="#1F2466"/>
</linearGradient>
<linearGradient id="paint3_linear_1920_3724" x1="18.6981" y1="33.2806" x2="4.8664" y2="32.5387" gradientUnits="userSpaceOnUse">
<stop stop-color="#4A96D2"/>
<stop offset="1" stop-color="#1F2466"/>
</linearGradient>
<linearGradient id="paint4_linear_1920_3724" x1="5.59645" y1="37.2757" x2="2.90688" y2="17.6923" gradientUnits="userSpaceOnUse">
<stop stop-color="#4A96D2"/>
<stop offset="1" stop-color="#1F2466"/>
</linearGradient>
<linearGradient id="paint5_linear_1920_3724" x1="22.4019" y1="15.0808" x2="28.4656" y2="27.2568" gradientUnits="userSpaceOnUse">
<stop stop-color="#4A96D2"/>
<stop offset="1" stop-color="#1F2466"/>
</linearGradient>
<linearGradient id="paint6_linear_1920_3724" x1="32.4937" y1="24.1734" x2="16.8412" y2="36.6852" gradientUnits="userSpaceOnUse">
<stop stop-color="#4A96D2"/>
<stop offset="1" stop-color="#1F2466"/>
</linearGradient>
<clipPath id="clip0_1920_3724">
<rect width="150.675" height="29.6603" fill="white" transform="translate(0 8.30518)"/>
</clipPath>
</defs>
</svg>
