<svg width="235" height="47" viewBox="0 0 235 47" fill="none" xmlns="http://www.w3.org/2000/svg">
<g clip-path="url(#clip0_1514_885)">
<path d="M17.3078 20.8258C16.8398 20.4131 16.257 20.1454 15.6332 20.0565C15.0095 19.9676 14.3727 20.0616 13.8036 20.3264C13.2345 20.5913 12.7585 21.0153 12.436 21.5446C12.1134 22.0739 11.9588 22.6848 11.9916 23.3001C12.0245 23.9153 12.2433 24.5072 12.6204 25.0009C12.9975 25.4945 13.516 25.8678 14.1102 26.0734C14.7045 26.279 15.3477 26.3077 15.9587 26.1559C16.5696 26.0041 17.1207 25.6786 17.5423 25.2206C18.1061 24.6068 18.3981 23.7996 18.3541 22.9758C18.3102 22.1521 17.9339 21.379 17.3078 20.8258Z" fill="url(#paint0_radial_1514_885)"/>
<path d="M6.04801 11.2882C3.94635 12.837 2.29153 14.892 1.24512 17.2525C2.50526 17.557 6.27713 18.7572 8.01264 23.3277C8.53404 23.1624 9.65714 22.522 10.4355 20.0526C11.4804 16.7461 13.4633 13.5651 16.0328 12.4988C13.4697 10.0158 10.0929 9.43299 6.04801 11.2882Z" fill="url(#paint1_linear_1514_885)"/>
<path d="M26.8611 13.6773C24.3722 10.7393 20.8206 8.8516 16.9445 8.40652C13.0683 7.96144 9.16578 8.9932 6.04785 11.2874C11.6634 8.71225 15.9909 10.8364 18.6418 16.2053C22.8633 16.9461 25.7305 14.8931 26.8611 13.6773Z" fill="url(#paint2_linear_1514_885)"/>
<path d="M9.24183 36.7847C11.664 37.7897 14.3116 38.1636 16.9258 37.8698C16.5639 36.6508 15.7406 32.8545 18.9236 29.1033C18.5168 28.7454 17.3883 28.1145 14.8102 28.6848C11.3585 29.4528 7.54914 29.3649 5.31793 27.7231C4.4036 31.1374 5.57488 34.2922 9.24183 36.7847Z" fill="url(#paint3_linear_1514_885)"/>
<path d="M0.952193 17.9692C-0.406579 21.5452 -0.303311 25.4954 1.24054 28.9988C2.78438 32.5023 5.65009 35.2898 9.24217 36.7819C4.15234 33.3163 3.87076 28.5899 7.30324 23.6625C5.85145 19.7219 2.59349 18.3208 0.952193 17.9692Z" fill="url(#paint4_linear_1514_885)"/>
<path d="M30.2337 21.3319C29.9124 18.7795 28.9202 16.3519 27.3537 14.2856C26.4533 15.2012 23.4994 17.7962 18.5862 16.9779C18.4727 17.5011 18.4792 18.7714 20.2768 20.6664C22.6836 23.2038 24.5101 26.4716 24.1718 29.1817C27.6492 28.2505 29.8547 25.6837 30.2337 21.3319Z" fill="url(#paint5_linear_1514_885)"/>
<path d="M17.7105 37.7546C21.5599 37.117 25.0097 35.0539 27.3426 31.9943C29.6756 28.9347 30.7122 25.114 30.237 21.3267C29.7113 27.3684 25.6643 29.9697 19.582 29.5281C16.8133 32.7373 17.2009 36.1903 17.7105 37.7546Z" fill="url(#paint6_linear_1514_885)"/>
<path d="M40.1428 30.9564H36.7168V15.3195H42.222C43.1389 15.3095 44.0533 15.415 44.9425 15.6334C45.6891 15.8139 46.392 16.1364 47.011 16.5825C47.5831 17.0088 48.0352 17.5701 48.3247 18.2137C48.6295 18.8757 48.7818 19.6539 48.7818 20.5482C48.7957 21.3515 48.6363 22.1487 48.314 22.8879C48.0091 23.5632 47.5428 24.1571 46.9543 24.6196C46.3094 25.113 45.5711 25.4772 44.7819 25.6911C43.8453 25.9481 42.8758 26.0725 41.903 26.0605H40.1428V30.9564ZM40.0743 23.1149H41.9479C42.9843 23.1149 43.7919 22.9179 44.3708 22.5237C44.9497 22.1296 45.2391 21.5154 45.2391 20.6811C45.2391 19.8021 44.9572 19.1802 44.3933 18.8154C43.8294 18.4506 43.0218 18.2682 41.9704 18.2682H40.0743V23.1149Z" fill="#000D56"/>
<path d="M59.1584 31.2221C58.0795 31.2358 57.0069 31.0585 55.9925 30.699C55.0665 30.3656 54.2277 29.8356 53.5365 29.1472C52.8259 28.4236 52.2839 27.5584 51.9476 26.6108C51.5736 25.6063 51.387 24.4487 51.3877 23.1379C51.3884 21.8272 51.5826 20.6692 51.9701 19.664C52.3195 18.719 52.8664 17.8556 53.5761 17.1286C54.2622 16.4441 55.0931 15.9144 56.0107 15.5769C56.9862 15.2205 58.0207 15.0431 59.0621 15.0537C60.2969 15.0537 61.3978 15.2399 62.365 15.6124C63.2924 15.9586 64.1282 16.5043 64.8103 17.2092C65.4973 17.9423 66.0157 18.8108 66.3306 19.756C66.6945 20.8482 66.8717 21.9915 66.8553 23.14C66.8553 24.5247 66.6611 25.7273 66.2728 26.7479C65.9317 27.6948 65.3795 28.5558 64.6562 29.2686C63.9626 29.9312 63.127 30.4348 62.2097 30.7429C61.2276 31.07 60.1959 31.232 59.1584 31.2221ZM59.2773 28.2735C59.827 28.2788 60.3718 28.1719 60.8768 27.9596C61.3688 27.7478 61.8006 27.4221 62.1348 27.0105C62.5105 26.536 62.786 25.9932 62.9453 25.4138C63.1492 24.6709 63.2455 23.9038 63.2311 23.1348C63.2311 21.3622 62.8503 20.063 62.0888 19.237C61.3272 18.4111 60.3186 17.9981 59.0631 17.9981C58.5171 17.995 57.9762 18.1019 57.4743 18.3121C56.9733 18.5244 56.5308 18.8496 56.1831 19.2611C55.7907 19.736 55.4995 20.2828 55.3266 20.8694C55.1086 21.6059 55.0046 22.3702 55.0182 23.1369C55.002 23.9091 55.114 24.6787 55.3501 25.4158C55.5396 26.0014 55.8464 26.5442 56.2527 27.0126C56.6204 27.4271 57.0819 27.7521 57.6006 27.9617C58.1329 28.1728 58.7028 28.2788 59.2773 28.2735Z" fill="#000D56"/>
<path d="M82.2202 30.3366C82.0061 30.4405 81.7737 30.5451 81.5232 30.6505C81.2336 30.7667 80.9359 30.8628 80.6324 30.9382C80.2417 31.0348 79.8446 31.1048 79.444 31.1475C78.9313 31.2022 78.4159 31.2281 77.9001 31.2249C76.7699 31.2387 75.6455 31.065 74.5747 30.7112C73.6215 30.3936 72.7494 29.879 72.018 29.2023C71.2893 28.5087 70.7272 27.6657 70.3725 26.7339C69.9842 25.7517 69.79 24.6199 69.79 23.3384C69.79 21.9984 69.9842 20.8108 70.3725 19.7756C70.7178 18.7981 71.2894 17.9118 72.0428 17.1858C72.7963 16.4598 73.7111 15.9137 74.7161 15.5901C75.8544 15.2182 77.049 15.037 78.2492 15.0544C79.0359 15.0464 79.8213 15.1211 80.5917 15.2772C81.1687 15.3901 81.7317 15.5623 82.2716 15.791L81.5221 18.6057C81.0391 18.4434 80.5421 18.324 80.0372 18.2489C79.6062 18.1804 79.1707 18.143 78.7342 18.137C78.0036 18.1287 77.2758 18.2267 76.5747 18.4278C75.9567 18.6062 75.3866 18.916 74.9056 19.335C74.4244 19.7691 74.0528 20.3064 73.8199 20.9046C73.5608 21.5401 73.4316 22.2903 73.4324 23.1553C73.4324 24.8121 73.9084 26.0583 74.8606 26.894C75.8128 27.7297 77.0975 28.1483 78.7149 28.1496C79.1604 28.1414 79.6041 28.0927 80.0404 28.0042C80.5591 27.9075 81.0652 27.7541 81.5489 27.5469L82.2202 30.3366Z" fill="#000D56"/>
<path d="M95.2513 27.5381H89.1037L87.9603 30.9555H84.5781L90.0384 15.3186H94.4955L99.8893 30.9555H96.3926L95.2513 27.5381ZM90.0405 24.5894H94.3145L92.1893 18.0214L90.0405 24.5894Z" fill="#000D56"/>
<path d="M107.682 30.9555H104.256V18.3991H99.7051V15.3186H112.208V18.4012H107.682V30.9555Z" fill="#000D56"/>
<path d="M121.579 31.2221C120.5 31.2359 119.428 31.0586 118.414 30.6989C117.487 30.3656 116.648 29.8356 115.956 29.1472C115.246 28.4235 114.705 27.5583 114.369 26.6108C113.994 25.6063 113.807 24.4486 113.808 23.1379C113.808 21.8271 114.003 20.6692 114.391 19.6639C114.74 18.7188 115.287 17.8553 115.997 17.1286C116.683 16.4439 117.513 15.9142 118.431 15.5768C119.406 15.2206 120.441 15.0433 121.482 15.0537C122.716 15.0537 123.817 15.2399 124.785 15.6124C125.712 15.9583 126.548 16.5041 127.23 17.2092C127.918 17.942 128.436 18.8105 128.751 19.756C129.115 20.848 129.293 21.9914 129.276 23.14C129.276 24.5247 129.082 25.7273 128.694 26.7479C128.352 27.6949 127.8 28.5559 127.076 29.2686C126.383 29.9309 125.548 30.4345 124.631 30.7429C123.649 31.0699 122.617 31.2319 121.579 31.2221ZM121.694 28.2735C122.244 28.2784 122.788 28.1715 123.294 27.9596C123.785 27.7475 124.216 27.4218 124.55 27.0105C124.926 26.5358 125.202 25.9931 125.362 25.4137C125.566 24.6709 125.662 23.9037 125.648 23.1348C125.648 21.3622 125.267 20.063 124.504 19.237C123.742 18.4111 122.736 17.9978 121.487 17.9971C120.941 17.9941 120.4 18.101 119.898 18.311C119.398 18.5236 118.955 18.8488 118.607 19.2601C118.215 19.7349 117.924 20.2818 117.751 20.8683C117.532 21.6048 117.428 22.3691 117.442 23.1358C117.426 23.9079 117.538 24.6775 117.773 25.4148C117.963 26.0004 118.27 26.5432 118.677 27.0115C119.044 27.4265 119.506 27.7516 120.025 27.9606C120.555 28.1716 121.123 28.278 121.696 28.2735H121.694Z" fill="#000D56"/>
<path d="M150.675 30.9555H147.224L146.354 20.5682L143.063 30.9555H139.795L136.55 20.6132L135.681 30.9555H132.229L133.829 15.3186H137.921L141.532 27.1133L145.098 15.3186H149.051L150.675 30.9555Z" fill="#000D56"/>
</g>
<path d="M169.657 0V46.271" stroke="#000D56" stroke-width="0.593218"/>
<path d="M226.945 26.2275V21.2712H228.615V20.0474H224.012V21.2712H225.682V26.2275H226.945ZM190.039 1.64975H230.965V17.9873H232.228V0.323975H188.777V9.76755H190.039V1.64975ZM194.798 11.8276V15.3562C194.798 15.8457 194.856 16.274 194.953 16.6208C195.07 16.9675 195.225 17.2531 195.42 17.4774C195.633 17.7018 195.866 17.865 196.177 17.9669C196.468 18.0689 196.799 18.1301 197.187 18.1301C197.964 18.1301 198.566 17.9057 198.974 17.4774C199.382 17.0287 199.576 16.3352 199.576 15.3766V11.848H198.314V15.2134C198.314 15.499 198.294 15.7437 198.275 15.9477C198.255 16.1516 198.197 16.3352 198.1 16.478C198.022 16.6208 197.906 16.7228 197.75 16.8043C197.595 16.8859 197.42 16.9267 197.187 16.9267C196.974 16.9267 196.779 16.8859 196.643 16.8247C196.488 16.7431 196.391 16.6412 196.294 16.4984C196.216 16.3556 196.158 16.172 196.119 15.9681C196.08 15.7641 196.061 15.5194 196.061 15.2338V11.8684H194.798V11.8276ZM197.731 25.0649H195.206V23.6168H197.42V22.5154H195.206V21.1896H197.712V20.027H193.943V26.2071H197.712V25.0649H197.731ZM191.146 28.2876V34.4677H192.37V30.1028L194.701 34.4677H196.099V28.2876H194.876V32.5096L192.642 28.2876H191.146ZM218.748 18.0077V11.8276H217.524V16.0497L215.29 11.8276H213.814V18.0077H215.038V13.6429L217.369 18.0077H218.748ZM218.69 21.6383C218.864 21.4751 219.059 21.3528 219.311 21.2712C219.544 21.1896 219.816 21.1488 220.107 21.1488C220.243 21.1488 220.399 21.1692 220.593 21.1896C220.787 21.21 220.962 21.2712 221.137 21.3324L221.409 20.2106C221.254 20.129 221.04 20.0678 220.787 20.0066C220.535 19.9454 220.243 19.925 219.933 19.925C219.447 19.925 219.02 19.9862 218.631 20.129C218.243 20.2717 217.913 20.4757 217.66 20.7613C217.388 21.0468 217.194 21.3732 217.038 21.7811C216.903 22.189 216.825 22.6581 216.825 23.1884C216.825 23.6984 216.903 24.1471 217.038 24.5346C217.174 24.9221 217.388 25.2485 217.641 25.5136C217.893 25.7788 218.223 25.9828 218.592 26.1051C218.961 26.2479 219.369 26.3091 219.816 26.3091C220.03 26.3091 220.224 26.2887 220.379 26.2887C220.554 26.2683 220.69 26.2479 220.826 26.2071C220.943 26.1663 221.059 26.1255 221.156 26.0847C221.254 26.0439 221.331 26.0032 221.409 25.9624L221.156 24.861C220.982 24.9425 220.787 25.0037 220.593 25.0445C220.399 25.0853 220.243 25.1057 220.107 25.1057C219.505 25.1057 219.039 24.9425 218.69 24.6162C218.34 24.2898 218.165 23.8003 218.165 23.1476C218.165 22.8009 218.204 22.5154 218.301 22.2502C218.379 22.0054 218.515 21.8015 218.69 21.6383ZM214.708 26.2275H215.97V20.0474H214.708V26.2275ZM206.821 29.4502V28.2876H203.053V34.4677H206.821V33.3051H204.316V31.8569H206.53V30.7555H204.316V29.4298H206.821V29.4502ZM193.749 18.0077V11.8276H192.487V14.2548H190.039V11.8276H188.777V18.0077H190.039V15.4378H192.487V18.0077H193.749ZM201.383 33.6518C201.927 33.1215 202.199 32.3057 202.199 31.2451C202.199 30.7759 202.14 30.3476 202.024 29.9805C201.907 29.6133 201.732 29.3074 201.48 29.0422C201.227 28.7771 200.917 28.5935 200.528 28.4507C200.14 28.3284 199.673 28.2468 199.11 28.2468H197.168V34.4269H198.994C200.043 34.4677 200.819 34.1821 201.383 33.6518ZM198.43 33.3051V29.4502H199.032C199.673 29.4502 200.14 29.5929 200.431 29.8989C200.722 30.2048 200.858 30.674 200.858 31.3266C200.858 32.6524 200.217 33.3051 198.955 33.3051H198.43ZM209.269 16.6616H211.522L211.949 18.0077H213.231L211.25 11.8276H209.619L207.618 18.0077H208.861L209.269 16.6616ZM210.415 12.8882L211.192 15.4786H209.619L210.415 12.8882ZM189.437 25.534C189.69 25.7992 190.02 26.0032 190.389 26.1255C190.758 26.2683 191.166 26.3295 191.612 26.3295C191.826 26.3295 192.02 26.3091 192.176 26.3091C192.351 26.2887 192.487 26.2683 192.623 26.2275C192.739 26.1867 192.856 26.1459 192.953 26.1051C193.05 26.0643 193.128 26.0236 193.205 25.9828L192.953 24.8813C192.778 24.9629 192.584 25.0241 192.389 25.0649C192.195 25.1057 192.04 25.1261 191.904 25.1261C191.302 25.1261 190.836 24.9629 190.486 24.6366C190.136 24.3102 189.961 23.8207 189.961 23.168C189.961 22.8213 190 22.5358 190.097 22.2706C190.195 22.0258 190.331 21.8219 190.505 21.6587C190.68 21.4955 190.874 21.3732 191.127 21.2916C191.36 21.21 191.632 21.1692 191.923 21.1692C192.059 21.1692 192.215 21.1896 192.409 21.21C192.603 21.2304 192.778 21.2916 192.953 21.3528L193.225 20.2309C193.069 20.1494 192.856 20.0882 192.603 20.027C192.351 19.9658 192.059 19.9454 191.748 19.9454C191.263 19.9454 190.836 20.0066 190.447 20.1494C190.059 20.2921 189.728 20.4961 189.476 20.7817C189.204 21.0672 189.01 21.3935 188.854 21.8015C188.718 22.2094 188.641 22.6785 188.641 23.2088C188.641 23.7187 188.718 24.1675 188.854 24.555C188.971 24.9425 189.184 25.2689 189.437 25.534ZM203.617 26.2275V20.0474H202.393V24.2695L200.159 20.0474H198.683V26.2275H199.907V21.8627L202.237 26.2275H203.617ZM232.811 20.0474L231.606 22.4134L230.363 20.0474H228.907L230.965 23.8819V26.2479H232.228V23.8819L234.268 20.0474H232.811ZM230.965 44.6252H190.039V36.5073H188.777V45.9509H232.228V28.2468H230.965V44.6252ZM223.429 20.0474H222.166V26.2275H223.429V20.0474ZM188.777 34.4677H190.039V28.2876H188.777V34.4677ZM203.15 18.0077H204.355L205.559 13.908L205.87 18.0077H207.132L206.53 11.8276H205.093L203.772 16.4984L202.451 11.8276H200.936L200.353 18.0077H201.616L201.927 13.908L203.15 18.0077ZM207.132 21.2712H208.803V20.0474H204.199V21.2712H205.87V26.2275H207.132V21.2712ZM208.783 34.4677L209.988 32.2037L211.231 34.4677H212.746L210.939 31.2451L212.61 28.2672H211.172L210.046 30.3884L208.978 28.2672H207.482L209.114 31.2451L207.327 34.4473H208.783V34.4677ZM222.574 15.0298H219.797V16.0293H222.574V15.0298ZM213.484 24.9425C213.348 24.6162 213.231 24.3306 213.134 24.1267C213.037 23.9227 212.94 23.7799 212.843 23.678C212.746 23.576 212.649 23.4944 212.513 23.4536C212.668 23.3924 212.823 23.3312 212.959 23.2496C213.095 23.168 213.212 23.0457 213.329 22.9233C213.445 22.8009 213.523 22.6377 213.581 22.4542C213.639 22.2706 213.678 22.0666 213.678 21.8423C213.678 21.2304 213.484 20.7817 213.095 20.4961C212.707 20.2106 212.144 20.0678 211.406 20.0678H209.405V26.2479H210.667V23.8003H211.172C211.386 23.8003 211.542 23.8411 211.658 23.9227C211.775 24.0043 211.872 24.1471 211.949 24.3306C212.027 24.5142 212.124 24.7794 212.241 25.0853C212.338 25.3913 212.493 25.7788 212.707 26.2479H214.047C213.795 25.6972 213.6 25.2689 213.484 24.9425ZM212.26 22.3114C212.202 22.4134 212.144 22.495 212.047 22.5358C211.969 22.5969 211.852 22.6377 211.736 22.6581C211.619 22.6785 211.483 22.6989 211.347 22.6989H210.609V21.21H211.27C211.619 21.21 211.891 21.2712 212.066 21.3732C212.241 21.4751 212.338 21.6587 212.338 21.9443C212.338 22.087 212.318 22.2094 212.26 22.3114Z" fill="#000D56"/>
<defs>
<radialGradient id="paint0_radial_1514_885" cx="0" cy="0" r="1" gradientUnits="userSpaceOnUse" gradientTransform="translate(14.1537 21.4034) scale(4.48599 4.38428)">
<stop stop-color="#4A96D2"/>
<stop offset="1" stop-color="#1F2466"/>
</radialGradient>
<linearGradient id="paint1_linear_1514_885" x1="4.41422" y1="21.0403" x2="11.7179" y2="9.53318" gradientUnits="userSpaceOnUse">
<stop stop-color="#4A96D2"/>
<stop offset="1" stop-color="#1F2466"/>
</linearGradient>
<linearGradient id="paint2_linear_1514_885" x1="7.42577" y1="7.95364" x2="26.0458" y2="15.6512" gradientUnits="userSpaceOnUse">
<stop stop-color="#4A96D2"/>
<stop offset="1" stop-color="#1F2466"/>
</linearGradient>
<linearGradient id="paint3_linear_1514_885" x1="18.6981" y1="33.2806" x2="4.8664" y2="32.5387" gradientUnits="userSpaceOnUse">
<stop stop-color="#4A96D2"/>
<stop offset="1" stop-color="#1F2466"/>
</linearGradient>
<linearGradient id="paint4_linear_1514_885" x1="5.59645" y1="37.2757" x2="2.90688" y2="17.6923" gradientUnits="userSpaceOnUse">
<stop stop-color="#4A96D2"/>
<stop offset="1" stop-color="#1F2466"/>
</linearGradient>
<linearGradient id="paint5_linear_1514_885" x1="22.4019" y1="15.0808" x2="28.4656" y2="27.2568" gradientUnits="userSpaceOnUse">
<stop stop-color="#4A96D2"/>
<stop offset="1" stop-color="#1F2466"/>
</linearGradient>
<linearGradient id="paint6_linear_1514_885" x1="32.4937" y1="24.1734" x2="16.8412" y2="36.6852" gradientUnits="userSpaceOnUse">
<stop stop-color="#4A96D2"/>
<stop offset="1" stop-color="#1F2466"/>
</linearGradient>
<clipPath id="clip0_1514_885">
<rect width="150.675" height="29.6603" fill="white" transform="translate(0 8.30518)"/>
</clipPath>
</defs>
</svg>
