<svg width="375" height="487" viewBox="0 0 375 487" fill="none" xmlns="http://www.w3.org/2000/svg">
<g clip-path="url(#clip0_1659_2400)">
<path d="M0 525H375V0H0V525Z" fill="url(#paint0_linear_1659_2400)"/>
<path d="M0 525H375V0H0V525Z" fill="url(#paint1_linear_1659_2400)" fill-opacity="0.7"/>
<g filter="url(#filter0_f_1659_2400)">
<circle cx="58" cy="46" r="76" fill="url(#paint2_radial_1659_2400)"/>
</g>
<path d="M92 104C92 85.2223 76.7777 70 58 70C39.2223 70 24 85.2223 24 104" stroke="#2152FF"/>
<path d="M132 104C132 85.2223 116.778 70 98 70C79.2223 70 64 85.2223 64 104" stroke="#2152FF"/>
<path d="M172 104C172 85.2223 156.778 70 138 70C119.222 70 104 85.2223 104 104" stroke="#2152FF"/>
<circle cx="58" cy="47" r="15" stroke="#2152FF"/>
<circle cx="98" cy="47" r="15" stroke="#2152FF"/>
<circle cx="138" cy="47" r="15" stroke="#2152FF"/>
</g>
<defs>
<filter id="filter0_f_1659_2400" x="-38" y="-50" width="192" height="192" filterUnits="userSpaceOnUse" color-interpolation-filters="sRGB">
<feFlood flood-opacity="0" result="BackgroundImageFix"/>
<feBlend mode="normal" in="SourceGraphic" in2="BackgroundImageFix" result="shape"/>
<feGaussianBlur stdDeviation="10" result="effect1_foregroundBlur_1659_2400"/>
</filter>
<linearGradient id="paint0_linear_1659_2400" x1="9.64628" y1="508.384" x2="364.321" y2="-7.34416" gradientUnits="userSpaceOnUse">
<stop offset="0.616112" stop-color="white"/>
<stop offset="1" stop-color="#FD8EFF"/>
</linearGradient>
<linearGradient id="paint1_linear_1659_2400" x1="188.103" y1="225.293" x2="4.94295" y2="-3.9493" gradientUnits="userSpaceOnUse">
<stop offset="0.312697" stop-color="white"/>
<stop offset="1" stop-color="#8BFFFF"/>
</linearGradient>
<radialGradient id="paint2_radial_1659_2400" cx="0" cy="0" r="1" gradientUnits="userSpaceOnUse" gradientTransform="translate(58 46) rotate(90) scale(76)">
<stop stop-color="#A5B9FF"/>
<stop offset="0.855905" stop-color="#9FF3FF"/>
</radialGradient>
<clipPath id="clip0_1659_2400">
<rect width="375" height="487" fill="white" transform="matrix(1 0 0 -1 0 487)"/>
</clipPath>
</defs>
</svg>
