<svg width="327" height="393" viewBox="0 0 327 393" fill="none" xmlns="http://www.w3.org/2000/svg">
<g clip-path="url(#clip0_1923_7197)">
<path d="M0 393H327V0H0V393Z" fill="url(#paint0_linear_1923_7197)"/>
<path d="M0 393H327V0H0V393Z" fill="url(#paint1_linear_1923_7197)" fill-opacity="0.6"/>
<path d="M93.9497 198H86.1297V184H93.9497V185.68H87.9297V189.92H93.4297V191.56H87.9297V196.32H93.9497V198ZM101.128 198H99.2877L95.6277 187.8H97.4877L100.248 195.92H100.288L103.108 187.8H104.788L101.128 198ZM114.599 197.38C114.359 197.593 113.966 197.78 113.419 197.94C112.873 198.087 112.213 198.16 111.439 198.16C109.639 198.16 108.306 197.693 107.439 196.76C106.586 195.827 106.159 194.527 106.159 192.86C106.159 192.073 106.259 191.36 106.459 190.72C106.673 190.08 106.979 189.533 107.379 189.08C107.779 188.613 108.259 188.26 108.819 188.02C109.393 187.767 110.039 187.64 110.759 187.64C111.573 187.64 112.266 187.773 112.839 188.04C113.413 188.307 113.873 188.673 114.219 189.14C114.579 189.593 114.839 190.133 114.999 190.76C115.159 191.387 115.239 192.06 115.239 192.78V193.32H107.919C108.013 194.44 108.346 195.273 108.919 195.82C109.493 196.367 110.379 196.64 111.579 196.64C112.233 196.64 112.766 196.587 113.179 196.48C113.606 196.36 113.979 196.207 114.299 196.02L114.599 197.38ZM113.439 191.92C113.453 191.533 113.406 191.173 113.299 190.84C113.193 190.493 113.033 190.2 112.819 189.96C112.606 189.707 112.333 189.513 111.999 189.38C111.666 189.233 111.279 189.16 110.839 189.16C109.973 189.16 109.299 189.393 108.819 189.86C108.339 190.327 108.046 191.013 107.939 191.92H113.439ZM126.756 198H125.076V192.72C125.076 192.04 125.036 191.473 124.956 191.02C124.876 190.567 124.743 190.2 124.556 189.92C124.369 189.64 124.109 189.447 123.776 189.34C123.456 189.22 123.056 189.16 122.576 189.16C121.536 189.16 120.783 189.527 120.316 190.26C119.849 190.993 119.616 192 119.616 193.28V198H117.936V187.8H119.616V189.26H119.656C120.043 188.7 120.516 188.293 121.076 188.04C121.649 187.773 122.269 187.64 122.936 187.64C124.269 187.64 125.236 187.98 125.836 188.66C126.449 189.327 126.756 190.42 126.756 191.94V198ZM148.558 198H146.878V191.92C146.878 191.507 146.851 191.133 146.798 190.8C146.758 190.453 146.665 190.16 146.518 189.92C146.385 189.68 146.198 189.493 145.958 189.36C145.718 189.227 145.398 189.16 144.998 189.16C144.505 189.16 144.098 189.26 143.778 189.46C143.471 189.647 143.225 189.913 143.038 190.26C142.865 190.593 142.745 190.987 142.678 191.44C142.611 191.88 142.578 192.353 142.578 192.86V198H140.898V191.92C140.898 191.533 140.871 191.173 140.818 190.84C140.778 190.507 140.685 190.213 140.538 189.96C140.405 189.707 140.218 189.513 139.978 189.38C139.738 189.233 139.418 189.16 139.018 189.16C138.525 189.16 138.118 189.253 137.798 189.44C137.491 189.613 137.245 189.867 137.058 190.2C136.885 190.52 136.765 190.907 136.698 191.36C136.631 191.813 136.598 192.313 136.598 192.86V198H134.918V187.8H136.478V189.28H136.518C136.851 188.72 137.265 188.307 137.758 188.04C138.265 187.773 138.838 187.64 139.478 187.64C140.171 187.64 140.745 187.8 141.198 188.12C141.665 188.427 142.005 188.94 142.218 189.66C142.565 188.993 142.991 188.493 143.498 188.16C144.018 187.813 144.651 187.64 145.398 187.64C146.571 187.64 147.391 187.967 147.858 188.62C148.325 189.273 148.558 190.22 148.558 191.46V198ZM156.056 196.64C157.056 196.64 157.803 196.34 158.296 195.74C158.803 195.127 159.056 194.18 159.056 192.9C159.056 191.633 158.823 190.693 158.356 190.08C157.903 189.467 157.136 189.16 156.056 189.16C155.096 189.16 154.356 189.467 153.836 190.08C153.316 190.693 153.056 191.633 153.056 192.9C153.056 194.193 153.323 195.14 153.856 195.74C154.403 196.34 155.136 196.64 156.056 196.64ZM156.056 198.16C154.456 198.16 153.256 197.713 152.456 196.82C151.656 195.913 151.256 194.607 151.256 192.9C151.256 191.233 151.663 189.94 152.476 189.02C153.303 188.1 154.496 187.64 156.056 187.64C157.656 187.64 158.856 188.087 159.656 188.98C160.456 189.873 160.856 191.18 160.856 192.9C160.856 193.713 160.75 194.447 160.536 195.1C160.323 195.753 160.01 196.307 159.596 196.76C159.196 197.213 158.696 197.56 158.096 197.8C157.496 198.04 156.816 198.16 156.056 198.16ZM165.338 198H163.658V187.8H165.218V189.46H165.258C165.791 188.247 166.698 187.64 167.978 187.64C168.111 187.64 168.298 187.653 168.538 187.68C168.778 187.707 168.984 187.74 169.158 187.78V189.38C168.971 189.313 168.791 189.267 168.618 189.24C168.444 189.213 168.278 189.2 168.118 189.2C167.571 189.2 167.118 189.293 166.758 189.48C166.411 189.653 166.131 189.92 165.918 190.28C165.704 190.627 165.551 191.06 165.458 191.58C165.378 192.1 165.338 192.693 165.338 193.36V198ZM178.905 197.38C178.665 197.593 178.272 197.78 177.725 197.94C177.178 198.087 176.518 198.16 175.745 198.16C173.945 198.16 172.612 197.693 171.745 196.76C170.892 195.827 170.465 194.527 170.465 192.86C170.465 192.073 170.565 191.36 170.765 190.72C170.978 190.08 171.285 189.533 171.685 189.08C172.085 188.613 172.565 188.26 173.125 188.02C173.698 187.767 174.345 187.64 175.065 187.64C175.878 187.64 176.572 187.773 177.145 188.04C177.718 188.307 178.178 188.673 178.525 189.14C178.885 189.593 179.145 190.133 179.305 190.76C179.465 191.387 179.545 192.06 179.545 192.78V193.32H172.225C172.318 194.44 172.652 195.273 173.225 195.82C173.798 196.367 174.685 196.64 175.885 196.64C176.538 196.64 177.072 196.587 177.485 196.48C177.912 196.36 178.285 196.207 178.605 196.02L178.905 197.38ZM177.745 191.92C177.758 191.533 177.712 191.173 177.605 190.84C177.498 190.493 177.338 190.2 177.125 189.96C176.912 189.707 176.638 189.513 176.305 189.38C175.972 189.233 175.585 189.16 175.145 189.16C174.278 189.16 173.605 189.393 173.125 189.86C172.645 190.327 172.352 191.013 172.245 191.92H177.745ZM187.009 187.8H188.689V193.08C188.689 193.76 188.729 194.327 188.809 194.78C188.889 195.233 189.023 195.6 189.209 195.88C189.396 196.16 189.649 196.36 189.969 196.48C190.303 196.587 190.709 196.64 191.189 196.64C192.229 196.64 192.983 196.273 193.449 195.54C193.916 194.807 194.149 193.8 194.149 192.52V187.8H195.829V198H194.149V196.54H194.109C193.723 197.1 193.243 197.513 192.669 197.78C192.109 198.033 191.496 198.16 190.829 198.16C189.496 198.16 188.523 197.827 187.909 197.16C187.309 196.48 187.009 195.38 187.009 193.86V187.8ZM198.923 196.04C199.43 196.307 199.89 196.473 200.303 196.54C200.73 196.607 201.097 196.64 201.403 196.64C201.99 196.64 202.443 196.513 202.763 196.26C203.083 196.007 203.243 195.613 203.243 195.08C203.243 194.733 203.13 194.46 202.903 194.26C202.677 194.047 202.39 193.867 202.043 193.72C201.697 193.56 201.323 193.413 200.923 193.28C200.537 193.133 200.17 192.947 199.823 192.72C199.477 192.493 199.19 192.207 198.963 191.86C198.737 191.513 198.623 191.06 198.623 190.5C198.623 189.647 198.93 188.96 199.543 188.44C200.157 187.907 201.05 187.64 202.223 187.64C202.89 187.64 203.423 187.7 203.823 187.82C204.237 187.94 204.517 188.04 204.663 188.12L204.363 189.5C204.07 189.393 203.737 189.313 203.363 189.26C203.003 189.193 202.623 189.16 202.223 189.16C201.717 189.16 201.29 189.253 200.943 189.44C200.597 189.613 200.423 189.92 200.423 190.36C200.423 190.707 200.537 190.98 200.763 191.18C200.99 191.367 201.277 191.533 201.623 191.68C201.97 191.827 202.337 191.973 202.723 192.12C203.123 192.253 203.497 192.44 203.843 192.68C204.19 192.92 204.477 193.233 204.703 193.62C204.93 193.993 205.043 194.487 205.043 195.1C205.043 195.633 204.95 196.093 204.763 196.48C204.59 196.867 204.337 197.187 204.003 197.44C203.67 197.68 203.277 197.86 202.823 197.98C202.37 198.1 201.877 198.16 201.343 198.16C200.73 198.16 200.203 198.1 199.763 197.98C199.337 197.847 198.95 197.7 198.603 197.54L198.923 196.04ZM215.584 197.38C215.344 197.593 214.95 197.78 214.404 197.94C213.857 198.087 213.197 198.16 212.424 198.16C210.624 198.16 209.29 197.693 208.424 196.76C207.57 195.827 207.144 194.527 207.144 192.86C207.144 192.073 207.244 191.36 207.444 190.72C207.657 190.08 207.964 189.533 208.364 189.08C208.764 188.613 209.244 188.26 209.804 188.02C210.377 187.767 211.024 187.64 211.744 187.64C212.557 187.64 213.25 187.773 213.824 188.04C214.397 188.307 214.857 188.673 215.204 189.14C215.564 189.593 215.824 190.133 215.984 190.76C216.144 191.387 216.224 192.06 216.224 192.78V193.32H208.904C208.997 194.44 209.33 195.273 209.904 195.82C210.477 196.367 211.364 196.64 212.564 196.64C213.217 196.64 213.75 196.587 214.164 196.48C214.59 196.36 214.964 196.207 215.284 196.02L215.584 197.38ZM214.424 191.92C214.437 191.533 214.39 191.173 214.284 190.84C214.177 190.493 214.017 190.2 213.804 189.96C213.59 189.707 213.317 189.513 212.984 189.38C212.65 189.233 212.264 189.16 211.824 189.16C210.957 189.16 210.284 189.393 209.804 189.86C209.324 190.327 209.03 191.013 208.924 191.92H214.424ZM224.12 189.32H221.36V198H219.68V189.32H217.66V187.8H219.68V186.42C219.68 185.887 219.727 185.4 219.82 184.96C219.927 184.52 220.1 184.147 220.34 183.84C220.58 183.52 220.9 183.273 221.3 183.1C221.714 182.927 222.227 182.84 222.84 182.84C223.04 182.84 223.28 182.853 223.56 182.88C223.854 182.907 224.087 182.947 224.26 183L224 184.46C223.907 184.433 223.787 184.413 223.64 184.4C223.494 184.373 223.34 184.36 223.18 184.36C222.82 184.36 222.52 184.393 222.28 184.46C222.054 184.527 221.867 184.653 221.72 184.84C221.587 185.013 221.494 185.26 221.44 185.58C221.387 185.887 221.36 186.287 221.36 186.78V187.8H224.12V189.32ZM225.973 187.8H227.653V193.08C227.653 193.76 227.693 194.327 227.773 194.78C227.853 195.233 227.987 195.6 228.173 195.88C228.36 196.16 228.613 196.36 228.933 196.48C229.267 196.587 229.673 196.64 230.153 196.64C231.193 196.64 231.947 196.273 232.413 195.54C232.88 194.807 233.113 193.8 233.113 192.52V187.8H234.793V198H233.113V196.54H233.073C232.687 197.1 232.207 197.513 231.633 197.78C231.073 198.033 230.46 198.16 229.793 198.16C228.46 198.16 227.487 197.827 226.873 197.16C226.273 196.48 225.973 195.38 225.973 193.86V187.8ZM239.867 198H238.187V183H239.867V198ZM79.9841 210.5C79.9841 210.82 79.8775 211.087 79.6641 211.3C79.4641 211.5 79.2041 211.6 78.8841 211.6C78.5641 211.6 78.3041 211.5 78.1041 211.3C77.9041 211.087 77.8041 210.82 77.8041 210.5C77.8041 210.18 77.9041 209.92 78.1041 209.72C78.3041 209.52 78.5641 209.42 78.8841 209.42C79.2041 209.42 79.4641 209.52 79.6641 209.72C79.8775 209.92 79.9841 210.18 79.9841 210.5ZM79.7241 224H78.0441V213.8H79.7241V224ZM91.947 224H90.267V218.72C90.267 218.04 90.227 217.473 90.147 217.02C90.067 216.567 89.9336 216.2 89.747 215.92C89.5603 215.64 89.3003 215.447 88.967 215.34C88.647 215.22 88.247 215.16 87.767 215.16C86.727 215.16 85.9736 215.527 85.507 216.26C85.0403 216.993 84.807 218 84.807 219.28V224H83.127V213.8H84.807V215.26H84.847C85.2336 214.7 85.707 214.293 86.267 214.04C86.8403 213.773 87.4603 213.64 88.127 213.64C89.4603 213.64 90.427 213.98 91.027 214.66C91.6403 215.327 91.947 216.42 91.947 217.94V224ZM100.441 215.32H97.681V224H96.001V215.32H93.981V213.8H96.001V212.42C96.001 211.887 96.0477 211.4 96.141 210.96C96.2477 210.52 96.421 210.147 96.661 209.84C96.901 209.52 97.221 209.273 97.621 209.1C98.0343 208.927 98.5477 208.84 99.161 208.84C99.361 208.84 99.601 208.853 99.881 208.88C100.174 208.907 100.408 208.947 100.581 209L100.321 210.46C100.228 210.433 100.108 210.413 99.961 210.4C99.8143 210.373 99.661 210.36 99.501 210.36C99.141 210.36 98.841 210.393 98.601 210.46C98.3743 210.527 98.1877 210.653 98.041 210.84C97.9077 211.013 97.8143 211.26 97.761 211.58C97.7077 211.887 97.681 212.287 97.681 212.78V213.8H100.441V215.32ZM106.594 222.64C107.594 222.64 108.341 222.34 108.834 221.74C109.341 221.127 109.594 220.18 109.594 218.9C109.594 217.633 109.361 216.693 108.894 216.08C108.441 215.467 107.674 215.16 106.594 215.16C105.634 215.16 104.894 215.467 104.374 216.08C103.854 216.693 103.594 217.633 103.594 218.9C103.594 220.193 103.861 221.14 104.394 221.74C104.941 222.34 105.674 222.64 106.594 222.64ZM106.594 224.16C104.994 224.16 103.794 223.713 102.994 222.82C102.194 221.913 101.794 220.607 101.794 218.9C101.794 217.233 102.201 215.94 103.014 215.02C103.841 214.1 105.034 213.64 106.594 213.64C108.194 213.64 109.394 214.087 110.194 214.98C110.994 215.873 111.394 217.18 111.394 218.9C111.394 219.713 111.287 220.447 111.074 221.1C110.861 221.753 110.547 222.307 110.134 222.76C109.734 223.213 109.234 223.56 108.634 223.8C108.034 224.04 107.354 224.16 106.594 224.16ZM115.876 224H114.196V213.8H115.756V215.46H115.796C116.329 214.247 117.236 213.64 118.516 213.64C118.649 213.64 118.836 213.653 119.076 213.68C119.316 213.707 119.522 213.74 119.696 213.78V215.38C119.509 215.313 119.329 215.267 119.156 215.24C118.982 215.213 118.816 215.2 118.656 215.2C118.109 215.2 117.656 215.293 117.296 215.48C116.949 215.653 116.669 215.92 116.456 216.28C116.242 216.627 116.089 217.06 115.996 217.58C115.916 218.1 115.876 218.693 115.876 219.36V224ZM135.438 224H133.758V217.92C133.758 217.507 133.731 217.133 133.678 216.8C133.638 216.453 133.545 216.16 133.398 215.92C133.265 215.68 133.078 215.493 132.838 215.36C132.598 215.227 132.278 215.16 131.878 215.16C131.385 215.16 130.978 215.26 130.658 215.46C130.351 215.647 130.105 215.913 129.918 216.26C129.745 216.593 129.625 216.987 129.558 217.44C129.491 217.88 129.458 218.353 129.458 218.86V224H127.778V217.92C127.778 217.533 127.751 217.173 127.698 216.84C127.658 216.507 127.565 216.213 127.418 215.96C127.285 215.707 127.098 215.513 126.858 215.38C126.618 215.233 126.298 215.16 125.898 215.16C125.405 215.16 124.998 215.253 124.678 215.44C124.371 215.613 124.125 215.867 123.938 216.2C123.765 216.52 123.645 216.907 123.578 217.36C123.511 217.813 123.478 218.313 123.478 218.86V224H121.798V213.8H123.358V215.28H123.398C123.731 214.72 124.145 214.307 124.638 214.04C125.145 213.773 125.718 213.64 126.358 213.64C127.051 213.64 127.625 213.8 128.078 214.12C128.545 214.427 128.885 214.94 129.098 215.66C129.445 214.993 129.871 214.493 130.378 214.16C130.898 213.813 131.531 213.64 132.278 213.64C133.451 213.64 134.271 213.967 134.738 214.62C135.205 215.273 135.438 216.22 135.438 217.46V224ZM144.316 219.2C143.743 219.227 143.183 219.267 142.636 219.32C142.103 219.373 141.623 219.473 141.196 219.62C140.77 219.753 140.423 219.947 140.156 220.2C139.903 220.44 139.776 220.76 139.776 221.16C139.776 221.573 139.916 221.927 140.196 222.22C140.49 222.5 140.95 222.64 141.576 222.64C142.376 222.64 143.03 222.393 143.536 221.9C144.056 221.407 144.316 220.68 144.316 219.72V219.2ZM145.996 224H144.516V222.14H144.476C144.37 222.42 144.203 222.687 143.976 222.94C143.763 223.18 143.51 223.393 143.216 223.58C142.923 223.753 142.596 223.893 142.236 224C141.876 224.107 141.503 224.16 141.116 224.16C140.65 224.16 140.223 224.087 139.836 223.94C139.45 223.793 139.116 223.593 138.836 223.34C138.57 223.073 138.356 222.767 138.196 222.42C138.05 222.073 137.976 221.7 137.976 221.3C137.976 220.62 138.156 220.067 138.516 219.64C138.876 219.213 139.35 218.88 139.936 218.64C140.536 218.387 141.216 218.213 141.976 218.12C142.736 218.013 143.516 217.94 144.316 217.9V217.38C144.316 216.633 144.136 216.08 143.776 215.72C143.43 215.347 142.816 215.16 141.936 215.16C141.443 215.16 140.916 215.227 140.356 215.36C139.796 215.48 139.316 215.64 138.916 215.84L138.616 214.46C139.03 214.233 139.55 214.04 140.176 213.88C140.803 213.72 141.45 213.64 142.116 213.64C142.876 213.64 143.503 213.733 143.996 213.92C144.503 214.093 144.903 214.353 145.196 214.7C145.49 215.047 145.696 215.48 145.816 216C145.936 216.52 145.996 217.12 145.996 217.8V224ZM154.548 215.32H151.728V220.82C151.728 221.447 151.841 221.907 152.068 222.2C152.295 222.493 152.735 222.64 153.388 222.64C153.575 222.64 153.755 222.627 153.928 222.6C154.115 222.56 154.295 222.5 154.468 222.42L154.728 223.76C154.461 223.893 154.175 223.993 153.868 224.06C153.561 224.127 153.281 224.16 153.028 224.16C151.988 224.16 151.228 223.92 150.748 223.44C150.281 222.947 150.048 222.2 150.048 221.2V215.32H148.028V213.8H150.048V211.64L151.728 211.04V213.8H154.548V215.32ZM158.928 210.5C158.928 210.82 158.821 211.087 158.608 211.3C158.408 211.5 158.148 211.6 157.828 211.6C157.508 211.6 157.248 211.5 157.048 211.3C156.848 211.087 156.748 210.82 156.748 210.5C156.748 210.18 156.848 209.92 157.048 209.72C157.248 209.52 157.508 209.42 157.828 209.42C158.148 209.42 158.408 209.52 158.608 209.72C158.821 209.92 158.928 210.18 158.928 210.5ZM158.668 224H156.988V213.8H158.668V224ZM166.271 222.64C167.271 222.64 168.017 222.34 168.511 221.74C169.017 221.127 169.271 220.18 169.271 218.9C169.271 217.633 169.037 216.693 168.571 216.08C168.117 215.467 167.351 215.16 166.271 215.16C165.311 215.16 164.571 215.467 164.051 216.08C163.531 216.693 163.271 217.633 163.271 218.9C163.271 220.193 163.537 221.14 164.071 221.74C164.617 222.34 165.351 222.64 166.271 222.64ZM166.271 224.16C164.671 224.16 163.471 223.713 162.671 222.82C161.871 221.913 161.471 220.607 161.471 218.9C161.471 217.233 161.877 215.94 162.691 215.02C163.517 214.1 164.711 213.64 166.271 213.64C167.871 213.64 169.071 214.087 169.871 214.98C170.671 215.873 171.071 217.18 171.071 218.9C171.071 219.713 170.964 220.447 170.751 221.1C170.537 221.753 170.224 222.307 169.811 222.76C169.411 223.213 168.911 223.56 168.311 223.8C167.711 224.04 167.031 224.16 166.271 224.16ZM182.692 224H181.012V218.72C181.012 218.04 180.972 217.473 180.892 217.02C180.812 216.567 180.679 216.2 180.492 215.92C180.306 215.64 180.046 215.447 179.712 215.34C179.392 215.22 178.992 215.16 178.512 215.16C177.472 215.16 176.719 215.527 176.252 216.26C175.786 216.993 175.552 218 175.552 219.28V224H173.872V213.8H175.552V215.26H175.592C175.979 214.7 176.452 214.293 177.012 214.04C177.586 213.773 178.206 213.64 178.872 213.64C180.206 213.64 181.172 213.98 181.772 214.66C182.386 215.327 182.692 216.42 182.692 217.94V224ZM195.054 222.64C196.054 222.64 196.801 222.34 197.294 221.74C197.801 221.127 198.054 220.18 198.054 218.9C198.054 217.633 197.821 216.693 197.354 216.08C196.901 215.467 196.134 215.16 195.054 215.16C194.094 215.16 193.354 215.467 192.834 216.08C192.314 216.693 192.054 217.633 192.054 218.9C192.054 220.193 192.321 221.14 192.854 221.74C193.401 222.34 194.134 222.64 195.054 222.64ZM195.054 224.16C193.454 224.16 192.254 223.713 191.454 222.82C190.654 221.913 190.254 220.607 190.254 218.9C190.254 217.233 190.661 215.94 191.474 215.02C192.301 214.1 193.494 213.64 195.054 213.64C196.654 213.64 197.854 214.087 198.654 214.98C199.454 215.873 199.854 217.18 199.854 218.9C199.854 219.713 199.748 220.447 199.534 221.1C199.321 221.753 199.008 222.307 198.594 222.76C198.194 223.213 197.694 223.56 197.094 223.8C196.494 224.04 195.814 224.16 195.054 224.16ZM211.476 224H209.796V218.72C209.796 218.04 209.756 217.473 209.676 217.02C209.596 216.567 209.463 216.2 209.276 215.92C209.089 215.64 208.829 215.447 208.496 215.34C208.176 215.22 207.776 215.16 207.296 215.16C206.256 215.16 205.503 215.527 205.036 216.26C204.569 216.993 204.336 218 204.336 219.28V224H202.656V213.8H204.336V215.26H204.376C204.763 214.7 205.236 214.293 205.796 214.04C206.369 213.773 206.989 213.64 207.656 213.64C208.989 213.64 209.956 213.98 210.556 214.66C211.169 215.327 211.476 216.42 211.476 217.94V224ZM223.838 222.64C224.838 222.64 225.585 222.34 226.078 221.74C226.585 221.127 226.838 220.18 226.838 218.9C226.838 217.633 226.605 216.693 226.138 216.08C225.685 215.467 224.918 215.16 223.838 215.16C222.878 215.16 222.138 215.467 221.618 216.08C221.098 216.693 220.838 217.633 220.838 218.9C220.838 220.193 221.105 221.14 221.638 221.74C222.185 222.34 222.918 222.64 223.838 222.64ZM223.838 224.16C222.238 224.16 221.038 223.713 220.238 222.82C219.438 221.913 219.038 220.607 219.038 218.9C219.038 217.233 219.445 215.94 220.258 215.02C221.085 214.1 222.278 213.64 223.838 213.64C225.438 213.64 226.638 214.087 227.438 214.98C228.238 215.873 228.638 217.18 228.638 218.9C228.638 219.713 228.531 220.447 228.318 221.1C228.105 221.753 227.791 222.307 227.378 222.76C226.978 223.213 226.478 223.56 225.878 223.8C225.278 224.04 224.598 224.16 223.838 224.16ZM231.339 213.8H233.019V219.08C233.019 219.76 233.059 220.327 233.139 220.78C233.219 221.233 233.353 221.6 233.539 221.88C233.726 222.16 233.979 222.36 234.299 222.48C234.633 222.587 235.039 222.64 235.519 222.64C236.559 222.64 237.313 222.273 237.779 221.54C238.246 220.807 238.479 219.8 238.479 218.52V213.8H240.159V224H238.479V222.54H238.439C238.053 223.1 237.573 223.513 236.999 223.78C236.439 224.033 235.826 224.16 235.159 224.16C233.826 224.16 232.853 223.827 232.239 223.16C231.639 222.48 231.339 221.38 231.339 219.86V213.8ZM245.234 224H243.554V213.8H245.114V215.46H245.154C245.687 214.247 246.594 213.64 247.874 213.64C248.007 213.64 248.194 213.653 248.434 213.68C248.674 213.707 248.88 213.74 249.054 213.78V215.38C248.867 215.313 248.687 215.267 248.514 215.24C248.34 215.213 248.174 215.2 248.014 215.2C247.467 215.2 247.014 215.293 246.654 215.48C246.307 215.653 246.027 215.92 245.814 216.28C245.6 216.627 245.447 217.06 245.354 217.58C245.274 218.1 245.234 218.693 245.234 219.36V224Z" fill="#00097F"/>
<path d="M84.7247 272H79.9247V262.656H70.6447V272H65.8447V249.6H70.6447V258.368H79.9247V249.6H84.7247V272ZM94.8235 263.168V272H90.0235V249.6H97.6395C100.477 249.6 102.621 250.123 104.071 251.168C105.543 252.192 106.279 253.824 106.279 256.064C106.279 256.896 106.162 257.632 105.927 258.272C105.714 258.912 105.405 259.477 104.999 259.968C104.615 260.437 104.157 260.832 103.623 261.152C103.111 261.472 102.557 261.728 101.959 261.92C102.45 262.112 102.866 262.389 103.207 262.752C103.549 263.115 103.901 263.669 104.263 264.416C104.647 265.141 105.095 266.112 105.607 267.328C106.119 268.544 106.791 270.101 107.623 272H102.503C101.735 270.336 101.149 268.939 100.743 267.808C100.359 266.677 99.9968 265.771 99.6555 265.088C99.3355 264.405 98.9622 263.915 98.5355 263.616C98.1302 263.317 97.5222 263.168 96.7115 263.168H94.8235ZM94.7275 259.2H97.5115C98.0448 259.2 98.5462 259.157 99.0155 259.072C99.4848 258.987 99.8795 258.848 100.199 258.656C100.541 258.443 100.807 258.165 100.999 257.824C101.191 257.461 101.287 257.003 101.287 256.448C101.287 255.467 100.946 254.784 100.263 254.4C99.6022 254.016 98.5995 253.824 97.2555 253.824H94.7275V259.2ZM122.642 264.768H112.082V261.184H122.642V264.768ZM132.227 278.72H127.875V255.68H132.099V257.984H132.163C132.803 257.024 133.614 256.352 134.595 255.968C135.598 255.584 136.611 255.392 137.635 255.392C142.35 255.392 144.707 258.165 144.707 263.712C144.707 264.928 144.558 266.059 144.259 267.104C143.96 268.149 143.512 269.056 142.915 269.824C142.318 270.592 141.571 271.2 140.675 271.648C139.779 272.075 138.723 272.288 137.507 272.288C136.334 272.288 135.288 272.075 134.371 271.648C133.475 271.2 132.782 270.635 132.291 269.952H132.227V278.72ZM136.259 268.704C137.603 268.704 138.584 268.277 139.203 267.424C139.822 266.571 140.131 265.312 140.131 263.648C140.131 262.069 139.822 260.896 139.203 260.128C138.584 259.36 137.571 258.976 136.163 258.976C134.862 258.976 133.88 259.424 133.219 260.32C132.558 261.195 132.227 262.4 132.227 263.936C132.227 265.408 132.568 266.571 133.251 267.424C133.934 268.277 134.936 268.704 136.259 268.704ZM153.093 272H148.741V248H153.093V272ZM167.137 264.64C166.283 264.704 165.505 264.789 164.801 264.896C164.118 264.981 163.521 265.12 163.009 265.312C162.518 265.483 162.134 265.707 161.857 265.984C161.601 266.261 161.473 266.613 161.473 267.04C161.473 267.616 161.654 268.064 162.017 268.384C162.401 268.704 162.998 268.864 163.809 268.864C164.769 268.864 165.558 268.565 166.177 267.968C166.817 267.371 167.137 266.539 167.137 265.472V264.64ZM171.489 272H167.457V269.344H167.393C167.201 269.707 166.955 270.069 166.657 270.432C166.358 270.773 165.985 271.083 165.537 271.36C165.11 271.637 164.609 271.861 164.033 272.032C163.478 272.203 162.849 272.288 162.145 272.288C160.545 272.288 159.286 271.872 158.369 271.04C157.451 270.187 156.993 269.024 156.993 267.552C156.993 266.549 157.217 265.707 157.665 265.024C158.134 264.341 158.795 263.787 159.649 263.36C160.523 262.933 161.59 262.613 162.849 262.4C164.107 262.165 165.537 262.005 167.137 261.92V261.664C167.137 260.789 166.902 260.117 166.433 259.648C165.963 259.179 165.099 258.944 163.841 258.944C162.902 258.944 161.995 259.061 161.121 259.296C160.267 259.509 159.467 259.755 158.721 260.032L158.017 256.736C158.977 256.245 160.022 255.893 161.153 255.68C162.283 255.445 163.425 255.328 164.577 255.328C165.835 255.328 166.902 255.477 167.777 255.776C168.651 256.053 169.366 256.491 169.921 257.088C170.475 257.664 170.87 258.4 171.105 259.296C171.361 260.171 171.489 261.216 171.489 262.432V272ZM186.56 259.392H182.048V265.664C182.048 266.645 182.219 267.36 182.56 267.808C182.902 268.256 183.595 268.48 184.64 268.48C185.152 268.48 185.707 268.373 186.304 268.16L186.912 271.52C186.422 271.819 185.867 272.032 185.248 272.16C184.651 272.288 184 272.352 183.296 272.352C181.27 272.352 179.83 271.904 178.976 271.008C178.123 270.091 177.696 268.768 177.696 267.04V259.392H174.72V255.68H177.696V252.224L182.048 250.752V255.68H186.56V259.392ZM200.261 259.392H196.165V272H191.813V259.392H188.837V255.68H191.813V253.664C191.813 252.768 191.919 251.957 192.133 251.232C192.346 250.507 192.687 249.888 193.157 249.376C193.626 248.843 194.223 248.437 194.949 248.16C195.695 247.883 196.602 247.744 197.669 247.744C198.202 247.744 198.714 247.776 199.205 247.84C199.695 247.883 200.229 247.979 200.805 248.128L200.069 251.552C199.898 251.509 199.706 251.477 199.493 251.456C199.301 251.435 199.087 251.424 198.853 251.424C198.319 251.424 197.882 251.477 197.541 251.584C197.199 251.691 196.922 251.872 196.709 252.128C196.517 252.363 196.378 252.693 196.293 253.12C196.207 253.525 196.165 254.027 196.165 254.624V255.68H200.261V259.392ZM211.17 268.736C212.492 268.736 213.484 268.341 214.146 267.552C214.807 266.763 215.138 265.525 215.138 263.84C215.138 262.112 214.818 260.864 214.178 260.096C213.538 259.307 212.535 258.912 211.17 258.912C209.89 258.912 208.898 259.307 208.194 260.096C207.511 260.885 207.17 262.133 207.17 263.84C207.17 265.547 207.532 266.795 208.258 267.584C208.983 268.352 209.954 268.736 211.17 268.736ZM211.17 272.352C208.418 272.352 206.306 271.659 204.834 270.272C203.362 268.885 202.626 266.741 202.626 263.84C202.626 261.045 203.383 258.933 204.898 257.504C206.412 256.053 208.503 255.328 211.17 255.328C213.879 255.328 215.97 256.043 217.442 257.472C218.935 258.88 219.682 261.003 219.682 263.84C219.682 266.592 218.946 268.704 217.474 270.176C216.002 271.627 213.9 272.352 211.17 272.352ZM228.081 272H223.729V255.68H227.889V258.336H227.953C228.827 256.373 230.278 255.392 232.305 255.392C232.518 255.392 232.806 255.413 233.169 255.456C233.553 255.477 233.905 255.531 234.225 255.616V259.584C233.926 259.477 233.606 259.403 233.265 259.36C232.945 259.296 232.593 259.264 232.209 259.264C231.419 259.264 230.758 259.381 230.225 259.616C229.713 259.851 229.297 260.203 228.977 260.672C228.657 261.12 228.422 261.685 228.273 262.368C228.145 263.051 228.081 263.84 228.081 264.736V272ZM261.53 272H257.21V262.784C257.21 261.568 257.05 260.651 256.73 260.032C256.41 259.413 255.781 259.104 254.842 259.104C254.245 259.104 253.744 259.221 253.338 259.456C252.954 259.691 252.634 260.021 252.378 260.448C252.144 260.875 251.973 261.397 251.866 262.016C251.781 262.613 251.738 263.285 251.738 264.032V272H247.418V262.784C247.418 261.653 247.248 260.757 246.906 260.096C246.586 259.435 245.957 259.104 245.018 259.104C244.421 259.104 243.92 259.221 243.514 259.456C243.13 259.669 242.821 259.989 242.586 260.416C242.352 260.843 242.181 261.365 242.074 261.984C241.989 262.581 241.946 263.264 241.946 264.032V272H237.626V255.68H241.786V258.112H241.85C242.405 257.131 243.088 256.437 243.898 256.032C244.73 255.605 245.68 255.392 246.746 255.392C247.898 255.392 248.858 255.648 249.626 256.16C250.394 256.672 250.938 257.483 251.258 258.592C251.877 257.44 252.613 256.619 253.466 256.128C254.32 255.637 255.322 255.392 256.474 255.392C258.266 255.392 259.557 255.904 260.346 256.928C261.136 257.931 261.53 259.445 261.53 261.472V272Z" fill="#00097F"/>
<g style="mix-blend-mode:multiply">
<circle cx="162" cy="75" r="26" fill="url(#paint2_linear_1923_7197)"/>
</g>
<ellipse cx="162" cy="74.9994" rx="46" ry="98" transform="rotate(30 162 74.9994)" stroke="#2152FF"/>
<ellipse cx="162" cy="75" rx="34" ry="98" transform="rotate(90 162 75)" stroke="#2152FF"/>
<ellipse cx="162" cy="74.9995" rx="17.6778" ry="98" transform="rotate(-45 162 74.9995)" stroke="#2152FF"/>
</g>
<defs>
<linearGradient id="paint0_linear_1923_7197" x1="8.41158" y1="353.853" x2="231.448" y2="-52.452" gradientUnits="userSpaceOnUse">
<stop offset="0.311177" stop-color="white"/>
<stop offset="1" stop-color="#00E0FF"/>
</linearGradient>
<linearGradient id="paint1_linear_1923_7197" x1="327" y1="361.242" x2="98.6269" y2="-54.2144" gradientUnits="userSpaceOnUse">
<stop stop-color="white"/>
<stop offset="1" stop-color="#8397FF"/>
</linearGradient>
<linearGradient id="paint2_linear_1923_7197" x1="180.735" y1="57.7941" x2="143.647" y2="94.8824" gradientUnits="userSpaceOnUse">
<stop stop-color="#5378FF"/>
<stop offset="1" stop-color="#FEBCFF"/>
</linearGradient>
<clipPath id="clip0_1923_7197">
<rect width="327" height="393" fill="white" transform="matrix(1 0 0 -1 0 393)"/>
</clipPath>
</defs>
</svg>
