<svg width="375" height="445" viewBox="0 0 375 445" fill="none" xmlns="http://www.w3.org/2000/svg">
<g clip-path="url(#clip0_1659_2423)">
<path d="M0 450H375V2.86102e-06H0V450Z" fill="url(#paint0_linear_1659_2423)"/>
<path d="M0 450H375V2.86102e-06H0V450Z" fill="url(#paint1_linear_1659_2423)" fill-opacity="0.7"/>
<g filter="url(#filter0_f_1659_2423)">
<circle cx="52" cy="82" r="76" fill="url(#paint2_radial_1659_2423)"/>
</g>
<circle cx="34" cy="42" r="10" stroke="#2152FF"/>
<circle cx="34" cy="94" r="10" stroke="#2152FF"/>
<circle cx="52" cy="68" r="10" stroke="#2152FF"/>
<circle cx="70" cy="42" r="10" stroke="#2152FF"/>
<circle cx="70" cy="94" r="10" stroke="#2152FF"/>
<circle cx="88" cy="68" r="10" stroke="#2152FF"/>
<circle cx="106" cy="42" r="10" stroke="#2152FF"/>
<circle cx="106" cy="94" r="10" stroke="#2152FF"/>
<circle cx="124" cy="68" r="10" stroke="#2152FF"/>
<circle cx="142" cy="42" r="10" stroke="#2152FF"/>
<circle cx="142" cy="94" r="10" stroke="#2152FF"/>
<circle cx="160" cy="68" r="10" stroke="#2152FF"/>
</g>
<defs>
<filter id="filter0_f_1659_2423" x="-44" y="-14" width="192" height="192" filterUnits="userSpaceOnUse" color-interpolation-filters="sRGB">
<feFlood flood-opacity="0" result="BackgroundImageFix"/>
<feBlend mode="normal" in="SourceGraphic" in2="BackgroundImageFix" result="shape"/>
<feGaussianBlur stdDeviation="10" result="effect1_foregroundBlur_1659_2423"/>
</filter>
<linearGradient id="paint0_linear_1659_2423" x1="9.64632" y1="396.61" x2="256.533" y2="-63.5592" gradientUnits="userSpaceOnUse">
<stop offset="0.616112" stop-color="white"/>
<stop offset="1" stop-color="#5378FF"/>
</linearGradient>
<linearGradient id="paint1_linear_1659_2423" x1="188.103" y1="175.76" x2="56.5708" y2="-35.2613" gradientUnits="userSpaceOnUse">
<stop offset="0.312697" stop-color="white"/>
<stop offset="1" stop-color="#FED1FF"/>
</linearGradient>
<radialGradient id="paint2_radial_1659_2423" cx="0" cy="0" r="1" gradientUnits="userSpaceOnUse" gradientTransform="translate(52 82) rotate(90) scale(76)">
<stop stop-color="#FFB682"/>
<stop offset="0.855905" stop-color="#FEDBFF"/>
</radialGradient>
<clipPath id="clip0_1659_2423">
<rect width="375" height="445" fill="white" transform="matrix(1 0 0 -1 0 445)"/>
</clipPath>
</defs>
</svg>
