<svg width="375" height="466" viewBox="0 0 375 466" fill="none" xmlns="http://www.w3.org/2000/svg">
<g clip-path="url(#clip0_1659_2412)">
<path d="M0 466H375V-5.60284e-06H0V466Z" fill="url(#paint0_linear_1659_2412)"/>
<path d="M0 466H375V-5.60284e-06H0V466Z" fill="url(#paint1_linear_1659_2412)" fill-opacity="0.7"/>
<g filter="url(#filter0_f_1659_2412)">
<circle cx="56" cy="82" r="76" fill="url(#paint2_radial_1659_2412)"/>
</g>
<ellipse cx="122" cy="68" rx="20" ry="36" transform="rotate(-180 122 68)" stroke="#2152FF"/>
<ellipse cx="148" cy="68" rx="20" ry="36" transform="rotate(-180 148 68)" stroke="#2152FF"/>
<ellipse cx="96" cy="68" rx="20" ry="36" transform="rotate(-180 96 68)" stroke="#2152FF"/>
<ellipse cx="70" cy="68" rx="20" ry="36" transform="rotate(-180 70 68)" stroke="#2152FF"/>
<ellipse cx="44" cy="68" rx="20" ry="36" transform="rotate(-180 44 68)" stroke="#2152FF"/>
</g>
<defs>
<filter id="filter0_f_1659_2412" x="-40" y="-14" width="192" height="192" filterUnits="userSpaceOnUse" color-interpolation-filters="sRGB">
<feFlood flood-opacity="0" result="BackgroundImageFix"/>
<feBlend mode="normal" in="SourceGraphic" in2="BackgroundImageFix" result="shape"/>
<feGaussianBlur stdDeviation="10" result="effect1_foregroundBlur_1659_2412"/>
</filter>
<linearGradient id="paint0_linear_1659_2412" x1="9.64632" y1="448.262" x2="306.612" y2="-41.4692" gradientUnits="userSpaceOnUse">
<stop offset="0.616112" stop-color="white"/>
<stop offset="1" stop-color="#01FFFF"/>
</linearGradient>
<linearGradient id="paint1_linear_1659_2412" x1="188.103" y1="198.65" x2="32.1833" y2="-22.6728" gradientUnits="userSpaceOnUse">
<stop offset="0.312697" stop-color="white"/>
<stop offset="1" stop-color="#E2FFA3"/>
</linearGradient>
<radialGradient id="paint2_radial_1659_2412" cx="0" cy="0" r="1" gradientUnits="userSpaceOnUse" gradientTransform="translate(56 82) rotate(90) scale(76)">
<stop stop-color="#39E7FF"/>
<stop offset="0.855905" stop-color="#E6FFB2"/>
</radialGradient>
<clipPath id="clip0_1659_2412">
<rect width="375" height="466" fill="white" transform="matrix(1 0 0 -1 0 466)"/>
</clipPath>
</defs>
</svg>
