<svg width="279" height="56" viewBox="0 0 279 56" fill="none" xmlns="http://www.w3.org/2000/svg">
<rect width="279" height="56" rx="28" fill="#FF3F02"/>
<path d="M110.055 35H107.755L102.955 21H104.895L108.935 33.24H108.975L113.055 21H114.855L110.055 35ZM118.999 21.5C118.999 21.82 118.893 22.0867 118.679 22.3C118.479 22.5 118.219 22.6 117.899 22.6C117.579 22.6 117.319 22.5 117.119 22.3C116.919 22.0867 116.819 21.82 116.819 21.5C116.819 21.18 116.919 20.92 117.119 20.72C117.319 20.52 117.579 20.42 117.899 20.42C118.219 20.42 118.479 20.52 118.679 20.72C118.893 20.92 118.999 21.18 118.999 21.5ZM118.739 35H117.059V24.8H118.739V35ZM122.042 33.04C122.549 33.3067 123.009 33.4733 123.422 33.54C123.849 33.6067 124.216 33.64 124.522 33.64C125.109 33.64 125.562 33.5133 125.882 33.26C126.202 33.0067 126.362 32.6133 126.362 32.08C126.362 31.7333 126.249 31.46 126.022 31.26C125.796 31.0467 125.509 30.8667 125.162 30.72C124.816 30.56 124.442 30.4133 124.042 30.28C123.656 30.1333 123.289 29.9467 122.942 29.72C122.596 29.4933 122.309 29.2067 122.082 28.86C121.856 28.5133 121.742 28.06 121.742 27.5C121.742 26.6467 122.049 25.96 122.662 25.44C123.276 24.9067 124.169 24.64 125.342 24.64C126.009 24.64 126.542 24.7 126.942 24.82C127.356 24.94 127.636 25.04 127.782 25.12L127.482 26.5C127.189 26.3933 126.856 26.3133 126.482 26.26C126.122 26.1933 125.742 26.16 125.342 26.16C124.836 26.16 124.409 26.2533 124.062 26.44C123.716 26.6133 123.542 26.92 123.542 27.36C123.542 27.7067 123.656 27.98 123.882 28.18C124.109 28.3667 124.396 28.5333 124.742 28.68C125.089 28.8267 125.456 28.9733 125.842 29.12C126.242 29.2533 126.616 29.44 126.962 29.68C127.309 29.92 127.596 30.2333 127.822 30.62C128.049 30.9933 128.162 31.4867 128.162 32.1C128.162 32.6333 128.069 33.0933 127.882 33.48C127.709 33.8667 127.456 34.1867 127.122 34.44C126.789 34.68 126.396 34.86 125.942 34.98C125.489 35.1 124.996 35.16 124.462 35.16C123.849 35.16 123.322 35.1 122.882 34.98C122.456 34.8467 122.069 34.7 121.722 34.54L122.042 33.04ZM133.003 21.5C133.003 21.82 132.896 22.0867 132.683 22.3C132.483 22.5 132.223 22.6 131.903 22.6C131.583 22.6 131.323 22.5 131.123 22.3C130.923 22.0867 130.823 21.82 130.823 21.5C130.823 21.18 130.923 20.92 131.123 20.72C131.323 20.52 131.583 20.42 131.903 20.42C132.223 20.42 132.483 20.52 132.683 20.72C132.896 20.92 133.003 21.18 133.003 21.5ZM132.743 35H131.063V24.8H132.743V35ZM141.605 26.32H138.785V31.82C138.785 32.4467 138.899 32.9067 139.125 33.2C139.352 33.4933 139.792 33.64 140.445 33.64C140.632 33.64 140.812 33.6267 140.985 33.6C141.172 33.56 141.352 33.5 141.525 33.42L141.785 34.76C141.519 34.8933 141.232 34.9933 140.925 35.06C140.619 35.1267 140.339 35.16 140.085 35.16C139.045 35.16 138.285 34.92 137.805 34.44C137.339 33.9467 137.105 33.2 137.105 32.2V26.32H135.085V24.8H137.105V22.64L138.785 22.04V24.8H141.605V26.32Z" fill="white"/>
<path d="M166.5 33L171.5 28M171.5 28L166.5 23M171.5 28H157.5" stroke="white" stroke-width="1.5" stroke-linecap="round" stroke-linejoin="round"/>
</svg>
