<svg width="327" height="500" viewBox="0 0 327 500" fill="none" xmlns="http://www.w3.org/2000/svg">
<g clip-path="url(#clip0_1708_3120)">
<rect width="327" height="500" transform="matrix(1 0 0 -1 0 500)" fill="url(#paint0_linear_1708_3120)"/>
<rect width="327" height="500" transform="matrix(1 0 0 -1 0 500)" fill="url(#paint1_linear_1708_3120)" fill-opacity="0.6"/>
<g filter="url(#filter0_f_1708_3120)">
<circle cx="276" cy="273" r="66" fill="url(#paint2_radial_1708_3120)"/>
</g>
<g filter="url(#filter1_f_1708_3120)">
<circle cx="32" cy="374" r="90" fill="url(#paint3_radial_1708_3120)"/>
</g>
<path d="M91.0433 70H86.2433V51.92H77.6673V70H72.8673V47.6H91.0433V70ZM103.879 66.736C105.201 66.736 106.193 66.3413 106.855 65.552C107.516 64.7627 107.847 63.5253 107.847 61.84C107.847 60.112 107.527 58.864 106.887 58.096C106.247 57.3067 105.244 56.912 103.879 56.912C102.599 56.912 101.607 57.3067 100.903 58.096C100.22 58.8853 99.8785 60.1333 99.8785 61.84C99.8785 63.5467 100.241 64.7947 100.967 65.584C101.692 66.352 102.663 66.736 103.879 66.736ZM103.879 70.352C101.127 70.352 99.0145 69.6587 97.5425 68.272C96.0705 66.8853 95.3345 64.7413 95.3345 61.84C95.3345 59.0453 96.0918 56.9333 97.6065 55.504C99.1212 54.0533 101.212 53.328 103.879 53.328C106.588 53.328 108.679 54.0427 110.151 55.472C111.644 56.88 112.391 59.0027 112.391 61.84C112.391 64.592 111.655 66.704 110.183 68.176C108.711 69.6267 106.609 70.352 103.879 70.352ZM133.533 74.288H129.469V70H118.781V74.288H114.749V66.288H116.573C117.192 65.136 117.65 63.728 117.949 62.064C118.269 60.3787 118.472 58.3093 118.557 55.856L118.621 53.68H131.229V66.288H133.533V74.288ZM126.877 66.288V57.392H122.461C122.461 58.2667 122.418 59.1307 122.333 59.984C122.269 60.816 122.162 61.616 122.013 62.384C121.864 63.152 121.693 63.8773 121.501 64.56C121.309 65.2213 121.085 65.7973 120.829 66.288H126.877ZM144.924 66.736C146.246 66.736 147.238 66.3413 147.9 65.552C148.561 64.7627 148.892 63.5253 148.892 61.84C148.892 60.112 148.572 58.864 147.932 58.096C147.292 57.3067 146.289 56.912 144.924 56.912C143.644 56.912 142.652 57.3067 141.948 58.096C141.265 58.8853 140.924 60.1333 140.924 61.84C140.924 63.5467 141.286 64.7947 142.012 65.584C142.737 66.352 143.708 66.736 144.924 66.736ZM144.924 70.352C142.172 70.352 140.06 69.6587 138.588 68.272C137.116 66.8853 136.38 64.7413 136.38 61.84C136.38 59.0453 137.137 56.9333 138.652 55.504C140.166 54.0533 142.257 53.328 144.924 53.328C147.633 53.328 149.724 54.0427 151.196 55.472C152.689 56.88 153.436 59.0027 153.436 61.84C153.436 64.592 152.7 66.704 151.228 68.176C149.756 69.6267 147.654 70.352 144.924 70.352ZM165.558 53.68H169.91V60.336H170.774L174.838 53.68H179.382L174.518 61.072C175.03 61.2427 175.456 61.5413 175.798 61.968C176.16 62.3947 176.512 62.9813 176.854 63.728C177.195 64.4533 177.59 65.3387 178.038 66.384C178.486 67.4293 179.062 68.6347 179.766 70H175.03C174.432 68.6987 173.974 67.6213 173.654 66.768C173.355 65.9147 173.078 65.232 172.822 64.72C172.587 64.208 172.32 63.856 172.022 63.664C171.744 63.4507 171.339 63.344 170.806 63.344H169.91V70H165.558V63.344H164.662C164.128 63.344 163.712 63.4507 163.414 63.664C163.136 63.856 162.87 64.208 162.614 64.72C162.379 65.232 162.102 65.9147 161.782 66.768C161.483 67.6213 161.035 68.6987 160.438 70H155.702C156.406 68.6347 156.982 67.4293 157.43 66.384C157.878 65.3387 158.272 64.4533 158.614 63.728C158.955 62.9813 159.296 62.3947 159.638 61.968C160 61.5413 160.438 61.2427 160.95 61.072L156.086 53.68H160.63L164.694 60.336H165.558V53.68ZM201.476 74.288H197.412V70H186.724V74.288H182.692V66.288H184.516C185.134 65.136 185.593 63.728 185.892 62.064C186.212 60.3787 186.414 58.3093 186.5 55.856L186.564 53.68H199.172V66.288H201.476V74.288ZM194.82 66.288V57.392H190.404C190.404 58.2667 190.361 59.1307 190.276 59.984C190.212 60.816 190.105 61.616 189.956 62.384C189.806 63.152 189.636 63.8773 189.444 64.56C189.252 65.2213 189.028 65.7973 188.772 66.288H194.82ZM205.09 70V53.68H209.442V62.192L209.346 64.464H209.378L210.498 62.608L216.45 53.68H220.61V70H216.258V61.328L216.386 59.216H216.322L215.234 61.04L209.25 70H205.09ZM233.489 70H229.137V57.52H223.761V53.68H238.865V57.52H233.489V70ZM256.442 68.912C256.229 69.0613 255.93 69.2213 255.546 69.392C255.162 69.5627 254.703 69.7227 254.17 69.872C253.658 70 253.071 70.1067 252.41 70.192C251.77 70.2987 251.077 70.352 250.33 70.352C247.173 70.352 244.869 69.6053 243.418 68.112C241.967 66.5973 241.242 64.4427 241.242 61.648C241.242 60.368 241.423 59.216 241.786 58.192C242.17 57.168 242.714 56.2933 243.418 55.568C244.122 54.8427 244.975 54.288 245.978 53.904C247.002 53.52 248.165 53.328 249.466 53.328C250.917 53.328 252.133 53.552 253.114 54C254.117 54.4267 254.927 55.0133 255.546 55.76C256.165 56.5067 256.602 57.392 256.858 58.416C257.135 59.4187 257.274 60.496 257.274 61.648V62.832H245.722C245.893 64.1973 246.383 65.2107 247.194 65.872C248.005 66.512 249.221 66.832 250.842 66.832C252.037 66.832 253.007 66.7253 253.754 66.512C254.522 66.2773 255.183 66.0107 255.738 65.712L256.442 68.912ZM252.858 60.208C252.879 59.2053 252.613 58.3733 252.058 57.712C251.525 57.0507 250.682 56.72 249.53 56.72C247.311 56.72 246.053 57.8827 245.754 60.208H252.858ZM74.5051 106.912C74.2918 107.061 73.9931 107.221 73.6091 107.392C73.2251 107.563 72.7665 107.723 72.2331 107.872C71.7211 108 71.1345 108.107 70.4731 108.192C69.8331 108.299 69.1398 108.352 68.3931 108.352C65.2358 108.352 62.9318 107.605 61.4811 106.112C60.0305 104.597 59.3051 102.443 59.3051 99.648C59.3051 98.368 59.4865 97.216 59.8491 96.192C60.2331 95.168 60.7771 94.2933 61.4811 93.568C62.1851 92.8427 63.0385 92.288 64.0411 91.904C65.0651 91.52 66.2278 91.328 67.5291 91.328C68.9798 91.328 70.1958 91.552 71.1771 92C72.1798 92.4267 72.9905 93.0133 73.6091 93.76C74.2278 94.5067 74.6651 95.392 74.9211 96.416C75.1985 97.4187 75.3371 98.496 75.3371 99.648V100.832H63.7851C63.9558 102.197 64.4465 103.211 65.2571 103.872C66.0678 104.512 67.2838 104.832 68.9051 104.832C70.0998 104.832 71.0705 104.725 71.8171 104.512C72.5851 104.277 73.2465 104.011 73.8011 103.712L74.5051 106.912ZM70.9211 98.208C70.9425 97.2053 70.6758 96.3733 70.1211 95.712C69.5878 95.0507 68.7451 94.72 67.5931 94.72C65.3745 94.72 64.1158 95.8827 63.8171 98.208H70.9211ZM103.668 112.288H99.6359V108H79.2519V91.68H83.6039V104.288H88.0519V91.68H92.4039V104.288H96.8519V91.68H101.204V104.288H103.668V112.288ZM121.706 106.912C121.493 107.061 121.194 107.221 120.81 107.392C120.426 107.563 119.968 107.723 119.434 107.872C118.922 108 118.336 108.107 117.674 108.192C117.034 108.299 116.341 108.352 115.594 108.352C112.437 108.352 110.133 107.605 108.682 106.112C107.232 104.597 106.506 102.443 106.506 99.648C106.506 98.368 106.688 97.216 107.05 96.192C107.434 95.168 107.978 94.2933 108.682 93.568C109.386 92.8427 110.24 92.288 111.242 91.904C112.266 91.52 113.429 91.328 114.73 91.328C116.181 91.328 117.397 91.552 118.378 92C119.381 92.4267 120.192 93.0133 120.81 93.76C121.429 94.5067 121.866 95.392 122.122 96.416C122.4 97.4187 122.538 98.496 122.538 99.648V100.832H110.986C111.157 102.197 111.648 103.211 112.458 103.872C113.269 104.512 114.485 104.832 116.106 104.832C117.301 104.832 118.272 104.725 119.018 104.512C119.786 104.277 120.448 104.011 121.002 103.712L121.706 106.912ZM118.122 98.208C118.144 97.2053 117.877 96.3733 117.322 95.712C116.789 95.0507 115.946 94.72 114.794 94.72C112.576 94.72 111.317 95.8827 111.018 98.208H118.122ZM120.618 86.624C120.618 87.3067 120.416 87.8507 120.01 88.256C119.626 88.64 119.029 88.832 118.218 88.832C117.45 88.832 116.853 88.64 116.426 88.256C116.021 87.8507 115.818 87.3067 115.818 86.624C115.818 85.9627 116.021 85.44 116.426 85.056C116.853 84.672 117.45 84.48 118.218 84.48C119.029 84.48 119.626 84.672 120.01 85.056C120.416 85.4187 120.618 85.9413 120.618 86.624ZM113.546 86.624C113.546 87.3067 113.344 87.8507 112.938 88.256C112.533 88.64 111.936 88.832 111.146 88.832C110.357 88.832 109.76 88.64 109.354 88.256C108.949 87.872 108.746 87.3387 108.746 86.656C108.746 85.9733 108.949 85.44 109.354 85.056C109.781 84.672 110.378 84.48 111.146 84.48C111.936 84.48 112.533 84.672 112.938 85.056C113.344 85.4187 113.546 85.9413 113.546 86.624ZM150.274 108H145.922V101.568H139.234V108H134.882V91.68H139.234V97.856H145.922V91.68H150.274V108ZM169.493 106.912C169.279 107.061 168.981 107.221 168.597 107.392C168.213 107.563 167.754 107.723 167.221 107.872C166.709 108 166.122 108.107 165.461 108.192C164.821 108.299 164.127 108.352 163.381 108.352C160.223 108.352 157.919 107.605 156.469 106.112C155.018 104.597 154.293 102.443 154.293 99.648C154.293 98.368 154.474 97.216 154.837 96.192C155.221 95.168 155.765 94.2933 156.469 93.568C157.173 92.8427 158.026 92.288 159.029 91.904C160.053 91.52 161.215 91.328 162.517 91.328C163.967 91.328 165.183 91.552 166.165 92C167.167 92.4267 167.978 93.0133 168.597 93.76C169.215 94.5067 169.653 95.392 169.909 96.416C170.186 97.4187 170.325 98.496 170.325 99.648V100.832H158.773C158.943 102.197 159.434 103.211 160.245 103.872C161.055 104.512 162.271 104.832 163.893 104.832C165.087 104.832 166.058 104.725 166.805 104.512C167.573 104.277 168.234 104.011 168.789 103.712L169.493 106.912ZM165.909 98.208C165.93 97.2053 165.663 96.3733 165.109 95.712C164.575 95.0507 163.733 94.72 162.581 94.72C160.362 94.72 159.103 95.8827 158.805 98.208H165.909ZM192.063 91.68L194.047 108H189.919L189.087 99.744L188.959 97.408H188.863L188.287 99.744L185.471 108H182.303L179.487 99.744L178.911 97.408H178.815L178.687 99.744L177.855 108H173.695L175.679 91.68H180.191L183.871 102.944H183.999L187.583 91.68H192.063ZM213.685 108H209.333V101.568H202.645V108H198.293V91.68H202.645V97.856H209.333V91.68H213.685V108ZM226.248 104.736C227.571 104.736 228.563 104.341 229.224 103.552C229.885 102.763 230.216 101.525 230.216 99.84C230.216 98.112 229.896 96.864 229.256 96.096C228.616 95.3067 227.613 94.912 226.248 94.912C224.968 94.912 223.976 95.3067 223.272 96.096C222.589 96.8853 222.248 98.1333 222.248 99.84C222.248 101.547 222.611 102.795 223.336 103.584C224.061 104.352 225.032 104.736 226.248 104.736ZM226.248 108.352C223.496 108.352 221.384 107.659 219.912 106.272C218.44 104.885 217.704 102.741 217.704 99.84C217.704 97.0453 218.461 94.9333 219.976 93.504C221.491 92.0533 223.581 91.328 226.248 91.328C228.957 91.328 231.048 92.0427 232.52 93.472C234.013 94.88 234.76 97.0027 234.76 99.84C234.76 102.592 234.024 104.704 232.552 106.176C231.08 107.627 228.979 108.352 226.248 108.352ZM243.159 108H238.807V91.68H250.551V95.52H243.159V108ZM261.168 104.736C262.491 104.736 263.483 104.341 264.144 103.552C264.805 102.763 265.136 101.525 265.136 99.84C265.136 98.112 264.816 96.864 264.176 96.096C263.536 95.3067 262.533 94.912 261.168 94.912C259.888 94.912 258.896 95.3067 258.192 96.096C257.509 96.8853 257.168 98.1333 257.168 99.84C257.168 101.547 257.531 102.795 258.256 103.584C258.981 104.352 259.952 104.736 261.168 104.736ZM261.168 108.352C258.416 108.352 256.304 107.659 254.832 106.272C253.36 104.885 252.624 102.741 252.624 99.84C252.624 97.0453 253.381 94.9333 254.896 93.504C256.411 92.0533 258.501 91.328 261.168 91.328C263.877 91.328 265.968 92.0427 267.44 93.472C268.933 94.88 269.68 97.0027 269.68 99.84C269.68 102.592 268.944 104.704 267.472 106.176C266 107.627 263.899 108.352 261.168 108.352Z" fill="#00097F"/>
<path d="M75.2398 144.04H77.1598C77.7598 144.04 78.2665 143.98 78.6798 143.86C79.0932 143.74 79.4265 143.573 79.6798 143.36C79.9332 143.147 80.1132 142.893 80.2198 142.6C80.3398 142.293 80.3998 141.967 80.3998 141.62C80.3998 140.993 80.1798 140.513 79.7398 140.18C79.2998 139.847 78.5398 139.68 77.4598 139.68H75.2398V144.04ZM75.2398 150.32H77.6998C79.6598 150.32 80.6398 149.56 80.6398 148.04C80.6398 147.16 80.3598 146.527 79.7998 146.14C79.2532 145.753 78.4198 145.56 77.2998 145.56H75.2398V150.32ZM73.4398 152V138H77.6998C78.5132 138 79.2065 138.087 79.7798 138.26C80.3532 138.42 80.8198 138.66 81.1798 138.98C81.5398 139.287 81.7998 139.66 81.9598 140.1C82.1198 140.527 82.1998 141 82.1998 141.52C82.1998 142.347 81.9732 143.04 81.5198 143.6C81.0665 144.147 80.3998 144.513 79.5198 144.7V144.74C80.5198 144.887 81.2732 145.26 81.7798 145.86C82.2998 146.447 82.5598 147.167 82.5598 148.02C82.5598 148.54 82.4665 149.04 82.2798 149.52C82.0932 150 81.7998 150.427 81.3998 150.8C80.9998 151.16 80.4865 151.453 79.8598 151.68C79.2332 151.893 78.4732 152 77.5798 152H73.4398ZM87.1511 150.48H89.0111C89.7578 150.48 90.3111 150.34 90.6711 150.06C91.0444 149.78 91.2311 149.313 91.2311 148.66C91.2311 148.3 91.1711 148.013 91.0511 147.8C90.9311 147.573 90.7644 147.4 90.5511 147.28C90.3511 147.16 90.1044 147.08 89.8111 147.04C89.5178 146.987 89.1911 146.96 88.8311 146.96H87.1511V150.48ZM85.4711 152V141.8H87.1511V145.44H88.8511C89.4644 145.44 90.0244 145.493 90.5311 145.6C91.0511 145.707 91.4911 145.887 91.8511 146.14C92.2244 146.38 92.5111 146.713 92.7111 147.14C92.9244 147.553 93.0311 148.073 93.0311 148.7C93.0311 149.26 92.9311 149.747 92.7311 150.16C92.5311 150.573 92.2578 150.92 91.9111 151.2C91.5644 151.467 91.1578 151.667 90.6911 151.8C90.2378 151.933 89.7511 152 89.2311 152H85.4711ZM96.3111 152H94.6311V141.8H96.3111V152ZM107.094 152H105.414V147.98C105.347 147.993 105.234 148.02 105.074 148.06C104.914 148.1 104.721 148.147 104.494 148.2C104.267 148.24 104.007 148.28 103.714 148.32C103.434 148.347 103.141 148.36 102.834 148.36C102.287 148.36 101.781 148.307 101.314 148.2C100.861 148.093 100.467 147.92 100.134 147.68C99.8007 147.44 99.5407 147.133 99.3541 146.76C99.1674 146.373 99.0741 145.907 99.0741 145.36V141.8H100.754V144.8C100.754 145.213 100.814 145.553 100.934 145.82C101.054 146.073 101.221 146.28 101.434 146.44C101.661 146.587 101.927 146.693 102.234 146.76C102.554 146.813 102.901 146.84 103.274 146.84C103.781 146.84 104.214 146.8 104.574 146.72C104.947 146.64 105.227 146.567 105.414 146.5V141.8H107.094V152ZM110.5 152V141.8H112.18V148.3L112.12 149.64H112.14L112.8 148.58L117.56 141.8H119.16V152H117.48V145.34L117.54 144.16H117.52L116.9 145.16L112.1 152H110.5ZM129.895 151.64C129.669 151.747 129.335 151.86 128.895 151.98C128.455 152.1 127.835 152.16 127.035 152.16C126.169 152.16 125.415 152.04 124.775 151.8C124.149 151.547 123.622 151.187 123.195 150.72C122.782 150.253 122.469 149.693 122.255 149.04C122.055 148.387 121.955 147.647 121.955 146.82C121.955 145.18 122.395 143.907 123.275 143C124.169 142.093 125.402 141.64 126.975 141.64C127.722 141.64 128.302 141.7 128.715 141.82C129.129 141.927 129.469 142.013 129.735 142.08L129.415 143.52C129.162 143.44 128.855 143.36 128.495 143.28C128.135 143.2 127.702 143.16 127.195 143.16C126.129 143.16 125.289 143.447 124.675 144.02C124.062 144.58 123.755 145.46 123.755 146.66C123.755 148.033 124.082 149.04 124.735 149.68C125.389 150.32 126.322 150.64 127.535 150.64C127.935 150.64 128.315 150.6 128.675 150.52C129.049 150.44 129.355 150.347 129.595 150.24L129.895 151.64ZM132.398 152.16C132.211 152.16 132.044 152.14 131.898 152.1C131.764 152.073 131.651 152.047 131.558 152.02V150.42C131.664 150.46 131.744 150.487 131.798 150.5C131.864 150.513 131.951 150.52 132.058 150.52C132.404 150.52 132.691 150.373 132.918 150.08C133.144 149.773 133.324 149.3 133.458 148.66C133.604 148.007 133.704 147.173 133.758 146.16C133.824 145.147 133.858 143.92 133.858 142.48V141.8H140.818V152H139.138V143.32H135.458V143.56C135.458 145.12 135.404 146.447 135.298 147.54C135.191 148.62 135.018 149.507 134.778 150.2C134.538 150.88 134.218 151.38 133.818 151.7C133.431 152.007 132.958 152.16 132.398 152.16ZM148.505 148.1C148.172 148.1 147.898 148.16 147.685 148.28C147.485 148.4 147.305 148.6 147.145 148.88L145.445 152H143.425L145.265 148.78C145.425 148.5 145.592 148.287 145.765 148.14C145.938 147.993 146.098 147.887 146.245 147.82C145.525 147.673 144.945 147.373 144.505 146.92C144.065 146.453 143.845 145.807 143.845 144.98C143.845 144.447 143.945 143.98 144.145 143.58C144.358 143.18 144.638 142.853 144.985 142.6C145.332 142.333 145.738 142.133 146.205 142C146.672 141.867 147.165 141.8 147.685 141.8H151.805V152H150.125V148.1H148.505ZM150.125 146.58V143.32H147.865C147.118 143.32 146.558 143.453 146.185 143.72C145.825 143.973 145.645 144.407 145.645 145.02C145.645 145.607 145.872 146.013 146.325 146.24C146.778 146.467 147.352 146.58 148.045 146.58H150.125ZM163.046 151.38C162.806 151.593 162.413 151.78 161.866 151.94C161.32 152.087 160.66 152.16 159.886 152.16C158.086 152.16 156.753 151.693 155.886 150.76C155.033 149.827 154.606 148.527 154.606 146.86C154.606 146.073 154.706 145.36 154.906 144.72C155.12 144.08 155.426 143.533 155.826 143.08C156.226 142.613 156.706 142.26 157.266 142.02C157.84 141.767 158.486 141.64 159.206 141.64C160.02 141.64 160.713 141.773 161.286 142.04C161.86 142.307 162.32 142.673 162.666 143.14C163.026 143.593 163.286 144.133 163.446 144.76C163.606 145.387 163.686 146.06 163.686 146.78V147.32H156.366C156.46 148.44 156.793 149.273 157.366 149.82C157.94 150.367 158.826 150.64 160.026 150.64C160.68 150.64 161.213 150.587 161.626 150.48C162.053 150.36 162.426 150.207 162.746 150.02L163.046 151.38ZM161.886 145.92C161.9 145.533 161.853 145.173 161.746 144.84C161.64 144.493 161.48 144.2 161.266 143.96C161.053 143.707 160.78 143.513 160.446 143.38C160.113 143.233 159.726 143.16 159.286 143.16C158.42 143.16 157.746 143.393 157.266 143.86C156.786 144.327 156.493 145.013 156.386 145.92H161.886ZM176.583 141.8L177.583 152H175.983L175.383 145V143.98H175.343L175.023 145L172.463 152H171.003L168.443 145L168.123 143.98H168.083V144.98L167.483 152H165.883L166.883 141.8H168.763L171.763 150.14H171.803L174.703 141.8H176.583ZM193.837 152H192.157V143.32H187.037V152H185.357V141.8H193.837V152ZM198.917 156.2H197.237V141.8H198.837V143.26H198.877C199.13 142.9 199.41 142.613 199.717 142.4C200.037 142.173 200.35 142.007 200.657 141.9C200.977 141.793 201.277 141.727 201.557 141.7C201.837 141.66 202.07 141.64 202.257 141.64C203.057 141.64 203.737 141.767 204.297 142.02C204.87 142.26 205.337 142.607 205.697 143.06C206.057 143.5 206.317 144.04 206.477 144.68C206.65 145.32 206.737 146.033 206.737 146.82C206.737 147.567 206.65 148.267 206.477 148.92C206.303 149.56 206.037 150.12 205.677 150.6C205.317 151.08 204.857 151.46 204.297 151.74C203.75 152.02 203.103 152.16 202.357 152.16C202.037 152.16 201.717 152.133 201.397 152.08C201.077 152.027 200.763 151.94 200.457 151.82C200.163 151.7 199.883 151.547 199.617 151.36C199.363 151.173 199.143 150.94 198.957 150.66H198.917V156.2ZM201.977 150.64C203.03 150.64 203.783 150.307 204.237 149.64C204.703 148.96 204.937 148 204.937 146.76C204.937 146.187 204.883 145.673 204.777 145.22C204.683 144.767 204.517 144.393 204.277 144.1C204.05 143.793 203.743 143.56 203.357 143.4C202.983 143.24 202.51 143.16 201.937 143.16C200.95 143.16 200.197 143.507 199.677 144.2C199.17 144.893 198.917 145.8 198.917 146.92C198.917 148.053 199.17 148.96 199.677 149.64C200.197 150.307 200.963 150.64 201.977 150.64ZM213.746 150.64C214.746 150.64 215.493 150.34 215.986 149.74C216.493 149.127 216.746 148.18 216.746 146.9C216.746 145.633 216.513 144.693 216.046 144.08C215.593 143.467 214.826 143.16 213.746 143.16C212.786 143.16 212.046 143.467 211.526 144.08C211.006 144.693 210.746 145.633 210.746 146.9C210.746 148.193 211.013 149.14 211.546 149.74C212.093 150.34 212.826 150.64 213.746 150.64ZM213.746 152.16C212.146 152.16 210.946 151.713 210.146 150.82C209.346 149.913 208.946 148.607 208.946 146.9C208.946 145.233 209.353 143.94 210.166 143.02C210.993 142.1 212.186 141.64 213.746 141.64C215.346 141.64 216.546 142.087 217.346 142.98C218.146 143.873 218.546 145.18 218.546 146.9C218.546 147.713 218.439 148.447 218.226 149.1C218.013 149.753 217.699 150.307 217.286 150.76C216.886 151.213 216.386 151.56 215.786 151.8C215.186 152.04 214.506 152.16 213.746 152.16ZM226.068 152.12C225.934 152.147 225.801 152.16 225.668 152.16C225.548 152.16 225.428 152.16 225.308 152.16C223.774 152.16 222.628 151.72 221.868 150.84C221.121 149.947 220.748 148.627 220.748 146.88C220.748 145.213 221.134 143.927 221.908 143.02C222.681 142.1 223.821 141.64 225.328 141.64C225.448 141.64 225.568 141.64 225.688 141.64C225.821 141.64 225.948 141.653 226.068 141.68V137H227.748V141.7C228.001 141.66 228.254 141.64 228.508 141.64C230.068 141.64 231.214 142.067 231.948 142.92C232.694 143.773 233.068 145.073 233.068 146.82C233.068 147.647 232.968 148.393 232.768 149.06C232.581 149.713 232.294 150.273 231.908 150.74C231.521 151.193 231.041 151.547 230.468 151.8C229.894 152.04 229.234 152.16 228.488 152.16H227.748V156.2H226.068V152.12ZM226.068 143.14C225.881 143.1 225.641 143.08 225.348 143.08C224.908 143.08 224.514 143.153 224.168 143.3C223.821 143.433 223.528 143.653 223.288 143.96C223.048 144.267 222.861 144.667 222.728 145.16C222.608 145.64 222.548 146.233 222.548 146.94C222.548 148.26 222.788 149.22 223.268 149.82C223.761 150.42 224.508 150.72 225.508 150.72C225.601 150.72 225.688 150.72 225.768 150.72C225.861 150.72 225.961 150.713 226.068 150.7V143.14ZM227.748 150.72H228.468C229.348 150.72 230.034 150.413 230.528 149.8C231.021 149.187 231.268 148.173 231.268 146.76C231.268 145.44 231.028 144.5 230.548 143.94C230.081 143.367 229.328 143.08 228.288 143.08C228.208 143.08 228.121 143.087 228.028 143.1C227.934 143.1 227.841 143.107 227.748 143.12V150.72ZM235.864 152V141.8H237.544V148.3L237.484 149.64H237.504L238.164 148.58L242.924 141.8H244.524V152H242.844V145.34L242.904 144.16H242.884L242.264 145.16L237.464 152H235.864ZM247.66 152.16C247.473 152.16 247.306 152.14 247.16 152.1C247.026 152.073 246.913 152.047 246.82 152.02V150.42C246.926 150.46 247.006 150.487 247.06 150.5C247.126 150.513 247.213 150.52 247.32 150.52C247.666 150.52 247.953 150.373 248.18 150.08C248.406 149.773 248.586 149.3 248.72 148.66C248.866 148.007 248.966 147.173 249.02 146.16C249.086 145.147 249.12 143.92 249.12 142.48V141.8H256.08V152H254.4V143.32H250.72V143.56C250.72 145.12 250.666 146.447 250.56 147.54C250.453 148.62 250.28 149.507 250.04 150.2C249.8 150.88 249.48 151.38 249.08 151.7C248.693 152.007 248.22 152.16 247.66 152.16ZM261.167 150.48H263.427C264.173 150.48 264.727 150.34 265.087 150.06C265.46 149.78 265.647 149.313 265.647 148.66C265.647 148.3 265.587 148.013 265.467 147.8C265.347 147.573 265.18 147.4 264.967 147.28C264.767 147.16 264.52 147.08 264.227 147.04C263.933 146.987 263.607 146.96 263.247 146.96H261.167V150.48ZM259.487 152V141.8H261.167V145.44H263.267C263.88 145.44 264.44 145.493 264.947 145.6C265.467 145.707 265.907 145.887 266.267 146.14C266.64 146.38 266.927 146.713 267.127 147.14C267.34 147.553 267.447 148.073 267.447 148.7C267.447 149.26 267.347 149.747 267.147 150.16C266.947 150.573 266.673 150.92 266.327 151.2C265.98 151.467 265.573 151.667 265.107 151.8C264.653 151.933 264.167 152 263.647 152H259.487ZM93.396 172H95.476C95.716 172 95.9627 171.993 96.216 171.98C96.4827 171.953 96.7227 171.893 96.936 171.8C97.1493 171.707 97.3227 171.573 97.456 171.4C97.6027 171.213 97.676 170.96 97.676 170.64C97.676 170.36 97.6293 170.133 97.536 169.96C97.4427 169.787 97.3027 169.653 97.116 169.56C96.9427 169.467 96.7293 169.407 96.476 169.38C96.236 169.34 95.9693 169.32 95.676 169.32H93.396V172ZM93.396 176.48H95.976C96.6027 176.48 97.096 176.38 97.456 176.18C97.816 175.967 97.996 175.573 97.996 175C97.996 174.64 97.916 174.36 97.756 174.16C97.6093 173.947 97.416 173.787 97.176 173.68C96.936 173.56 96.6693 173.487 96.376 173.46C96.096 173.42 95.816 173.4 95.536 173.4H93.396V176.48ZM91.716 178V167.8H95.536C96.7893 167.8 97.7427 167.987 98.396 168.36C99.0493 168.72 99.376 169.393 99.376 170.38C99.376 170.94 99.2093 171.433 98.876 171.86C98.5427 172.273 98.1027 172.553 97.556 172.7V172.76C98.2093 172.867 98.7427 173.12 99.156 173.52C99.5827 173.907 99.796 174.447 99.796 175.14C99.796 175.7 99.7027 176.167 99.516 176.54C99.3293 176.9 99.0627 177.193 98.716 177.42C98.3827 177.633 97.976 177.787 97.496 177.88C97.0293 177.96 96.516 178 95.956 178H91.716ZM108.141 173.2C107.567 173.227 107.007 173.267 106.461 173.32C105.927 173.373 105.447 173.473 105.021 173.62C104.594 173.753 104.247 173.947 103.981 174.2C103.727 174.44 103.601 174.76 103.601 175.16C103.601 175.573 103.741 175.927 104.021 176.22C104.314 176.5 104.774 176.64 105.401 176.64C106.201 176.64 106.854 176.393 107.361 175.9C107.881 175.407 108.141 174.68 108.141 173.72V173.2ZM109.821 178H108.341V176.14H108.301C108.194 176.42 108.027 176.687 107.801 176.94C107.587 177.18 107.334 177.393 107.041 177.58C106.747 177.753 106.421 177.893 106.061 178C105.701 178.107 105.327 178.16 104.941 178.16C104.474 178.16 104.047 178.087 103.661 177.94C103.274 177.793 102.941 177.593 102.661 177.34C102.394 177.073 102.181 176.767 102.021 176.42C101.874 176.073 101.801 175.7 101.801 175.3C101.801 174.62 101.981 174.067 102.341 173.64C102.701 173.213 103.174 172.88 103.761 172.64C104.361 172.387 105.041 172.213 105.801 172.12C106.561 172.013 107.341 171.94 108.141 171.9V171.38C108.141 170.633 107.961 170.08 107.601 169.72C107.254 169.347 106.641 169.16 105.761 169.16C105.267 169.16 104.741 169.227 104.181 169.36C103.621 169.48 103.141 169.64 102.741 169.84L102.441 168.46C102.854 168.233 103.374 168.04 104.001 167.88C104.627 167.72 105.274 167.64 105.941 167.64C106.701 167.64 107.327 167.733 107.821 167.92C108.327 168.093 108.727 168.353 109.021 168.7C109.314 169.047 109.521 169.48 109.641 170C109.761 170.52 109.821 171.12 109.821 171.8V178ZM125.392 178H113.112V167.8H114.792V176.48H118.412V167.8H120.092V176.48H123.712V167.8H125.392V178ZM136.64 177.38C136.4 177.593 136.007 177.78 135.46 177.94C134.914 178.087 134.254 178.16 133.48 178.16C131.68 178.16 130.347 177.693 129.48 176.76C128.627 175.827 128.2 174.527 128.2 172.86C128.2 172.073 128.3 171.36 128.5 170.72C128.714 170.08 129.02 169.533 129.42 169.08C129.82 168.613 130.3 168.26 130.86 168.02C131.434 167.767 132.08 167.64 132.8 167.64C133.614 167.64 134.307 167.773 134.88 168.04C135.454 168.307 135.914 168.673 136.26 169.14C136.62 169.593 136.88 170.133 137.04 170.76C137.2 171.387 137.28 172.06 137.28 172.78V173.32H129.96C130.054 174.44 130.387 175.273 130.96 175.82C131.534 176.367 132.42 176.64 133.62 176.64C134.274 176.64 134.807 176.587 135.22 176.48C135.647 176.36 136.02 176.207 136.34 176.02L136.64 177.38ZM135.48 171.92C135.494 171.533 135.447 171.173 135.34 170.84C135.234 170.493 135.074 170.2 134.86 169.96C134.647 169.707 134.374 169.513 134.04 169.38C133.707 169.233 133.32 169.16 132.88 169.16C132.014 169.16 131.34 169.393 130.86 169.86C130.38 170.327 130.087 171.013 129.98 171.92H135.48ZM139.977 178V167.8H141.657V174.3L141.597 175.64H141.617L142.277 174.58L147.037 167.8H148.637V178H146.957V171.34L147.017 170.16H146.997L146.377 171.16L141.577 178H139.977ZM147.537 163.4C147.51 163.84 147.41 164.227 147.237 164.56C147.064 164.893 146.837 165.173 146.557 165.4C146.277 165.613 145.944 165.773 145.557 165.88C145.184 165.987 144.79 166.04 144.377 166.04C143.95 166.04 143.55 165.987 143.177 165.88C142.804 165.773 142.477 165.613 142.197 165.4C141.917 165.173 141.684 164.893 141.497 164.56C141.324 164.227 141.23 163.84 141.217 163.4L142.637 163.24C142.704 163.72 142.89 164.08 143.197 164.32C143.517 164.56 143.91 164.68 144.377 164.68C144.844 164.68 145.23 164.56 145.537 164.32C145.857 164.08 146.05 163.72 146.117 163.24L147.537 163.4ZM158.58 172.28H159.12L162.98 167.8H165.14L160.8 172.58C160.96 172.66 161.094 172.76 161.2 172.88C161.32 172.987 161.447 173.12 161.58 173.28L165.64 178H163.36L160.28 174.22C160.08 173.967 159.914 173.793 159.78 173.7C159.647 173.607 159.46 173.56 159.22 173.56H158.58V178H156.9V167.8H158.58V172.28ZM171.437 176.64C172.437 176.64 173.184 176.34 173.677 175.74C174.184 175.127 174.437 174.18 174.437 172.9C174.437 171.633 174.204 170.693 173.737 170.08C173.284 169.467 172.517 169.16 171.437 169.16C170.477 169.16 169.737 169.467 169.217 170.08C168.697 170.693 168.437 171.633 168.437 172.9C168.437 174.193 168.704 175.14 169.237 175.74C169.784 176.34 170.517 176.64 171.437 176.64ZM171.437 178.16C169.837 178.16 168.637 177.713 167.837 176.82C167.037 175.913 166.637 174.607 166.637 172.9C166.637 171.233 167.044 169.94 167.857 169.02C168.684 168.1 169.877 167.64 171.437 167.64C173.037 167.64 174.237 168.087 175.037 168.98C175.837 169.873 176.237 171.18 176.237 172.9C176.237 173.713 176.13 174.447 175.917 175.1C175.704 175.753 175.39 176.307 174.977 176.76C174.577 177.213 174.077 177.56 173.477 177.8C172.877 178.04 172.197 178.16 171.437 178.16ZM189.239 167.8L190.239 178H188.639L188.039 171V169.98H187.999L187.679 171L185.119 178H183.659L181.099 171L180.779 169.98H180.739V170.98L180.139 178H178.539L179.539 167.8H181.419L184.419 176.14H184.459L187.359 167.8H189.239ZM201.625 178H199.945V169.32H194.825V178H193.145V167.8H201.625V178ZM210.605 173.2C210.031 173.227 209.471 173.267 208.925 173.32C208.391 173.373 207.911 173.473 207.485 173.62C207.058 173.753 206.711 173.947 206.445 174.2C206.191 174.44 206.065 174.76 206.065 175.16C206.065 175.573 206.205 175.927 206.485 176.22C206.778 176.5 207.238 176.64 207.865 176.64C208.665 176.64 209.318 176.393 209.825 175.9C210.345 175.407 210.605 174.68 210.605 173.72V173.2ZM212.285 178H210.805V176.14H210.765C210.658 176.42 210.491 176.687 210.265 176.94C210.051 177.18 209.798 177.393 209.505 177.58C209.211 177.753 208.885 177.893 208.525 178C208.165 178.107 207.791 178.16 207.405 178.16C206.938 178.16 206.511 178.087 206.125 177.94C205.738 177.793 205.405 177.593 205.125 177.34C204.858 177.073 204.645 176.767 204.485 176.42C204.338 176.073 204.265 175.7 204.265 175.3C204.265 174.62 204.445 174.067 204.805 173.64C205.165 173.213 205.638 172.88 206.225 172.64C206.825 172.387 207.505 172.213 208.265 172.12C209.025 172.013 209.805 171.94 210.605 171.9V171.38C210.605 170.633 210.425 170.08 210.065 169.72C209.718 169.347 209.105 169.16 208.225 169.16C207.731 169.16 207.205 169.227 206.645 169.36C206.085 169.48 205.605 169.64 205.205 169.84L204.905 168.46C205.318 168.233 205.838 168.04 206.465 167.88C207.091 167.72 207.738 167.64 208.405 167.64C209.165 167.64 209.791 167.733 210.285 167.92C210.791 168.093 211.191 168.353 211.485 168.7C211.778 169.047 211.985 169.48 212.105 170C212.225 170.52 212.285 171.12 212.285 171.8V178ZM224.176 178H222.496V173.46H217.256V178H215.576V167.8H217.256V171.94H222.496V167.8H224.176V178ZM227.573 178V167.8H229.253V174.3L229.193 175.64H229.213L229.873 174.58L234.633 167.8H236.233V178H234.553V171.34L234.613 170.16H234.593L233.973 171.16L229.173 178H227.573ZM239.629 178V167.8H241.309V174.3L241.249 175.64H241.269L241.929 174.58L246.689 167.8H248.289V178H246.609V171.34L246.669 170.16H246.649L246.029 171.16L241.229 178H239.629Z" fill="#00097F"/>
</g>
<defs>
<filter id="filter0_f_1708_3120" x="170" y="167" width="212" height="212" filterUnits="userSpaceOnUse" color-interpolation-filters="sRGB">
<feFlood flood-opacity="0" result="BackgroundImageFix"/>
<feBlend mode="normal" in="SourceGraphic" in2="BackgroundImageFix" result="shape"/>
<feGaussianBlur stdDeviation="20" result="effect1_foregroundBlur_1708_3120"/>
</filter>
<filter id="filter1_f_1708_3120" x="-90" y="252" width="244" height="244" filterUnits="userSpaceOnUse" color-interpolation-filters="sRGB">
<feFlood flood-opacity="0" result="BackgroundImageFix"/>
<feBlend mode="normal" in="SourceGraphic" in2="BackgroundImageFix" result="shape"/>
<feGaussianBlur stdDeviation="16" result="effect1_foregroundBlur_1708_3120"/>
</filter>
<linearGradient id="paint0_linear_1708_3120" x1="8.41158" y1="10.2273" x2="360.943" y2="474.21" gradientUnits="userSpaceOnUse">
<stop offset="0.311177" stop-color="white"/>
<stop offset="0.929333" stop-color="#39E7FF"/>
</linearGradient>
<linearGradient id="paint1_linear_1708_3120" x1="164.026" y1="282.955" x2="-15.4924" y2="486.325" gradientUnits="userSpaceOnUse">
<stop stop-color="white"/>
<stop offset="1" stop-color="#567BFF"/>
</linearGradient>
<radialGradient id="paint2_radial_1708_3120" cx="0" cy="0" r="1" gradientUnits="userSpaceOnUse" gradientTransform="translate(276 273) rotate(90) scale(66)">
<stop offset="0.116317" stop-color="#39E7FF"/>
<stop offset="0.928823" stop-color="#CDFF64" stop-opacity="0.5"/>
</radialGradient>
<radialGradient id="paint3_radial_1708_3120" cx="0" cy="0" r="1" gradientUnits="userSpaceOnUse" gradientTransform="translate(32 374) rotate(90) scale(90)">
<stop offset="0.173729" stop-color="#A5B9FF"/>
<stop offset="0.798613" stop-color="#FFDFFC"/>
</radialGradient>
<clipPath id="clip0_1708_3120">
<rect width="327" height="500" fill="white" transform="matrix(1 0 0 -1 0 500)"/>
</clipPath>
</defs>
</svg>
