<svg width="327" height="500" viewBox="0 0 327 500" fill="none" xmlns="http://www.w3.org/2000/svg">
<g clip-path="url(#clip0_1921_7191)">
<rect width="327" height="500" transform="matrix(1 0 0 -1 0 500)" fill="url(#paint0_linear_1921_7191)"/>
<rect width="327" height="500" transform="matrix(1 0 0 -1 0 500)" fill="url(#paint1_linear_1921_7191)" fill-opacity="0.6"/>
<g filter="url(#filter0_f_1921_7191)">
<circle cx="276" cy="273" r="66" fill="url(#paint2_radial_1921_7191)"/>
</g>
<g filter="url(#filter1_f_1921_7191)">
<circle cx="32" cy="374" r="90" fill="url(#paint3_radial_1921_7191)"/>
</g>
<path d="M82.1781 58.768H84.8021C86.2528 58.768 87.3835 58.4907 88.1941 57.936C89.0048 57.36 89.4101 56.4747 89.4101 55.28C89.4101 54.0213 89.0155 53.136 88.2261 52.624C87.4368 52.0907 86.3061 51.824 84.8341 51.824H82.1781V58.768ZM82.2741 70H77.4741V47.6H85.1861C86.5941 47.6 87.8635 47.7493 88.9941 48.048C90.1248 48.3467 91.0848 48.8053 91.8741 49.424C92.6848 50.0213 93.3035 50.8 93.7301 51.76C94.1568 52.6987 94.3701 53.808 94.3701 55.088C94.3701 56.3467 94.1461 57.4667 93.6981 58.448C93.2715 59.4293 92.6421 60.2613 91.8101 60.944C90.9781 61.6053 89.9648 62.1173 88.7701 62.48C87.5755 62.8213 86.2315 62.992 84.7381 62.992H82.2741V70ZM102.561 70H98.2094V46H102.561V70ZM121.789 68.912C121.576 69.0613 121.277 69.2213 120.893 69.392C120.509 69.5627 120.05 69.7227 119.517 69.872C119.005 70 118.418 70.1067 117.757 70.192C117.117 70.2987 116.424 70.352 115.677 70.352C112.52 70.352 110.216 69.6053 108.765 68.112C107.314 66.5973 106.589 64.4427 106.589 61.648C106.589 60.368 106.77 59.216 107.133 58.192C107.517 57.168 108.061 56.2933 108.765 55.568C109.469 54.8427 110.322 54.288 111.325 53.904C112.349 53.52 113.512 53.328 114.813 53.328C116.264 53.328 117.48 53.552 118.461 54C119.464 54.4267 120.274 55.0133 120.893 55.76C121.512 56.5067 121.949 57.392 122.205 58.416C122.482 59.4187 122.621 60.496 122.621 61.648V62.832H111.069C111.24 64.1973 111.73 65.2107 112.541 65.872C113.352 66.512 114.568 66.832 116.189 66.832C117.384 66.832 118.354 66.7253 119.101 66.512C119.869 66.2773 120.53 66.0107 121.085 65.712L121.789 68.912ZM118.205 60.208C118.226 59.2053 117.96 58.3733 117.405 57.712C116.872 57.0507 116.029 56.72 114.877 56.72C112.658 56.72 111.4 57.8827 111.101 60.208H118.205ZM135.784 62.64C134.93 62.704 134.152 62.7893 133.448 62.896C132.765 62.9813 132.168 63.12 131.656 63.312C131.165 63.4827 130.781 63.7067 130.504 63.984C130.248 64.2613 130.12 64.6133 130.12 65.04C130.12 65.616 130.301 66.064 130.664 66.384C131.048 66.704 131.645 66.864 132.456 66.864C133.416 66.864 134.205 66.5653 134.824 65.968C135.464 65.3707 135.784 64.5387 135.784 63.472V62.64ZM140.136 70H136.104V67.344H136.04C135.848 67.7067 135.602 68.0693 135.304 68.432C135.005 68.7733 134.632 69.0827 134.184 69.36C133.757 69.6373 133.256 69.8613 132.68 70.032C132.125 70.2027 131.496 70.288 130.792 70.288C129.192 70.288 127.933 69.872 127.016 69.04C126.098 68.1867 125.64 67.024 125.64 65.552C125.64 64.5493 125.864 63.7067 126.312 63.024C126.781 62.3413 127.442 61.7867 128.296 61.36C129.17 60.9333 130.237 60.6133 131.496 60.4C132.754 60.1653 134.184 60.0053 135.784 59.92V59.664C135.784 58.7893 135.549 58.1173 135.08 57.648C134.61 57.1787 133.746 56.944 132.488 56.944C131.549 56.944 130.642 57.0613 129.768 57.296C128.914 57.5093 128.114 57.7547 127.368 58.032L126.664 54.736C127.624 54.2453 128.669 53.8933 129.8 53.68C130.93 53.4453 132.072 53.328 133.224 53.328C134.482 53.328 135.549 53.4773 136.424 53.776C137.298 54.0533 138.013 54.4907 138.568 55.088C139.122 55.664 139.517 56.4 139.752 57.296C140.008 58.1707 140.136 59.216 140.136 60.432V70ZM144.807 66C145.554 66.4053 146.311 66.672 147.079 66.8C147.847 66.9067 148.626 66.96 149.415 66.96C150.311 66.96 150.951 66.8213 151.335 66.544C151.741 66.2453 151.943 65.8187 151.943 65.264C151.943 64.8373 151.751 64.5067 151.367 64.272C150.983 64.0373 150.493 63.824 149.895 63.632C149.319 63.44 148.69 63.2373 148.007 63.024C147.325 62.8107 146.685 62.5227 146.087 62.16C145.511 61.776 145.031 61.2853 144.647 60.688C144.263 60.0907 144.071 59.3013 144.071 58.32C144.071 56.8267 144.594 55.6213 145.639 54.704C146.706 53.7867 148.445 53.328 150.855 53.328C151.666 53.328 152.541 53.4027 153.479 53.552C154.418 53.68 155.197 53.8613 155.815 54.096L155.079 57.328C154.525 57.136 153.895 56.9867 153.191 56.88C152.487 56.7733 151.794 56.72 151.111 56.72C149.426 56.72 148.583 57.1787 148.583 58.096C148.583 58.5227 148.775 58.8427 149.159 59.056C149.543 59.2693 150.023 59.4613 150.599 59.632C151.197 59.8027 151.837 59.9947 152.519 60.208C153.202 60.4 153.831 60.688 154.407 61.072C155.005 61.4347 155.495 61.936 155.879 62.576C156.263 63.1947 156.455 64.0267 156.455 65.072C156.455 65.84 156.327 66.5547 156.071 67.216C155.815 67.856 155.399 68.4107 154.823 68.88C154.269 69.3493 153.543 69.712 152.647 69.968C151.773 70.224 150.717 70.352 149.479 70.352C148.669 70.352 147.794 70.256 146.855 70.064C145.938 69.872 145.01 69.5947 144.071 69.232L144.807 66ZM174.731 68.912C174.518 69.0613 174.219 69.2213 173.835 69.392C173.451 69.5627 172.993 69.7227 172.459 69.872C171.947 70 171.361 70.1067 170.699 70.192C170.059 70.2987 169.366 70.352 168.619 70.352C165.462 70.352 163.158 69.6053 161.707 68.112C160.257 66.5973 159.531 64.4427 159.531 61.648C159.531 60.368 159.713 59.216 160.075 58.192C160.459 57.168 161.003 56.2933 161.707 55.568C162.411 54.8427 163.265 54.288 164.267 53.904C165.291 53.52 166.454 53.328 167.755 53.328C169.206 53.328 170.422 53.552 171.403 54C172.406 54.4267 173.217 55.0133 173.835 55.76C174.454 56.5067 174.891 57.392 175.147 58.416C175.425 59.4187 175.563 60.496 175.563 61.648V62.832H164.011C164.182 64.1973 164.673 65.2107 165.483 65.872C166.294 66.512 167.51 66.832 169.131 66.832C170.326 66.832 171.297 66.7253 172.043 66.512C172.811 66.2773 173.473 66.0107 174.027 65.712L174.731 68.912ZM171.147 60.208C171.169 59.2053 170.902 58.3733 170.347 57.712C169.814 57.0507 168.971 56.72 167.819 56.72C165.601 56.72 164.342 57.8827 164.043 60.208H171.147ZM206.755 70H201.379L198.499 58.192H198.467L195.619 70H190.243L186.275 53.68H190.851L193.251 65.552L196.195 53.68H200.899L203.843 65.616H203.875L206.403 53.68H210.755L206.755 70ZM223.177 62.64C222.324 62.704 221.545 62.7893 220.841 62.896C220.159 62.9813 219.561 63.12 219.049 63.312C218.559 63.4827 218.175 63.7067 217.897 63.984C217.641 64.2613 217.513 64.6133 217.513 65.04C217.513 65.616 217.695 66.064 218.057 66.384C218.441 66.704 219.039 66.864 219.849 66.864C220.809 66.864 221.599 66.5653 222.217 65.968C222.857 65.3707 223.177 64.5387 223.177 63.472V62.64ZM227.529 70H223.497V67.344H223.433C223.241 67.7067 222.996 68.0693 222.697 68.432C222.399 68.7733 222.025 69.0827 221.577 69.36C221.151 69.6373 220.649 69.8613 220.073 70.032C219.519 70.2027 218.889 70.288 218.185 70.288C216.585 70.288 215.327 69.872 214.409 69.04C213.492 68.1867 213.033 67.024 213.033 65.552C213.033 64.5493 213.257 63.7067 213.705 63.024C214.175 62.3413 214.836 61.7867 215.689 61.36C216.564 60.9333 217.631 60.6133 218.889 60.4C220.148 60.1653 221.577 60.0053 223.177 59.92V59.664C223.177 58.7893 222.943 58.1173 222.473 57.648C222.004 57.1787 221.14 56.944 219.881 56.944C218.943 56.944 218.036 57.0613 217.161 57.296C216.308 57.5093 215.508 57.7547 214.761 58.032L214.057 54.736C215.017 54.2453 216.063 53.8933 217.193 53.68C218.324 53.4453 219.465 53.328 220.617 53.328C221.876 53.328 222.943 53.4773 223.817 53.776C224.692 54.0533 225.407 54.4907 225.961 55.088C226.516 55.664 226.911 56.4 227.145 57.296C227.401 58.1707 227.529 59.216 227.529 60.432V70ZM237.129 48.464C237.129 49.2107 236.905 49.7973 236.457 50.224C236.009 50.6293 235.348 50.832 234.473 50.832C233.641 50.832 232.99 50.6293 232.521 50.224C232.073 49.7973 231.849 49.2107 231.849 48.464C231.849 47.76 232.073 47.2053 232.521 46.8C232.99 46.3947 233.641 46.192 234.473 46.192C235.348 46.192 236.009 46.3947 236.457 46.8C236.905 47.184 237.129 47.7387 237.129 48.464ZM236.649 70H232.297V53.68H236.649V70ZM251.874 57.392H247.362V63.664C247.362 64.6453 247.532 65.36 247.874 65.808C248.215 66.256 248.908 66.48 249.954 66.48C250.466 66.48 251.02 66.3733 251.618 66.16L252.226 69.52C251.735 69.8187 251.18 70.032 250.562 70.16C249.964 70.288 249.314 70.352 248.61 70.352C246.583 70.352 245.143 69.904 244.29 69.008C243.436 68.0907 243.01 66.768 243.01 65.04V57.392H240.034V53.68H243.01V50.224L247.362 48.752V53.68H251.874V57.392ZM97.2611 100.64C96.4078 100.704 95.6291 100.789 94.9251 100.896C94.2425 100.981 93.6451 101.12 93.1331 101.312C92.6425 101.483 92.2585 101.707 91.9811 101.984C91.7251 102.261 91.5971 102.613 91.5971 103.04C91.5971 103.616 91.7785 104.064 92.1411 104.384C92.5251 104.704 93.1225 104.864 93.9331 104.864C94.8931 104.864 95.6825 104.565 96.3011 103.968C96.9411 103.371 97.2611 102.539 97.2611 101.472V100.64ZM101.613 108H97.5811V105.344H97.5171C97.3251 105.707 97.0798 106.069 96.7811 106.432C96.4825 106.773 96.1091 107.083 95.6611 107.36C95.2345 107.637 94.7331 107.861 94.1571 108.032C93.6025 108.203 92.9731 108.288 92.2691 108.288C90.6691 108.288 89.4105 107.872 88.4931 107.04C87.5758 106.187 87.1171 105.024 87.1171 103.552C87.1171 102.549 87.3411 101.707 87.7891 101.024C88.2585 100.341 88.9198 99.7867 89.7731 99.36C90.6478 98.9333 91.7145 98.6133 92.9731 98.4C94.2318 98.1653 95.6611 98.0053 97.2611 97.92V97.664C97.2611 96.7893 97.0265 96.1173 96.5571 95.648C96.0878 95.1787 95.2238 94.944 93.9651 94.944C93.0265 94.944 92.1198 95.0613 91.2451 95.296C90.3918 95.5093 89.5918 95.7547 88.8451 96.032L88.1411 92.736C89.1011 92.2453 90.1465 91.8933 91.2771 91.68C92.4078 91.4453 93.5491 91.328 94.7011 91.328C95.9598 91.328 97.0265 91.4773 97.9011 91.776C98.7758 92.0533 99.4905 92.4907 100.045 93.088C100.6 93.664 100.994 94.4 101.229 95.296C101.485 96.1707 101.613 97.216 101.613 98.432V108ZM138.65 108H134.33V98.784C134.33 97.568 134.17 96.6507 133.85 96.032C133.53 95.4133 132.9 95.104 131.962 95.104C131.364 95.104 130.863 95.2213 130.458 95.456C130.074 95.6907 129.754 96.0213 129.498 96.448C129.263 96.8747 129.092 97.3973 128.986 98.016C128.9 98.6133 128.858 99.2853 128.858 100.032V108H124.538V98.784C124.538 97.6533 124.367 96.7573 124.026 96.096C123.706 95.4347 123.076 95.104 122.138 95.104C121.54 95.104 121.039 95.2213 120.634 95.456C120.25 95.6693 119.94 95.9893 119.706 96.416C119.471 96.8427 119.3 97.3653 119.194 97.984C119.108 98.5813 119.066 99.264 119.066 100.032V108H114.746V91.68H118.906V94.112H118.97C119.524 93.1307 120.207 92.4373 121.018 92.032C121.85 91.6053 122.799 91.392 123.866 91.392C125.018 91.392 125.978 91.648 126.746 92.16C127.514 92.672 128.058 93.4827 128.378 94.592C128.996 93.44 129.732 92.6187 130.586 92.128C131.439 91.6373 132.442 91.392 133.594 91.392C135.386 91.392 136.676 91.904 137.466 92.928C138.255 93.9307 138.65 95.4453 138.65 97.472V108ZM151.107 104.736C152.429 104.736 153.421 104.341 154.083 103.552C154.744 102.763 155.075 101.525 155.075 99.84C155.075 98.112 154.755 96.864 154.115 96.096C153.475 95.3067 152.472 94.912 151.107 94.912C149.827 94.912 148.835 95.3067 148.131 96.096C147.448 96.8853 147.107 98.1333 147.107 99.84C147.107 101.547 147.469 102.795 148.195 103.584C148.92 104.352 149.891 104.736 151.107 104.736ZM151.107 108.352C148.355 108.352 146.243 107.659 144.771 106.272C143.299 104.885 142.563 102.741 142.563 99.84C142.563 97.0453 143.32 94.9333 144.835 93.504C146.349 92.0533 148.44 91.328 151.107 91.328C153.816 91.328 155.907 92.0427 157.379 93.472C158.872 94.88 159.619 97.0027 159.619 99.84C159.619 102.592 158.883 104.704 157.411 106.176C155.939 107.627 153.837 108.352 151.107 108.352ZM187.57 108H183.25V98.784C183.25 97.568 183.09 96.6507 182.77 96.032C182.45 95.4133 181.82 95.104 180.882 95.104C180.284 95.104 179.783 95.2213 179.378 95.456C178.994 95.6907 178.674 96.0213 178.418 96.448C178.183 96.8747 178.012 97.3973 177.906 98.016C177.82 98.6133 177.778 99.2853 177.778 100.032V108H173.458V98.784C173.458 97.6533 173.287 96.7573 172.946 96.096C172.626 95.4347 171.996 95.104 171.058 95.104C170.46 95.104 169.959 95.2213 169.554 95.456C169.17 95.6693 168.86 95.9893 168.626 96.416C168.391 96.8427 168.22 97.3653 168.114 97.984C168.028 98.5813 167.986 99.264 167.986 100.032V108H163.666V91.68H167.826V94.112H167.89C168.444 93.1307 169.127 92.4373 169.938 92.032C170.77 91.6053 171.719 91.392 172.786 91.392C173.938 91.392 174.898 91.648 175.666 92.16C176.434 92.672 176.978 93.4827 177.298 94.592C177.916 93.44 178.652 92.6187 179.506 92.128C180.359 91.6373 181.362 91.392 182.514 91.392C184.306 91.392 185.596 91.904 186.386 92.928C187.175 93.9307 187.57 95.4453 187.57 97.472V108ZM206.683 106.912C206.469 107.061 206.171 107.221 205.787 107.392C205.403 107.563 204.944 107.723 204.411 107.872C203.899 108 203.312 108.107 202.651 108.192C202.011 108.299 201.317 108.352 200.571 108.352C197.413 108.352 195.109 107.605 193.659 106.112C192.208 104.597 191.483 102.443 191.483 99.648C191.483 98.368 191.664 97.216 192.027 96.192C192.411 95.168 192.955 94.2933 193.659 93.568C194.363 92.8427 195.216 92.288 196.219 91.904C197.243 91.52 198.405 91.328 199.707 91.328C201.157 91.328 202.373 91.552 203.355 92C204.357 92.4267 205.168 93.0133 205.787 93.76C206.405 94.5067 206.843 95.392 207.099 96.416C207.376 97.4187 207.515 98.496 207.515 99.648V100.832H195.963C196.133 102.197 196.624 103.211 197.435 103.872C198.245 104.512 199.461 104.832 201.083 104.832C202.277 104.832 203.248 104.725 203.995 104.512C204.763 104.277 205.424 104.011 205.979 103.712L206.683 106.912ZM203.099 98.208C203.12 97.2053 202.853 96.3733 202.299 95.712C201.765 95.0507 200.923 94.72 199.771 94.72C197.552 94.72 196.293 95.8827 195.995 98.208H203.099ZM227.013 108H222.661V99.552C222.661 98.6987 222.608 97.984 222.501 97.408C222.395 96.832 222.224 96.3733 221.989 96.032C221.755 95.6907 221.435 95.456 221.029 95.328C220.624 95.1787 220.133 95.104 219.557 95.104C218.213 95.104 217.243 95.5627 216.645 96.48C216.069 97.376 215.781 98.6987 215.781 100.448V108H211.429V91.68H215.781V93.952H215.845C216.443 93.056 217.2 92.4053 218.117 92C219.056 91.5947 220.069 91.392 221.157 91.392C223.099 91.392 224.56 91.9147 225.541 92.96C226.523 93.984 227.013 95.6373 227.013 97.92V108ZM242.039 95.392H237.527V101.664C237.527 102.645 237.697 103.36 238.039 103.808C238.38 104.256 239.073 104.48 240.119 104.48C240.631 104.48 241.185 104.373 241.783 104.16L242.391 107.52C241.9 107.819 241.345 108.032 240.727 108.16C240.129 108.288 239.479 108.352 238.775 108.352C236.748 108.352 235.308 107.904 234.455 107.008C233.601 106.091 233.175 104.768 233.175 103.04V95.392H230.199V91.68H233.175V88.224L237.527 86.752V91.68H242.039V95.392Z" fill="#00097F"/>
<path d="M106.486 151.62C106.099 151.807 105.646 151.947 105.126 152.04C104.606 152.147 104.039 152.2 103.426 152.2C102.332 152.2 101.352 152.04 100.486 151.72C99.6324 151.387 98.9057 150.913 98.3057 150.3C97.7057 149.687 97.2457 148.953 96.9257 148.1C96.6057 147.233 96.4457 146.26 96.4457 145.18C96.4457 143.993 96.6057 142.94 96.9257 142.02C97.2457 141.1 97.7057 140.327 98.3057 139.7C98.9057 139.073 99.6257 138.6 100.466 138.28C101.319 137.96 102.266 137.8 103.306 137.8C104.106 137.8 104.752 137.86 105.246 137.98C105.752 138.087 106.172 138.207 106.506 138.34L106.166 139.92C105.726 139.76 105.279 139.647 104.826 139.58C104.372 139.513 103.926 139.48 103.486 139.48C101.819 139.48 100.546 139.947 99.6657 140.88C98.799 141.813 98.3657 143.187 98.3657 145C98.3657 145.867 98.4857 146.647 98.7257 147.34C98.979 148.02 99.3324 148.6 99.7857 149.08C100.239 149.547 100.792 149.907 101.446 150.16C102.099 150.4 102.839 150.52 103.666 150.52C104.106 150.52 104.546 150.48 104.986 150.4C105.439 150.32 105.839 150.193 106.186 150.02L106.486 151.62ZM115.087 147.2C114.513 147.227 113.953 147.267 113.407 147.32C112.873 147.373 112.393 147.473 111.967 147.62C111.54 147.753 111.193 147.947 110.927 148.2C110.673 148.44 110.547 148.76 110.547 149.16C110.547 149.573 110.687 149.927 110.967 150.22C111.26 150.5 111.72 150.64 112.347 150.64C113.147 150.64 113.8 150.393 114.307 149.9C114.827 149.407 115.087 148.68 115.087 147.72V147.2ZM116.767 152H115.287V150.14H115.247C115.14 150.42 114.973 150.687 114.747 150.94C114.533 151.18 114.28 151.393 113.987 151.58C113.693 151.753 113.367 151.893 113.007 152C112.647 152.107 112.273 152.16 111.887 152.16C111.42 152.16 110.993 152.087 110.607 151.94C110.22 151.793 109.887 151.593 109.607 151.34C109.34 151.073 109.127 150.767 108.967 150.42C108.82 150.073 108.747 149.7 108.747 149.3C108.747 148.62 108.927 148.067 109.287 147.64C109.647 147.213 110.12 146.88 110.707 146.64C111.307 146.387 111.987 146.213 112.747 146.12C113.507 146.013 114.287 145.94 115.087 145.9V145.38C115.087 144.633 114.907 144.08 114.547 143.72C114.2 143.347 113.587 143.16 112.707 143.16C112.213 143.16 111.687 143.227 111.127 143.36C110.567 143.48 110.087 143.64 109.687 143.84L109.387 142.46C109.8 142.233 110.32 142.04 110.947 141.88C111.573 141.72 112.22 141.64 112.887 141.64C113.647 141.64 114.273 141.733 114.767 141.92C115.273 142.093 115.673 142.353 115.967 142.7C116.26 143.047 116.467 143.48 116.587 144C116.707 144.52 116.767 145.12 116.767 145.8V152ZM121.738 152H120.058V137H121.738V152ZM132.481 151.64C132.254 151.747 131.921 151.86 131.481 151.98C131.041 152.1 130.421 152.16 129.621 152.16C128.754 152.16 128.001 152.04 127.361 151.8C126.734 151.547 126.208 151.187 125.781 150.72C125.368 150.253 125.054 149.693 124.841 149.04C124.641 148.387 124.541 147.647 124.541 146.82C124.541 145.18 124.981 143.907 125.861 143C126.754 142.093 127.988 141.64 129.561 141.64C130.308 141.64 130.888 141.7 131.301 141.82C131.714 141.927 132.054 142.013 132.321 142.08L132.001 143.52C131.748 143.44 131.441 143.36 131.081 143.28C130.721 143.2 130.288 143.16 129.781 143.16C128.714 143.16 127.874 143.447 127.261 144.02C126.648 144.58 126.341 145.46 126.341 146.66C126.341 148.033 126.668 149.04 127.321 149.68C127.974 150.32 128.908 150.64 130.121 150.64C130.521 150.64 130.901 150.6 131.261 150.52C131.634 150.44 131.941 150.347 132.181 150.24L132.481 151.64ZM134.85 141.8H136.53V147.08C136.53 147.76 136.57 148.327 136.65 148.78C136.73 149.233 136.864 149.6 137.05 149.88C137.237 150.16 137.49 150.36 137.81 150.48C138.144 150.587 138.55 150.64 139.03 150.64C140.07 150.64 140.824 150.273 141.29 149.54C141.757 148.807 141.99 147.8 141.99 146.52V141.8H143.67V152H141.99V150.54H141.95C141.564 151.1 141.084 151.513 140.51 151.78C139.95 152.033 139.337 152.16 138.67 152.16C137.337 152.16 136.364 151.827 135.75 151.16C135.15 150.48 134.85 149.38 134.85 147.86V141.8ZM148.744 152H147.064V137H148.744V152ZM157.727 147.2C157.154 147.227 156.594 147.267 156.047 147.32C155.514 147.373 155.034 147.473 154.607 147.62C154.181 147.753 153.834 147.947 153.567 148.2C153.314 148.44 153.187 148.76 153.187 149.16C153.187 149.573 153.327 149.927 153.607 150.22C153.901 150.5 154.361 150.64 154.987 150.64C155.787 150.64 156.441 150.393 156.947 149.9C157.467 149.407 157.727 148.68 157.727 147.72V147.2ZM159.407 152H157.927V150.14H157.887C157.781 150.42 157.614 150.687 157.387 150.94C157.174 151.18 156.921 151.393 156.627 151.58C156.334 151.753 156.007 151.893 155.647 152C155.287 152.107 154.914 152.16 154.527 152.16C154.061 152.16 153.634 152.087 153.247 151.94C152.861 151.793 152.527 151.593 152.247 151.34C151.981 151.073 151.767 150.767 151.607 150.42C151.461 150.073 151.387 149.7 151.387 149.3C151.387 148.62 151.567 148.067 151.927 147.64C152.287 147.213 152.761 146.88 153.347 146.64C153.947 146.387 154.627 146.213 155.387 146.12C156.147 146.013 156.927 145.94 157.727 145.9V145.38C157.727 144.633 157.547 144.08 157.187 143.72C156.841 143.347 156.227 143.16 155.347 143.16C154.854 143.16 154.327 143.227 153.767 143.36C153.207 143.48 152.727 143.64 152.327 143.84L152.027 142.46C152.441 142.233 152.961 142.04 153.587 141.88C154.214 141.72 154.861 141.64 155.527 141.64C156.287 141.64 156.914 141.733 157.407 141.92C157.914 142.093 158.314 142.353 158.607 142.7C158.901 143.047 159.107 143.48 159.227 144C159.347 144.52 159.407 145.12 159.407 145.8V152ZM167.959 143.32H165.139V148.82C165.139 149.447 165.252 149.907 165.479 150.2C165.705 150.493 166.145 150.64 166.799 150.64C166.985 150.64 167.165 150.627 167.339 150.6C167.525 150.56 167.705 150.5 167.879 150.42L168.139 151.76C167.872 151.893 167.585 151.993 167.279 152.06C166.972 152.127 166.692 152.16 166.439 152.16C165.399 152.16 164.639 151.92 164.159 151.44C163.692 150.947 163.459 150.2 163.459 149.2V143.32H161.439V141.8H163.459V139.64L165.139 139.04V141.8H167.959V143.32ZM172.339 138.5C172.339 138.82 172.232 139.087 172.019 139.3C171.819 139.5 171.559 139.6 171.239 139.6C170.919 139.6 170.659 139.5 170.459 139.3C170.259 139.087 170.159 138.82 170.159 138.5C170.159 138.18 170.259 137.92 170.459 137.72C170.659 137.52 170.919 137.42 171.239 137.42C171.559 137.42 171.819 137.52 172.019 137.72C172.232 137.92 172.339 138.18 172.339 138.5ZM172.079 152H170.399V141.8H172.079V152ZM184.302 152H182.622V146.72C182.622 146.04 182.582 145.473 182.502 145.02C182.422 144.567 182.288 144.2 182.102 143.92C181.915 143.64 181.655 143.447 181.322 143.34C181.002 143.22 180.602 143.16 180.122 143.16C179.082 143.16 178.328 143.527 177.862 144.26C177.395 144.993 177.162 146 177.162 147.28V152H175.482V141.8H177.162V143.26H177.202C177.588 142.7 178.062 142.293 178.622 142.04C179.195 141.773 179.815 141.64 180.482 141.64C181.815 141.64 182.782 141.98 183.382 142.66C183.995 143.327 184.302 144.42 184.302 145.94V152ZM194.896 141.8H196.496V151.54C196.496 153.18 196.069 154.38 195.216 155.14C194.362 155.9 193.136 156.28 191.536 156.28C190.896 156.28 190.229 156.22 189.536 156.1C188.842 155.993 188.196 155.8 187.596 155.52L188.116 154.1C188.449 154.26 188.882 154.407 189.416 154.54C189.962 154.687 190.609 154.76 191.356 154.76C192.596 154.76 193.482 154.493 194.016 153.96C194.549 153.44 194.816 152.66 194.816 151.62V150.28H194.776C194.602 150.56 194.382 150.807 194.116 151.02C193.862 151.233 193.582 151.413 193.276 151.56C192.969 151.707 192.649 151.82 192.316 151.9C191.996 151.967 191.696 152 191.416 152C190.642 152 189.976 151.887 189.416 151.66C188.869 151.433 188.416 151.107 188.056 150.68C187.696 150.24 187.429 149.713 187.256 149.1C187.082 148.473 186.996 147.767 186.996 146.98C186.996 146.153 187.076 145.413 187.236 144.76C187.409 144.093 187.676 143.533 188.036 143.08C188.409 142.613 188.882 142.26 189.456 142.02C190.042 141.767 190.742 141.64 191.556 141.64C192.222 141.64 192.862 141.78 193.476 142.06C194.102 142.34 194.562 142.74 194.856 143.26H194.896V141.8ZM191.736 143.16C190.749 143.16 190.009 143.453 189.516 144.04C189.036 144.627 188.796 145.573 188.796 146.88C188.796 148.027 189.036 148.913 189.516 149.54C190.009 150.167 190.736 150.48 191.696 150.48C192.709 150.48 193.482 150.153 194.016 149.5C194.549 148.833 194.816 147.973 194.816 146.92C194.816 145.787 194.562 144.88 194.056 144.2C193.562 143.507 192.789 143.16 191.736 143.16ZM205.573 155.2C205.92 154.907 206.273 154.527 206.633 154.06C207.006 153.607 207.28 153.12 207.453 152.6L207.533 152.32L203.353 141.8H205.173L208.413 150.2L211.133 141.8H212.833L209.093 152.62C208.973 152.993 208.82 153.367 208.633 153.74C208.446 154.113 208.246 154.46 208.033 154.78C207.833 155.113 207.613 155.407 207.373 155.66C207.146 155.927 206.926 156.14 206.713 156.3L205.573 155.2ZM219.036 150.64C220.036 150.64 220.783 150.34 221.276 149.74C221.783 149.127 222.036 148.18 222.036 146.9C222.036 145.633 221.803 144.693 221.336 144.08C220.883 143.467 220.116 143.16 219.036 143.16C218.076 143.16 217.336 143.467 216.816 144.08C216.296 144.693 216.036 145.633 216.036 146.9C216.036 148.193 216.303 149.14 216.836 149.74C217.383 150.34 218.116 150.64 219.036 150.64ZM219.036 152.16C217.436 152.16 216.236 151.713 215.436 150.82C214.636 149.913 214.236 148.607 214.236 146.9C214.236 145.233 214.643 143.94 215.456 143.02C216.283 142.1 217.476 141.64 219.036 141.64C220.636 141.64 221.836 142.087 222.636 142.98C223.436 143.873 223.836 145.18 223.836 146.9C223.836 147.713 223.73 148.447 223.516 149.1C223.303 149.753 222.99 150.307 222.576 150.76C222.176 151.213 221.676 151.56 221.076 151.8C220.476 152.04 219.796 152.16 219.036 152.16ZM226.538 141.8H228.218V147.08C228.218 147.76 228.258 148.327 228.338 148.78C228.418 149.233 228.551 149.6 228.738 149.88C228.925 150.16 229.178 150.36 229.498 150.48C229.831 150.587 230.238 150.64 230.718 150.64C231.758 150.64 232.511 150.273 232.978 149.54C233.445 148.807 233.678 147.8 233.678 146.52V141.8H235.358V152H233.678V150.54H233.638C233.251 151.1 232.771 151.513 232.198 151.78C231.638 152.033 231.025 152.16 230.358 152.16C229.025 152.16 228.051 151.827 227.438 151.16C226.838 150.48 226.538 149.38 226.538 147.86V141.8ZM240.432 152H238.752V141.8H240.312V143.46H240.352C240.885 142.247 241.792 141.64 243.072 141.64C243.205 141.64 243.392 141.653 243.632 141.68C243.872 141.707 244.079 141.74 244.252 141.78V143.38C244.065 143.313 243.885 143.267 243.712 143.24C243.539 143.213 243.372 143.2 243.212 143.2C242.665 143.2 242.212 143.293 241.852 143.48C241.505 143.653 241.225 143.92 241.012 144.28C240.799 144.627 240.645 145.06 240.552 145.58C240.472 146.1 240.432 146.693 240.432 147.36V152ZM99.6666 177.64C99.4399 177.747 99.1066 177.86 98.6666 177.98C98.2266 178.1 97.6066 178.16 96.8066 178.16C95.9399 178.16 95.1866 178.04 94.5466 177.8C93.9199 177.547 93.3932 177.187 92.9666 176.72C92.5532 176.253 92.2399 175.693 92.0266 175.04C91.8266 174.387 91.7266 173.647 91.7266 172.82C91.7266 171.18 92.1666 169.907 93.0466 169C93.9399 168.093 95.1732 167.64 96.7466 167.64C97.4932 167.64 98.0732 167.7 98.4866 167.82C98.8999 167.927 99.2399 168.013 99.5066 168.08L99.1866 169.52C98.9332 169.44 98.6266 169.36 98.2666 169.28C97.9066 169.2 97.4732 169.16 96.9666 169.16C95.8999 169.16 95.0599 169.447 94.4466 170.02C93.8332 170.58 93.5266 171.46 93.5266 172.66C93.5266 174.033 93.8532 175.04 94.5066 175.68C95.1599 176.32 96.0932 176.64 97.3066 176.64C97.7066 176.64 98.0866 176.6 98.4466 176.52C98.8199 176.44 99.1266 176.347 99.3666 176.24L99.6666 177.64ZM106.043 176.64C107.043 176.64 107.79 176.34 108.283 175.74C108.79 175.127 109.043 174.18 109.043 172.9C109.043 171.633 108.81 170.693 108.343 170.08C107.89 169.467 107.123 169.16 106.043 169.16C105.083 169.16 104.343 169.467 103.823 170.08C103.303 170.693 103.043 171.633 103.043 172.9C103.043 174.193 103.31 175.14 103.843 175.74C104.39 176.34 105.123 176.64 106.043 176.64ZM106.043 178.16C104.443 178.16 103.243 177.713 102.443 176.82C101.643 175.913 101.243 174.607 101.243 172.9C101.243 171.233 101.65 169.94 102.463 169.02C103.29 168.1 104.483 167.64 106.043 167.64C107.643 167.64 108.843 168.087 109.643 168.98C110.443 169.873 110.843 171.18 110.843 172.9C110.843 173.713 110.736 174.447 110.523 175.1C110.31 175.753 109.996 176.307 109.583 176.76C109.183 177.213 108.683 177.56 108.083 177.8C107.483 178.04 106.803 178.16 106.043 178.16ZM127.285 178H125.605V171.92C125.605 171.507 125.578 171.133 125.525 170.8C125.485 170.453 125.391 170.16 125.245 169.92C125.111 169.68 124.925 169.493 124.685 169.36C124.445 169.227 124.125 169.16 123.725 169.16C123.231 169.16 122.825 169.26 122.505 169.46C122.198 169.647 121.951 169.913 121.765 170.26C121.591 170.593 121.471 170.987 121.405 171.44C121.338 171.88 121.305 172.353 121.305 172.86V178H119.625V171.92C119.625 171.533 119.598 171.173 119.545 170.84C119.505 170.507 119.411 170.213 119.265 169.96C119.131 169.707 118.945 169.513 118.705 169.38C118.465 169.233 118.145 169.16 117.745 169.16C117.251 169.16 116.845 169.253 116.525 169.44C116.218 169.613 115.971 169.867 115.785 170.2C115.611 170.52 115.491 170.907 115.425 171.36C115.358 171.813 115.325 172.313 115.325 172.86V178H113.645V167.8H115.205V169.28H115.245C115.578 168.72 115.991 168.307 116.485 168.04C116.991 167.773 117.565 167.64 118.205 167.64C118.898 167.64 119.471 167.8 119.925 168.12C120.391 168.427 120.731 168.94 120.945 169.66C121.291 168.993 121.718 168.493 122.225 168.16C122.745 167.813 123.378 167.64 124.125 167.64C125.298 167.64 126.118 167.967 126.585 168.62C127.051 169.273 127.285 170.22 127.285 171.46V178ZM132.263 182.2H130.583V167.8H132.183V169.26H132.223C132.476 168.9 132.756 168.613 133.063 168.4C133.383 168.173 133.696 168.007 134.003 167.9C134.323 167.793 134.623 167.727 134.903 167.7C135.183 167.66 135.416 167.64 135.603 167.64C136.403 167.64 137.083 167.767 137.643 168.02C138.216 168.26 138.683 168.607 139.043 169.06C139.403 169.5 139.663 170.04 139.823 170.68C139.996 171.32 140.083 172.033 140.083 172.82C140.083 173.567 139.996 174.267 139.823 174.92C139.649 175.56 139.383 176.12 139.023 176.6C138.663 177.08 138.203 177.46 137.643 177.74C137.096 178.02 136.449 178.16 135.703 178.16C135.383 178.16 135.063 178.133 134.743 178.08C134.423 178.027 134.109 177.94 133.803 177.82C133.509 177.7 133.229 177.547 132.963 177.36C132.709 177.173 132.489 176.94 132.303 176.66H132.263V182.2ZM135.323 176.64C136.376 176.64 137.129 176.307 137.583 175.64C138.049 174.96 138.283 174 138.283 172.76C138.283 172.187 138.229 171.673 138.123 171.22C138.029 170.767 137.863 170.393 137.623 170.1C137.396 169.793 137.089 169.56 136.703 169.4C136.329 169.24 135.856 169.16 135.283 169.16C134.296 169.16 133.543 169.507 133.023 170.2C132.516 170.893 132.263 171.8 132.263 172.92C132.263 174.053 132.516 174.96 133.023 175.64C133.543 176.307 134.309 176.64 135.323 176.64ZM148.472 173.2C147.899 173.227 147.339 173.267 146.792 173.32C146.259 173.373 145.779 173.473 145.352 173.62C144.926 173.753 144.579 173.947 144.312 174.2C144.059 174.44 143.932 174.76 143.932 175.16C143.932 175.573 144.072 175.927 144.352 176.22C144.646 176.5 145.106 176.64 145.732 176.64C146.532 176.64 147.186 176.393 147.692 175.9C148.212 175.407 148.472 174.68 148.472 173.72V173.2ZM150.152 178H148.672V176.14H148.632C148.526 176.42 148.359 176.687 148.132 176.94C147.919 177.18 147.666 177.393 147.372 177.58C147.079 177.753 146.752 177.893 146.392 178C146.032 178.107 145.659 178.16 145.272 178.16C144.806 178.16 144.379 178.087 143.992 177.94C143.606 177.793 143.272 177.593 142.992 177.34C142.726 177.073 142.512 176.767 142.352 176.42C142.206 176.073 142.132 175.7 142.132 175.3C142.132 174.62 142.312 174.067 142.672 173.64C143.032 173.213 143.506 172.88 144.092 172.64C144.692 172.387 145.372 172.213 146.132 172.12C146.892 172.013 147.672 171.94 148.472 171.9V171.38C148.472 170.633 148.292 170.08 147.932 169.72C147.586 169.347 146.972 169.16 146.092 169.16C145.599 169.16 145.072 169.227 144.512 169.36C143.952 169.48 143.472 169.64 143.072 169.84L142.772 168.46C143.186 168.233 143.706 168.04 144.332 167.88C144.959 167.72 145.606 167.64 146.272 167.64C147.032 167.64 147.659 167.733 148.152 167.92C148.659 168.093 149.059 168.353 149.352 168.7C149.646 169.047 149.852 169.48 149.972 170C150.092 170.52 150.152 171.12 150.152 171.8V178ZM162.264 178H160.584V172.72C160.584 172.04 160.544 171.473 160.464 171.02C160.384 170.567 160.25 170.2 160.064 169.92C159.877 169.64 159.617 169.447 159.284 169.34C158.964 169.22 158.564 169.16 158.084 169.16C157.044 169.16 156.29 169.527 155.824 170.26C155.357 170.993 155.124 172 155.124 173.28V178H153.444V167.8H155.124V169.26H155.164C155.55 168.7 156.024 168.293 156.584 168.04C157.157 167.773 157.777 167.64 158.444 167.64C159.777 167.64 160.744 167.98 161.344 168.66C161.957 169.327 162.264 170.42 162.264 171.94V178ZM166.358 181.2C166.704 180.907 167.058 180.527 167.418 180.06C167.791 179.607 168.064 179.12 168.238 178.6L168.318 178.32L164.138 167.8H165.958L169.198 176.2L171.918 167.8H173.618L169.878 178.62C169.758 178.993 169.604 179.367 169.418 179.74C169.231 180.113 169.031 180.46 168.818 180.78C168.618 181.113 168.398 181.407 168.158 181.66C167.931 181.927 167.711 182.14 167.498 182.3L166.358 181.2ZM176.017 168.64C176.657 168.4 177.144 168.113 177.477 167.78C177.811 167.433 178.017 166.98 178.097 166.42C177.551 166.42 177.177 166.287 176.977 166.02C176.777 165.74 176.677 165.427 176.677 165.08C176.677 164.707 176.791 164.4 177.017 164.16C177.244 163.92 177.597 163.8 178.077 163.8C178.517 163.8 178.864 163.96 179.117 164.28C179.384 164.587 179.517 165.087 179.517 165.78C179.517 166.167 179.464 166.56 179.357 166.96C179.264 167.347 179.104 167.72 178.877 168.08C178.651 168.427 178.344 168.747 177.957 169.04C177.584 169.32 177.117 169.54 176.557 169.7L176.017 168.64ZM182.474 176.04C182.981 176.307 183.441 176.473 183.854 176.54C184.281 176.607 184.648 176.64 184.954 176.64C185.541 176.64 185.994 176.513 186.314 176.26C186.634 176.007 186.794 175.613 186.794 175.08C186.794 174.733 186.681 174.46 186.454 174.26C186.228 174.047 185.941 173.867 185.594 173.72C185.248 173.56 184.874 173.413 184.474 173.28C184.088 173.133 183.721 172.947 183.374 172.72C183.028 172.493 182.741 172.207 182.514 171.86C182.288 171.513 182.174 171.06 182.174 170.5C182.174 169.647 182.481 168.96 183.094 168.44C183.708 167.907 184.601 167.64 185.774 167.64C186.441 167.64 186.974 167.7 187.374 167.82C187.788 167.94 188.068 168.04 188.214 168.12L187.914 169.5C187.621 169.393 187.288 169.313 186.914 169.26C186.554 169.193 186.174 169.16 185.774 169.16C185.268 169.16 184.841 169.253 184.494 169.44C184.148 169.613 183.974 169.92 183.974 170.36C183.974 170.707 184.088 170.98 184.314 171.18C184.541 171.367 184.828 171.533 185.174 171.68C185.521 171.827 185.888 171.973 186.274 172.12C186.674 172.253 187.048 172.44 187.394 172.68C187.741 172.92 188.028 173.233 188.254 173.62C188.481 173.993 188.594 174.487 188.594 175.1C188.594 175.633 188.501 176.093 188.314 176.48C188.141 176.867 187.888 177.187 187.554 177.44C187.221 177.68 186.828 177.86 186.374 177.98C185.921 178.1 185.428 178.16 184.894 178.16C184.281 178.16 183.754 178.1 183.314 177.98C182.888 177.847 182.501 177.7 182.154 177.54L182.474 176.04ZM195.863 176.04C196.369 176.307 196.829 176.473 197.243 176.54C197.669 176.607 198.036 176.64 198.343 176.64C198.929 176.64 199.383 176.513 199.702 176.26C200.023 176.007 200.183 175.613 200.183 175.08C200.183 174.733 200.069 174.46 199.842 174.26C199.616 174.047 199.329 173.867 198.983 173.72C198.636 173.56 198.263 173.413 197.863 173.28C197.476 173.133 197.109 172.947 196.763 172.72C196.416 172.493 196.129 172.207 195.903 171.86C195.676 171.513 195.563 171.06 195.563 170.5C195.563 169.647 195.869 168.96 196.483 168.44C197.096 167.907 197.989 167.64 199.163 167.64C199.829 167.64 200.363 167.7 200.763 167.82C201.176 167.94 201.456 168.04 201.603 168.12L201.303 169.5C201.009 169.393 200.676 169.313 200.303 169.26C199.943 169.193 199.563 169.16 199.163 169.16C198.656 169.16 198.229 169.253 197.883 169.44C197.536 169.613 197.363 169.92 197.363 170.36C197.363 170.707 197.476 170.98 197.703 171.18C197.929 171.367 198.216 171.533 198.563 171.68C198.909 171.827 199.276 171.973 199.663 172.12C200.063 172.253 200.436 172.44 200.783 172.68C201.129 172.92 201.416 173.233 201.643 173.62C201.869 173.993 201.983 174.487 201.983 175.1C201.983 175.633 201.889 176.093 201.703 176.48C201.529 176.867 201.276 177.187 200.943 177.44C200.609 177.68 200.216 177.86 199.763 177.98C199.309 178.1 198.816 178.16 198.283 178.16C197.669 178.16 197.143 178.1 196.703 177.98C196.276 177.847 195.889 177.7 195.543 177.54L195.863 176.04ZM209.747 169.32H206.927V174.82C206.927 175.447 207.041 175.907 207.267 176.2C207.494 176.493 207.934 176.64 208.587 176.64C208.774 176.64 208.954 176.627 209.127 176.6C209.314 176.56 209.494 176.5 209.667 176.42L209.927 177.76C209.661 177.893 209.374 177.993 209.067 178.06C208.761 178.127 208.481 178.16 208.227 178.16C207.187 178.16 206.427 177.92 205.947 177.44C205.481 176.947 205.247 176.2 205.247 175.2V169.32H203.227V167.8H205.247V165.64L206.927 165.04V167.8H209.747V169.32ZM217.767 173.2C217.194 173.227 216.634 173.267 216.087 173.32C215.554 173.373 215.074 173.473 214.647 173.62C214.221 173.753 213.874 173.947 213.607 174.2C213.354 174.44 213.227 174.76 213.227 175.16C213.227 175.573 213.367 175.927 213.647 176.22C213.941 176.5 214.401 176.64 215.027 176.64C215.827 176.64 216.481 176.393 216.987 175.9C217.507 175.407 217.767 174.68 217.767 173.72V173.2ZM219.447 178H217.967V176.14H217.927C217.821 176.42 217.654 176.687 217.427 176.94C217.214 177.18 216.961 177.393 216.667 177.58C216.374 177.753 216.047 177.893 215.687 178C215.327 178.107 214.954 178.16 214.567 178.16C214.101 178.16 213.674 178.087 213.287 177.94C212.901 177.793 212.567 177.593 212.287 177.34C212.021 177.073 211.807 176.767 211.647 176.42C211.501 176.073 211.427 175.7 211.427 175.3C211.427 174.62 211.607 174.067 211.967 173.64C212.327 173.213 212.801 172.88 213.387 172.64C213.987 172.387 214.667 172.213 215.427 172.12C216.187 172.013 216.967 171.94 217.767 171.9V171.38C217.767 170.633 217.587 170.08 217.227 169.72C216.881 169.347 216.267 169.16 215.387 169.16C214.894 169.16 214.367 169.227 213.807 169.36C213.247 169.48 212.767 169.64 212.367 169.84L212.067 168.46C212.481 168.233 213.001 168.04 213.627 167.88C214.254 167.72 214.901 167.64 215.567 167.64C216.327 167.64 216.954 167.733 217.447 167.92C217.954 168.093 218.354 168.353 218.647 168.7C218.941 169.047 219.147 169.48 219.267 170C219.387 170.52 219.447 171.12 219.447 171.8V178ZM227.999 169.32H225.179V174.82C225.179 175.447 225.292 175.907 225.519 176.2C225.746 176.493 226.186 176.64 226.839 176.64C227.026 176.64 227.206 176.627 227.379 176.6C227.566 176.56 227.746 176.5 227.919 176.42L228.179 177.76C227.912 177.893 227.626 177.993 227.319 178.06C227.012 178.127 226.732 178.16 226.479 178.16C225.439 178.16 224.679 177.92 224.199 177.44C223.732 176.947 223.499 176.2 223.499 175.2V169.32H221.479V167.8H223.499V165.64L225.179 165.04V167.8H227.999V169.32ZM230.339 167.8H232.019V173.08C232.019 173.76 232.059 174.327 232.139 174.78C232.219 175.233 232.352 175.6 232.539 175.88C232.726 176.16 232.979 176.36 233.299 176.48C233.632 176.587 234.039 176.64 234.519 176.64C235.559 176.64 236.312 176.273 236.779 175.54C237.246 174.807 237.479 173.8 237.479 172.52V167.8H239.159V178H237.479V176.54H237.439C237.052 177.1 236.572 177.513 235.999 177.78C235.439 178.033 234.826 178.16 234.159 178.16C232.826 178.16 231.852 177.827 231.239 177.16C230.639 176.48 230.339 175.38 230.339 173.86V167.8ZM242.253 176.04C242.76 176.307 243.22 176.473 243.633 176.54C244.06 176.607 244.426 176.64 244.733 176.64C245.32 176.64 245.773 176.513 246.093 176.26C246.413 176.007 246.573 175.613 246.573 175.08C246.573 174.733 246.46 174.46 246.233 174.26C246.006 174.047 245.72 173.867 245.373 173.72C245.026 173.56 244.653 173.413 244.253 173.28C243.866 173.133 243.5 172.947 243.153 172.72C242.806 172.493 242.52 172.207 242.293 171.86C242.066 171.513 241.953 171.06 241.953 170.5C241.953 169.647 242.26 168.96 242.873 168.44C243.486 167.907 244.38 167.64 245.553 167.64C246.22 167.64 246.753 167.7 247.153 167.82C247.566 167.94 247.846 168.04 247.993 168.12L247.693 169.5C247.4 169.393 247.066 169.313 246.693 169.26C246.333 169.193 245.953 169.16 245.553 169.16C245.046 169.16 244.62 169.253 244.273 169.44C243.926 169.613 243.753 169.92 243.753 170.36C243.753 170.707 243.866 170.98 244.093 171.18C244.32 171.367 244.606 171.533 244.953 171.68C245.3 171.827 245.666 171.973 246.053 172.12C246.453 172.253 246.826 172.44 247.173 172.68C247.52 172.92 247.806 173.233 248.033 173.62C248.26 173.993 248.373 174.487 248.373 175.1C248.373 175.633 248.28 176.093 248.093 176.48C247.92 176.867 247.666 177.187 247.333 177.44C247 177.68 246.606 177.86 246.153 177.98C245.7 178.1 245.206 178.16 244.673 178.16C244.06 178.16 243.533 178.1 243.093 177.98C242.666 177.847 242.28 177.7 241.933 177.54L242.253 176.04Z" fill="#00097F"/>
</g>
<defs>
<filter id="filter0_f_1921_7191" x="170" y="167" width="212" height="212" filterUnits="userSpaceOnUse" color-interpolation-filters="sRGB">
<feFlood flood-opacity="0" result="BackgroundImageFix"/>
<feBlend mode="normal" in="SourceGraphic" in2="BackgroundImageFix" result="shape"/>
<feGaussianBlur stdDeviation="20" result="effect1_foregroundBlur_1921_7191"/>
</filter>
<filter id="filter1_f_1921_7191" x="-90" y="252" width="244" height="244" filterUnits="userSpaceOnUse" color-interpolation-filters="sRGB">
<feFlood flood-opacity="0" result="BackgroundImageFix"/>
<feBlend mode="normal" in="SourceGraphic" in2="BackgroundImageFix" result="shape"/>
<feGaussianBlur stdDeviation="16" result="effect1_foregroundBlur_1921_7191"/>
</filter>
<linearGradient id="paint0_linear_1921_7191" x1="8.41158" y1="10.2273" x2="360.943" y2="474.21" gradientUnits="userSpaceOnUse">
<stop offset="0.311177" stop-color="white"/>
<stop offset="0.929333" stop-color="#39E7FF"/>
</linearGradient>
<linearGradient id="paint1_linear_1921_7191" x1="164.026" y1="282.955" x2="-15.4924" y2="486.325" gradientUnits="userSpaceOnUse">
<stop stop-color="white"/>
<stop offset="1" stop-color="#567BFF"/>
</linearGradient>
<radialGradient id="paint2_radial_1921_7191" cx="0" cy="0" r="1" gradientUnits="userSpaceOnUse" gradientTransform="translate(276 273) rotate(90) scale(66)">
<stop offset="0.116317" stop-color="#39E7FF"/>
<stop offset="0.928823" stop-color="#CDFF64" stop-opacity="0.5"/>
</radialGradient>
<radialGradient id="paint3_radial_1921_7191" cx="0" cy="0" r="1" gradientUnits="userSpaceOnUse" gradientTransform="translate(32 374) rotate(90) scale(90)">
<stop offset="0.173729" stop-color="#A5B9FF"/>
<stop offset="0.798613" stop-color="#FFDFFC"/>
</radialGradient>
<clipPath id="clip0_1921_7191">
<rect width="327" height="500" fill="white" transform="matrix(1 0 0 -1 0 500)"/>
</clipPath>
</defs>
</svg>
