<svg width="256" height="256" viewBox="0 0 256 256" fill="none" xmlns="http://www.w3.org/2000/svg">
<g clip-path="url(#clip0_1852_4474)">
<path d="M256 128C256 57.3075 198.692 0 128 0C57.3075 0 0 57.3075 0 128C0 198.692 57.3075 256 128 256C198.692 256 256 198.692 256 128Z" fill="white"/>
<path d="M127.998 109.653C117.915 109.653 109.711 117.861 109.711 127.944C109.711 138.031 117.915 146.235 127.998 146.235C138.085 146.235 146.289 138.031 146.289 127.944C146.289 117.862 138.085 109.653 127.998 109.653Z" fill="#002DCC"/>
<path d="M232.519 130.206C232.659 123.873 229.936 117.781 224.426 112.099C224.426 112.096 224.426 112.085 224.426 112.085C224.426 106.683 220.033 102.29 214.628 102.29C213.713 102.29 212.807 102.415 211.929 102.675C208.55 100.724 204.851 98.911 200.914 97.2663C198.291 96.1727 195.315 95.0784 191.878 93.9411C199.23 67.3159 196.542 47.6977 184.393 39.914C171.662 31.7381 150.597 38.9461 127.999 59.4575C105.408 38.9574 84.3638 31.7208 71.6036 39.914C63.8742 44.8654 59.894 54.6643 60.0455 68.3096C57.6274 70.1409 56.1739 72.995 56.1739 76.0748C56.1739 79.9649 58.4696 83.4118 61.9278 84.9772C62.3486 87.0354 62.8739 89.263 63.5222 91.7208C38.3334 99.3496 23.7882 111.649 23.4826 125.679C23.2053 138.288 34.4293 149.99 55.0803 158.616C57.7181 159.724 60.7118 160.822 64.1739 161.962C63.1987 165.442 62.4465 168.536 61.8815 171.379C57.5275 193.334 60.9817 209.17 71.6082 215.982C84.4081 224.158 105.426 216.925 128.003 196.428C144.329 211.246 159.914 219.383 172.063 219.39C176.712 219.39 180.861 218.245 184.402 215.979C195.025 209.17 198.475 193.334 194.122 171.379C193.693 169.224 193.139 166.849 192.441 164.19C217.65 156.554 232.213 144.248 232.519 130.206ZM76.9221 207.663C70.1573 203.33 68.1494 190.48 71.5566 173.294C72.0568 170.779 72.7336 167.99 73.6188 164.823C83.0035 167.328 93.2662 169.213 104.195 170.429C109.607 177.389 115.203 183.808 120.859 189.559C102.64 205.962 85.4938 213.147 76.9221 207.663ZM76.9221 48.2197C85.4686 42.7715 102.64 49.9253 120.859 66.3308C115.443 71.8326 110.089 77.9358 104.921 84.5141C93.5718 85.3311 82.9096 86.8852 73.1616 89.1525C72.7118 87.3893 72.2983 85.6295 71.9205 83.8267C74.3062 81.9987 75.7597 79.1379 75.7597 76.0754C75.7597 72.1747 73.4276 68.6987 69.988 67.1406C69.9913 60.1522 71.3125 51.8141 76.9221 48.2197ZM76.5014 155.389C78.3763 149.962 80.6105 144.406 83.1729 138.803C85.638 143.186 88.2321 147.508 90.9201 151.7C92.5463 154.244 94.2486 156.792 96.0621 159.394C89.1213 158.329 82.5715 156.99 76.5014 155.389ZM90.9241 104.186C88.2215 108.407 85.6347 112.707 83.2093 117.018C80.4312 110.876 78.0277 104.758 76.023 98.7344C82.5867 97.2233 89.593 96.039 96.9552 95.2008C94.8679 98.1694 92.8527 101.178 90.9241 104.186ZM88.5669 127.911C91.8953 121.549 95.4792 115.37 99.2324 109.508C102.478 104.442 106.106 99.2636 110.02 94.0893C116.202 93.744 122.428 93.6394 128.739 93.7837C134.691 93.9133 140.672 94.2514 146.516 94.8018C150.226 99.7426 153.673 104.679 156.768 109.505C160.518 115.364 164.105 121.553 167.43 127.911C164.065 134.367 160.481 140.574 156.768 146.375C153.504 151.467 149.884 156.645 145.983 161.791C139.805 162.129 133.586 162.23 127.257 162.093C121.32 161.971 115.346 161.629 109.48 161.078C105.763 156.134 102.323 151.189 99.2324 146.375C95.5229 140.585 91.9383 134.377 88.5669 127.911ZM159.039 160.685C161.13 157.702 163.156 154.697 165.074 151.7C167.765 147.497 170.363 143.176 172.821 138.797C175.635 144.978 178.067 151.114 180.065 157.127C173.476 158.652 166.434 159.843 159.039 160.685ZM165.074 104.186C163.429 101.617 161.727 99.0691 159.928 96.4889C166.822 97.5468 173.35 98.8819 179.42 100.48C177.545 105.895 175.325 111.437 172.788 117.021C170.37 112.722 167.787 108.425 165.074 104.186ZM182.303 91.0413C172.914 88.5405 162.669 86.6695 151.802 85.4568C146.39 78.4975 140.798 72.0781 135.138 66.3348C153.357 49.9292 170.543 42.7754 179.078 48.2236C187.125 53.3794 188.294 69.2954 182.303 91.0413ZM128.956 83.916C127.052 83.8763 125.156 83.8551 123.277 83.8551C121.572 83.8551 119.877 83.8697 118.196 83.9054C121.417 80.1343 124.695 76.5538 128.006 73.2035C131.449 76.6973 134.85 80.4109 138.161 84.3083C134.915 84.1105 131.867 83.9848 128.956 83.916ZM66.3029 101.307C69.0915 109.749 72.8414 118.699 77.458 127.965C73.2477 136.436 69.7538 144.683 67.0624 152.528C63.9463 151.498 61.2582 150.502 58.8798 149.512C42.7118 142.758 33.165 133.931 33.3449 125.892C33.5428 116.626 45.81 107.518 66.3029 101.307ZM127.048 171.967C130.672 172.042 134.27 172.05 137.808 171.977C134.587 175.749 131.306 179.332 127.999 182.69C124.566 179.21 121.165 175.496 117.84 171.578C121.129 171.776 124.137 171.902 127.048 171.967ZM151.076 171.377C162.429 170.564 173.116 169.002 182.904 166.72C183.541 169.156 184.049 171.319 184.444 173.299C187.852 190.478 185.852 203.328 179.086 207.664C170.522 213.148 153.361 205.951 135.142 189.564C140.55 184.068 145.897 177.969 151.076 171.377ZM189.615 154.597C186.79 146.022 183.073 137.083 178.535 127.958C182.731 119.541 186.236 111.286 188.956 103.369C192.09 104.41 194.728 105.381 197.114 106.374C199.917 107.551 202.573 108.814 205.041 110.142C204.904 110.783 204.836 111.43 204.836 112.082C204.836 117.48 209.234 121.874 214.628 121.874C216.146 121.874 217.629 121.518 218.968 120.844C221.483 123.957 222.721 127.026 222.653 129.995C222.462 139.268 210.166 148.379 189.615 154.597Z" fill="#002DCC"/>
</g>
<defs>
<clipPath id="clip0_1852_4474">
<rect width="256" height="256" fill="white"/>
</clipPath>
</defs>
</svg>
