<svg width="280" height="86" viewBox="0 0 280 86" fill="none" xmlns="http://www.w3.org/2000/svg">
<path d="M48.9292 48.7503C45.6705 52.4175 40.1081 52.6968 36.5089 49.3784C32.9098 46.0586 32.6334 40.3896 35.8872 36.7239C39.1457 33.0599 44.7053 32.7823 48.3089 36.1021C51.9097 39.4189 52.1861 45.0831 48.9292 48.7503Z" fill="#384046"/>
<path d="M22.0358 43.0479C22.0358 43.0479 26.9361 40.5163 29.7712 29.2546C32.608 17.9958 43.1819 12.7583 43.1819 12.7583C43.1819 12.7583 20.4877 -10.1127 3.29688 25.7649C3.29688 25.7649 17.3089 28.5566 22.0358 43.0479Z" fill="#384046"/>
<path d="M24.0938 3.94474C24.0938 3.94474 41.5862 0.451954 51.9428 22.7093C51.9428 22.7093 64.021 26.6826 74.637 15.2891C74.637 15.2891 56.8869 -9.36964 24.0938 3.94474Z" fill="#384046"/>
<path d="M52.6304 59.9131C52.6304 59.9131 48.0207 56.8709 37.0001 60.0084C25.981 63.149 16.2243 56.4712 16.2243 56.4712C16.2243 56.4712 8.07633 87.8663 47.2677 85.0366C47.2677 85.0366 42.6392 71.3178 52.6304 59.9131Z" fill="#384046"/>
<path d="M18.2562 77.6617C18.2562 77.6617 6.52944 64.0254 20.3243 43.7842C20.3243 43.7842 17.6719 31.1773 2.64607 27.5417C2.64607 27.5417 -9.50082 55.4838 18.2562 77.6617Z" fill="#384046"/>
<path d="M51.7649 24.7055C51.7649 24.7055 51.4774 30.2826 59.6645 38.4038C67.853 46.5234 67.0406 58.4403 67.0406 58.4403C67.0406 58.4403 97.8857 49.9036 75.8712 16.8572C75.8712 16.8556 66.4891 27.7891 51.7649 24.7055Z" fill="#384046"/>
<path d="M84.0937 46.0623C84.0937 46.0623 78.3327 63.193 54.1702 61.1847C54.1702 61.1847 44.7492 69.8231 49.1637 84.8553C49.1621 84.8569 79.0669 81.5609 84.0937 46.0623Z" fill="#384046"/>
<path d="M98.0021 7.87012H97.1289V77.1225H98.0021V7.87012Z" fill="#384046"/>
<path d="M116.906 25.3962C116.538 24.7966 116.228 24.278 115.973 23.8433C115.72 23.4087 115.509 23.0534 115.34 22.7774C115.17 22.5013 115.01 22.2872 114.86 22.1334C114.709 21.9796 114.545 21.8733 114.37 21.8113C114.195 21.7496 113.982 21.7194 113.729 21.7194H112.534V27.5263H110.904V14.6658H112.534V20.5091H113.603L118.072 14.6658H120.153L115.285 20.5821C115.635 20.644 115.943 20.8184 116.207 21.1056C116.473 21.3943 116.775 21.8162 117.113 22.373C117.45 22.9297 117.87 23.6355 118.37 24.4858C118.87 25.3375 119.531 26.351 120.35 27.5263H118.287C117.735 26.708 117.273 25.9974 116.906 25.3962Z" fill="#384046"/>
<path d="M128.245 27.708C127.364 27.708 126.57 27.5541 125.865 27.248C125.159 26.9419 124.556 26.5041 124.056 25.9347C123.555 25.3652 123.173 24.6705 122.906 23.8488C122.642 23.0289 122.508 22.1089 122.508 21.0921C122.508 20.0627 122.648 19.1411 122.925 18.3258C123.203 17.5121 123.593 16.8189 124.092 16.2495C124.592 15.68 125.193 15.2423 125.893 14.9361C126.593 14.63 127.359 14.4761 128.192 14.4761C129.131 14.4761 129.961 14.638 130.68 14.9631C131.396 15.2883 132.002 15.742 132.489 16.3224C132.977 16.9046 133.348 17.6025 133.6 18.4178C133.853 19.2331 133.98 20.1244 133.98 21.0921C133.98 22.1818 133.836 23.1414 133.546 23.9678C133.258 24.7941 132.859 25.4841 132.35 26.0346C131.845 26.5866 131.24 27.0022 130.542 27.2844C129.843 27.5668 129.077 27.708 128.245 27.708ZM128.406 26.1647C129.602 26.1647 130.539 25.7396 131.22 24.8878C131.902 24.0361 132.243 22.7718 132.243 21.0937C132.243 20.2118 132.149 19.4519 131.962 18.8159C131.774 18.1783 131.506 17.6517 131.156 17.2361C130.806 16.8189 130.381 16.5128 129.88 16.3177C129.378 16.1211 128.815 16.0227 128.189 16.0227C127.634 16.0227 127.114 16.1274 126.633 16.3352C126.149 16.543 125.734 16.8553 125.384 17.2725C125.034 17.6897 124.756 18.2164 124.552 18.8524C124.348 19.49 124.243 20.2371 124.243 21.0937C124.243 21.9392 124.343 22.6799 124.542 23.3175C124.74 23.9552 125.021 24.4849 125.384 24.9068C125.746 25.3303 126.184 25.6444 126.696 25.8537C127.209 26.06 127.778 26.1647 128.406 26.1647Z" fill="#384046"/>
<path d="M140.135 27.528H138.506V14.6658H142.232C142.956 14.6658 143.604 14.7418 144.178 14.8956C144.751 15.0496 145.241 15.2906 145.651 15.6221C146.062 15.9537 146.375 16.3693 146.593 16.8721C146.81 17.3749 146.918 17.9744 146.918 18.6724C146.918 20.008 146.493 21.0278 145.641 21.7321C144.79 22.4363 143.606 22.7886 142.085 22.7886H140.135V27.528ZM140.135 21.2436H142.09C143.103 21.2436 143.872 21.0358 144.396 20.6186C144.921 20.203 145.184 19.5655 145.184 18.7072C145.184 17.8253 144.921 17.1877 144.396 16.7959C143.872 16.4042 143.103 16.2075 142.09 16.2075H140.135V21.2436Z" fill="#384046"/>
<path d="M160.33 27.528H158.701V16.209H152.709V27.528H151.08V14.6658H160.327V27.528H160.33Z" fill="#384046"/>
<path d="M170.587 27.708C169.706 27.708 168.913 27.5541 168.209 27.248C167.502 26.9419 166.899 26.5041 166.399 25.9347C165.899 25.3652 165.515 24.6705 165.25 23.8488C164.984 23.0289 164.852 22.1089 164.852 21.0921C164.852 20.0627 164.99 19.1411 165.268 18.3258C165.547 17.5121 165.935 16.8189 166.435 16.2495C166.935 15.68 167.537 15.2423 168.237 14.9361C168.937 14.63 169.702 14.4761 170.534 14.4761C171.475 14.4761 172.304 14.638 173.022 14.9631C173.74 15.2883 174.344 15.742 174.831 16.3224C175.321 16.9046 175.691 17.6025 175.944 18.4178C176.197 19.2331 176.324 20.1244 176.324 21.0921C176.324 22.1818 176.178 23.1414 175.89 23.9678C175.6 24.7941 175.202 25.4841 174.694 26.0346C174.188 26.5866 173.584 27.0022 172.885 27.2844C172.185 27.5668 171.419 27.708 170.587 27.708ZM170.75 26.1647C171.944 26.1647 172.882 25.7396 173.563 24.8878C174.244 24.0361 174.587 22.7718 174.587 21.0937C174.587 20.2118 174.493 19.4519 174.304 18.8159C174.118 18.1783 173.849 17.6517 173.499 17.2361C173.149 16.8189 172.724 16.5128 172.222 16.3177C171.721 16.1211 171.157 16.0227 170.531 16.0227C169.977 16.0227 169.456 16.1274 168.975 16.3352C168.493 16.543 168.077 16.8553 167.727 17.2725C167.377 17.6897 167.099 18.2164 166.894 18.8524C166.69 19.49 166.587 20.2371 166.587 21.0937C166.587 21.9392 166.687 22.6799 166.885 23.3175C167.084 23.9552 167.365 24.4849 167.727 24.9068C168.09 25.3303 168.527 25.6444 169.04 25.8537C169.553 26.06 170.124 26.1647 170.75 26.1647Z" fill="#384046"/>
<path d="M182.479 27.528H180.85V14.6658H184.578C185.301 14.6658 185.948 14.7418 186.522 14.8956C187.095 15.0496 187.586 15.2906 187.997 15.6221C188.405 15.9537 188.72 16.3693 188.936 16.8721C189.154 17.3749 189.261 17.9744 189.261 18.6724C189.261 20.008 188.836 21.0278 187.986 21.7321C187.135 22.4363 185.95 22.7886 184.43 22.7886H182.476V27.528H182.479ZM182.479 21.2436H184.433C185.447 21.2436 186.216 21.0358 186.741 20.6186C187.266 20.203 187.528 19.5655 187.528 18.7072C187.528 17.8253 187.266 17.1877 186.741 16.7959C186.216 16.4042 185.447 16.2075 184.433 16.2075H182.479V21.2436Z" fill="#384046"/>
<path d="M199.454 24.0924H194.042L192.811 27.528H191.164L195.996 14.6658H197.626L202.367 27.528H200.666L199.454 24.0924ZM194.568 22.5855H198.93L196.813 16.5406H196.742L194.568 22.5855Z" fill="#384046"/>
<path d="M209.189 27.528H207.56V16.209H203.812V14.6658H212.935V16.209H209.189V27.528Z" fill="#384046"/>
<path d="M226.362 27.528H224.732V17.1639L218.579 27.528H216.732V14.6658H218.362V25.0297L224.515 14.6658H226.362V27.528Z" fill="#384046"/>
<path d="M231.43 27.5279V14.6658H235.284C236.021 14.6658 236.649 14.7418 237.166 14.8956C237.686 15.0496 238.108 15.27 238.434 15.5571C238.761 15.8443 238.994 16.1884 239.14 16.5865C239.286 16.9847 239.358 17.4225 239.358 17.8999C239.358 18.6597 239.152 19.2941 238.741 19.8018C238.331 20.3109 237.728 20.6503 236.933 20.8216V20.8581C237.837 20.993 238.521 21.3324 238.987 21.8781C239.45 22.4237 239.684 23.0883 239.684 23.8719C239.684 24.3493 239.599 24.8093 239.43 25.2503C239.262 25.6912 238.996 26.0799 238.634 26.4177C238.271 26.754 237.808 27.0235 237.24 27.2266C236.674 27.4281 235.986 27.5296 235.177 27.5296H231.43V27.5279ZM233.059 20.2158H234.796C235.34 20.2158 235.797 20.1602 236.171 20.0508C236.544 19.9397 236.846 19.7875 237.075 19.5908C237.305 19.3956 237.469 19.1593 237.574 18.8834C237.677 18.6074 237.727 18.3108 237.727 17.9919C237.727 17.4161 237.528 16.9752 237.13 16.669C236.731 16.363 236.044 16.209 235.066 16.209H233.058V20.2158H233.059ZM233.059 25.9846H235.284C237.058 25.9846 237.944 25.2868 237.944 23.8893C237.944 23.0803 237.694 22.4983 237.193 22.1446C236.691 21.7891 235.936 21.6115 234.922 21.6115H233.059V25.9846Z" fill="#384046"/>
<path d="M253.792 27.528H252.164V21.6115H245.756V27.528H244.127V14.6658H245.756V20.1047H252.164V14.6658H253.792V27.528Z" fill="#384046"/>
<path d="M265.704 24.0924H260.292L259.062 27.528H257.416L262.247 14.6658H263.876L268.617 27.528H266.916L265.704 24.0924ZM260.817 22.5855H265.179L263.063 16.5406H262.991L260.817 22.5855Z" fill="#384046"/>
<path d="M276.722 22.378C276.385 22.378 276.107 22.4082 275.89 22.4701C275.672 22.5319 275.482 22.6382 275.319 22.792C275.157 22.946 275.009 23.1473 274.876 23.398C274.743 23.6486 274.591 23.9674 274.422 24.3529C274.254 24.7383 274.057 25.192 273.835 25.7121C273.612 26.2324 273.326 26.8369 272.976 27.522H271.148C271.498 26.8479 271.813 26.1929 272.09 25.5552C272.368 24.9176 272.623 24.3401 272.857 23.8183C273.094 23.298 273.315 22.8602 273.528 22.505C273.738 22.1497 273.959 21.9164 274.188 21.807C273.935 21.7341 273.669 21.6104 273.391 21.4391C273.113 21.2677 272.86 21.0504 272.631 20.7872C272.401 20.5238 272.215 20.2019 272.07 19.8227C271.925 19.4436 271.853 19.0027 271.853 18.4998C271.853 17.8147 271.957 17.2294 272.171 16.7455C272.381 16.2617 272.685 15.8636 273.084 15.5511C273.482 15.2386 273.965 15.0119 274.532 14.8707C275.098 14.7295 275.738 14.6597 276.45 14.6597H279.998V27.522H278.369V22.3764H276.722V22.378ZM278.369 20.8347V16.2047H276.051C275.329 16.2047 274.737 16.4014 274.279 16.7932C273.819 17.185 273.591 17.767 273.591 18.5395C273.591 18.9313 273.663 19.2723 273.809 19.5594C273.954 19.8466 274.156 20.086 274.415 20.2764C274.675 20.4667 274.985 20.6079 275.347 20.6983C275.71 20.7902 276.101 20.8363 276.523 20.8363H278.369V20.8347Z" fill="#384046"/>
<path d="M119.208 46.1368H113.796L112.566 49.5725H110.92L115.751 36.7102H117.38L122.121 49.5725H120.42L119.208 46.1368ZM114.321 44.6299H118.683L116.565 38.5851H116.495L114.321 44.6299Z" fill="#384046"/>
<path d="M131.736 47.442C131.368 46.8424 131.058 46.3238 130.803 45.8891C130.551 45.4545 130.339 45.0992 130.17 44.8232C130.001 44.5473 129.84 44.333 129.69 44.1792C129.539 44.027 129.376 43.9191 129.201 43.8573C129.026 43.7954 128.812 43.7652 128.559 43.7652H127.364V49.5723H125.734V36.71H127.364V42.5535H128.433L132.902 36.71H134.983L130.115 42.6264C130.465 42.6882 130.773 42.8627 131.037 43.1498C131.303 43.4385 131.605 43.8604 131.942 44.4172C132.28 44.9739 132.701 45.6798 133.201 46.5299C133.699 47.3817 134.361 48.3952 135.183 49.5707H133.12C132.565 48.7521 132.105 48.0416 131.736 47.442Z" fill="#384046"/>
<path d="M145.897 46.1366H140.485L139.254 49.5723H137.607L142.44 36.71H144.069L148.81 49.5723H147.109L145.897 46.1366ZM141.01 44.6297H145.372L143.254 38.5848H143.184L141.01 44.6297Z" fill="#384046"/>
<path d="M163.542 52.4401H161.913V49.5738H153.426V52.4401H151.797V48.0305H153.045C153.419 47.3691 153.719 46.6552 153.941 45.8891C154.165 45.123 154.339 44.3094 154.466 43.4448C154.592 42.582 154.682 41.6842 154.737 40.753C154.792 39.822 154.831 38.8608 154.854 37.8679L154.891 36.71H162.094V48.0289H163.541V52.4401H163.542ZM160.467 48.0289V38.2533H156.395C156.395 38.2898 156.391 38.3548 156.385 38.4469C156.379 38.5388 156.376 38.6339 156.376 38.7323C156.376 38.8307 156.373 38.9226 156.366 39.0083C156.36 39.0939 156.357 39.1558 156.357 39.1923C156.322 39.9886 156.27 40.7911 156.204 41.5985C156.137 42.4074 156.041 43.1942 155.914 43.9604C155.788 44.7264 155.628 45.4545 155.435 46.1477C155.242 46.8392 155.001 47.4674 154.712 48.0305H160.467V48.0289Z" fill="#384046"/>
<path d="M174.594 49.5723H167.518V36.71H174.594V38.2533H169.147V42.1489H174.123V43.6558H169.147V48.0289H174.594V49.5723Z" fill="#384046"/>
<path d="M191.588 49.5725H189.959L189.181 39.5209L185.979 49.5725H184.278L181.092 39.5574L180.295 49.5725H178.666L179.753 36.7102H181.742L185.162 47.7721L188.509 36.7102H190.5L191.588 49.5725Z" fill="#384046"/>
<path d="M205.739 49.5723H204.109V39.2082L197.956 49.5723H196.109V36.71H197.739V47.0741L203.892 36.71H205.739V49.5723Z" fill="#384046"/>
<path d="M215.296 44.4267C214.959 44.4267 214.681 44.4569 214.464 44.5186C214.246 44.5805 214.056 44.6869 213.893 44.8407C213.731 44.9945 213.583 45.196 213.451 45.4466C213.317 45.6972 213.165 46.016 212.996 46.403C212.829 46.7885 212.631 47.2421 212.409 47.7624C212.186 48.2827 211.901 48.887 211.551 49.5723H209.723C210.073 48.8982 210.386 48.243 210.662 47.6054C210.942 46.9677 211.198 46.3904 211.431 45.8685C211.668 45.3482 211.889 44.9105 212.102 44.5551C212.312 44.1998 212.533 43.9667 212.762 43.8573C212.509 43.7842 212.243 43.6605 211.965 43.4892C211.687 43.3179 211.434 43.1007 211.205 42.8373C210.976 42.5741 210.787 42.252 210.645 41.8729C210.499 41.4938 210.427 41.0529 210.427 40.5501C210.427 39.8648 210.531 39.2795 210.745 38.7957C210.955 38.312 211.259 37.9138 211.658 37.6014C212.056 37.2889 212.539 37.062 213.106 36.9208C213.673 36.7797 214.312 36.71 215.024 36.71H218.573V49.5723H216.943V44.4267H215.296ZM216.943 42.8833V38.2533H214.626C213.904 38.2533 213.311 38.45 212.854 38.8417C212.393 39.2335 212.165 39.8157 212.165 40.5866C212.165 40.9783 212.237 41.3194 212.383 41.6064C212.529 41.8936 212.73 42.133 212.989 42.3235C213.248 42.5138 213.559 42.6533 213.921 42.7454C214.284 42.8373 214.676 42.8833 215.098 42.8833H216.943Z" fill="#384046"/>
<path d="M112.184 72.9427H110.869V62.5659H113.876C114.46 62.5659 114.984 62.6278 115.447 62.7515C115.909 62.8752 116.306 63.0703 116.635 63.3368C116.966 63.6033 117.219 63.9396 117.394 64.3456C117.569 64.7517 117.657 65.2355 117.657 65.7986C117.657 66.8756 117.313 67.6988 116.628 68.2666C115.941 68.8344 114.985 69.1184 113.759 69.1184H112.184V72.9427ZM112.184 67.8733H113.759C114.576 67.8733 115.199 67.7052 115.622 67.3689C116.044 67.0327 116.257 66.5187 116.257 65.8271C116.257 65.1149 116.044 64.6025 115.622 64.2853C115.199 63.9697 114.578 63.8111 113.759 63.8111H112.184V67.8733Z" fill="#384046"/>
<path d="M125.057 73.0869C124.345 73.0869 123.705 72.9633 123.136 72.7158C122.567 72.4699 122.08 72.1162 121.676 71.6562C121.271 71.1962 120.963 70.6364 120.748 69.9733C120.535 69.3118 120.426 68.5711 120.426 67.7494C120.426 66.9199 120.539 66.1759 120.763 65.5193C120.986 64.8627 121.299 64.3043 121.704 63.8443C122.108 63.3843 122.592 63.0322 123.157 62.7847C123.721 62.5372 124.339 62.4136 125.011 62.4136C125.77 62.4136 126.439 62.5452 127.018 62.807C127.598 63.0687 128.083 63.435 128.479 63.9046C128.873 64.3742 129.173 64.9372 129.377 65.5939C129.582 66.2521 129.683 66.9706 129.683 67.7511C129.683 68.6314 129.565 69.4039 129.333 70.07C129.099 70.7378 128.779 71.293 128.37 71.7387C127.96 72.1828 127.474 72.5191 126.91 72.7459C126.346 72.9743 125.729 73.0869 125.057 73.0869ZM125.188 71.8418C126.151 71.8418 126.907 71.4991 127.457 70.8124C128.007 70.1256 128.282 69.1056 128.282 67.7511C128.282 67.0389 128.207 66.4267 128.055 65.9127C127.904 65.3987 127.689 64.9737 127.405 64.6374C127.123 64.3011 126.78 64.0537 126.376 63.8967C125.971 63.738 125.517 63.6587 125.011 63.6587C124.563 63.6587 124.145 63.7428 123.755 63.9109C123.365 64.079 123.03 64.3312 122.748 64.6675C122.465 65.0039 122.242 65.4289 122.076 65.9428C121.91 66.4568 121.827 67.0594 121.827 67.7511C121.827 68.4331 121.907 69.0311 122.068 69.545C122.229 70.059 122.455 70.4872 122.748 70.8283C123.039 71.1693 123.392 71.4231 123.807 71.5912C124.223 71.7593 124.682 71.8418 125.188 71.8418Z" fill="#384046"/>
<path d="M140.078 72.6587C139.796 72.7983 139.465 72.903 139.085 72.9775C138.704 73.0521 138.291 73.0886 137.844 73.0886C137.046 73.0886 136.334 72.968 135.706 72.7253C135.078 72.4827 134.546 72.1352 134.107 71.68C133.669 71.2247 133.334 70.6791 133.1 70.0415C132.866 69.4039 132.75 68.6853 132.75 67.8843C132.75 67.0055 132.868 66.2236 133.1 65.5415C133.332 64.8595 133.669 64.2868 134.107 63.8221C134.546 63.3574 135.074 63.0068 135.691 62.7689C136.31 62.5325 136.997 62.4136 137.757 62.4136C138.341 62.4136 138.815 62.4564 139.179 62.5389C139.546 62.623 139.849 62.7149 140.093 62.8133L139.844 63.9839C139.522 63.8649 139.197 63.7809 138.866 63.7317C138.535 63.6825 138.209 63.6571 137.888 63.6571C136.671 63.6571 135.744 64.003 135.107 64.6945C134.471 65.3861 134.151 66.4044 134.151 67.7478C134.151 68.3903 134.243 68.9661 134.422 69.4752C134.601 69.9844 134.857 70.4143 135.188 70.7647C135.519 71.1153 135.924 71.3834 136.401 71.5658C136.878 71.7483 137.418 71.8402 138.021 71.8402C138.343 71.8402 138.666 71.8116 138.991 71.7513C139.318 71.6911 139.606 71.5975 139.859 71.469L140.078 72.6587Z" fill="#384046"/>
<path d="M149.258 70.17H144.893L143.902 72.9427H142.574L146.471 62.5659H147.785L151.61 72.9427H150.237L149.258 70.17ZM145.317 68.955H148.834L147.127 64.0791H147.07L145.317 68.955Z" fill="#384046"/>
<path d="M156.973 72.9427H155.66V63.8111H152.637V62.5659H159.994V63.8111H156.972V72.9427H156.973Z" fill="#384046"/>
<path d="M166.811 73.0869C166.1 73.0869 165.459 72.9633 164.89 72.7158C164.322 72.4699 163.834 72.1162 163.43 71.6562C163.025 71.1962 162.716 70.6364 162.502 69.9733C162.289 69.3118 162.18 68.5711 162.18 67.7494C162.18 66.9199 162.293 66.1759 162.516 65.5193C162.74 64.8627 163.053 64.3043 163.458 63.8443C163.862 63.3843 164.346 63.0322 164.911 62.7847C165.475 62.5372 166.093 62.4136 166.765 62.4136C167.524 62.4136 168.193 62.5452 168.772 62.807C169.35 63.0687 169.837 63.435 170.233 63.9046C170.627 64.3742 170.927 64.9372 171.131 65.5939C171.336 66.2521 171.437 66.9706 171.437 67.7511C171.437 68.6314 171.321 69.4039 171.087 70.07C170.853 70.7378 170.533 71.293 170.124 71.7387C169.715 72.1828 169.228 72.5191 168.663 72.7459C168.1 72.9743 167.483 73.0869 166.811 73.0869ZM166.941 71.8418C167.906 71.8418 168.662 71.4991 169.212 70.8124C169.761 70.1256 170.036 69.1056 170.036 67.7511C170.036 67.0389 169.961 66.4267 169.809 65.9127C169.658 65.3987 169.443 64.9737 169.159 64.6374C168.877 64.3011 168.536 64.0537 168.13 63.8967C167.725 63.738 167.271 63.6587 166.765 63.6587C166.316 63.6587 165.9 63.7428 165.509 63.9109C165.121 64.079 164.784 64.3312 164.502 64.6675C164.219 65.0039 163.996 65.4289 163.83 65.9428C163.665 66.4568 163.581 67.0594 163.581 67.7511C163.581 68.4331 163.661 69.0311 163.822 69.545C163.983 70.059 164.209 70.4872 164.502 70.8283C164.794 71.1693 165.147 71.4231 165.561 71.5912C165.977 71.7593 166.436 71.8418 166.941 71.8418Z" fill="#384046"/>
<path d="M184.926 72.9427H183.613L182.985 64.8341L180.401 72.9427H179.029L176.46 64.8643L175.817 72.9427H174.504L175.38 62.5659H176.986L179.747 71.4897L182.447 62.5659H184.052L184.926 72.9427Z" fill="#384046"/>
</svg>
