<svg width="149" height="148" viewBox="0 0 149 148" fill="none" xmlns="http://www.w3.org/2000/svg">
<path d="M147.162 88.878C155.378 48.8518 129.592 9.74309 89.5657 1.52602C49.5393 -6.69082 10.4305 19.0958 2.21359 59.1219C-6.00348 99.1483 19.7832 138.257 59.8096 146.474C99.8358 154.691 138.945 128.904 147.162 88.878Z" fill="#384046"/>
<path d="M69.3515 11.196L69.2646 10.0649C69.4676 10.0359 69.6705 10.0359 69.8445 10.0069C71.0046 9.91997 72.1647 9.86181 73.3248 9.83283L74.0789 19.6644L76.1378 19.5195L75.3838 9.86181L75.2389 8.00586C74.1368 8.00586 73.0057 8.00586 71.9038 8.06381L67.4954 8.41174C67.4084 8.41174 67.2923 8.44072 67.2054 8.44072L67.3505 10.2679L67.3795 10.7319C67.9015 17.7503 66.8575 18.5914 65.6684 18.6783C65.4074 18.7073 65.1462 18.6783 65.0013 18.6204L64.9434 20.3315C65.2623 20.3894 65.9294 20.4476 66.3934 20.4184C68.6555 20.2445 69.9025 18.6494 69.3515 11.196Z" fill="white"/>
<path d="M57.9761 22.5668C61.3984 21.4358 62.9934 18.0135 61.9494 14.8813C60.9054 11.6912 57.6861 9.86405 54.235 10.9952C50.8126 12.1263 49.2177 15.5484 50.2617 18.6806C51.3056 21.8707 54.5539 23.6979 57.9761 22.5668ZM54.8149 12.8224C57.048 12.0973 59.1941 13.4023 59.9191 15.5774C60.2673 16.6795 60.2093 17.8105 59.7743 18.7385C59.3392 19.6666 58.5562 20.4206 57.4251 20.7977C55.192 21.5228 53.0459 20.2176 52.3209 18.0425C51.7407 16.2155 52.3498 14.3883 53.8289 13.4023C54.1478 13.1703 54.438 12.9383 54.8149 12.8224Z" fill="white"/>
<path d="M82.4842 17.4945C83.4122 17.6106 84.3113 17.7554 85.2394 17.9295C86.1385 18.1036 87.0664 18.3066 87.9655 18.5097L88.5746 21.4678L90.7497 22.0767L87.8496 9.31602L85.9645 8.99707L78.627 19.8146L80.831 20.0177L82.4842 17.4945ZM86.3995 11.6072L87.5304 16.5664C86.8636 16.4215 86.2255 16.2764 85.5584 16.1605C84.8913 16.0444 84.2534 15.9285 83.5863 15.8124L86.3995 11.6072Z" fill="white"/>
<path d="M100.792 22.4472C101.952 23.0271 103.373 22.5631 103.953 21.4032C104.533 20.2431 104.069 18.822 102.909 18.2418C101.749 17.6619 100.328 18.1259 99.7477 19.286C99.1678 20.4461 99.6318 21.8672 100.792 22.4472Z" fill="white"/>
<path d="M129.065 47.3298C125.933 48.4899 124.251 51.7961 125.498 55.1893C126.745 58.5824 130.254 60.0035 133.357 58.8436C136.489 57.6835 138.171 54.3773 136.924 50.9841C135.648 47.591 132.168 46.1699 129.065 47.3298ZM135.126 51.622C135.938 53.7971 134.749 56.0304 132.603 56.8134C132.4 56.9003 132.197 56.8714 132.023 56.9295C130.022 57.3933 128.05 56.5524 127.325 54.5514C126.803 53.1882 127.093 51.7961 127.905 50.7811C128.021 50.607 128.195 50.4621 128.34 50.3171C128.369 50.2881 128.398 50.2301 128.427 50.2009C128.514 50.114 128.63 50.0561 128.746 49.9689C128.862 49.882 128.978 49.7951 129.094 49.7079C129.094 49.7079 129.094 49.7079 129.123 49.7079C129.355 49.563 129.587 49.4469 129.848 49.36C130.921 48.9539 132.052 48.9829 133.009 49.36C133.937 49.7661 134.72 50.5201 135.126 51.622Z" fill="white"/>
<path d="M128.366 65.5697L133.151 65.1346H133.209C133.383 66.2367 133.499 67.3677 133.615 68.4698C133.731 69.572 133.789 70.7029 133.847 71.834H133.789L129.004 72.269L129.062 74.3282L140.662 73.2261L140.576 71.1669L135.703 71.6309H135.674C135.616 70.5 135.558 69.3979 135.442 68.2668C135.326 67.1648 135.21 66.0337 135.036 64.9316H135.065L139.967 64.4675L139.647 62.4375L128.047 63.5394L128.366 65.5697Z" fill="white"/>
<path d="M90.3174 64.267C92.8694 61.3087 93.9426 57.7125 93.9426 54.2904C93.9426 51.5353 93.1886 46.025 88.3452 42.2258C85.0102 39.6446 82.0808 38.4265 75.0335 38.4265H71.4663C71.3502 38.4265 71.2632 38.4265 71.1184 38.4265H56.4434V107.77H98.3508V94.4577C98.3508 81.726 94.2326 73.1705 83.5891 69.4002C86.9243 68.0081 88.9833 65.8911 90.3174 64.267ZM81.9939 62.9328C80.0798 65.311 76.9766 67.5151 72.5684 67.5151C72.5393 67.5151 72.5103 67.5151 72.4813 67.5151V70.9664C84.2559 70.9664 88.8674 78.7969 88.8674 93.1235V103.912H81.2978V80.769H72.5684V103.941H65.898V41.8776H72.7713C75.3525 41.8776 79.2386 42.4578 81.9939 45.8799C83.415 47.62 84.3141 49.9112 84.6041 52.2314H72.5684V55.6535H84.691C84.6041 57.8576 84.14 60.3227 81.9939 62.9328Z" fill="white"/>
<path d="M118.45 41.7999L122.51 39.1318L123.293 40.3209L122.075 43.8009C121.437 45.57 121.263 47.2812 122.655 48.4703L124.164 47.4841C123.525 46.9331 123.525 46.005 123.931 44.6711L125.15 40.8429L132.284 41.8579L131.008 39.7987L124.743 39.1026L124.076 38.1166L128.166 35.4195L126.919 33.7664L117.203 40.1468L118.45 41.7999Z" fill="white"/>
<path d="M119.669 33.4377C121.902 31.0016 121.873 27.2314 119.204 24.7953C117.58 23.3162 115.637 22.8522 113.81 23.2583L114.274 25.3173C115.521 24.9983 116.855 25.2593 117.928 26.2164C119.407 27.5795 119.582 29.5805 118.596 31.2047C117.725 30.3056 116.826 29.4355 115.898 28.6235C115.521 28.2754 115.115 27.9274 114.738 27.5795L113.549 28.9714C113.926 29.2906 114.303 29.6385 114.68 29.9577C115.608 30.7986 116.507 31.6687 117.377 32.5676C115.84 33.6987 113.781 33.7277 112.273 32.3648C111.171 31.3785 110.794 30.0156 111.055 28.7104L108.996 28.4204C108.735 30.3056 109.373 32.3066 111.026 33.7857C113.694 36.222 117.406 35.9028 119.669 33.4377Z" fill="white"/>
<path d="M43.9429 29.23L41.4199 25.0826L42.6379 24.3286L46.089 25.6628C47.8291 26.3588 49.5402 26.5908 50.7584 25.2277L49.8304 23.6907C49.2502 24.3286 48.3221 24.2996 46.9882 23.8356L43.2179 22.4727L44.4649 15.3672L42.3769 16.5563L41.4778 22.7916L40.4628 23.4297L37.9106 19.2534L36.2285 20.4424L42.2898 30.3611L43.9429 29.23Z" fill="white"/>
<path d="M12.3604 72.5646C14.3615 72.7386 15.4926 71.5206 15.8987 70.5635L17.9577 72.3326C18.5089 72.8258 18.8858 73.7536 18.6537 74.3917L20.423 74.3628C20.8578 73.4057 20.6258 72.0136 19.2339 70.8535L16.4786 68.5335L16.5947 67.0834L20.7999 67.4603L21.0899 65.3722L9.46029 64.4441C9.34418 65.0822 9.08318 67.6634 9.0542 68.0113C8.76423 71.2306 10.3302 72.4197 12.3604 72.5646ZM11.1714 66.6774L14.6515 66.9673L14.5355 68.3015C14.4486 69.4906 13.7526 70.5056 12.5345 70.3895C11.6064 70.3025 10.8814 69.7516 10.9973 68.0695C11.0553 67.6924 11.0842 67.2283 11.1714 66.6774Z" fill="white"/>
<path d="M105.747 118.567L108.299 122.714L107.081 123.468L103.63 122.163C101.89 121.467 100.179 121.264 98.9609 122.627L99.918 124.164C100.498 123.526 101.426 123.555 102.76 124.019L106.559 125.353L105.37 132.459L107.458 131.241L108.328 124.976L109.343 124.338L111.925 128.486L113.607 127.296L107.487 117.407L105.747 118.567Z" fill="white"/>
<path d="M94.4323 124.595L90.8653 134.745L88.2552 126.596L86.2539 127.06L89.8501 138.196L91.7932 137.703L95.3025 127.64L97.9126 135.731L99.7978 134.977L96.2306 123.87L94.4323 124.595Z" fill="white"/>
<path d="M74.7144 131.877C73.4092 131.877 72.3652 132.921 72.3652 134.226C72.3652 135.531 73.4092 136.575 74.7144 136.575C76.0194 136.575 77.0634 135.531 77.0634 134.226C77.0634 132.95 76.0194 131.877 74.7144 131.877Z" fill="white"/>
<path d="M116.855 108.231L118.769 118.817L112.475 113.016L110.996 114.408L119.61 122.326L121.06 120.905L119.146 110.435L125.41 116.177L126.686 114.611L118.073 106.694L116.855 108.231Z" fill="white"/>
<path d="M54.4422 127.961C53.9782 129.527 54.6742 130.542 55.8633 131.383C54.9062 131.586 53.9202 132.079 53.5141 133.442C53.2823 134.225 53.3692 134.921 53.7172 135.56C54.1812 136.401 55.0803 137.126 56.3563 137.503L60.6486 138.605L63.8969 127.381L59.4885 126.105C57.0234 125.351 55.0513 125.931 54.4422 127.961ZM57.1685 135.734C55.8923 135.356 55.3413 134.602 55.6023 133.732C55.6603 133.529 55.7474 133.355 55.8343 133.21C55.8343 133.21 55.8633 133.21 55.8633 133.181C55.9504 133.036 56.0664 132.949 56.2114 132.862C56.5014 132.688 56.8493 132.601 57.2844 132.63C57.5744 132.63 57.8646 132.688 58.1835 132.775L60.0976 133.326L59.2275 136.314L57.1685 135.734ZM58.2415 130.977C56.6755 130.513 56.0953 129.73 56.3563 128.773C56.5883 127.99 57.1975 127.613 58.0384 127.671C58.3286 127.671 58.6475 127.729 58.9665 127.845L61.4608 128.57L60.5617 131.673L58.2415 130.977Z" fill="white"/>
<path d="M29.0379 44.7556C31.8222 40.4054 35.2153 36.49 39.1015 33.0969L37.6514 31.8209L30.169 25.3535C29.676 25.8176 29.154 26.2816 28.69 26.7746L36.1724 33.2128C35.0413 34.286 33.9683 35.3881 32.9241 36.548L25.4997 30.1388C25.0356 30.6608 24.6008 31.1828 24.1367 31.7048L31.5612 38.1142C30.5751 39.2743 29.6471 40.4923 28.7769 41.7683L21.2945 35.3299C20.8885 35.8811 20.5116 36.4611 20.1055 37.012L27.5879 43.4794L29.0379 44.7556Z" fill="white"/>
<path d="M125.35 93.6201L129.468 95.9692C130.86 96.7522 132.513 97.6513 133.876 98.4053L133.847 98.4343C132.368 98.0862 123.784 97.0422 123.784 97.0422L123.03 98.6084C123.03 98.6084 128.946 105.105 130.077 106.091L130.048 106.149C128.598 105.424 126.945 104.699 125.553 104.09L121.144 102.176L119.984 104.032L130.889 108.585L132.368 106.062C132.368 106.062 126.887 100.087 125.872 99.2463L125.901 99.1883C127.206 99.4783 135.181 100.348 135.181 100.348L136.312 97.5932L126.104 91.5898L125.35 93.6201Z" fill="white"/>
<path d="M135.123 78.4796C131.817 77.8996 128.685 79.9007 128.076 83.4679C127.438 87.0351 129.729 90.0222 133.006 90.6024C136.312 91.1823 139.444 89.1813 140.053 85.614C140.662 82.0468 138.371 79.0306 135.123 78.4796ZM138.168 85.2369C138.081 85.8171 137.849 86.3391 137.559 86.7741C136.689 88.0791 135.036 88.7462 133.354 88.4562C131.353 88.1081 129.932 86.5711 129.874 84.657C129.874 84.396 129.874 84.1058 129.932 83.8158C130.019 83.2359 130.251 82.7139 130.541 82.2788C131.411 80.9736 133.064 80.3068 134.746 80.5967C137.037 81.0026 138.574 82.9459 138.168 85.2369Z" fill="white"/>
<path d="M29.9069 104.697C26.9778 100.434 24.7156 95.7936 23.1204 90.8633L21.3804 91.7044L12.5059 96.0546C12.7379 96.6927 12.9699 97.3306 13.2309 97.9977L22.0764 93.6185C22.6274 95.0686 23.2075 96.5187 23.8746 97.9108L15.0581 102.232C15.3481 102.87 15.667 103.479 15.9572 104.088L24.7735 99.7668C25.4696 101.13 26.2236 102.464 27.0358 103.769L18.2192 108.148C18.5672 108.728 18.9443 109.308 19.3214 109.888L28.1959 105.538L29.9069 104.697Z" fill="white"/>
<path d="M21.8444 86.485L18.9153 85.7599C18.7122 84.8608 18.5671 83.9327 18.4223 83.0336C18.2482 82.1347 18.1323 81.2067 18.0452 80.2786L20.5974 78.6834L20.4523 76.4214L9.43164 83.4687L9.72162 85.3538L22.3954 88.6021L21.8444 86.485ZM16.3051 81.3515C16.392 82.0186 16.4792 82.6857 16.5951 83.3528C16.7112 84.0197 16.8271 84.6578 16.9432 85.3248L12.0128 84.0778L16.3051 81.3515Z" fill="white"/>
<path d="M18.6549 53.9681C19.9601 54.0842 21.0912 53.1562 21.2361 51.851C21.3522 50.546 20.4242 49.4149 19.119 49.2698C17.814 49.1539 16.6829 50.082 16.538 51.3869C16.3929 52.6921 17.35 53.823 18.6549 53.9681Z" fill="white"/>
<path d="M41.6262 117.219L34.8711 126.828L36.5556 128.012L43.3107 118.403L41.6262 117.219Z" fill="white"/>
<path d="M34.9833 110.647C33.4753 109.023 31.474 108.414 29.6181 108.675L29.9081 110.734C31.213 110.473 32.5762 110.821 33.5622 111.923C35.1574 113.634 34.8964 116.157 33.2143 117.694C31.503 119.26 29.0379 119.347 27.4428 117.636C26.4567 116.592 26.1957 115.229 26.5149 113.982L24.4557 113.547C24.0786 115.345 24.5716 117.317 26.0219 118.883C28.487 121.522 32.2572 121.522 34.6644 119.289C37.1294 116.998 37.4194 113.315 34.9833 110.647Z" fill="white"/>
<path d="M43.3057 122.877C42.1166 124.907 42.9868 126.937 45.249 128.3L46.844 129.257L44.6978 132.911L46.4671 133.955L52.4414 123.834L49.0772 121.804C46.7281 120.44 44.4948 120.846 43.3057 122.877ZM47.7431 127.691L46.2059 126.792C44.8719 126.009 44.4368 124.994 45.046 123.95C45.3939 123.37 45.8289 123.051 46.3509 122.964C46.8729 122.877 47.4821 123.051 48.1491 123.428L49.7151 124.356L47.7431 127.691Z" fill="white"/>
</svg>
