<svg width="200" height="112" viewBox="0 0 200 112" fill="none" xmlns="http://www.w3.org/2000/svg">
<path d="M40.3992 93.2502C39.663 92.7845 38.9987 92.2652 38.3164 91.7996H38.2805C37.5084 92.3547 36.7004 92.9278 35.9104 93.483C28.836 98.7302 23.216 104.927 18.6016 111.642H57.9593C53.3269 104.855 47.5633 98.5332 40.3992 93.2502Z" fill="#384046"/>
<path d="M5.83644 44.2745C5.83644 44.2559 5.83644 44.2559 5.83644 44.2745C5.81763 44.2373 5.81763 44.2001 5.79883 44.1628C5.81763 44.1815 5.81763 44.2187 5.83644 44.2745Z" fill="#384046"/>
<path d="M55.3368 45.5417C54.2954 46.9206 53.3078 48.2279 52.3203 49.4995C57.5094 51.9887 62.5009 53.7617 67.1872 54.6929C75.5005 34.3846 76.5778 13.7718 76.6137 4.88916C73.5254 16.7446 65.7867 31.6088 55.3368 45.5417Z" fill="#384046"/>
<path d="M20.9525 19.6994C26.2852 12.5181 32.2642 5.73075 38.2792 0H1.45312C5.99579 8.18423 11.6696 16.0282 18.3131 23.3528C19.2647 21.9738 20.1086 20.8098 20.9525 19.6994Z" fill="#384046"/>
<path d="M17.2729 24.8573C10.414 17.3357 4.65039 9.40219 0.0359104 1.12842C0 1.80894 0 2.88346 0 4.28033C0 11.587 0.718208 27.3108 5.83544 44.2523C8.88782 37.9485 12.6584 31.5193 17.1113 25.0722C17.1652 24.9827 17.219 24.9289 17.2729 24.8573Z" fill="#384046"/>
<path d="M51.0282 51.147C41.6018 62.6264 31.5468 71.9031 22.7129 77.2936C27.0042 82.6482 32.1394 87.5373 38.28 91.7458H38.316C51.0103 83.078 59.5569 71.3121 65.2308 59.1343C65.6438 58.203 66.0567 57.2718 66.4876 56.3584C61.6577 55.3555 56.5046 53.5289 51.1898 50.9321C51.136 51.0038 51.0821 51.0754 51.0282 51.147Z" fill="#384046"/>
<path d="M21.6691 75.843C30.3415 70.5779 40.2348 61.4445 49.5356 50.1442C39.1575 44.8254 28.3844 36.6949 18.527 26.2004C14.0023 32.755 10.1598 39.3095 7.10746 45.7029C7.05359 45.7924 7.01768 45.8999 6.96382 45.9894L6.64062 46.8311C9.76483 56.6809 14.4691 66.7634 21.5973 75.8789L21.6691 75.843Z" fill="#384046"/>
<path d="M113.851 77.3648H104.981L103.329 82.3971H98.4453L106.328 59.3667H112.756L120.548 82.3971H115.503L113.851 77.3648ZM106.328 73.013H112.504L109.434 63.3424L106.328 73.013Z" fill="#384046"/>
<path d="M133.744 82.3972H128.788V63.8977H122.217V59.3489H140.262V63.8977H133.726V82.3972H133.744Z" fill="#384046"/>
<path d="M155.761 82.7913C154.091 82.7913 152.565 82.5405 151.2 82.0212C149.818 81.5018 148.65 80.7497 147.663 79.7289C146.675 78.726 145.903 77.4724 145.365 75.986C144.826 74.4996 144.557 72.7983 144.557 70.8641C144.557 68.93 144.844 67.2287 145.401 65.7423C145.957 64.2559 146.729 63.0202 147.717 61.9994C148.704 60.9965 149.871 60.2264 151.236 59.7071C152.583 59.1877 154.055 58.937 155.635 58.937C157.413 58.937 159.011 59.2056 160.411 59.7608C161.812 60.316 162.979 61.086 163.948 62.1068C164.9 63.1276 165.636 64.3812 166.139 65.8497C166.642 67.3361 166.893 68.9837 166.893 70.8283C166.893 72.8699 166.606 74.6428 166.049 76.1472C165.492 77.6515 164.702 78.8872 163.715 79.8721C162.709 80.8392 161.542 81.5735 160.178 82.0391C158.813 82.5584 157.341 82.7913 155.761 82.7913ZM155.922 78.4574C156.748 78.4574 157.52 78.2962 158.238 77.9917C158.939 77.6873 159.549 77.2217 160.052 76.5949C160.555 75.9681 160.95 75.1801 161.219 74.2489C161.488 73.2997 161.632 72.1894 161.632 70.8999C161.632 68.2853 161.075 66.3691 159.98 65.1513C158.885 63.9335 157.431 63.3246 155.617 63.3246C154.809 63.3246 154.037 63.4858 153.319 63.7902C152.601 64.0947 151.99 64.5603 151.451 65.1871C150.931 65.8139 150.518 66.6019 150.213 67.551C149.907 68.5002 149.764 69.6284 149.764 70.8999C149.764 72.1894 149.925 73.3176 150.248 74.2489C150.572 75.198 151.003 75.9681 151.559 76.5949C152.116 77.2217 152.762 77.6873 153.498 77.9917C154.27 78.2962 155.06 78.4574 155.922 78.4574Z" fill="#384046"/>
<path d="M199.715 82.3971H194.724L193.467 67.1032L188.709 82.3971H183.987L179.3 67.1569L178.044 82.3971H173.088L175.404 59.3667H181.311L186.518 76.738L191.672 59.3667H197.381L199.715 82.3971Z" fill="#384046"/>
<path d="M99.2721 107.917C99.7569 108.257 100.403 108.598 101.247 108.92C102.073 109.242 103.043 109.421 104.12 109.421C105.52 109.421 106.562 109.117 107.244 108.526C107.926 107.917 108.268 107.075 108.268 105.965C108.268 105.356 108.196 104.855 108.034 104.443C107.891 104.031 107.639 103.673 107.316 103.368C106.993 103.064 106.562 102.777 106.059 102.544C105.538 102.312 104.928 102.043 104.21 101.756L103.492 101.488C102.737 101.183 102.055 100.879 101.481 100.539C100.906 100.216 100.439 99.8224 100.062 99.3747C99.685 98.9269 99.4157 98.4076 99.2182 97.7987C99.0207 97.2077 98.9309 96.4914 98.9309 95.7034C98.9309 94.0021 99.5234 92.6768 100.726 91.7456C101.929 90.8143 103.563 90.3308 105.682 90.3308C106.328 90.3308 106.921 90.3666 107.496 90.4741C108.052 90.5636 108.555 90.6711 108.986 90.7964C109.417 90.9218 109.776 91.0472 110.063 91.1725C110.35 91.2979 110.548 91.4053 110.656 91.4949L109.955 93.8051C109.201 93.4469 108.411 93.1962 107.639 93.0708C106.849 92.9455 106.149 92.8738 105.503 92.8738C104.317 92.8738 103.402 93.1066 102.773 93.5723C102.145 94.0379 101.822 94.7542 101.822 95.7213C101.822 96.1332 101.876 96.5093 101.965 96.8495C102.073 97.1719 102.271 97.4942 102.558 97.7987C102.845 98.1031 103.258 98.3897 103.779 98.6941C104.3 98.9986 104.982 99.2851 105.79 99.6075L106.58 99.9119C107.496 100.27 108.268 100.646 108.86 101.058C109.453 101.47 109.92 101.9 110.261 102.383C110.602 102.867 110.835 103.386 110.961 103.959C111.087 104.532 111.158 105.159 111.158 105.84C111.158 106.843 110.997 107.72 110.656 108.49C110.315 109.26 109.866 109.887 109.255 110.406C108.663 110.926 107.926 111.32 107.101 111.588C106.275 111.857 105.341 112 104.353 112C103.222 112 102.163 111.857 101.139 111.57C100.134 111.284 99.2541 110.89 98.5 110.406L99.2721 107.917Z" fill="#384046"/>
<path d="M121.371 100.217L130.654 90.5996H134.065L124.405 100.449L134.712 111.624H131.067L122.43 102.079L121.371 103.1V111.624H118.678V90.6175H121.389V100.217H121.371Z" fill="#384046"/>
<path d="M143.205 111.642H140.494V90.6177H143.205V111.642Z" fill="#384046"/>
<path d="M163.427 111.642H151.631V90.6177H154.342V109.117H163.445V111.642H163.427Z" fill="#384046"/>
<path d="M182.121 111.642H170.324V90.6177H173.035V109.117H182.139V111.642H182.121Z" fill="#384046"/>
<path d="M188.112 107.917C188.597 108.257 189.243 108.598 190.087 108.92C190.913 109.242 191.883 109.421 192.96 109.421C194.36 109.421 195.402 109.117 196.084 108.526C196.766 107.917 197.107 107.075 197.107 105.965C197.107 105.356 197.036 104.855 196.874 104.443C196.73 104.031 196.479 103.673 196.156 103.368C195.833 103.064 195.402 102.777 194.899 102.544C194.378 102.312 193.768 102.043 193.05 101.756L192.331 101.488C191.577 101.183 190.895 100.879 190.32 100.539C189.746 100.216 189.279 99.8224 188.902 99.3747C188.525 98.9269 188.256 98.4076 188.058 97.7987C187.861 97.2077 187.771 96.4914 187.771 95.7034C187.771 94.0021 188.363 92.6768 189.566 91.7456C190.769 90.8143 192.403 90.3308 194.522 90.3308C195.168 90.3308 195.761 90.3666 196.335 90.4741C196.892 90.5636 197.395 90.6711 197.826 90.7964C198.257 90.9218 198.616 91.0472 198.903 91.1725C199.19 91.2979 199.388 91.4053 199.496 91.4949L198.795 93.8051C198.041 93.4469 197.251 93.1962 196.479 93.0708C195.689 92.9455 194.989 92.8738 194.342 92.8738C193.157 92.8738 192.242 93.1066 191.613 93.5723C190.985 94.0379 190.662 94.7542 190.662 95.7213C190.662 96.1332 190.715 96.5093 190.805 96.8495C190.913 97.1719 191.11 97.4942 191.398 97.7987C191.685 98.1031 192.098 98.3897 192.619 98.6941C193.139 98.9986 193.822 99.2851 194.63 99.6075L195.42 99.9119C196.335 100.27 197.107 100.646 197.7 101.058C198.293 101.47 198.759 101.9 199.101 102.383C199.442 102.867 199.675 103.386 199.801 103.959C199.926 104.532 199.998 105.159 199.998 105.84C199.998 106.843 199.837 107.72 199.496 108.49C199.154 109.26 198.705 109.887 198.095 110.406C197.502 110.926 196.766 111.32 195.94 111.588C195.114 111.857 194.181 112 193.193 112C192.062 112 191.003 111.857 189.979 111.57C188.974 111.284 188.094 110.89 187.34 110.406L188.112 107.917Z" fill="#384046"/>
</svg>
