<svg width="212" height="54" viewBox="0 0 212 54" fill="none" xmlns="http://www.w3.org/2000/svg">
<path d="M20.4095 5.03155H25.0536C27.8819 4.62634 30.7702 4.9826 33.4049 6.06163C36.7103 7.99563 39.1078 11.1092 40.0859 14.7381C40.7785 16.6398 40.7785 16.6398 42.4487 15.9663H43.7523V0.911225H0.0405674V3.56566H1.83303C2.61196 3.56042 3.38221 3.72495 4.08717 4.04718C4.79214 4.36941 5.41392 4.84115 5.90682 5.42773C7.57708 8.04255 7.86224 10.9743 7.86224 26.2274C7.86224 42.4314 7.4956 46.3932 5.90682 48.4138C5.5146 48.9332 5.00679 49.3598 4.4213 49.6617C3.83581 49.9635 3.18778 50.1328 2.52558 50.157C0.0405675 50.5928 0.0405674 50.5532 0.0405674 51.6229C-0.0968558 51.9806 -0.0968558 52.3745 0.0405674 52.7322H27.6201C27.8026 52.3823 27.8978 51.9954 27.8978 51.6031C27.8978 51.2107 27.8026 50.8239 27.6201 50.474C26.9521 50.2932 26.2713 50.1608 25.5832 50.0778C24.8389 49.9917 24.1031 49.8459 23.3834 49.642C22.3528 48.9102 21.5364 47.9296 21.0148 46.7971C20.4932 45.6645 20.2846 44.4192 20.4095 43.1842C20.0021 40.5693 19.7984 35.7755 19.7984 31.8136V28.6838H21.428C23.4582 28.6234 25.4872 28.8367 27.4572 29.3177C28.4009 29.8849 29.2043 30.6477 29.8099 31.5517C30.4155 32.4557 30.8085 33.4786 30.9606 34.5473L31.3273 35.7755H33.8123V18.2245H31.531L31.1643 19.9281C31.0101 21.021 30.5943 22.0635 29.9505 22.9718C29.3066 23.8801 28.4526 24.6288 27.4572 25.1577C26.4931 25.4368 25.4775 25.5044 24.4833 25.3558H19.7984V21.077C19.7984 16.6398 20.0429 7.2898 20.2058 5.82392L20.4095 5.03155ZM211.063 36.449C209.137 33.4349 206.134 31.2195 202.63 30.2289C199.944 29.4124 197.461 28.0634 195.338 26.2671C194.86 25.8176 194.503 25.2614 194.297 24.6468C194.091 24.0322 194.043 23.3779 194.157 22.741C194.16 21.4918 194.673 20.2949 195.582 19.4131C196.199 18.7849 196.98 18.3315 197.841 18.1013C198.702 17.871 199.611 17.8725 200.471 18.1056C202.252 18.5993 203.862 19.5522 205.132 20.8634C206.401 22.1746 207.282 23.7954 207.682 25.5539C208.333 27.3368 208.415 27.3368 209.596 26.8613L210.33 26.584V16.719L209.8 16.4813C205.789 15.1114 201.535 14.5454 197.293 14.8173C193.641 14.9073 190.154 16.3202 187.516 18.7792C186.32 19.8682 185.383 21.1984 184.771 22.6767C184.159 24.1549 183.886 25.7453 183.972 27.3368C183.995 29.7698 184.988 32.0992 186.742 33.8342C188.681 35.6883 191.06 37.0491 193.668 37.796C199.982 40.2128 201.815 41.7579 201.815 44.5708C201.842 45.757 201.454 46.9169 200.714 47.8601C199.973 48.8032 198.925 49.4735 197.742 49.7608C196.319 50.0647 194.846 50.0647 193.423 49.7608C191.561 49.0578 189.898 47.9326 188.573 46.4786C187.248 45.0246 186.299 43.2839 185.805 41.4013L185.276 40.1335H184.542C184.192 40.1588 183.848 40.2391 183.524 40.3712H183.117V51.6229H183.809C186.561 52.5133 189.401 53.124 192.283 53.4453H196.356C198.123 53.5714 199.899 53.4108 201.612 52.9699C203.786 52.5797 205.817 51.6431 207.504 50.253C209.19 48.863 210.473 47.0679 211.226 45.0462C211.712 43.917 211.961 42.7047 211.959 41.4806C212.12 39.7559 211.811 38.0206 211.063 36.449ZM172.688 15.9663C170.247 14.9695 167.616 14.486 164.969 14.5474C162.323 14.6089 159.719 15.2139 157.33 16.3228C155.084 17.3913 153.093 18.9059 151.486 20.7688C149.879 22.6318 148.692 24.8018 148.001 27.1387C147.119 29.6879 146.746 32.3771 146.901 35.0624C146.871 36.5233 146.994 37.9835 147.267 39.4204C147.925 42.9536 149.679 46.2064 152.293 48.7418C154.908 51.2772 158.257 52.9739 161.892 53.6038C164.259 53.8938 166.654 53.8938 169.021 53.6038C171.478 53.1828 173.828 52.3087 175.947 51.0286C177.699 50.0732 179.182 48.7125 180.265 47.0668C180.196 46.8085 180.073 46.5666 179.905 46.3556C179.737 46.1445 179.527 45.9687 179.287 45.8386C178.822 46.0023 178.383 46.2291 177.984 46.5121C175.957 47.8108 173.565 48.4618 171.14 48.3742C169.53 48.48 167.916 48.2363 166.416 47.6607C164.915 47.0851 163.565 46.192 162.463 45.0462C161.61 44.2761 160.906 43.3637 160.385 42.3522C159.119 39.8892 158.437 37.1816 158.389 34.4285V32.8833H180.958V32.091C181.007 31.2993 181.007 30.5055 180.958 29.7139C180.949 26.9164 180.18 24.1709 178.728 21.7563C177.275 19.3417 175.191 17.344 172.688 15.9663ZM161.322 29.6742H158.47V27.3368C159.407 21.3544 161.729 17.7887 164.581 17.7887C167.433 17.7887 168.655 21.3147 169.184 27.7726V29.595H166.74L161.322 29.6742ZM102.741 14.6588C101.333 14.6057 99.9338 14.8915 98.667 15.4908C95.9137 16.7912 93.6898 18.954 92.3526 21.6317L91.8231 22.5825V14.6588H91.6194C91.1305 14.6588 76.0575 17.5906 75.5686 17.7887C75.0798 17.9868 75.2427 18.0264 75.2427 18.7395C75.2427 19.4527 75.2427 19.5715 75.5686 19.6112L77.1574 19.9281C77.6024 19.9387 78.039 20.0477 78.4343 20.2467C78.8295 20.4458 79.173 20.7297 79.4387 21.077C80.4572 22.3844 80.6609 24.6823 80.6609 34.4681C80.8621 38.8735 80.6713 43.2876 80.0905 47.661C79.9538 48.3205 79.61 48.9224 79.1065 49.3837C78.603 49.845 77.9646 50.1429 77.2796 50.2362L75.8945 50.5136H75.3649V51.6229C75.2172 51.9924 75.2172 52.4023 75.3649 52.7718H98.1374V51.6229C98.2164 51.2438 98.2164 50.8531 98.1374 50.474C96.7663 50.422 95.4028 50.2496 94.0636 49.9589C93.3344 49.5879 92.7377 49.0108 92.3523 48.3036C91.9669 47.5964 91.8108 46.7923 91.9045 45.9971C91.5786 43.6992 91.4157 36.964 91.4971 31.8136C91.5786 26.6632 91.4971 26.3463 91.9453 25.9897C93.3084 24.9733 94.9953 24.4545 96.7116 24.5238C98.3294 24.5582 99.9177 24.9511 101.356 25.6728C101.854 25.942 102.389 26.142 102.944 26.2671C102.944 26.2671 107.018 16.6794 107.018 16.2436C106.497 15.6544 105.833 15.201 105.086 14.9243C104.339 14.6476 103.533 14.5564 102.741 14.6588ZM75.2835 31.2986C75.1413 28.4675 74.3055 25.7104 72.8457 23.257C71.386 20.8037 69.3445 18.7251 66.8915 17.1944C63.9762 15.6649 60.7329 14.8216 57.4218 14.7322C54.1107 14.6427 50.8241 15.3096 47.8261 16.6794C43.5873 18.8532 40.3868 22.5484 38.9045 26.9802C37.3735 31.9421 37.3735 37.2318 38.9045 42.1937C39.7072 44.9055 41.2074 47.3735 43.2635 49.3646C45.8242 51.7947 49.1262 53.3516 52.6739 53.8019C54.9513 53.9871 57.2405 53.9871 59.5179 53.8019C60.3559 53.6779 61.1857 53.5059 62.0029 53.2869C65.3188 52.3848 68.302 50.583 70.6034 48.0922C72.9048 45.6015 74.4292 42.5248 74.9983 39.2223C75.405 36.6004 75.5007 33.9417 75.2835 31.2986ZM58.3365 51.1078C54.2627 52.2964 51.2074 48.4534 50.1889 40.3712C49.8149 36.1399 49.8149 31.8851 50.1889 27.6537C51.0037 21.1563 53.0813 17.8679 56.2996 17.8679C56.9489 17.8288 57.5984 17.9415 58.1937 18.1965C58.7891 18.4515 59.313 18.8415 59.7216 19.3338C62.451 21.9883 63.7954 27.2575 63.7954 35.1812C64.1343 39.6656 63.4096 44.1657 61.677 48.3346C60.912 49.5504 59.7283 50.4629 58.3365 50.9098V51.1078ZM131.665 15.4512C130.515 15.3074 129.351 15.3074 128.202 15.4512C125.995 15.4494 123.814 15.9088 121.806 16.7982L120.543 17.3133V8.71607C120.764 5.81468 120.764 2.90139 120.543 0C120.054 0 104.493 2.89215 104.248 3.011C104.128 3.30351 104.128 3.62973 104.248 3.92223C104.248 4.75422 104.248 4.7146 106.081 5.11078C106.596 5.22304 107.09 5.41002 107.548 5.66544C108.343 6.39268 108.872 7.35255 109.055 8.39912C109.519 11.4142 109.669 14.467 109.503 17.5114V52.2964L110.603 52.5341C112.233 52.8907 116.836 53.6434 118.343 53.8019C121.353 54.0347 124.377 54.0347 127.387 53.8019C130.728 53.47 133.912 52.2579 136.597 50.2962C139.282 48.3344 141.366 45.6973 142.623 42.6691C143.373 40.7255 143.892 38.7052 144.171 36.6471C144.414 33.8594 144.318 31.0536 143.886 28.2876C143.449 25.1871 142.042 22.2924 139.856 19.9961C137.669 17.6999 134.81 16.1131 131.665 15.4512ZM120.991 50.4343C120.991 49.9193 120.584 32.5664 120.665 25.6332V20.2054L121.847 19.9281C122.644 19.817 123.453 19.817 124.25 19.9281C125.132 19.8409 126.019 20.0357 126.776 20.4828C128.298 21.5039 129.561 22.8473 130.471 24.4119C131.381 25.9766 131.915 27.7216 132.031 29.5158C132.328 32.4007 132.328 35.3073 132.031 38.1922C131.788 42.3853 130.126 46.3825 127.306 49.5627C126.505 50.3022 125.5 50.798 124.413 50.989C123.591 51.1281 122.751 51.1281 121.928 50.989C121.154 50.989 121.154 50.7513 121.154 50.4343H120.991Z" fill="#384046"/>
</svg>
