<svg width="264" height="44" viewBox="0 0 264 44" fill="none" xmlns="http://www.w3.org/2000/svg">
<path d="M26.4005 19.3667L26.2933 19.6438C28.0806 20.4302 32.0935 23.5493 32.0935 29.8322C32.0935 35.7485 27.1065 41.7096 19.2686 41.7096C9.51811 41.7096 6.15773 36.0078 6.15773 30.7706C6.15773 24.0588 10.8498 19.5902 10.8498 13.4771C10.8242 11.3151 10.066 9.2256 8.69915 7.55033C7.33227 5.87505 5.43754 4.71284 3.32464 4.25391L3.16378 4.53101C3.93002 5.27436 4.53798 6.16515 4.95112 7.14962C5.36427 8.1341 5.57406 9.19212 5.56788 10.2598C5.56788 16.8643 0 21.5563 0 29.135C0 36.115 4.87971 43.2291 19.0095 43.2291C31.602 43.2291 38.2423 37.0624 38.2423 30.5024C38.2333 24.8719 34.2026 20.1084 26.4005 19.3667Z" fill="#384046"/>
<path d="M81.7175 42.1031L64.9781 20.5199V39.976L68.3921 40.7894V41.6832H60.6078V40.7894L63.3963 39.976V18.7771C62.7177 18.1445 61.9004 17.6792 61.01 17.4186C60.6703 17.3471 60.2146 17.2667 60.2146 17.2667V16.3729H66.8192L81.1188 34.9623V18.0979L77.7047 17.2756V16.382H85.4891V17.2756L82.7006 18.0979V37.3932C82.7006 39.1807 82.8258 41.7815 82.8525 42.112L81.7175 42.1031ZM116.716 28.3577C116.716 37.2949 110.46 42.4785 103.623 42.4785C96.7856 42.4785 90.5028 37.2235 90.5028 29.0549C90.5028 20.8862 96.7589 15.5776 103.56 15.5776C105.272 15.5211 106.978 15.8105 108.575 16.4285C110.173 17.0466 111.629 17.9805 112.858 19.1744C114.086 20.3685 115.061 21.798 115.723 23.3775C116.386 24.9568 116.724 26.6538 116.716 28.3666V28.3577ZM112.363 29.6984C112.363 23.1294 108.431 16.7572 103.086 16.7572C97.4023 16.7572 94.8373 22.2536 94.8373 28.1344C94.8373 34.0151 98.0816 41.3078 104.186 41.3078C109.923 41.3078 112.363 35.4985 112.363 29.6984ZM122.123 18.0799L119.441 17.2578V16.364H129.71V17.2578L126.493 18.0799L133.58 37.4021L140.667 18.0799L137.45 17.2578V16.364H145.046V17.2578L142.365 18.0799L133.491 42.1658H131.221L122.123 18.0799ZM182.806 28.7599H181.18V17.6958C186.542 17.6958 189.733 18.929 189.733 23.3082C189.705 26.5614 186.918 28.7599 182.806 28.7599ZM228.752 40.7894L232.327 39.976V18.089L228.752 17.2667V16.3729H239.897V17.2667L236.321 18.089V39.976L239.897 40.7894V41.6832H228.752V40.7894ZM246.725 34.7299H247.43L249.799 40.1817C251.208 40.8889 252.755 41.2736 254.331 41.3078C257.405 41.3078 260.212 39.5203 260.212 36.3208C260.212 33.8899 258.638 32.442 256.091 31.1104L253.571 29.8056C250.559 28.2416 247.548 26.0251 247.548 22.4593C247.548 18.5805 250.228 15.5865 255.966 15.5865C257.982 15.607 259.984 15.9355 261.9 16.5606L262.498 22.4235H261.74L259.549 17.7225C258.417 17.0894 257.14 16.757 255.842 16.7572C252.937 16.7572 250.962 18.5447 250.962 21.0203C250.962 23.2635 252.454 24.6756 255.01 25.9984L257.995 27.5535C262.071 29.6626 264 31.6198 264 35.2394C264 39.708 259.809 42.4874 254.598 42.4874C252.146 42.5248 249.703 42.1594 247.368 41.4061L246.725 34.7299ZM143.411 40.7894L146.28 39.976L155.137 16.3551L158.095 15.5954L167.238 39.9671L170.106 40.7894V41.6832H159.257V40.7894L162.93 39.9671L160.338 32.9604H150.596L148.023 39.9671L151.696 40.7805V41.6741H143.411V40.7894ZM151.276 31.0925H159.704L155.521 19.7959L151.276 31.0925ZM187.919 29.3052C188.813 29.0817 193.826 27.8037 193.826 23.0491C193.826 19.2328 190.903 16.2746 183.7 16.2746C179.231 16.2746 174.763 16.3729 174.2 16.3909V17.2845L177.14 18.1068V39.9671L174.2 40.7894V41.6832H184.603V40.7894L181.189 39.9671V30.0827H184.129L191.644 41.701H198.303V40.8074L194.933 39.9135L187.919 29.3052ZM209.886 17.6867V39.976L206.312 40.7894V41.6832H217.456V40.7894L213.88 39.976V17.6958H219.896L221.88 21.9677H222.648L222.076 16.3998H201.69L201.118 21.9677H201.888L203.854 17.7403L209.886 17.6867ZM19.175 33.7738L22.75 0H15.332L18.9068 33.7738H19.175Z" fill="#384046"/>
</svg>
