<svg width="196" height="60" viewBox="0 0 196 60" fill="none" xmlns="http://www.w3.org/2000/svg">
<path fill-rule="evenodd" clip-rule="evenodd" d="M15.1929 60H19.7522V36H15.1929V60ZM31.9061 59.64H35.9898V44.4975L53.1788 60V36.36H49.1066V51.2438L31.9061 36V59.64ZM62.5012 53.8275C64.7238 55.5337 67.3916 56.52 70.2517 56.52C73.0376 56.52 74.9919 55.575 74.9919 53.4881C74.9919 51.6694 73.7455 50.9569 71.5628 50.16L68.0291 48.9506C64.7713 47.8106 62.2937 46.1456 62.2937 42.3187C62.2937 38.2256 66.0444 36 70.5295 36C73.2774 36 75.7816 36.6806 77.7378 37.8862V41.9456C75.7036 40.4644 73.4772 39.4444 70.6171 39.4444C68.1547 39.4444 66.3146 40.35 66.3146 42.2381C66.3146 43.9444 67.4697 44.6269 69.5039 45.3131L73.441 46.6744C77.2564 47.9963 79.007 50.0456 79.007 53.4169C79.007 57.6581 75.2202 60 70.2517 60C66.9863 60 64.21 59.1 62.5012 57.9637V53.8275ZM89.6443 60H94.2018V36H89.6443V60ZM115.583 56.3681C120.721 56.3681 123.467 53.1206 123.467 47.9944C123.467 42.8306 120.719 39.5944 115.583 39.5944H110.502V56.3681H115.583ZM106.354 36H115.735C122.957 36 127.626 40.6875 127.626 47.9944C127.626 55.3069 122.957 60 115.735 60H106.354V36ZM150.42 36V39.5944H139.388V45.3694H149.282V48.9225H139.386V56.3681H150.42V60H135.225V36H150.42ZM166.598 46.8675H171.121C173.799 46.8675 175.308 45.42 175.308 43.1944C175.308 40.9688 173.799 39.5194 171.121 39.5194H166.598V46.8694V46.8675ZM166.598 50.2612V60H162.573V36H171.197C176.115 36 179.296 38.4956 179.296 43.1944C179.296 47.2125 177.53 49.5206 173.768 50.1131L182.326 60H177.747L169.462 50.2631H166.6L166.598 50.2612ZM13.6001 12.3563C15.3831 11.7131 16.7723 9.78375 16.7723 7.13062C16.7723 2.70937 13.6001 0.418125 8.52505 0.418125H0V25.0987H9.31666C14.3917 25.0987 17.5639 22.6462 17.5639 18.0244C17.5639 15.4106 15.8988 13.1194 13.6001 12.3563ZM4.00373 10.7888V4.03688H8.48699C11.3033 4.03688 12.8085 5.04187 12.8085 7.3725C12.8085 9.70312 11.3014 10.7888 8.48699 10.7888H4.00373ZM4.00373 14.2463H9.23674C12.015 14.2463 13.5202 15.6113 13.5202 17.8631C13.5202 20.0738 12.0131 21.4819 9.23864 21.4819H4.00563V14.2444L4.00373 14.2463ZM36.1649 25.5C41.9935 25.5 45.9192 22.0425 45.9192 15.2906V0.418125H41.7956V14.8069C41.7956 19.5506 39.8127 21.7631 36.1649 21.7631C32.517 21.7631 30.536 19.5506 30.536 14.8069V0.418125H26.4124V15.2494C26.4124 22.0425 30.3762 25.5 36.1649 25.5ZM55.6278 23.3288C57.3329 24.5363 60.1092 25.5 63.3594 25.5C68.3165 25.5 72.0823 23.0063 72.0823 18.5063C72.0823 14.9288 70.3393 12.7575 66.5315 11.3512L62.6077 9.90375C60.5849 9.18188 59.4356 8.45813 59.4356 6.64875C59.4356 4.63875 61.2586 3.675 63.7171 3.675C66.5715 3.675 68.7922 4.75875 70.815 6.32812V2.025C68.8721 0.740625 66.3736 0.016875 63.6372 0.016875C59.1577 0.016875 55.4299 2.38875 55.4299 6.72937C55.4299 10.7887 57.8885 12.5569 61.1387 13.7625L64.6686 15.0487C66.8493 15.8925 68.0786 16.6575 68.0786 18.5869C68.0786 20.7975 66.1357 21.8025 63.3594 21.8025C60.505 21.8025 57.8485 20.7563 55.6278 18.9487V23.3288ZM86.8166 0.418125H82.6949V25.0969H86.8166V0.418125ZM98.5804 25.0669H102.554V9.01125L119.276 25.4494V0.380625H115.315V16.1625L98.5804 0V25.0669ZM145.044 0.42375V4.11938H134.338V10.0594H143.938V13.7137H134.338V21.3694H145.044V25.1044H130.296V0.42375H145.044ZM154.644 23.3119C156.349 24.5194 159.123 25.4831 162.376 25.4831C167.331 25.4831 171.098 22.9913 171.098 18.4894C171.098 14.9119 169.354 12.7425 165.548 11.3344L161.622 9.88875C159.599 9.165 158.45 8.44125 158.45 6.63188C158.45 4.62187 160.273 3.65812 162.731 3.65812C165.586 3.65812 167.806 4.74375 169.829 6.31125V2.01C167.886 0.72375 165.388 0 162.651 0C158.172 0 154.444 2.37187 154.444 6.7125C154.444 10.7719 156.903 12.54 160.153 13.7456L163.683 15.0319C165.864 15.8756 167.093 16.6406 167.093 18.57C167.093 20.7806 165.152 21.7856 162.374 21.7856C159.519 21.7856 156.863 20.7413 154.644 18.9319V23.3119ZM179.546 23.3119C181.251 24.5194 184.027 25.4831 187.277 25.4831C192.234 25.4831 196 22.9913 196 18.4894C196 14.9119 194.255 12.7425 190.449 11.3344L186.523 9.88875C184.503 9.165 183.351 8.44125 183.351 6.63188C183.351 4.62187 185.176 3.65812 187.633 3.65812C190.487 3.65812 192.71 4.74375 194.731 6.31125V2.01C192.79 0.72375 190.291 0 187.555 0C183.074 0 179.348 2.37187 179.348 6.7125C179.348 10.7719 181.806 12.54 185.056 13.7456L188.586 15.0319C190.767 15.8756 191.996 16.6406 191.996 18.57C191.996 20.7806 190.053 21.7856 187.277 21.7856C184.423 21.7856 181.766 20.7413 179.546 18.9319V23.3119Z" fill="#384046"/>
</svg>
