<svg width="41" height="41" viewBox="0 0 41 41" fill="none" xmlns="http://www.w3.org/2000/svg">
<path d="M0.199219 0.634212C10.7516 -0.807434 23.3222 1.16462 31.436 9.20728C39.5498 17.2483 41.5194 29.7752 40.0632 40.2338C40.1942 30.135 34.8109 21.1399 27.1692 13.5686C19.5317 5.99571 10.3886 0.505652 0.199219 0.634212Z" fill="white"/>
<path d="M12.6234 13.7583V16.8955H9.71506V24.3673H6.41374V16.8955H3.50781V13.7583H12.6234Z" fill="white"/>
<path d="M10.9277 19.8767H15.8179L16.9401 25.6837H17.0016L18.0737 19.8767H22.9517V30.4881H19.994V22.1528H19.9212L18.2209 30.4881H15.4726L13.8223 22.1528H13.7358V30.4881H10.9277V19.8767Z" fill="white"/>
<path d="M27.5552 30.1661H27.6062L29.638 25.998H33.397L30.4886 30.969L33.6671 36.6079H29.7254L27.6062 32.1058H27.5552V36.6079H24.2539V25.998H27.5552V30.1661Z" fill="white"/>
</svg>
